# Tiled2Unity generated file. Do not modify by hand.
# Wavefront file for 'tilemaptest_mesh_0002.obj'

# Vertices (Count = 720)
v 0 -1 0
v -1 -1 0
v -1 0 0
v 0 0 0
v -1 -1 0
v -2 -1 0
v -2 0 0
v -1 0 0
v -2 -1 0
v -3 -1 0
v -3 0 0
v -2 0 0
v -3 -1 0
v -4 -1 0
v -4 0 0
v -3 0 0
v -4 -1 0
v -5 -1 0
v -5 0 0
v -4 0 0
v -5 -1 0
v -6 -1 0
v -6 0 0
v -5 0 0
v -6 -1 0
v -7 -1 0
v -7 0 0
v -6 0 0
v -7 -1 0
v -8 -1 0
v -8 0 0
v -7 0 0
v -8 -1 0
v -9 -1 0
v -9 0 0
v -8 0 0
v -9 -1 0
v -10 -1 0
v -10 0 0
v -9 0 0
v -10 -1 0
v -11 -1 0
v -11 0 0
v -10 0 0
v -11 -1 0
v -12 -1 0
v -12 0 0
v -11 0 0
v -12 -1 0
v -13 -1 0
v -13 0 0
v -12 0 0
v -13 -1 0
v -14 -1 0
v -14 0 0
v -13 0 0
v -14 -1 0
v -15 -1 0
v -15 0 0
v -14 0 0
v -15 -1 0
v -16 -1 0
v -16 0 0
v -15 0 0
v -16 -1 0
v -17 -1 0
v -17 0 0
v -16 0 0
v -17 -1 0
v -18 -1 0
v -18 0 0
v -17 0 0
v -18 -1 0
v -19 -1 0
v -19 0 0
v -18 0 0
v -19 -1 0
v -20 -1 0
v -20 0 0
v -19 0 0
v -20 -1 0
v -21 -1 0
v -21 0 0
v -20 0 0
v -21 -1 0
v -22 -1 0
v -22 0 0
v -21 0 0
v -22 -1 0
v -23 -1 0
v -23 0 0
v -22 0 0
v -23 -1 0
v -24 -1 0
v -24 0 0
v -23 0 0
v -24 -1 0
v -25 -1 0
v -25 0 0
v -24 0 0
v -25 -1 0
v -26 -1 0
v -26 0 0
v -25 0 0
v -26 -1 0
v -27 -1 0
v -27 0 0
v -26 0 0
v -27 -1 0
v -28 -1 0
v -28 0 0
v -27 0 0
v -28 -1 0
v -29 -1 0
v -29 0 0
v -28 0 0
v -29 -1 0
v -30 -1 0
v -30 0 0
v -29 0 0
v 0 -2 0
v -1 -2 0
v -1 -1 0
v 0 -1 0
v -1 -2 0
v -2 -2 0
v -2 -1 0
v -1 -1 0
v -2 -2 0
v -3 -2 0
v -3 -1 0
v -2 -1 0
v -3 -2 0
v -4 -2 0
v -4 -1 0
v -3 -1 0
v -4 -2 0
v -5 -2 0
v -5 -1 0
v -4 -1 0
v -5 -2 0
v -6 -2 0
v -6 -1 0
v -5 -1 0
v -6 -2 0
v -7 -2 0
v -7 -1 0
v -6 -1 0
v -7 -2 0
v -8 -2 0
v -8 -1 0
v -7 -1 0
v -8 -2 0
v -9 -2 0
v -9 -1 0
v -8 -1 0
v -9 -2 0
v -10 -2 0
v -10 -1 0
v -9 -1 0
v -10 -2 0
v -11 -2 0
v -11 -1 0
v -10 -1 0
v -11 -2 0
v -12 -2 0
v -12 -1 0
v -11 -1 0
v -12 -2 0
v -13 -2 0
v -13 -1 0
v -12 -1 0
v -13 -2 0
v -14 -2 0
v -14 -1 0
v -13 -1 0
v -14 -2 0
v -15 -2 0
v -15 -1 0
v -14 -1 0
v -15 -2 0
v -16 -2 0
v -16 -1 0
v -15 -1 0
v -16 -2 0
v -17 -2 0
v -17 -1 0
v -16 -1 0
v -17 -2 0
v -18 -2 0
v -18 -1 0
v -17 -1 0
v -18 -2 0
v -19 -2 0
v -19 -1 0
v -18 -1 0
v -19 -2 0
v -20 -2 0
v -20 -1 0
v -19 -1 0
v -20 -2 0
v -21 -2 0
v -21 -1 0
v -20 -1 0
v -21 -2 0
v -22 -2 0
v -22 -1 0
v -21 -1 0
v -22 -2 0
v -23 -2 0
v -23 -1 0
v -22 -1 0
v -23 -2 0
v -24 -2 0
v -24 -1 0
v -23 -1 0
v -24 -2 0
v -25 -2 0
v -25 -1 0
v -24 -1 0
v -25 -2 0
v -26 -2 0
v -26 -1 0
v -25 -1 0
v -26 -2 0
v -27 -2 0
v -27 -1 0
v -26 -1 0
v -27 -2 0
v -28 -2 0
v -28 -1 0
v -27 -1 0
v -28 -2 0
v -29 -2 0
v -29 -1 0
v -28 -1 0
v -29 -2 0
v -30 -2 0
v -30 -1 0
v -29 -1 0
v 0 -3 0
v -1 -3 0
v -1 -2 0
v 0 -2 0
v -1 -3 0
v -2 -3 0
v -2 -2 0
v -1 -2 0
v -2 -3 0
v -3 -3 0
v -3 -2 0
v -2 -2 0
v -3 -3 0
v -4 -3 0
v -4 -2 0
v -3 -2 0
v -4 -3 0
v -5 -3 0
v -5 -2 0
v -4 -2 0
v -5 -3 0
v -6 -3 0
v -6 -2 0
v -5 -2 0
v -6 -3 0
v -7 -3 0
v -7 -2 0
v -6 -2 0
v -7 -3 0
v -8 -3 0
v -8 -2 0
v -7 -2 0
v -8 -3 0
v -9 -3 0
v -9 -2 0
v -8 -2 0
v -9 -3 0
v -10 -3 0
v -10 -2 0
v -9 -2 0
v -10 -3 0
v -11 -3 0
v -11 -2 0
v -10 -2 0
v -11 -3 0
v -12 -3 0
v -12 -2 0
v -11 -2 0
v -12 -3 0
v -13 -3 0
v -13 -2 0
v -12 -2 0
v -13 -3 0
v -14 -3 0
v -14 -2 0
v -13 -2 0
v -14 -3 0
v -15 -3 0
v -15 -2 0
v -14 -2 0
v -15 -3 0
v -16 -3 0
v -16 -2 0
v -15 -2 0
v -16 -3 0
v -17 -3 0
v -17 -2 0
v -16 -2 0
v -17 -3 0
v -18 -3 0
v -18 -2 0
v -17 -2 0
v -18 -3 0
v -19 -3 0
v -19 -2 0
v -18 -2 0
v -19 -3 0
v -20 -3 0
v -20 -2 0
v -19 -2 0
v -20 -3 0
v -21 -3 0
v -21 -2 0
v -20 -2 0
v -21 -3 0
v -22 -3 0
v -22 -2 0
v -21 -2 0
v -22 -3 0
v -23 -3 0
v -23 -2 0
v -22 -2 0
v -23 -3 0
v -24 -3 0
v -24 -2 0
v -23 -2 0
v -24 -3 0
v -25 -3 0
v -25 -2 0
v -24 -2 0
v -25 -3 0
v -26 -3 0
v -26 -2 0
v -25 -2 0
v -26 -3 0
v -27 -3 0
v -27 -2 0
v -26 -2 0
v -27 -3 0
v -28 -3 0
v -28 -2 0
v -27 -2 0
v -28 -3 0
v -29 -3 0
v -29 -2 0
v -28 -2 0
v -29 -3 0
v -30 -3 0
v -30 -2 0
v -29 -2 0
v 0 -4 0
v -1 -4 0
v -1 -3 0
v 0 -3 0
v -1 -4 0
v -2 -4 0
v -2 -3 0
v -1 -3 0
v -2 -4 0
v -3 -4 0
v -3 -3 0
v -2 -3 0
v -3 -4 0
v -4 -4 0
v -4 -3 0
v -3 -3 0
v -4 -4 0
v -5 -4 0
v -5 -3 0
v -4 -3 0
v -5 -4 0
v -6 -4 0
v -6 -3 0
v -5 -3 0
v -6 -4 0
v -7 -4 0
v -7 -3 0
v -6 -3 0
v -7 -4 0
v -8 -4 0
v -8 -3 0
v -7 -3 0
v -8 -4 0
v -9 -4 0
v -9 -3 0
v -8 -3 0
v -9 -4 0
v -10 -4 0
v -10 -3 0
v -9 -3 0
v -10 -4 0
v -11 -4 0
v -11 -3 0
v -10 -3 0
v -11 -4 0
v -12 -4 0
v -12 -3 0
v -11 -3 0
v -12 -4 0
v -13 -4 0
v -13 -3 0
v -12 -3 0
v -13 -4 0
v -14 -4 0
v -14 -3 0
v -13 -3 0
v -14 -4 0
v -15 -4 0
v -15 -3 0
v -14 -3 0
v -15 -4 0
v -16 -4 0
v -16 -3 0
v -15 -3 0
v -16 -4 0
v -17 -4 0
v -17 -3 0
v -16 -3 0
v -17 -4 0
v -18 -4 0
v -18 -3 0
v -17 -3 0
v -18 -4 0
v -19 -4 0
v -19 -3 0
v -18 -3 0
v -19 -4 0
v -20 -4 0
v -20 -3 0
v -19 -3 0
v -20 -4 0
v -21 -4 0
v -21 -3 0
v -20 -3 0
v -21 -4 0
v -22 -4 0
v -22 -3 0
v -21 -3 0
v -22 -4 0
v -23 -4 0
v -23 -3 0
v -22 -3 0
v -23 -4 0
v -24 -4 0
v -24 -3 0
v -23 -3 0
v -24 -4 0
v -25 -4 0
v -25 -3 0
v -24 -3 0
v -25 -4 0
v -26 -4 0
v -26 -3 0
v -25 -3 0
v -26 -4 0
v -27 -4 0
v -27 -3 0
v -26 -3 0
v -27 -4 0
v -28 -4 0
v -28 -3 0
v -27 -3 0
v -28 -4 0
v -29 -4 0
v -29 -3 0
v -28 -3 0
v -29 -4 0
v -30 -4 0
v -30 -3 0
v -29 -3 0
v 0 -5 0
v -1 -5 0
v -1 -4 0
v 0 -4 0
v -1 -5 0
v -2 -5 0
v -2 -4 0
v -1 -4 0
v -2 -5 0
v -3 -5 0
v -3 -4 0
v -2 -4 0
v -3 -5 0
v -4 -5 0
v -4 -4 0
v -3 -4 0
v -4 -5 0
v -5 -5 0
v -5 -4 0
v -4 -4 0
v -5 -5 0
v -6 -5 0
v -6 -4 0
v -5 -4 0
v -6 -5 0
v -7 -5 0
v -7 -4 0
v -6 -4 0
v -7 -5 0
v -8 -5 0
v -8 -4 0
v -7 -4 0
v -8 -5 0
v -9 -5 0
v -9 -4 0
v -8 -4 0
v -9 -5 0
v -10 -5 0
v -10 -4 0
v -9 -4 0
v -10 -5 0
v -11 -5 0
v -11 -4 0
v -10 -4 0
v -11 -5 0
v -12 -5 0
v -12 -4 0
v -11 -4 0
v -12 -5 0
v -13 -5 0
v -13 -4 0
v -12 -4 0
v -13 -5 0
v -14 -5 0
v -14 -4 0
v -13 -4 0
v -14 -5 0
v -15 -5 0
v -15 -4 0
v -14 -4 0
v -15 -5 0
v -16 -5 0
v -16 -4 0
v -15 -4 0
v -16 -5 0
v -17 -5 0
v -17 -4 0
v -16 -4 0
v -17 -5 0
v -18 -5 0
v -18 -4 0
v -17 -4 0
v -18 -5 0
v -19 -5 0
v -19 -4 0
v -18 -4 0
v -19 -5 0
v -20 -5 0
v -20 -4 0
v -19 -4 0
v -20 -5 0
v -21 -5 0
v -21 -4 0
v -20 -4 0
v -21 -5 0
v -22 -5 0
v -22 -4 0
v -21 -4 0
v -22 -5 0
v -23 -5 0
v -23 -4 0
v -22 -4 0
v -23 -5 0
v -24 -5 0
v -24 -4 0
v -23 -4 0
v -24 -5 0
v -25 -5 0
v -25 -4 0
v -24 -4 0
v -25 -5 0
v -26 -5 0
v -26 -4 0
v -25 -4 0
v -26 -5 0
v -27 -5 0
v -27 -4 0
v -26 -4 0
v -27 -5 0
v -28 -5 0
v -28 -4 0
v -27 -4 0
v -28 -5 0
v -29 -5 0
v -29 -4 0
v -28 -4 0
v -29 -5 0
v -30 -5 0
v -30 -4 0
v -29 -4 0
v 0 -6 0
v -1 -6 0
v -1 -5 0
v 0 -5 0
v -1 -6 0
v -2 -6 0
v -2 -5 0
v -1 -5 0
v -2 -6 0
v -3 -6 0
v -3 -5 0
v -2 -5 0
v -3 -6 0
v -4 -6 0
v -4 -5 0
v -3 -5 0
v -4 -6 0
v -5 -6 0
v -5 -5 0
v -4 -5 0
v -5 -6 0
v -6 -6 0
v -6 -5 0
v -5 -5 0
v -6 -6 0
v -7 -6 0
v -7 -5 0
v -6 -5 0
v -7 -6 0
v -8 -6 0
v -8 -5 0
v -7 -5 0
v -8 -6 0
v -9 -6 0
v -9 -5 0
v -8 -5 0
v -9 -6 0
v -10 -6 0
v -10 -5 0
v -9 -5 0
v -10 -6 0
v -11 -6 0
v -11 -5 0
v -10 -5 0
v -11 -6 0
v -12 -6 0
v -12 -5 0
v -11 -5 0
v -12 -6 0
v -13 -6 0
v -13 -5 0
v -12 -5 0
v -13 -6 0
v -14 -6 0
v -14 -5 0
v -13 -5 0
v -14 -6 0
v -15 -6 0
v -15 -5 0
v -14 -5 0
v -15 -6 0
v -16 -6 0
v -16 -5 0
v -15 -5 0
v -16 -6 0
v -17 -6 0
v -17 -5 0
v -16 -5 0
v -17 -6 0
v -18 -6 0
v -18 -5 0
v -17 -5 0
v -18 -6 0
v -19 -6 0
v -19 -5 0
v -18 -5 0
v -19 -6 0
v -20 -6 0
v -20 -5 0
v -19 -5 0
v -20 -6 0
v -21 -6 0
v -21 -5 0
v -20 -5 0
v -21 -6 0
v -22 -6 0
v -22 -5 0
v -21 -5 0
v -22 -6 0
v -23 -6 0
v -23 -5 0
v -22 -5 0
v -23 -6 0
v -24 -6 0
v -24 -5 0
v -23 -5 0
v -24 -6 0
v -25 -6 0
v -25 -5 0
v -24 -5 0
v -25 -6 0
v -26 -6 0
v -26 -5 0
v -25 -5 0
v -26 -6 0
v -27 -6 0
v -27 -5 0
v -26 -5 0
v -27 -6 0
v -28 -6 0
v -28 -5 0
v -27 -5 0
v -28 -6 0
v -29 -6 0
v -29 -5 0
v -28 -5 0
v -29 -6 0
v -30 -6 0
v -30 -5 0
v -29 -5 0

# Texture cooridinates (Count = 49)
vt 0 0.3333333
vt 0.05555556 0.3333333
vt 0.05555556 0.4
vt 0 0.4
vt 0.1111111 0.3333333
vt 0.1111111 0.4
vt 0.1666667 0.3333333
vt 0.1666667 0.4
vt 0.2222222 0.3333333
vt 0.2222222 0.4
vt 0.2777778 0.3333333
vt 0.2777778 0.4
vt 0.3333333 0.3333333
vt 0.3333333 0.4
vt 0 0.2666667
vt 0.05555556 0.2666667
vt 0.1111111 0.2666667
vt 0.1666667 0.2666667
vt 0.2222222 0.2666667
vt 0.2777778 0.2666667
vt 0.3333333 0.2666667
vt 0 0.2
vt 0.05555556 0.2
vt 0.1111111 0.2
vt 0.1666667 0.2
vt 0.2222222 0.2
vt 0.2777778 0.2
vt 0.3333333 0.2
vt 0 0.1333333
vt 0.05555556 0.1333333
vt 0.1111111 0.1333333
vt 0.1666667 0.1333333
vt 0.2222222 0.1333333
vt 0.2777778 0.1333333
vt 0.3333333 0.1333333
vt 0 0.06666666
vt 0.05555556 0.06666666
vt 0.1111111 0.06666666
vt 0.1666667 0.06666666
vt 0.2222222 0.06666666
vt 0.2777778 0.06666666
vt 0.3333333 0.06666666
vt 0 0
vt 0.05555556 0
vt 0.1111111 0
vt 0.1666667 0
vt 0.2222222 0
vt 0.2777778 0
vt 0.3333333 0

# Normal
vn 0 0 -1

# Mesh description
g tilemaptest_mesh_0002

# Faces
f 1/1/1 2/2/1 3/3/1 4/4/1
f 5/2/1 6/5/1 7/6/1 8/3/1
f 9/5/1 10/7/1 11/8/1 12/6/1
f 13/7/1 14/9/1 15/10/1 16/8/1
f 17/9/1 18/11/1 19/12/1 20/10/1
f 21/11/1 22/13/1 23/14/1 24/12/1
f 25/1/1 26/2/1 27/3/1 28/4/1
f 29/2/1 30/5/1 31/6/1 32/3/1
f 33/5/1 34/7/1 35/8/1 36/6/1
f 37/7/1 38/9/1 39/10/1 40/8/1
f 41/9/1 42/11/1 43/12/1 44/10/1
f 45/11/1 46/13/1 47/14/1 48/12/1
f 49/1/1 50/2/1 51/3/1 52/4/1
f 53/2/1 54/5/1 55/6/1 56/3/1
f 57/5/1 58/7/1 59/8/1 60/6/1
f 61/7/1 62/9/1 63/10/1 64/8/1
f 65/9/1 66/11/1 67/12/1 68/10/1
f 69/11/1 70/13/1 71/14/1 72/12/1
f 73/1/1 74/2/1 75/3/1 76/4/1
f 77/2/1 78/5/1 79/6/1 80/3/1
f 81/5/1 82/7/1 83/8/1 84/6/1
f 85/7/1 86/9/1 87/10/1 88/8/1
f 89/9/1 90/11/1 91/12/1 92/10/1
f 93/11/1 94/13/1 95/14/1 96/12/1
f 97/1/1 98/2/1 99/3/1 100/4/1
f 101/2/1 102/5/1 103/6/1 104/3/1
f 105/5/1 106/7/1 107/8/1 108/6/1
f 109/7/1 110/9/1 111/10/1 112/8/1
f 113/9/1 114/11/1 115/12/1 116/10/1
f 117/11/1 118/13/1 119/14/1 120/12/1
f 121/15/1 122/16/1 123/2/1 124/1/1
f 125/16/1 126/17/1 127/5/1 128/2/1
f 129/17/1 130/18/1 131/7/1 132/5/1
f 133/18/1 134/19/1 135/9/1 136/7/1
f 137/19/1 138/20/1 139/11/1 140/9/1
f 141/20/1 142/21/1 143/13/1 144/11/1
f 145/15/1 146/16/1 147/2/1 148/1/1
f 149/16/1 150/17/1 151/5/1 152/2/1
f 153/17/1 154/18/1 155/7/1 156/5/1
f 157/18/1 158/19/1 159/9/1 160/7/1
f 161/19/1 162/20/1 163/11/1 164/9/1
f 165/20/1 166/21/1 167/13/1 168/11/1
f 169/15/1 170/16/1 171/2/1 172/1/1
f 173/16/1 174/17/1 175/5/1 176/2/1
f 177/17/1 178/18/1 179/7/1 180/5/1
f 181/18/1 182/19/1 183/9/1 184/7/1
f 185/19/1 186/20/1 187/11/1 188/9/1
f 189/20/1 190/21/1 191/13/1 192/11/1
f 193/15/1 194/16/1 195/2/1 196/1/1
f 197/16/1 198/17/1 199/5/1 200/2/1
f 201/17/1 202/18/1 203/7/1 204/5/1
f 205/18/1 206/19/1 207/9/1 208/7/1
f 209/19/1 210/20/1 211/11/1 212/9/1
f 213/20/1 214/21/1 215/13/1 216/11/1
f 217/15/1 218/16/1 219/2/1 220/1/1
f 221/16/1 222/17/1 223/5/1 224/2/1
f 225/17/1 226/18/1 227/7/1 228/5/1
f 229/18/1 230/19/1 231/9/1 232/7/1
f 233/19/1 234/20/1 235/11/1 236/9/1
f 237/20/1 238/21/1 239/13/1 240/11/1
f 241/22/1 242/23/1 243/16/1 244/15/1
f 245/23/1 246/24/1 247/17/1 248/16/1
f 249/24/1 250/25/1 251/18/1 252/17/1
f 253/25/1 254/26/1 255/19/1 256/18/1
f 257/26/1 258/27/1 259/20/1 260/19/1
f 261/27/1 262/28/1 263/21/1 264/20/1
f 265/22/1 266/23/1 267/16/1 268/15/1
f 269/23/1 270/24/1 271/17/1 272/16/1
f 273/24/1 274/25/1 275/18/1 276/17/1
f 277/25/1 278/26/1 279/19/1 280/18/1
f 281/26/1 282/27/1 283/20/1 284/19/1
f 285/27/1 286/28/1 287/21/1 288/20/1
f 289/22/1 290/23/1 291/16/1 292/15/1
f 293/23/1 294/24/1 295/17/1 296/16/1
f 297/24/1 298/25/1 299/18/1 300/17/1
f 301/25/1 302/26/1 303/19/1 304/18/1
f 305/26/1 306/27/1 307/20/1 308/19/1
f 309/27/1 310/28/1 311/21/1 312/20/1
f 313/22/1 314/23/1 315/16/1 316/15/1
f 317/23/1 318/24/1 319/17/1 320/16/1
f 321/24/1 322/25/1 323/18/1 324/17/1
f 325/25/1 326/26/1 327/19/1 328/18/1
f 329/26/1 330/27/1 331/20/1 332/19/1
f 333/27/1 334/28/1 335/21/1 336/20/1
f 337/22/1 338/23/1 339/16/1 340/15/1
f 341/23/1 342/24/1 343/17/1 344/16/1
f 345/24/1 346/25/1 347/18/1 348/17/1
f 349/25/1 350/26/1 351/19/1 352/18/1
f 353/26/1 354/27/1 355/20/1 356/19/1
f 357/27/1 358/28/1 359/21/1 360/20/1
f 361/29/1 362/30/1 363/23/1 364/22/1
f 365/30/1 366/31/1 367/24/1 368/23/1
f 369/31/1 370/32/1 371/25/1 372/24/1
f 373/32/1 374/33/1 375/26/1 376/25/1
f 377/33/1 378/34/1 379/27/1 380/26/1
f 381/34/1 382/35/1 383/28/1 384/27/1
f 385/29/1 386/30/1 387/23/1 388/22/1
f 389/30/1 390/31/1 391/24/1 392/23/1
f 393/31/1 394/32/1 395/25/1 396/24/1
f 397/32/1 398/33/1 399/26/1 400/25/1
f 401/33/1 402/34/1 403/27/1 404/26/1
f 405/34/1 406/35/1 407/28/1 408/27/1
f 409/29/1 410/30/1 411/23/1 412/22/1
f 413/30/1 414/31/1 415/24/1 416/23/1
f 417/31/1 418/32/1 419/25/1 420/24/1
f 421/32/1 422/33/1 423/26/1 424/25/1
f 425/33/1 426/34/1 427/27/1 428/26/1
f 429/34/1 430/35/1 431/28/1 432/27/1
f 433/29/1 434/30/1 435/23/1 436/22/1
f 437/30/1 438/31/1 439/24/1 440/23/1
f 441/31/1 442/32/1 443/25/1 444/24/1
f 445/32/1 446/33/1 447/26/1 448/25/1
f 449/33/1 450/34/1 451/27/1 452/26/1
f 453/34/1 454/35/1 455/28/1 456/27/1
f 457/29/1 458/30/1 459/23/1 460/22/1
f 461/30/1 462/31/1 463/24/1 464/23/1
f 465/31/1 466/32/1 467/25/1 468/24/1
f 469/32/1 470/33/1 471/26/1 472/25/1
f 473/33/1 474/34/1 475/27/1 476/26/1
f 477/34/1 478/35/1 479/28/1 480/27/1
f 481/36/1 482/37/1 483/30/1 484/29/1
f 485/37/1 486/38/1 487/31/1 488/30/1
f 489/38/1 490/39/1 491/32/1 492/31/1
f 493/39/1 494/40/1 495/33/1 496/32/1
f 497/40/1 498/41/1 499/34/1 500/33/1
f 501/41/1 502/42/1 503/35/1 504/34/1
f 505/36/1 506/37/1 507/30/1 508/29/1
f 509/37/1 510/38/1 511/31/1 512/30/1
f 513/38/1 514/39/1 515/32/1 516/31/1
f 517/39/1 518/40/1 519/33/1 520/32/1
f 521/40/1 522/41/1 523/34/1 524/33/1
f 525/41/1 526/42/1 527/35/1 528/34/1
f 529/36/1 530/37/1 531/30/1 532/29/1
f 533/37/1 534/38/1 535/31/1 536/30/1
f 537/38/1 538/39/1 539/32/1 540/31/1
f 541/39/1 542/40/1 543/33/1 544/32/1
f 545/40/1 546/41/1 547/34/1 548/33/1
f 549/41/1 550/42/1 551/35/1 552/34/1
f 553/36/1 554/37/1 555/30/1 556/29/1
f 557/37/1 558/38/1 559/31/1 560/30/1
f 561/38/1 562/39/1 563/32/1 564/31/1
f 565/39/1 566/40/1 567/33/1 568/32/1
f 569/40/1 570/41/1 571/34/1 572/33/1
f 573/41/1 574/42/1 575/35/1 576/34/1
f 577/36/1 578/37/1 579/30/1 580/29/1
f 581/37/1 582/38/1 583/31/1 584/30/1
f 585/38/1 586/39/1 587/32/1 588/31/1
f 589/39/1 590/40/1 591/33/1 592/32/1
f 593/40/1 594/41/1 595/34/1 596/33/1
f 597/41/1 598/42/1 599/35/1 600/34/1
f 601/43/1 602/44/1 603/37/1 604/36/1
f 605/44/1 606/45/1 607/38/1 608/37/1
f 609/45/1 610/46/1 611/39/1 612/38/1
f 613/46/1 614/47/1 615/40/1 616/39/1
f 617/47/1 618/48/1 619/41/1 620/40/1
f 621/48/1 622/49/1 623/42/1 624/41/1
f 625/43/1 626/44/1 627/37/1 628/36/1
f 629/44/1 630/45/1 631/38/1 632/37/1
f 633/45/1 634/46/1 635/39/1 636/38/1
f 637/46/1 638/47/1 639/40/1 640/39/1
f 641/47/1 642/48/1 643/41/1 644/40/1
f 645/48/1 646/49/1 647/42/1 648/41/1
f 649/43/1 650/44/1 651/37/1 652/36/1
f 653/44/1 654/45/1 655/38/1 656/37/1
f 657/45/1 658/46/1 659/39/1 660/38/1
f 661/46/1 662/47/1 663/40/1 664/39/1
f 665/47/1 666/48/1 667/41/1 668/40/1
f 669/48/1 670/49/1 671/42/1 672/41/1
f 673/43/1 674/44/1 675/37/1 676/36/1
f 677/44/1 678/45/1 679/38/1 680/37/1
f 681/45/1 682/46/1 683/39/1 684/38/1
f 685/46/1 686/47/1 687/40/1 688/39/1
f 689/47/1 690/48/1 691/41/1 692/40/1
f 693/48/1 694/49/1 695/42/1 696/41/1
f 697/43/1 698/44/1 699/37/1 700/36/1
f 701/44/1 702/45/1 703/38/1 704/37/1
f 705/45/1 706/46/1 707/39/1 708/38/1
f 709/46/1 710/47/1 711/40/1 712/39/1
f 713/47/1 714/48/1 715/41/1 716/40/1
f 717/48/1 718/49/1 719/42/1 720/41/1

