# Tiled2Unity generated file. Do not modify by hand.
# Wavefront file for 'SecondMap_1_mesh_0009.obj'

# Vertices (Count = 88)
v -5 -25 0
v -6.03125 -25 0
v -6.03125 -23.96875 0
v -5 -23.96875 0
v -6 -25 0
v -7.03125 -25 0
v -7.03125 -23.96875 0
v -6 -23.96875 0
v -7 -25 0
v -8.03125 -25 0
v -8.03125 -23.96875 0
v -7 -23.96875 0
v -8 -25 0
v -9.03125 -25 0
v -9.03125 -23.96875 0
v -8 -23.96875 0
v -5 -26 0
v -6.03125 -26 0
v -6.03125 -24.96875 0
v -5 -24.96875 0
v -6 -26 0
v -7.03125 -26 0
v -7.03125 -24.96875 0
v -6 -24.96875 0
v -7 -26 0
v -8.03125 -26 0
v -8.03125 -24.96875 0
v -7 -24.96875 0
v -8 -26 0
v -9.03125 -26 0
v -9.03125 -24.96875 0
v -8 -24.96875 0
v -5 -27 0
v -6.03125 -27 0
v -6.03125 -25.96875 0
v -5 -25.96875 0
v -6 -27 0
v -7.03125 -27 0
v -7.03125 -25.96875 0
v -6 -25.96875 0
v -7 -27 0
v -8.03125 -27 0
v -8.03125 -25.96875 0
v -7 -25.96875 0
v -8 -27 0
v -9.03125 -27 0
v -9.03125 -25.96875 0
v -8 -25.96875 0
v -3 -33 0
v -4.03125 -33 0
v -4.03125 -31.96875 0
v -3 -31.96875 0
v -4 -33 0
v -5.03125 -33 0
v -5.03125 -31.96875 0
v -4 -31.96875 0
v -3 -34 0
v -4.03125 -34 0
v -4.03125 -32.96875 0
v -3 -32.96875 0
v -4 -34 0
v -5.03125 -34 0
v -5.03125 -32.96875 0
v -4 -32.96875 0
v -7 -37 0
v -8.03125 -37 0
v -8.03125 -35.96875 0
v -7 -35.96875 0
v -8 -37 0
v -9.03125 -37 0
v -9.03125 -35.96875 0
v -8 -35.96875 0
v -7 -38 0
v -8.03125 -38 0
v -8.03125 -36.96875 0
v -7 -36.96875 0
v -8 -38 0
v -9.03125 -38 0
v -9.03125 -36.96875 0
v -8 -36.96875 0
v -7 -39 0
v -8.03125 -39 0
v -8.03125 -37.96875 0
v -7 -37.96875 0
v -8 -39 0
v -9.03125 -39 0
v -9.03125 -37.96875 0
v -8 -37.96875 0

# Texture cooridinates (Count = 41)
vt 0 0.4375
vt 0.0625 0.4375
vt 0.0625 0.484375
vt 0 0.484375
vt 0.125 0.4375
vt 0.125 0.484375
vt 0.1875 0.4375
vt 0.1875 0.484375
vt 0.25 0.4375
vt 0.25 0.484375
vt 0 0.390625
vt 0.0625 0.390625
vt 0.125 0.390625
vt 0.1875 0.390625
vt 0.25 0.390625
vt 0 0.34375
vt 0.0625 0.34375
vt 0.125 0.34375
vt 0.1875 0.34375
vt 0.25 0.34375
vt 0.875 0.953125
vt 0.8125 0.953125
vt 0.8125 1
vt 0.875 1
vt 0.75 0.953125
vt 0.75 1
vt 0.875 0.90625
vt 0.8125 0.90625
vt 0.75 0.90625
vt 0.625 0.109375
vt 0.6875 0.109375
vt 0.6875 0.15625
vt 0.625 0.15625
vt 0.75 0.109375
vt 0.75 0.15625
vt 0.625 0.0625
vt 0.6875 0.0625
vt 0.75 0.0625
vt 0.625 0.015625
vt 0.6875 0.015625
vt 0.75 0.015625

# Normal
vn 0 0 -1

# Mesh description
g SecondMap_1_mesh_0009

# Faces
f 1/1/1 2/2/1 3/3/1 4/4/1
f 5/2/1 6/5/1 7/6/1 8/3/1
f 9/5/1 10/7/1 11/8/1 12/6/1
f 13/7/1 14/9/1 15/10/1 16/8/1
f 17/11/1 18/12/1 19/2/1 20/1/1
f 21/12/1 22/13/1 23/5/1 24/2/1
f 25/13/1 26/14/1 27/7/1 28/5/1
f 29/14/1 30/15/1 31/9/1 32/7/1
f 33/16/1 34/17/1 35/12/1 36/11/1
f 37/17/1 38/18/1 39/13/1 40/12/1
f 41/18/1 42/19/1 43/14/1 44/13/1
f 45/19/1 46/20/1 47/15/1 48/14/1
f 49/21/1 50/22/1 51/23/1 52/24/1
f 53/22/1 54/25/1 55/26/1 56/23/1
f 57/27/1 58/28/1 59/22/1 60/21/1
f 61/28/1 62/29/1 63/25/1 64/22/1
f 65/30/1 66/31/1 67/32/1 68/33/1
f 69/31/1 70/34/1 71/35/1 72/32/1
f 73/36/1 74/37/1 75/31/1 76/30/1
f 77/37/1 78/38/1 79/34/1 80/31/1
f 81/39/1 82/40/1 83/37/1 84/36/1
f 85/40/1 86/41/1 87/38/1 88/37/1

