# Tiled2Unity generated file. Do not modify by hand.
# Wavefront file for 'SecondMap_1_mesh_0015.obj'

# Vertices (Count = 80)
v -23 -20 0
v -24 -20 0
v -24 -19 0
v -23 -19 0
v -24 -20 0
v -25 -20 0
v -25 -19 0
v -24 -19 0
v -25 -20 0
v -26 -20 0
v -26 -19 0
v -25 -19 0
v -26 -20 0
v -27 -20 0
v -27 -19 0
v -26 -19 0
v -27 -20 0
v -28 -20 0
v -28 -19 0
v -27 -19 0
v -28 -20 0
v -29 -20 0
v -29 -19 0
v -28 -19 0
v -23 -21 0
v -24 -21 0
v -24 -20 0
v -23 -20 0
v -24 -21 0
v -25 -21 0
v -25 -20 0
v -24 -20 0
v -25 -21 0
v -26 -21 0
v -26 -20 0
v -25 -20 0
v -26 -21 0
v -27 -21 0
v -27 -20 0
v -26 -20 0
v -27 -21 0
v -28 -21 0
v -28 -20 0
v -27 -20 0
v -28 -21 0
v -29 -21 0
v -29 -20 0
v -28 -20 0
v -29 -21 0
v -30 -21 0
v -30 -20 0
v -29 -20 0
v -23 -22 0
v -24 -22 0
v -24 -21 0
v -23 -21 0
v -24 -22 0
v -25 -22 0
v -25 -21 0
v -24 -21 0
v -25 -22 0
v -26 -22 0
v -26 -21 0
v -25 -21 0
v -26 -22 0
v -27 -22 0
v -27 -21 0
v -26 -21 0
v -27 -22 0
v -28 -22 0
v -28 -21 0
v -27 -21 0
v -28 -22 0
v -29 -22 0
v -29 -21 0
v -28 -21 0
v -29 -22 0
v -30 -22 0
v -30 -21 0
v -29 -21 0

# Texture cooridinates (Count = 15)
vt 0.875 0.4583333
vt 0.9166667 0.4583333
vt 0.9166667 0.5
vt 0.875 0.5
vt 0.9583333 0.4583333
vt 0.9583333 0.5
vt 0.875 0.4166667
vt 0.9166667 0.4166667
vt 0.9583333 0.4166667
vt 1 0.4166667
vt 1 0.4583333
vt 0.875 0.375
vt 0.9166667 0.375
vt 0.9583333 0.375
vt 1 0.375

# Normal
vn 0 0 -1

# Mesh description
g SecondMap_1_mesh_0015

# Faces
f 1/1/1 2/2/1 3/3/1 4/4/1
f 5/2/1 6/5/1 7/6/1 8/3/1
f 9/2/1 10/5/1 11/6/1 12/3/1
f 13/2/1 14/5/1 15/6/1 16/3/1
f 17/2/1 18/5/1 19/6/1 20/3/1
f 21/2/1 22/5/1 23/6/1 24/3/1
f 25/7/1 26/8/1 27/2/1 28/1/1
f 29/8/1 30/9/1 31/5/1 32/2/1
f 33/8/1 34/9/1 35/5/1 36/2/1
f 37/8/1 38/9/1 39/5/1 40/2/1
f 41/8/1 42/9/1 43/5/1 44/2/1
f 45/8/1 46/9/1 47/5/1 48/2/1
f 49/9/1 50/10/1 51/11/1 52/5/1
f 53/12/1 54/13/1 55/8/1 56/7/1
f 57/13/1 58/14/1 59/9/1 60/8/1
f 61/13/1 62/14/1 63/9/1 64/8/1
f 65/13/1 66/14/1 67/9/1 68/8/1
f 69/13/1 70/14/1 71/9/1 72/8/1
f 73/13/1 74/14/1 75/9/1 76/8/1
f 77/14/1 78/15/1 79/10/1 80/9/1

