# Tiled2Unity generated file. Do not modify by hand.
# Wavefront file for 'SecondMap_1_mesh_0014.obj'

# Vertices (Count = 556)
v -20 -19 0
v -21 -19 0
v -21 -18 0
v -20 -18 0
v -21 -19 0
v -22 -19 0
v -22 -18 0
v -21 -18 0
v -20 -20 0
v -21 -20 0
v -21 -19 0
v -20 -19 0
v -21 -20 0
v -22 -20 0
v -22 -19 0
v -21 -19 0
v -14 -21 0
v -15 -21 0
v -15 -20 0
v -14 -20 0
v -20 -21 0
v -21 -21 0
v -21 -20 0
v -20 -20 0
v -21 -21 0
v -22 -21 0
v -22 -20 0
v -21 -20 0
v -40 -21 0
v -41 -21 0
v -41 -20 0
v -40 -20 0
v -14 -22 0
v -15 -22 0
v -15 -21 0
v -14 -21 0
v -40 -22 0
v -41 -22 0
v -41 -21 0
v -40 -21 0
v -30 -24 0
v -31 -24 0
v -31 -23 0
v -30 -23 0
v -31 -24 0
v -32 -24 0
v -32 -23 0
v -31 -23 0
v -32 -24 0
v -33 -24 0
v -33 -23 0
v -32 -23 0
v -33 -24 0
v -34 -24 0
v -34 -23 0
v -33 -23 0
v -34 -24 0
v -35 -24 0
v -35 -23 0
v -34 -23 0
v -35 -24 0
v -36 -24 0
v -36 -23 0
v -35 -23 0
v -36 -24 0
v -37 -24 0
v -37 -23 0
v -36 -23 0
v -37 -24 0
v -38 -24 0
v -38 -23 0
v -37 -23 0
v -38 -24 0
v -39 -24 0
v -39 -23 0
v -38 -23 0
v -30 -25 0
v -31 -25 0
v -31 -24 0
v -30 -24 0
v -31 -25 0
v -32 -25 0
v -32 -24 0
v -31 -24 0
v -32 -25 0
v -33 -25 0
v -33 -24 0
v -32 -24 0
v -33 -25 0
v -34 -25 0
v -34 -24 0
v -33 -24 0
v -34 -25 0
v -35 -25 0
v -35 -24 0
v -34 -24 0
v -35 -25 0
v -36 -25 0
v -36 -24 0
v -35 -24 0
v -36 -25 0
v -37 -25 0
v -37 -24 0
v -36 -24 0
v -37 -25 0
v -38 -25 0
v -38 -24 0
v -37 -24 0
v -38 -25 0
v -39 -25 0
v -39 -24 0
v -38 -24 0
v -30 -26 0
v -31 -26 0
v -31 -25 0
v -30 -25 0
v -31 -26 0
v -32 -26 0
v -32 -25 0
v -31 -25 0
v -32 -26 0
v -33 -26 0
v -33 -25 0
v -32 -25 0
v -33 -26 0
v -34 -26 0
v -34 -25 0
v -33 -25 0
v -34 -26 0
v -35 -26 0
v -35 -25 0
v -34 -25 0
v -35 -26 0
v -36 -26 0
v -36 -25 0
v -35 -25 0
v -36 -26 0
v -37 -26 0
v -37 -25 0
v -36 -25 0
v -37 -26 0
v -38 -26 0
v -38 -25 0
v -37 -25 0
v -38 -26 0
v -39 -26 0
v -39 -25 0
v -38 -25 0
v -30 -27 0
v -31 -27 0
v -31 -26 0
v -30 -26 0
v -31 -27 0
v -32 -27 0
v -32 -26 0
v -31 -26 0
v -32 -27 0
v -33 -27 0
v -33 -26 0
v -32 -26 0
v -33 -27 0
v -34 -27 0
v -34 -26 0
v -33 -26 0
v -34 -27 0
v -35 -27 0
v -35 -26 0
v -34 -26 0
v -35 -27 0
v -36 -27 0
v -36 -26 0
v -35 -26 0
v -36 -27 0
v -37 -27 0
v -37 -26 0
v -36 -26 0
v -37 -27 0
v -38 -27 0
v -38 -26 0
v -37 -26 0
v -38 -27 0
v -39 -27 0
v -39 -26 0
v -38 -26 0
v -23 -28 0
v -24 -28 0
v -24 -27 0
v -23 -27 0
v -24 -28 0
v -25 -28 0
v -25 -27 0
v -24 -27 0
v -25 -28 0
v -26 -28 0
v -26 -27 0
v -25 -27 0
v -26 -28 0
v -27 -28 0
v -27 -27 0
v -26 -27 0
v -27 -28 0
v -28 -28 0
v -28 -27 0
v -27 -27 0
v -28 -28 0
v -29 -28 0
v -29 -27 0
v -28 -27 0
v -29 -28 0
v -30 -28 0
v -30 -27 0
v -29 -27 0
v -23 -29 0
v -24 -29 0
v -24 -28 0
v -23 -28 0
v -24 -29 0
v -25 -29 0
v -25 -28 0
v -24 -28 0
v -25 -29 0
v -26 -29 0
v -26 -28 0
v -25 -28 0
v -26 -29 0
v -27 -29 0
v -27 -28 0
v -26 -28 0
v -27 -29 0
v -28 -29 0
v -28 -28 0
v -27 -28 0
v -28 -29 0
v -29 -29 0
v -29 -28 0
v -28 -28 0
v -29 -29 0
v -30 -29 0
v -30 -28 0
v -29 -28 0
v -23 -30 0
v -24 -30 0
v -24 -29 0
v -23 -29 0
v -24 -30 0
v -25 -30 0
v -25 -29 0
v -24 -29 0
v -25 -30 0
v -26 -30 0
v -26 -29 0
v -25 -29 0
v -26 -30 0
v -27 -30 0
v -27 -29 0
v -26 -29 0
v -27 -30 0
v -28 -30 0
v -28 -29 0
v -27 -29 0
v -28 -30 0
v -29 -30 0
v -29 -29 0
v -28 -29 0
v -29 -30 0
v -30 -30 0
v -30 -29 0
v -29 -29 0
v -24 -31 0
v -25 -31 0
v -25 -30 0
v -24 -30 0
v -25 -31 0
v -26 -31 0
v -26 -30 0
v -25 -30 0
v -26 -31 0
v -27 -31 0
v -27 -30 0
v -26 -30 0
v -27 -31 0
v -28 -31 0
v -28 -30 0
v -27 -30 0
v -28 -31 0
v -29 -31 0
v -29 -30 0
v -28 -30 0
v -29 -31 0
v -30 -31 0
v -30 -30 0
v -29 -30 0
v -24 -32 0
v -25 -32 0
v -25 -31 0
v -24 -31 0
v -25 -32 0
v -26 -32 0
v -26 -31 0
v -25 -31 0
v -26 -32 0
v -27 -32 0
v -27 -31 0
v -26 -31 0
v -27 -32 0
v -28 -32 0
v -28 -31 0
v -27 -31 0
v -28 -32 0
v -29 -32 0
v -29 -31 0
v -28 -31 0
v -29 -32 0
v -30 -32 0
v -30 -31 0
v -29 -31 0
v -15 -33 0
v -16 -33 0
v -16 -32 0
v -15 -32 0
v -16 -33 0
v -17 -33 0
v -17 -32 0
v -16 -32 0
v -17 -33 0
v -18 -33 0
v -18 -32 0
v -17 -32 0
v -18 -33 0
v -19 -33 0
v -19 -32 0
v -18 -32 0
v -19 -33 0
v -20 -33 0
v -20 -32 0
v -19 -32 0
v -34 -33 0
v -35 -33 0
v -35 -32 0
v -34 -32 0
v -35 -33 0
v -36 -33 0
v -36 -32 0
v -35 -32 0
v -36 -33 0
v -37 -33 0
v -37 -32 0
v -36 -32 0
v -37 -33 0
v -38 -33 0
v -38 -32 0
v -37 -32 0
v -38 -33 0
v -39 -33 0
v -39 -32 0
v -38 -32 0
v -15 -34 0
v -16 -34 0
v -16 -33 0
v -15 -33 0
v -16 -34 0
v -17 -34 0
v -17 -33 0
v -16 -33 0
v -17 -34 0
v -18 -34 0
v -18 -33 0
v -17 -33 0
v -18 -34 0
v -19 -34 0
v -19 -33 0
v -18 -33 0
v -19 -34 0
v -20 -34 0
v -20 -33 0
v -19 -33 0
v -34 -34 0
v -35 -34 0
v -35 -33 0
v -34 -33 0
v -35 -34 0
v -36 -34 0
v -36 -33 0
v -35 -33 0
v -36 -34 0
v -37 -34 0
v -37 -33 0
v -36 -33 0
v -37 -34 0
v -38 -34 0
v -38 -33 0
v -37 -33 0
v -38 -34 0
v -39 -34 0
v -39 -33 0
v -38 -33 0
v -15 -35 0
v -16 -35 0
v -16 -34 0
v -15 -34 0
v -16 -35 0
v -17 -35 0
v -17 -34 0
v -16 -34 0
v -17 -35 0
v -18 -35 0
v -18 -34 0
v -17 -34 0
v -18 -35 0
v -19 -35 0
v -19 -34 0
v -18 -34 0
v -19 -35 0
v -20 -35 0
v -20 -34 0
v -19 -34 0
v -34 -35 0
v -35 -35 0
v -35 -34 0
v -34 -34 0
v -35 -35 0
v -36 -35 0
v -36 -34 0
v -35 -34 0
v -36 -35 0
v -37 -35 0
v -37 -34 0
v -36 -34 0
v -37 -35 0
v -38 -35 0
v -38 -34 0
v -37 -34 0
v -38 -35 0
v -39 -35 0
v -39 -34 0
v -38 -34 0
v -16 -36 0
v -17 -36 0
v -17 -35 0
v -16 -35 0
v -17 -36 0
v -18 -36 0
v -18 -35 0
v -17 -35 0
v -18 -36 0
v -19 -36 0
v -19 -35 0
v -18 -35 0
v -35 -36 0
v -36 -36 0
v -36 -35 0
v -35 -35 0
v -36 -36 0
v -37 -36 0
v -37 -35 0
v -36 -35 0
v -37 -36 0
v -38 -36 0
v -38 -35 0
v -37 -35 0
v -35 -40 0
v -36 -40 0
v -36 -39 0
v -35 -39 0
v -36 -40 0
v -37 -40 0
v -37 -39 0
v -36 -39 0
v -35 -41 0
v -36 -41 0
v -36 -40 0
v -35 -40 0
v -36 -41 0
v -37 -41 0
v -37 -40 0
v -36 -40 0
v -19 -42 0
v -20 -42 0
v -20 -41 0
v -19 -41 0
v -20 -42 0
v -21 -42 0
v -21 -41 0
v -20 -41 0
v -21 -42 0
v -22 -42 0
v -22 -41 0
v -21 -41 0
v -22 -42 0
v -23 -42 0
v -23 -41 0
v -22 -41 0
v -27 -42 0
v -28 -42 0
v -28 -41 0
v -27 -41 0
v -28 -42 0
v -29 -42 0
v -29 -41 0
v -28 -41 0
v -29 -42 0
v -30 -42 0
v -30 -41 0
v -29 -41 0
v -30 -42 0
v -31 -42 0
v -31 -41 0
v -30 -41 0
v -19 -43 0
v -20 -43 0
v -20 -42 0
v -19 -42 0
v -20 -43 0
v -21 -43 0
v -21 -42 0
v -20 -42 0
v -21 -43 0
v -22 -43 0
v -22 -42 0
v -21 -42 0
v -22 -43 0
v -23 -43 0
v -23 -42 0
v -22 -42 0
v -23 -43 0
v -24 -43 0
v -24 -42 0
v -23 -42 0
v -24 -43 0
v -25 -43 0
v -25 -42 0
v -24 -42 0
v -25 -43 0
v -26 -43 0
v -26 -42 0
v -25 -42 0
v -26 -43 0
v -27 -43 0
v -27 -42 0
v -26 -42 0
v -27 -43 0
v -28 -43 0
v -28 -42 0
v -27 -42 0
v -28 -43 0
v -29 -43 0
v -29 -42 0
v -28 -42 0
v -29 -43 0
v -30 -43 0
v -30 -42 0
v -29 -42 0
v -30 -43 0
v -31 -43 0
v -31 -42 0
v -30 -42 0

# Texture cooridinates (Count = 80)
vt 0.5 0.625
vt 0.5625 0.625
vt 0.5625 0.6875
vt 0.5 0.6875
vt 0.625 0.625
vt 0.625 0.6875
vt 0.5 0.5625
vt 0.5625 0.5625
vt 0.625 0.5625
vt 0.25 0.3125
vt 0.3125 0.3125
vt 0.3125 0.375
vt 0.25 0.375
vt 0.5 0.5
vt 0.5625 0.5
vt 0.625 0.5
vt 0.25 0.25
vt 0.3125 0.25
vt 0 0.8125
vt 0.0625 0.8125
vt 0.0625 0.875
vt 0 0.875
vt 0.125 0.8125
vt 0.125 0.875
vt 0.1875 0.8125
vt 0.1875 0.875
vt 0 0.75
vt 0.0625 0.75
vt 0.125 0.75
vt 0.1875 0.75
vt 0 0.6875
vt 0.0625 0.6875
vt 0.125 0.6875
vt 0.1875 0.6875
vt 0 0.5
vt 0.0625 0.5
vt 0.0625 0.5625
vt 0 0.5625
vt 0.125 0.5
vt 0.125 0.5625
vt 0.1875 0.5
vt 0.1875 0.5625
vt 0.25 0.5
vt 0.25 0.5625
vt 0.3125 0.5
vt 0.3125 0.5625
vt 0.3125 0.9375
vt 0.375 0.9375
vt 0.375 1
vt 0.3125 1
vt 0 0.4375
vt 0.0625 0.4375
vt 0.125 0.4375
vt 0.1875 0.4375
vt 0.25 0.4375
vt 0.3125 0.4375
vt 0 0.375
vt 0.0625 0.375
vt 0.125 0.375
vt 0.1875 0.375
vt 0.0625 0.3125
vt 0.125 0.3125
vt 0.1875 0.3125
vt 0.375 0.4375
vt 0.4375 0.4375
vt 0.4375 0.5
vt 0.375 0.5
vt 0.5 0.4375
vt 0.375 0.375
vt 0.4375 0.375
vt 0.5 0.375
vt 0.125 0.9375
vt 0.1875 0.9375
vt 0.1875 1
vt 0.125 1
vt 0.25 0.9375
vt 0.25 1
vt 0.25 0.875
vt 0.3125 0.875
vt 0.375 0.875

# Normal
vn 0 0 -1

# Mesh description
g SecondMap_1_mesh_0014

# Faces
f 1/1/1 2/2/1 3/3/1 4/4/1
f 5/2/1 6/5/1 7/6/1 8/3/1
f 9/7/1 10/8/1 11/2/1 12/1/1
f 13/8/1 14/9/1 15/5/1 16/2/1
f 17/10/1 18/11/1 19/12/1 20/13/1
f 21/14/1 22/15/1 23/8/1 24/7/1
f 25/15/1 26/16/1 27/9/1 28/8/1
f 29/10/1 30/11/1 31/12/1 32/13/1
f 33/17/1 34/18/1 35/11/1 36/10/1
f 37/17/1 38/18/1 39/11/1 40/10/1
f 41/19/1 42/20/1 43/21/1 44/22/1
f 45/20/1 46/23/1 47/24/1 48/21/1
f 49/20/1 50/23/1 51/24/1 52/21/1
f 53/20/1 54/23/1 55/24/1 56/21/1
f 57/20/1 58/23/1 59/24/1 60/21/1
f 61/20/1 62/23/1 63/24/1 64/21/1
f 65/20/1 66/23/1 67/24/1 68/21/1
f 69/20/1 70/23/1 71/24/1 72/21/1
f 73/23/1 74/25/1 75/26/1 76/24/1
f 77/27/1 78/28/1 79/20/1 80/19/1
f 81/28/1 82/29/1 83/23/1 84/20/1
f 85/28/1 86/29/1 87/23/1 88/20/1
f 89/28/1 90/29/1 91/23/1 92/20/1
f 93/28/1 94/29/1 95/23/1 96/20/1
f 97/28/1 98/29/1 99/23/1 100/20/1
f 101/28/1 102/29/1 103/23/1 104/20/1
f 105/28/1 106/29/1 107/23/1 108/20/1
f 109/29/1 110/30/1 111/25/1 112/23/1
f 113/27/1 114/28/1 115/20/1 116/19/1
f 117/28/1 118/29/1 119/23/1 120/20/1
f 121/28/1 122/29/1 123/23/1 124/20/1
f 125/28/1 126/29/1 127/23/1 128/20/1
f 129/28/1 130/29/1 131/23/1 132/20/1
f 133/28/1 134/29/1 135/23/1 136/20/1
f 137/28/1 138/29/1 139/23/1 140/20/1
f 141/28/1 142/29/1 143/23/1 144/20/1
f 145/29/1 146/30/1 147/25/1 148/23/1
f 149/31/1 150/32/1 151/28/1 152/27/1
f 153/32/1 154/33/1 155/29/1 156/28/1
f 157/32/1 158/33/1 159/29/1 160/28/1
f 161/32/1 162/33/1 163/29/1 164/28/1
f 165/32/1 166/33/1 167/29/1 168/28/1
f 169/32/1 170/33/1 171/29/1 172/28/1
f 173/32/1 174/33/1 175/29/1 176/28/1
f 177/32/1 178/33/1 179/29/1 180/28/1
f 181/33/1 182/34/1 183/30/1 184/29/1
f 185/35/1 186/36/1 187/37/1 188/38/1
f 189/36/1 190/39/1 191/40/1 192/37/1
f 193/39/1 194/41/1 195/42/1 196/40/1
f 197/41/1 198/43/1 199/44/1 200/42/1
f 201/43/1 202/45/1 203/46/1 204/44/1
f 205/47/1 206/48/1 207/49/1 208/50/1
f 209/47/1 210/48/1 211/49/1 212/50/1
f 213/51/1 214/52/1 215/36/1 216/35/1
f 217/52/1 218/53/1 219/39/1 220/36/1
f 221/53/1 222/54/1 223/41/1 224/39/1
f 225/54/1 226/55/1 227/43/1 228/41/1
f 229/55/1 230/56/1 231/45/1 232/43/1
f 233/47/1 234/48/1 235/49/1 236/50/1
f 237/47/1 238/48/1 239/49/1 240/50/1
f 241/57/1 242/58/1 243/52/1 244/51/1
f 245/58/1 246/59/1 247/53/1 248/52/1
f 249/59/1 250/60/1 251/54/1 252/53/1
f 253/60/1 254/13/1 255/55/1 256/54/1
f 257/13/1 258/12/1 259/56/1 260/55/1
f 261/47/1 262/48/1 263/49/1 264/50/1
f 265/47/1 266/48/1 267/49/1 268/50/1
f 269/61/1 270/62/1 271/59/1 272/58/1
f 273/62/1 274/63/1 275/60/1 276/59/1
f 277/63/1 278/10/1 279/13/1 280/60/1
f 281/47/1 282/48/1 283/49/1 284/50/1
f 285/47/1 286/48/1 287/49/1 288/50/1
f 289/47/1 290/48/1 291/49/1 292/50/1
f 293/47/1 294/48/1 295/49/1 296/50/1
f 297/47/1 298/48/1 299/49/1 300/50/1
f 301/47/1 302/48/1 303/49/1 304/50/1
f 305/47/1 306/48/1 307/49/1 308/50/1
f 309/47/1 310/48/1 311/49/1 312/50/1
f 313/47/1 314/48/1 315/49/1 316/50/1
f 317/35/1 318/36/1 319/37/1 320/38/1
f 321/36/1 322/39/1 323/40/1 324/37/1
f 325/39/1 326/41/1 327/42/1 328/40/1
f 329/41/1 330/43/1 331/44/1 332/42/1
f 333/43/1 334/45/1 335/46/1 336/44/1
f 337/35/1 338/36/1 339/37/1 340/38/1
f 341/36/1 342/39/1 343/40/1 344/37/1
f 345/39/1 346/41/1 347/42/1 348/40/1
f 349/41/1 350/43/1 351/44/1 352/42/1
f 353/43/1 354/45/1 355/46/1 356/44/1
f 357/51/1 358/52/1 359/36/1 360/35/1
f 361/52/1 362/53/1 363/39/1 364/36/1
f 365/53/1 366/54/1 367/41/1 368/39/1
f 369/54/1 370/55/1 371/43/1 372/41/1
f 373/55/1 374/56/1 375/45/1 376/43/1
f 377/51/1 378/52/1 379/36/1 380/35/1
f 381/52/1 382/53/1 383/39/1 384/36/1
f 385/53/1 386/54/1 387/41/1 388/39/1
f 389/54/1 390/55/1 391/43/1 392/41/1
f 393/55/1 394/56/1 395/45/1 396/43/1
f 397/57/1 398/58/1 399/52/1 400/51/1
f 401/58/1 402/59/1 403/53/1 404/52/1
f 405/59/1 406/60/1 407/54/1 408/53/1
f 409/60/1 410/13/1 411/55/1 412/54/1
f 413/13/1 414/12/1 415/56/1 416/55/1
f 417/57/1 418/58/1 419/52/1 420/51/1
f 421/58/1 422/59/1 423/53/1 424/52/1
f 425/59/1 426/60/1 427/54/1 428/53/1
f 429/60/1 430/13/1 431/55/1 432/54/1
f 433/13/1 434/12/1 435/56/1 436/55/1
f 437/61/1 438/62/1 439/59/1 440/58/1
f 441/62/1 442/63/1 443/60/1 444/59/1
f 445/63/1 446/10/1 447/13/1 448/60/1
f 449/61/1 450/62/1 451/59/1 452/58/1
f 453/62/1 454/63/1 455/60/1 456/59/1
f 457/63/1 458/10/1 459/13/1 460/60/1
f 461/64/1 462/65/1 463/66/1 464/67/1
f 465/65/1 466/68/1 467/14/1 468/66/1
f 469/69/1 470/70/1 471/65/1 472/64/1
f 473/70/1 474/71/1 475/68/1 476/65/1
f 477/72/1 478/73/1 479/74/1 480/75/1
f 481/73/1 482/76/1 483/77/1 484/74/1
f 485/72/1 486/73/1 487/74/1 488/75/1
f 489/73/1 490/76/1 491/77/1 492/74/1
f 493/72/1 494/73/1 495/74/1 496/75/1
f 497/73/1 498/76/1 499/77/1 500/74/1
f 501/72/1 502/73/1 503/74/1 504/75/1
f 505/73/1 506/76/1 507/77/1 508/74/1
f 509/24/1 510/26/1 511/73/1 512/72/1
f 513/26/1 514/78/1 515/76/1 516/73/1
f 517/24/1 518/26/1 519/73/1 520/72/1
f 521/26/1 522/78/1 523/76/1 524/73/1
f 525/78/1 526/79/1 527/47/1 528/76/1
f 529/79/1 530/80/1 531/48/1 532/47/1
f 533/78/1 534/79/1 535/47/1 536/76/1
f 537/79/1 538/80/1 539/48/1 540/47/1
f 541/24/1 542/26/1 543/73/1 544/72/1
f 545/26/1 546/78/1 547/76/1 548/73/1
f 549/24/1 550/26/1 551/73/1 552/72/1
f 553/26/1 554/78/1 555/76/1 556/73/1

