# Tiled2Unity generated file. Do not modify by hand.
# Wavefront file for 'SecondMap_1_mesh_0034.obj'

# Vertices (Count = 24)
v -13 -19 0
v -14 -19 0
v -14 -18 0
v -13 -18 0
v -40 -19 0
v -41 -19 0
v -41 -18 0
v -40 -18 0
v -59 -38 0
v -60 -38 0
v -60 -37 0
v -59 -37 0
v -62 -38 0
v -63 -38 0
v -63 -37 0
v -62 -37 0
v -66 -40 0
v -67 -40 0
v -67 -39 0
v -66 -39 0
v -47 -45 0
v -48 -45 0
v -48 -44 0
v -47 -44 0

# Texture cooridinates (Count = 12)
vt 0.125 0.1666667
vt 0.25 0.1666667
vt 0.25 0.3333333
vt 0.125 0.3333333
vt 0.375 0.6666666
vt 0.5 0.6666666
vt 0.5 0.8333333
vt 0.375 0.8333333
vt 0.125 0.6666666
vt 0.25 0.6666666
vt 0.25 0.8333333
vt 0.125 0.8333333

# Normal
vn 0 0 -1

# Mesh description
g SecondMap_1_mesh_0034

# Faces
f 1/1/1 2/2/1 3/3/1 4/4/1
f 5/2/1 6/1/1 7/4/1 8/3/1
f 9/2/1 10/1/1 11/4/1 12/3/1
f 13/1/1 14/2/1 15/3/1 16/4/1
f 17/5/1 18/6/1 19/7/1 20/8/1
f 21/9/1 22/10/1 23/11/1 24/12/1

