# Tiled2Unity generated file. Do not modify by hand.
# Wavefront file for 'SecondMap_1_mesh_0002.obj'

# Vertices (Count = 600)
v -60 -16 0
v -61 -16 0
v -61 -15 0
v -60 -15 0
v -61 -16 0
v -62 -16 0
v -62 -15 0
v -61 -15 0
v -62 -16 0
v -63 -16 0
v -63 -15 0
v -62 -15 0
v -63 -16 0
v -64 -16 0
v -64 -15 0
v -63 -15 0
v -64 -16 0
v -65 -16 0
v -65 -15 0
v -64 -15 0
v -65 -16 0
v -66 -16 0
v -66 -15 0
v -65 -15 0
v -66 -16 0
v -67 -16 0
v -67 -15 0
v -66 -15 0
v -60 -17 0
v -61 -17 0
v -61 -16 0
v -60 -16 0
v -61 -17 0
v -62 -17 0
v -62 -16 0
v -61 -16 0
v -62 -17 0
v -63 -17 0
v -63 -16 0
v -62 -16 0
v -63 -17 0
v -64 -17 0
v -64 -16 0
v -63 -16 0
v -64 -17 0
v -65 -17 0
v -65 -16 0
v -64 -16 0
v -65 -17 0
v -66 -17 0
v -66 -16 0
v -65 -16 0
v -66 -17 0
v -67 -17 0
v -67 -16 0
v -66 -16 0
v -41 -37 0
v -42 -37 0
v -42 -36 0
v -41 -36 0
v -42 -37 0
v -43 -37 0
v -43 -36 0
v -42 -36 0
v -43 -37 0
v -44 -37 0
v -44 -36 0
v -43 -36 0
v -44 -37 0
v -45 -37 0
v -45 -36 0
v -44 -36 0
v -52 -37 0
v -53 -37 0
v -53 -36 0
v -52 -36 0
v -53 -37 0
v -54 -37 0
v -54 -36 0
v -53 -36 0
v -54 -37 0
v -55 -37 0
v -55 -36 0
v -54 -36 0
v -67 -37 0
v -68 -37 0
v -68 -36 0
v -67 -36 0
v -68 -37 0
v -69 -37 0
v -69 -36 0
v -68 -36 0
v -69 -37 0
v -70 -37 0
v -70 -36 0
v -69 -36 0
v -41 -38 0
v -42 -38 0
v -42 -37 0
v -41 -37 0
v -42 -38 0
v -43 -38 0
v -43 -37 0
v -42 -37 0
v -43 -38 0
v -44 -38 0
v -44 -37 0
v -43 -37 0
v -44 -38 0
v -45 -38 0
v -45 -37 0
v -44 -37 0
v -52 -38 0
v -53 -38 0
v -53 -37 0
v -52 -37 0
v -53 -38 0
v -54 -38 0
v -54 -37 0
v -53 -37 0
v -54 -38 0
v -55 -38 0
v -55 -37 0
v -54 -37 0
v -67 -38 0
v -68 -38 0
v -68 -37 0
v -67 -37 0
v -68 -38 0
v -69 -38 0
v -69 -37 0
v -68 -37 0
v -69 -38 0
v -70 -38 0
v -70 -37 0
v -69 -37 0
v -41 -39 0
v -42 -39 0
v -42 -38 0
v -41 -38 0
v -42 -39 0
v -43 -39 0
v -43 -38 0
v -42 -38 0
v -43 -39 0
v -44 -39 0
v -44 -38 0
v -43 -38 0
v -44 -39 0
v -45 -39 0
v -45 -38 0
v -44 -38 0
v -52 -39 0
v -53 -39 0
v -53 -38 0
v -52 -38 0
v -53 -39 0
v -54 -39 0
v -54 -38 0
v -53 -38 0
v -54 -39 0
v -55 -39 0
v -55 -38 0
v -54 -38 0
v -67 -39 0
v -68 -39 0
v -68 -38 0
v -67 -38 0
v -68 -39 0
v -69 -39 0
v -69 -38 0
v -68 -38 0
v -69 -39 0
v -70 -39 0
v -70 -38 0
v -69 -38 0
v -41 -40 0
v -42 -40 0
v -42 -39 0
v -41 -39 0
v -42 -40 0
v -43 -40 0
v -43 -39 0
v -42 -39 0
v -43 -40 0
v -44 -40 0
v -44 -39 0
v -43 -39 0
v -44 -40 0
v -45 -40 0
v -45 -39 0
v -44 -39 0
v -46 -40 0
v -47 -40 0
v -47 -39 0
v -46 -39 0
v -47 -40 0
v -48 -40 0
v -48 -39 0
v -47 -39 0
v -48 -40 0
v -49 -40 0
v -49 -39 0
v -48 -39 0
v -49 -40 0
v -50 -40 0
v -50 -39 0
v -49 -39 0
v -50 -40 0
v -51 -40 0
v -51 -39 0
v -50 -39 0
v -51 -40 0
v -52 -40 0
v -52 -39 0
v -51 -39 0
v -52 -40 0
v -53 -40 0
v -53 -39 0
v -52 -39 0
v -53 -40 0
v -54 -40 0
v -54 -39 0
v -53 -39 0
v -54 -40 0
v -55 -40 0
v -55 -39 0
v -54 -39 0
v -55 -40 0
v -56 -40 0
v -56 -39 0
v -55 -39 0
v -56 -40 0
v -57 -40 0
v -57 -39 0
v -56 -39 0
v -57 -40 0
v -58 -40 0
v -58 -39 0
v -57 -39 0
v -58 -40 0
v -59 -40 0
v -59 -39 0
v -58 -39 0
v -59 -40 0
v -60 -40 0
v -60 -39 0
v -59 -39 0
v -41 -41 0
v -42 -41 0
v -42 -40 0
v -41 -40 0
v -42 -41 0
v -43 -41 0
v -43 -40 0
v -42 -40 0
v -43 -41 0
v -44 -41 0
v -44 -40 0
v -43 -40 0
v -44 -41 0
v -45 -41 0
v -45 -40 0
v -44 -40 0
v -46 -41 0
v -47 -41 0
v -47 -40 0
v -46 -40 0
v -47 -41 0
v -48 -41 0
v -48 -40 0
v -47 -40 0
v -48 -41 0
v -49 -41 0
v -49 -40 0
v -48 -40 0
v -49 -41 0
v -50 -41 0
v -50 -40 0
v -49 -40 0
v -50 -41 0
v -51 -41 0
v -51 -40 0
v -50 -40 0
v -51 -41 0
v -52 -41 0
v -52 -40 0
v -51 -40 0
v -52 -41 0
v -53 -41 0
v -53 -40 0
v -52 -40 0
v -53 -41 0
v -54 -41 0
v -54 -40 0
v -53 -40 0
v -54 -41 0
v -55 -41 0
v -55 -40 0
v -54 -40 0
v -55 -41 0
v -56 -41 0
v -56 -40 0
v -55 -40 0
v -56 -41 0
v -57 -41 0
v -57 -40 0
v -56 -40 0
v -57 -41 0
v -58 -41 0
v -58 -40 0
v -57 -40 0
v -58 -41 0
v -59 -41 0
v -59 -40 0
v -58 -40 0
v -59 -41 0
v -60 -41 0
v -60 -40 0
v -59 -40 0
v -46 -42 0
v -47 -42 0
v -47 -41 0
v -46 -41 0
v -47 -42 0
v -48 -42 0
v -48 -41 0
v -47 -41 0
v -48 -42 0
v -49 -42 0
v -49 -41 0
v -48 -41 0
v -49 -42 0
v -50 -42 0
v -50 -41 0
v -49 -41 0
v -50 -42 0
v -51 -42 0
v -51 -41 0
v -50 -41 0
v -51 -42 0
v -52 -42 0
v -52 -41 0
v -51 -41 0
v -52 -42 0
v -53 -42 0
v -53 -41 0
v -52 -41 0
v -53 -42 0
v -54 -42 0
v -54 -41 0
v -53 -41 0
v -54 -42 0
v -55 -42 0
v -55 -41 0
v -54 -41 0
v -55 -42 0
v -56 -42 0
v -56 -41 0
v -55 -41 0
v -56 -42 0
v -57 -42 0
v -57 -41 0
v -56 -41 0
v -57 -42 0
v -58 -42 0
v -58 -41 0
v -57 -41 0
v -58 -42 0
v -59 -42 0
v -59 -41 0
v -58 -41 0
v -59 -42 0
v -60 -42 0
v -60 -41 0
v -59 -41 0
v -46 -43 0
v -47 -43 0
v -47 -42 0
v -46 -42 0
v -47 -43 0
v -48 -43 0
v -48 -42 0
v -47 -42 0
v -48 -43 0
v -49 -43 0
v -49 -42 0
v -48 -42 0
v -49 -43 0
v -50 -43 0
v -50 -42 0
v -49 -42 0
v -50 -43 0
v -51 -43 0
v -51 -42 0
v -50 -42 0
v -51 -43 0
v -52 -43 0
v -52 -42 0
v -51 -42 0
v -52 -43 0
v -53 -43 0
v -53 -42 0
v -52 -42 0
v -53 -43 0
v -54 -43 0
v -54 -42 0
v -53 -42 0
v -54 -43 0
v -55 -43 0
v -55 -42 0
v -54 -42 0
v -55 -43 0
v -56 -43 0
v -56 -42 0
v -55 -42 0
v -56 -43 0
v -57 -43 0
v -57 -42 0
v -56 -42 0
v -57 -43 0
v -58 -43 0
v -58 -42 0
v -57 -42 0
v -58 -43 0
v -59 -43 0
v -59 -42 0
v -58 -42 0
v -59 -43 0
v -60 -43 0
v -60 -42 0
v -59 -42 0
v -46 -44 0
v -47 -44 0
v -47 -43 0
v -46 -43 0
v -47 -44 0
v -48 -44 0
v -48 -43 0
v -47 -43 0
v -48 -44 0
v -49 -44 0
v -49 -43 0
v -48 -43 0
v -49 -44 0
v -50 -44 0
v -50 -43 0
v -49 -43 0
v -50 -44 0
v -51 -44 0
v -51 -43 0
v -50 -43 0
v -51 -44 0
v -52 -44 0
v -52 -43 0
v -51 -43 0
v -52 -44 0
v -53 -44 0
v -53 -43 0
v -52 -43 0
v -53 -44 0
v -54 -44 0
v -54 -43 0
v -53 -43 0
v -54 -44 0
v -55 -44 0
v -55 -43 0
v -54 -43 0
v -55 -44 0
v -56 -44 0
v -56 -43 0
v -55 -43 0
v -56 -44 0
v -57 -44 0
v -57 -43 0
v -56 -43 0
v -57 -44 0
v -58 -44 0
v -58 -43 0
v -57 -43 0
v -58 -44 0
v -59 -44 0
v -59 -43 0
v -58 -43 0
v -59 -44 0
v -60 -44 0
v -60 -43 0
v -59 -43 0
v -46 -45 0
v -47 -45 0
v -47 -44 0
v -46 -44 0
v -47 -45 0
v -48 -45 0
v -48 -44 0
v -47 -44 0
v -48 -45 0
v -49 -45 0
v -49 -44 0
v -48 -44 0
v -49 -45 0
v -50 -45 0
v -50 -44 0
v -49 -44 0
v -50 -45 0
v -51 -45 0
v -51 -44 0
v -50 -44 0
v -51 -45 0
v -52 -45 0
v -52 -44 0
v -51 -44 0
v -52 -45 0
v -53 -45 0
v -53 -44 0
v -52 -44 0
v -53 -45 0
v -54 -45 0
v -54 -44 0
v -53 -44 0
v -54 -45 0
v -55 -45 0
v -55 -44 0
v -54 -44 0
v -55 -45 0
v -56 -45 0
v -56 -44 0
v -55 -44 0
v -56 -45 0
v -57 -45 0
v -57 -44 0
v -56 -44 0
v -57 -45 0
v -58 -45 0
v -58 -44 0
v -57 -44 0
v -58 -45 0
v -59 -45 0
v -59 -44 0
v -58 -44 0
v -59 -45 0
v -60 -45 0
v -60 -44 0
v -59 -44 0
v -46 -46 0
v -47 -46 0
v -47 -45 0
v -46 -45 0
v -47 -46 0
v -48 -46 0
v -48 -45 0
v -47 -45 0
v -48 -46 0
v -49 -46 0
v -49 -45 0
v -48 -45 0
v -49 -46 0
v -50 -46 0
v -50 -45 0
v -49 -45 0
v -50 -46 0
v -51 -46 0
v -51 -45 0
v -50 -45 0
v -51 -46 0
v -52 -46 0
v -52 -45 0
v -51 -45 0
v -52 -46 0
v -53 -46 0
v -53 -45 0
v -52 -45 0
v -53 -46 0
v -54 -46 0
v -54 -45 0
v -53 -45 0
v -54 -46 0
v -55 -46 0
v -55 -45 0
v -54 -45 0
v -55 -46 0
v -56 -46 0
v -56 -45 0
v -55 -45 0
v -56 -46 0
v -57 -46 0
v -57 -45 0
v -56 -45 0
v -57 -46 0
v -58 -46 0
v -58 -45 0
v -57 -45 0
v -58 -46 0
v -59 -46 0
v -59 -45 0
v -58 -45 0
v -59 -46 0
v -60 -46 0
v -60 -45 0
v -59 -45 0

# Texture cooridinates (Count = 21)
vt 0.2 0.2
vt 0.3 0.2
vt 0.3 0.3
vt 0.2 0.3
vt 0.3 0.1
vt 0.4 0.1
vt 0.4 0.2
vt 0.5 0.3
vt 0.6 0.3
vt 0.6 0.4
vt 0.5 0.4
vt 0.7 0.3
vt 0.8 0.3
vt 0.8 0.4
vt 0.7 0.4
vt 0.5 0.1
vt 0.5 0.2
vt 0.4 0.3
vt 0.6 0.2
vt 0.7 0.2
vt 0.8 0.2

# Normal
vn 0 0 -1

# Mesh description
g SecondMap_1_mesh_0002

# Faces
f 1/1/1 2/2/1 3/3/1 4/4/1
f 5/1/1 6/2/1 7/3/1 8/4/1
f 9/1/1 10/2/1 11/3/1 12/4/1
f 13/1/1 14/2/1 15/3/1 16/4/1
f 17/1/1 18/2/1 19/3/1 20/4/1
f 21/1/1 22/2/1 23/3/1 24/4/1
f 25/1/1 26/2/1 27/3/1 28/4/1
f 29/1/1 30/2/1 31/3/1 32/4/1
f 33/1/1 34/2/1 35/3/1 36/4/1
f 37/1/1 38/2/1 39/3/1 40/4/1
f 41/1/1 42/2/1 43/3/1 44/4/1
f 45/1/1 46/2/1 47/3/1 48/4/1
f 49/1/1 50/2/1 51/3/1 52/4/1
f 53/1/1 54/2/1 55/3/1 56/4/1
f 57/1/1 58/2/1 59/3/1 60/4/1
f 61/1/1 62/2/1 63/3/1 64/4/1
f 65/1/1 66/2/1 67/3/1 68/4/1
f 69/1/1 70/2/1 71/3/1 72/4/1
f 73/1/1 74/2/1 75/3/1 76/4/1
f 77/1/1 78/2/1 79/3/1 80/4/1
f 81/1/1 82/2/1 83/3/1 84/4/1
f 85/1/1 86/2/1 87/3/1 88/4/1
f 89/1/1 90/2/1 91/3/1 92/4/1
f 93/1/1 94/2/1 95/3/1 96/4/1
f 97/1/1 98/2/1 99/3/1 100/4/1
f 101/1/1 102/2/1 103/3/1 104/4/1
f 105/1/1 106/2/1 107/3/1 108/4/1
f 109/1/1 110/2/1 111/3/1 112/4/1
f 113/1/1 114/2/1 115/3/1 116/4/1
f 117/1/1 118/2/1 119/3/1 120/4/1
f 121/1/1 122/2/1 123/3/1 124/4/1
f 125/1/1 126/2/1 127/3/1 128/4/1
f 129/1/1 130/2/1 131/3/1 132/4/1
f 133/1/1 134/2/1 135/3/1 136/4/1
f 137/1/1 138/2/1 139/3/1 140/4/1
f 141/1/1 142/2/1 143/3/1 144/4/1
f 145/1/1 146/2/1 147/3/1 148/4/1
f 149/1/1 150/2/1 151/3/1 152/4/1
f 153/1/1 154/2/1 155/3/1 156/4/1
f 157/1/1 158/2/1 159/3/1 160/4/1
f 161/1/1 162/2/1 163/3/1 164/4/1
f 165/1/1 166/2/1 167/3/1 168/4/1
f 169/1/1 170/2/1 171/3/1 172/4/1
f 173/1/1 174/2/1 175/3/1 176/4/1
f 177/1/1 178/2/1 179/3/1 180/4/1
f 181/1/1 182/2/1 183/3/1 184/4/1
f 185/1/1 186/2/1 187/3/1 188/4/1
f 189/1/1 190/2/1 191/3/1 192/4/1
f 193/5/1 194/6/1 195/7/1 196/2/1
f 197/8/1 198/9/1 199/10/1 200/11/1
f 201/12/1 202/13/1 203/14/1 204/15/1
f 205/12/1 206/13/1 207/14/1 208/15/1
f 209/12/1 210/13/1 211/14/1 212/15/1
f 213/12/1 214/13/1 215/14/1 216/15/1
f 217/12/1 218/13/1 219/14/1 220/15/1
f 221/12/1 222/13/1 223/14/1 224/15/1
f 225/12/1 226/13/1 227/14/1 228/15/1
f 229/12/1 230/13/1 231/14/1 232/15/1
f 233/12/1 234/13/1 235/14/1 236/15/1
f 237/12/1 238/13/1 239/14/1 240/15/1
f 241/9/1 242/12/1 243/15/1 244/10/1
f 245/6/1 246/16/1 247/17/1 248/7/1
f 249/1/1 250/2/1 251/3/1 252/4/1
f 253/1/1 254/2/1 255/3/1 256/4/1
f 257/1/1 258/2/1 259/3/1 260/4/1
f 261/1/1 262/2/1 263/3/1 264/4/1
f 265/2/1 266/7/1 267/18/1 268/3/1
f 269/15/1 270/12/1 271/13/1 272/14/1
f 273/1/1 274/2/1 275/3/1 276/4/1
f 277/1/1 278/2/1 279/3/1 280/4/1
f 281/1/1 282/2/1 283/3/1 284/4/1
f 285/1/1 286/2/1 287/3/1 288/4/1
f 289/1/1 290/2/1 291/3/1 292/4/1
f 293/1/1 294/2/1 295/3/1 296/4/1
f 297/1/1 298/2/1 299/3/1 300/4/1
f 301/1/1 302/2/1 303/3/1 304/4/1
f 305/1/1 306/2/1 307/3/1 308/4/1
f 309/1/1 310/2/1 311/3/1 312/4/1
f 313/13/1 314/14/1 315/15/1 316/12/1
f 317/7/1 318/17/1 319/8/1 320/18/1
f 321/2/1 322/7/1 323/18/1 324/3/1
f 325/15/1 326/12/1 327/13/1 328/14/1
f 329/1/1 330/2/1 331/3/1 332/4/1
f 333/1/1 334/2/1 335/3/1 336/4/1
f 337/1/1 338/2/1 339/3/1 340/4/1
f 341/1/1 342/2/1 343/3/1 344/4/1
f 345/1/1 346/2/1 347/3/1 348/4/1
f 349/1/1 350/2/1 351/3/1 352/4/1
f 353/1/1 354/2/1 355/3/1 356/4/1
f 357/1/1 358/2/1 359/3/1 360/4/1
f 361/1/1 362/2/1 363/3/1 364/4/1
f 365/1/1 366/2/1 367/3/1 368/4/1
f 369/13/1 370/14/1 371/15/1 372/12/1
f 373/7/1 374/17/1 375/8/1 376/18/1
f 377/2/1 378/7/1 379/18/1 380/3/1
f 381/15/1 382/12/1 383/13/1 384/14/1
f 385/1/1 386/2/1 387/3/1 388/4/1
f 389/1/1 390/2/1 391/3/1 392/4/1
f 393/1/1 394/2/1 395/3/1 396/4/1
f 397/1/1 398/2/1 399/3/1 400/4/1
f 401/1/1 402/2/1 403/3/1 404/4/1
f 405/1/1 406/2/1 407/3/1 408/4/1
f 409/1/1 410/2/1 411/3/1 412/4/1
f 413/1/1 414/2/1 415/3/1 416/4/1
f 417/1/1 418/2/1 419/3/1 420/4/1
f 421/1/1 422/2/1 423/3/1 424/4/1
f 425/13/1 426/14/1 427/15/1 428/12/1
f 429/7/1 430/17/1 431/8/1 432/18/1
f 433/2/1 434/7/1 435/18/1 436/3/1
f 437/15/1 438/12/1 439/13/1 440/14/1
f 441/1/1 442/2/1 443/3/1 444/4/1
f 445/1/1 446/2/1 447/3/1 448/4/1
f 449/1/1 450/2/1 451/3/1 452/4/1
f 453/1/1 454/2/1 455/3/1 456/4/1
f 457/1/1 458/2/1 459/3/1 460/4/1
f 461/1/1 462/2/1 463/3/1 464/4/1
f 465/1/1 466/2/1 467/3/1 468/4/1
f 469/1/1 470/2/1 471/3/1 472/4/1
f 473/1/1 474/2/1 475/3/1 476/4/1
f 477/1/1 478/2/1 479/3/1 480/4/1
f 481/13/1 482/14/1 483/15/1 484/12/1
f 485/7/1 486/17/1 487/8/1 488/18/1
f 489/2/1 490/7/1 491/18/1 492/3/1
f 493/15/1 494/12/1 495/13/1 496/14/1
f 497/1/1 498/2/1 499/3/1 500/4/1
f 501/1/1 502/2/1 503/3/1 504/4/1
f 505/1/1 506/2/1 507/3/1 508/4/1
f 509/1/1 510/2/1 511/3/1 512/4/1
f 513/1/1 514/2/1 515/3/1 516/4/1
f 517/1/1 518/2/1 519/3/1 520/4/1
f 521/1/1 522/2/1 523/3/1 524/4/1
f 525/1/1 526/2/1 527/3/1 528/4/1
f 529/1/1 530/2/1 531/3/1 532/4/1
f 533/1/1 534/2/1 535/3/1 536/4/1
f 537/13/1 538/14/1 539/15/1 540/12/1
f 541/7/1 542/17/1 543/8/1 544/18/1
f 545/5/1 546/6/1 547/7/1 548/2/1
f 549/17/1 550/19/1 551/9/1 552/8/1
f 553/20/1 554/21/1 555/13/1 556/12/1
f 557/20/1 558/21/1 559/13/1 560/12/1
f 561/20/1 562/21/1 563/13/1 564/12/1
f 565/20/1 566/21/1 567/13/1 568/12/1
f 569/20/1 570/21/1 571/13/1 572/12/1
f 573/20/1 574/21/1 575/13/1 576/12/1
f 577/20/1 578/21/1 579/13/1 580/12/1
f 581/20/1 582/21/1 583/13/1 584/12/1
f 585/20/1 586/21/1 587/13/1 588/12/1
f 589/20/1 590/21/1 591/13/1 592/12/1
f 593/19/1 594/20/1 595/12/1 596/9/1
f 597/6/1 598/16/1 599/17/1 600/7/1

