# Tiled2Unity generated file. Do not modify by hand.
# Wavefront file for 'SecondMap_1_mesh_0026.obj'

# Vertices (Count = 188)
v -42 -17 0
v -43 -17 0
v -43 -16 0
v -42 -16 0
v -43 -17 0
v -44 -17 0
v -44 -16 0
v -43 -16 0
v -44 -17 0
v -45 -17 0
v -45 -16 0
v -44 -16 0
v -68 -17 0
v -69 -17 0
v -69 -16 0
v -68 -16 0
v -42 -18 0
v -43 -18 0
v -43 -17 0
v -42 -17 0
v -43 -18 0
v -44 -18 0
v -44 -17 0
v -43 -17 0
v -44 -18 0
v -45 -18 0
v -45 -17 0
v -44 -17 0
v -68 -18 0
v -69 -18 0
v -69 -17 0
v -68 -17 0
v -66 -21 0
v -67 -21 0
v -67 -20 0
v -66 -20 0
v -67 -21 0
v -68 -21 0
v -68 -20 0
v -67 -20 0
v -68 -21 0
v -69 -21 0
v -69 -20 0
v -68 -20 0
v -66 -22 0
v -67 -22 0
v -67 -21 0
v -66 -21 0
v -67 -22 0
v -68 -22 0
v -68 -21 0
v -67 -21 0
v -68 -22 0
v -69 -22 0
v -69 -21 0
v -68 -21 0
v -66 -23 0
v -67 -23 0
v -67 -22 0
v -66 -22 0
v -67 -23 0
v -68 -23 0
v -68 -22 0
v -67 -22 0
v -68 -23 0
v -69 -23 0
v -69 -22 0
v -68 -22 0
v -66 -24 0
v -67 -24 0
v -67 -23 0
v -66 -23 0
v -67 -24 0
v -68 -24 0
v -68 -23 0
v -67 -23 0
v -68 -24 0
v -69 -24 0
v -69 -23 0
v -68 -23 0
v -66 -25 0
v -67 -25 0
v -67 -24 0
v -66 -24 0
v -67 -25 0
v -68 -25 0
v -68 -24 0
v -67 -24 0
v -68 -25 0
v -69 -25 0
v -69 -24 0
v -68 -24 0
v -66 -26 0
v -67 -26 0
v -67 -25 0
v -66 -25 0
v -67 -26 0
v -68 -26 0
v -68 -25 0
v -67 -25 0
v -68 -26 0
v -69 -26 0
v -69 -25 0
v -68 -25 0
v -66 -27 0
v -67 -27 0
v -67 -26 0
v -66 -26 0
v -67 -27 0
v -68 -27 0
v -68 -26 0
v -67 -26 0
v -68 -27 0
v -69 -27 0
v -69 -26 0
v -68 -26 0
v -66 -28 0
v -67 -28 0
v -67 -27 0
v -66 -27 0
v -67 -28 0
v -68 -28 0
v -68 -27 0
v -67 -27 0
v -68 -28 0
v -69 -28 0
v -69 -27 0
v -68 -27 0
v -66 -29 0
v -67 -29 0
v -67 -28 0
v -66 -28 0
v -67 -29 0
v -68 -29 0
v -68 -28 0
v -67 -28 0
v -68 -29 0
v -69 -29 0
v -69 -28 0
v -68 -28 0
v -66 -30 0
v -67 -30 0
v -67 -29 0
v -66 -29 0
v -67 -30 0
v -68 -30 0
v -68 -29 0
v -67 -29 0
v -68 -30 0
v -69 -30 0
v -69 -29 0
v -68 -29 0
v -66 -31 0
v -67 -31 0
v -67 -30 0
v -66 -30 0
v -67 -31 0
v -68 -31 0
v -68 -30 0
v -67 -30 0
v -68 -31 0
v -69 -31 0
v -69 -30 0
v -68 -30 0
v -51 -34 0
v -52 -34 0
v -52 -33 0
v -51 -33 0
v -55 -34 0
v -56 -34 0
v -56 -33 0
v -55 -33 0
v -66 -34 0
v -67 -34 0
v -67 -33 0
v -66 -33 0
v -51 -35 0
v -52 -35 0
v -52 -34 0
v -51 -34 0
v -55 -35 0
v -56 -35 0
v -56 -34 0
v -55 -34 0
v -66 -35 0
v -67 -35 0
v -67 -34 0
v -66 -34 0

# Texture cooridinates (Count = 34)
vt 0.25 0.3125
vt 0.3125 0.3125
vt 0.3125 0.375
vt 0.25 0.375
vt 0.5 0.875
vt 0.5625 0.875
vt 0.5625 0.9375
vt 0.5 0.9375
vt 0.625 0.875
vt 0.625 0.9375
vt 0.25 0.25
vt 0.3125 0.25
vt 0.5 0.8125
vt 0.5625 0.8125
vt 0.625 0.8125
vt 0.1875 0.8125
vt 0.25 0.8125
vt 0.25 0.875
vt 0.1875 0.875
vt 0.3125 0.8125
vt 0.3125 0.875
vt 0.375 0.8125
vt 0.375 0.875
vt 0.1875 0.75
vt 0.25 0.75
vt 0.3125 0.75
vt 0.375 0.75
vt 0.1875 0.6875
vt 0.25 0.6875
vt 0.3125 0.6875
vt 0.375 0.6875
vt 0.375 0.3125
vt 0.375 0.375
vt 0.375 0.25

# Normal
vn 0 0 -1

# Mesh description
g SecondMap_1_mesh_0026

# Faces
f 1/1/1 2/2/1 3/3/1 4/4/1
f 5/5/1 6/6/1 7/7/1 8/8/1
f 9/6/1 10/9/1 11/10/1 12/7/1
f 13/1/1 14/2/1 15/3/1 16/4/1
f 17/11/1 18/12/1 19/2/1 20/1/1
f 21/13/1 22/14/1 23/6/1 24/5/1
f 25/14/1 26/15/1 27/9/1 28/6/1
f 29/11/1 30/12/1 31/2/1 32/1/1
f 33/16/1 34/17/1 35/18/1 36/19/1
f 37/17/1 38/20/1 39/21/1 40/18/1
f 41/20/1 42/22/1 43/23/1 44/21/1
f 45/24/1 46/25/1 47/17/1 48/16/1
f 49/25/1 50/26/1 51/20/1 52/17/1
f 53/26/1 54/27/1 55/22/1 56/20/1
f 57/24/1 58/25/1 59/17/1 60/16/1
f 61/25/1 62/26/1 63/20/1 64/17/1
f 65/26/1 66/27/1 67/22/1 68/20/1
f 69/24/1 70/25/1 71/17/1 72/16/1
f 73/25/1 74/26/1 75/20/1 76/17/1
f 77/26/1 78/27/1 79/22/1 80/20/1
f 81/24/1 82/25/1 83/17/1 84/16/1
f 85/25/1 86/26/1 87/20/1 88/17/1
f 89/26/1 90/27/1 91/22/1 92/20/1
f 93/24/1 94/25/1 95/17/1 96/16/1
f 97/25/1 98/26/1 99/20/1 100/17/1
f 101/26/1 102/27/1 103/22/1 104/20/1
f 105/24/1 106/25/1 107/17/1 108/16/1
f 109/25/1 110/26/1 111/20/1 112/17/1
f 113/26/1 114/27/1 115/22/1 116/20/1
f 117/24/1 118/25/1 119/17/1 120/16/1
f 121/25/1 122/26/1 123/20/1 124/17/1
f 125/26/1 126/27/1 127/22/1 128/20/1
f 129/24/1 130/25/1 131/17/1 132/16/1
f 133/25/1 134/26/1 135/20/1 136/17/1
f 137/26/1 138/27/1 139/22/1 140/20/1
f 141/24/1 142/25/1 143/17/1 144/16/1
f 145/25/1 146/26/1 147/20/1 148/17/1
f 149/26/1 150/27/1 151/22/1 152/20/1
f 153/28/1 154/29/1 155/25/1 156/24/1
f 157/29/1 158/30/1 159/26/1 160/25/1
f 161/30/1 162/31/1 163/27/1 164/26/1
f 165/1/1 166/2/1 167/3/1 168/4/1
f 169/1/1 170/2/1 171/3/1 172/4/1
f 173/2/1 174/32/1 175/33/1 176/3/1
f 177/11/1 178/12/1 179/2/1 180/1/1
f 181/11/1 182/12/1 183/2/1 184/1/1
f 185/12/1 186/34/1 187/32/1 188/2/1

