# Tiled2Unity generated file. Do not modify by hand.
# Wavefront file for 'SecondMap_1_mesh_0001.obj'

# Vertices (Count = 1000)
v -43 -6 0
v -44 -6 0
v -44 -5 0
v -43 -5 0
v -44 -6 0
v -45 -6 0
v -45 -5 0
v -44 -5 0
v -45 -6 0
v -46 -6 0
v -46 -5 0
v -45 -5 0
v -46 -6 0
v -47 -6 0
v -47 -5 0
v -46 -5 0
v -47 -6 0
v -48 -6 0
v -48 -5 0
v -47 -5 0
v -48 -6 0
v -49 -6 0
v -49 -5 0
v -48 -5 0
v -49 -6 0
v -50 -6 0
v -50 -5 0
v -49 -5 0
v -50 -6 0
v -51 -6 0
v -51 -5 0
v -50 -5 0
v -51 -6 0
v -52 -6 0
v -52 -5 0
v -51 -5 0
v -52 -6 0
v -53 -6 0
v -53 -5 0
v -52 -5 0
v -53 -6 0
v -54 -6 0
v -54 -5 0
v -53 -5 0
v -54 -6 0
v -55 -6 0
v -55 -5 0
v -54 -5 0
v -55 -6 0
v -56 -6 0
v -56 -5 0
v -55 -5 0
v -56 -6 0
v -57 -6 0
v -57 -5 0
v -56 -5 0
v -57 -6 0
v -58 -6 0
v -58 -5 0
v -57 -5 0
v -58 -6 0
v -59 -6 0
v -59 -5 0
v -58 -5 0
v -59 -6 0
v -60 -6 0
v -60 -5 0
v -59 -5 0
v -60 -6 0
v -61 -6 0
v -61 -5 0
v -60 -5 0
v -61 -6 0
v -62 -6 0
v -62 -5 0
v -61 -5 0
v -62 -6 0
v -63 -6 0
v -63 -5 0
v -62 -5 0
v -63 -6 0
v -64 -6 0
v -64 -5 0
v -63 -5 0
v -64 -6 0
v -65 -6 0
v -65 -5 0
v -64 -5 0
v -65 -6 0
v -66 -6 0
v -66 -5 0
v -65 -5 0
v -66 -6 0
v -67 -6 0
v -67 -5 0
v -66 -5 0
v -67 -6 0
v -68 -6 0
v -68 -5 0
v -67 -5 0
v -43 -7 0
v -44 -7 0
v -44 -6 0
v -43 -6 0
v -44 -7 0
v -45 -7 0
v -45 -6 0
v -44 -6 0
v -45 -7 0
v -46 -7 0
v -46 -6 0
v -45 -6 0
v -46 -7 0
v -47 -7 0
v -47 -6 0
v -46 -6 0
v -47 -7 0
v -48 -7 0
v -48 -6 0
v -47 -6 0
v -48 -7 0
v -49 -7 0
v -49 -6 0
v -48 -6 0
v -49 -7 0
v -50 -7 0
v -50 -6 0
v -49 -6 0
v -50 -7 0
v -51 -7 0
v -51 -6 0
v -50 -6 0
v -51 -7 0
v -52 -7 0
v -52 -6 0
v -51 -6 0
v -52 -7 0
v -53 -7 0
v -53 -6 0
v -52 -6 0
v -53 -7 0
v -54 -7 0
v -54 -6 0
v -53 -6 0
v -54 -7 0
v -55 -7 0
v -55 -6 0
v -54 -6 0
v -55 -7 0
v -56 -7 0
v -56 -6 0
v -55 -6 0
v -56 -7 0
v -57 -7 0
v -57 -6 0
v -56 -6 0
v -57 -7 0
v -58 -7 0
v -58 -6 0
v -57 -6 0
v -58 -7 0
v -59 -7 0
v -59 -6 0
v -58 -6 0
v -59 -7 0
v -60 -7 0
v -60 -6 0
v -59 -6 0
v -60 -7 0
v -61 -7 0
v -61 -6 0
v -60 -6 0
v -61 -7 0
v -62 -7 0
v -62 -6 0
v -61 -6 0
v -62 -7 0
v -63 -7 0
v -63 -6 0
v -62 -6 0
v -63 -7 0
v -64 -7 0
v -64 -6 0
v -63 -6 0
v -64 -7 0
v -65 -7 0
v -65 -6 0
v -64 -6 0
v -65 -7 0
v -66 -7 0
v -66 -6 0
v -65 -6 0
v -66 -7 0
v -67 -7 0
v -67 -6 0
v -66 -6 0
v -67 -7 0
v -68 -7 0
v -68 -6 0
v -67 -6 0
v -43 -8 0
v -44 -8 0
v -44 -7 0
v -43 -7 0
v -44 -8 0
v -45 -8 0
v -45 -7 0
v -44 -7 0
v -45 -8 0
v -46 -8 0
v -46 -7 0
v -45 -7 0
v -46 -8 0
v -47 -8 0
v -47 -7 0
v -46 -7 0
v -47 -8 0
v -48 -8 0
v -48 -7 0
v -47 -7 0
v -48 -8 0
v -49 -8 0
v -49 -7 0
v -48 -7 0
v -49 -8 0
v -50 -8 0
v -50 -7 0
v -49 -7 0
v -50 -8 0
v -51 -8 0
v -51 -7 0
v -50 -7 0
v -51 -8 0
v -52 -8 0
v -52 -7 0
v -51 -7 0
v -52 -8 0
v -53 -8 0
v -53 -7 0
v -52 -7 0
v -53 -8 0
v -54 -8 0
v -54 -7 0
v -53 -7 0
v -54 -8 0
v -55 -8 0
v -55 -7 0
v -54 -7 0
v -55 -8 0
v -56 -8 0
v -56 -7 0
v -55 -7 0
v -56 -8 0
v -57 -8 0
v -57 -7 0
v -56 -7 0
v -57 -8 0
v -58 -8 0
v -58 -7 0
v -57 -7 0
v -58 -8 0
v -59 -8 0
v -59 -7 0
v -58 -7 0
v -59 -8 0
v -60 -8 0
v -60 -7 0
v -59 -7 0
v -60 -8 0
v -61 -8 0
v -61 -7 0
v -60 -7 0
v -61 -8 0
v -62 -8 0
v -62 -7 0
v -61 -7 0
v -62 -8 0
v -63 -8 0
v -63 -7 0
v -62 -7 0
v -63 -8 0
v -64 -8 0
v -64 -7 0
v -63 -7 0
v -64 -8 0
v -65 -8 0
v -65 -7 0
v -64 -7 0
v -65 -8 0
v -66 -8 0
v -66 -7 0
v -65 -7 0
v -66 -8 0
v -67 -8 0
v -67 -7 0
v -66 -7 0
v -67 -8 0
v -68 -8 0
v -68 -7 0
v -67 -7 0
v -43 -9 0
v -44 -9 0
v -44 -8 0
v -43 -8 0
v -44 -9 0
v -45 -9 0
v -45 -8 0
v -44 -8 0
v -45 -9 0
v -46 -9 0
v -46 -8 0
v -45 -8 0
v -46 -9 0
v -47 -9 0
v -47 -8 0
v -46 -8 0
v -47 -9 0
v -48 -9 0
v -48 -8 0
v -47 -8 0
v -48 -9 0
v -49 -9 0
v -49 -8 0
v -48 -8 0
v -49 -9 0
v -50 -9 0
v -50 -8 0
v -49 -8 0
v -50 -9 0
v -51 -9 0
v -51 -8 0
v -50 -8 0
v -51 -9 0
v -52 -9 0
v -52 -8 0
v -51 -8 0
v -52 -9 0
v -53 -9 0
v -53 -8 0
v -52 -8 0
v -53 -9 0
v -54 -9 0
v -54 -8 0
v -53 -8 0
v -54 -9 0
v -55 -9 0
v -55 -8 0
v -54 -8 0
v -55 -9 0
v -56 -9 0
v -56 -8 0
v -55 -8 0
v -56 -9 0
v -57 -9 0
v -57 -8 0
v -56 -8 0
v -57 -9 0
v -58 -9 0
v -58 -8 0
v -57 -8 0
v -58 -9 0
v -59 -9 0
v -59 -8 0
v -58 -8 0
v -59 -9 0
v -60 -9 0
v -60 -8 0
v -59 -8 0
v -60 -9 0
v -61 -9 0
v -61 -8 0
v -60 -8 0
v -61 -9 0
v -62 -9 0
v -62 -8 0
v -61 -8 0
v -62 -9 0
v -63 -9 0
v -63 -8 0
v -62 -8 0
v -63 -9 0
v -64 -9 0
v -64 -8 0
v -63 -8 0
v -64 -9 0
v -65 -9 0
v -65 -8 0
v -64 -8 0
v -65 -9 0
v -66 -9 0
v -66 -8 0
v -65 -8 0
v -66 -9 0
v -67 -9 0
v -67 -8 0
v -66 -8 0
v -67 -9 0
v -68 -9 0
v -68 -8 0
v -67 -8 0
v -43 -10 0
v -44 -10 0
v -44 -9 0
v -43 -9 0
v -44 -10 0
v -45 -10 0
v -45 -9 0
v -44 -9 0
v -45 -10 0
v -46 -10 0
v -46 -9 0
v -45 -9 0
v -46 -10 0
v -47 -10 0
v -47 -9 0
v -46 -9 0
v -47 -10 0
v -48 -10 0
v -48 -9 0
v -47 -9 0
v -48 -10 0
v -49 -10 0
v -49 -9 0
v -48 -9 0
v -49 -10 0
v -50 -10 0
v -50 -9 0
v -49 -9 0
v -50 -10 0
v -51 -10 0
v -51 -9 0
v -50 -9 0
v -51 -10 0
v -52 -10 0
v -52 -9 0
v -51 -9 0
v -52 -10 0
v -53 -10 0
v -53 -9 0
v -52 -9 0
v -53 -10 0
v -54 -10 0
v -54 -9 0
v -53 -9 0
v -54 -10 0
v -55 -10 0
v -55 -9 0
v -54 -9 0
v -55 -10 0
v -56 -10 0
v -56 -9 0
v -55 -9 0
v -56 -10 0
v -57 -10 0
v -57 -9 0
v -56 -9 0
v -57 -10 0
v -58 -10 0
v -58 -9 0
v -57 -9 0
v -58 -10 0
v -59 -10 0
v -59 -9 0
v -58 -9 0
v -59 -10 0
v -60 -10 0
v -60 -9 0
v -59 -9 0
v -60 -10 0
v -61 -10 0
v -61 -9 0
v -60 -9 0
v -61 -10 0
v -62 -10 0
v -62 -9 0
v -61 -9 0
v -62 -10 0
v -63 -10 0
v -63 -9 0
v -62 -9 0
v -63 -10 0
v -64 -10 0
v -64 -9 0
v -63 -9 0
v -64 -10 0
v -65 -10 0
v -65 -9 0
v -64 -9 0
v -65 -10 0
v -66 -10 0
v -66 -9 0
v -65 -9 0
v -66 -10 0
v -67 -10 0
v -67 -9 0
v -66 -9 0
v -67 -10 0
v -68 -10 0
v -68 -9 0
v -67 -9 0
v -43 -11 0
v -44 -11 0
v -44 -10 0
v -43 -10 0
v -44 -11 0
v -45 -11 0
v -45 -10 0
v -44 -10 0
v -45 -11 0
v -46 -11 0
v -46 -10 0
v -45 -10 0
v -46 -11 0
v -47 -11 0
v -47 -10 0
v -46 -10 0
v -47 -11 0
v -48 -11 0
v -48 -10 0
v -47 -10 0
v -48 -11 0
v -49 -11 0
v -49 -10 0
v -48 -10 0
v -49 -11 0
v -50 -11 0
v -50 -10 0
v -49 -10 0
v -50 -11 0
v -51 -11 0
v -51 -10 0
v -50 -10 0
v -51 -11 0
v -52 -11 0
v -52 -10 0
v -51 -10 0
v -52 -11 0
v -53 -11 0
v -53 -10 0
v -52 -10 0
v -53 -11 0
v -54 -11 0
v -54 -10 0
v -53 -10 0
v -54 -11 0
v -55 -11 0
v -55 -10 0
v -54 -10 0
v -55 -11 0
v -56 -11 0
v -56 -10 0
v -55 -10 0
v -56 -11 0
v -57 -11 0
v -57 -10 0
v -56 -10 0
v -57 -11 0
v -58 -11 0
v -58 -10 0
v -57 -10 0
v -58 -11 0
v -59 -11 0
v -59 -10 0
v -58 -10 0
v -59 -11 0
v -60 -11 0
v -60 -10 0
v -59 -10 0
v -60 -11 0
v -61 -11 0
v -61 -10 0
v -60 -10 0
v -61 -11 0
v -62 -11 0
v -62 -10 0
v -61 -10 0
v -62 -11 0
v -63 -11 0
v -63 -10 0
v -62 -10 0
v -63 -11 0
v -64 -11 0
v -64 -10 0
v -63 -10 0
v -64 -11 0
v -65 -11 0
v -65 -10 0
v -64 -10 0
v -65 -11 0
v -66 -11 0
v -66 -10 0
v -65 -10 0
v -66 -11 0
v -67 -11 0
v -67 -10 0
v -66 -10 0
v -67 -11 0
v -68 -11 0
v -68 -10 0
v -67 -10 0
v -43 -12 0
v -44 -12 0
v -44 -11 0
v -43 -11 0
v -44 -12 0
v -45 -12 0
v -45 -11 0
v -44 -11 0
v -45 -12 0
v -46 -12 0
v -46 -11 0
v -45 -11 0
v -46 -12 0
v -47 -12 0
v -47 -11 0
v -46 -11 0
v -47 -12 0
v -48 -12 0
v -48 -11 0
v -47 -11 0
v -48 -12 0
v -49 -12 0
v -49 -11 0
v -48 -11 0
v -49 -12 0
v -50 -12 0
v -50 -11 0
v -49 -11 0
v -50 -12 0
v -51 -12 0
v -51 -11 0
v -50 -11 0
v -51 -12 0
v -52 -12 0
v -52 -11 0
v -51 -11 0
v -52 -12 0
v -53 -12 0
v -53 -11 0
v -52 -11 0
v -53 -12 0
v -54 -12 0
v -54 -11 0
v -53 -11 0
v -54 -12 0
v -55 -12 0
v -55 -11 0
v -54 -11 0
v -55 -12 0
v -56 -12 0
v -56 -11 0
v -55 -11 0
v -56 -12 0
v -57 -12 0
v -57 -11 0
v -56 -11 0
v -57 -12 0
v -58 -12 0
v -58 -11 0
v -57 -11 0
v -58 -12 0
v -59 -12 0
v -59 -11 0
v -58 -11 0
v -59 -12 0
v -60 -12 0
v -60 -11 0
v -59 -11 0
v -60 -12 0
v -61 -12 0
v -61 -11 0
v -60 -11 0
v -61 -12 0
v -62 -12 0
v -62 -11 0
v -61 -11 0
v -62 -12 0
v -63 -12 0
v -63 -11 0
v -62 -11 0
v -63 -12 0
v -64 -12 0
v -64 -11 0
v -63 -11 0
v -64 -12 0
v -65 -12 0
v -65 -11 0
v -64 -11 0
v -65 -12 0
v -66 -12 0
v -66 -11 0
v -65 -11 0
v -66 -12 0
v -67 -12 0
v -67 -11 0
v -66 -11 0
v -67 -12 0
v -68 -12 0
v -68 -11 0
v -67 -11 0
v -43 -13 0
v -44 -13 0
v -44 -12 0
v -43 -12 0
v -44 -13 0
v -45 -13 0
v -45 -12 0
v -44 -12 0
v -45 -13 0
v -46 -13 0
v -46 -12 0
v -45 -12 0
v -46 -13 0
v -47 -13 0
v -47 -12 0
v -46 -12 0
v -47 -13 0
v -48 -13 0
v -48 -12 0
v -47 -12 0
v -48 -13 0
v -49 -13 0
v -49 -12 0
v -48 -12 0
v -49 -13 0
v -50 -13 0
v -50 -12 0
v -49 -12 0
v -50 -13 0
v -51 -13 0
v -51 -12 0
v -50 -12 0
v -51 -13 0
v -52 -13 0
v -52 -12 0
v -51 -12 0
v -52 -13 0
v -53 -13 0
v -53 -12 0
v -52 -12 0
v -53 -13 0
v -54 -13 0
v -54 -12 0
v -53 -12 0
v -54 -13 0
v -55 -13 0
v -55 -12 0
v -54 -12 0
v -55 -13 0
v -56 -13 0
v -56 -12 0
v -55 -12 0
v -56 -13 0
v -57 -13 0
v -57 -12 0
v -56 -12 0
v -57 -13 0
v -58 -13 0
v -58 -12 0
v -57 -12 0
v -58 -13 0
v -59 -13 0
v -59 -12 0
v -58 -12 0
v -59 -13 0
v -60 -13 0
v -60 -12 0
v -59 -12 0
v -60 -13 0
v -61 -13 0
v -61 -12 0
v -60 -12 0
v -61 -13 0
v -62 -13 0
v -62 -12 0
v -61 -12 0
v -62 -13 0
v -63 -13 0
v -63 -12 0
v -62 -12 0
v -63 -13 0
v -64 -13 0
v -64 -12 0
v -63 -12 0
v -64 -13 0
v -65 -13 0
v -65 -12 0
v -64 -12 0
v -65 -13 0
v -66 -13 0
v -66 -12 0
v -65 -12 0
v -66 -13 0
v -67 -13 0
v -67 -12 0
v -66 -12 0
v -67 -13 0
v -68 -13 0
v -68 -12 0
v -67 -12 0
v -43 -14 0
v -44 -14 0
v -44 -13 0
v -43 -13 0
v -44 -14 0
v -45 -14 0
v -45 -13 0
v -44 -13 0
v -45 -14 0
v -46 -14 0
v -46 -13 0
v -45 -13 0
v -46 -14 0
v -47 -14 0
v -47 -13 0
v -46 -13 0
v -47 -14 0
v -48 -14 0
v -48 -13 0
v -47 -13 0
v -48 -14 0
v -49 -14 0
v -49 -13 0
v -48 -13 0
v -49 -14 0
v -50 -14 0
v -50 -13 0
v -49 -13 0
v -50 -14 0
v -51 -14 0
v -51 -13 0
v -50 -13 0
v -51 -14 0
v -52 -14 0
v -52 -13 0
v -51 -13 0
v -52 -14 0
v -53 -14 0
v -53 -13 0
v -52 -13 0
v -53 -14 0
v -54 -14 0
v -54 -13 0
v -53 -13 0
v -54 -14 0
v -55 -14 0
v -55 -13 0
v -54 -13 0
v -55 -14 0
v -56 -14 0
v -56 -13 0
v -55 -13 0
v -56 -14 0
v -57 -14 0
v -57 -13 0
v -56 -13 0
v -57 -14 0
v -58 -14 0
v -58 -13 0
v -57 -13 0
v -58 -14 0
v -59 -14 0
v -59 -13 0
v -58 -13 0
v -59 -14 0
v -60 -14 0
v -60 -13 0
v -59 -13 0
v -60 -14 0
v -61 -14 0
v -61 -13 0
v -60 -13 0
v -61 -14 0
v -62 -14 0
v -62 -13 0
v -61 -13 0
v -62 -14 0
v -63 -14 0
v -63 -13 0
v -62 -13 0
v -63 -14 0
v -64 -14 0
v -64 -13 0
v -63 -13 0
v -64 -14 0
v -65 -14 0
v -65 -13 0
v -64 -13 0
v -65 -14 0
v -66 -14 0
v -66 -13 0
v -65 -13 0
v -66 -14 0
v -67 -14 0
v -67 -13 0
v -66 -13 0
v -67 -14 0
v -68 -14 0
v -68 -13 0
v -67 -13 0
v -43 -15 0
v -44 -15 0
v -44 -14 0
v -43 -14 0
v -44 -15 0
v -45 -15 0
v -45 -14 0
v -44 -14 0
v -45 -15 0
v -46 -15 0
v -46 -14 0
v -45 -14 0
v -46 -15 0
v -47 -15 0
v -47 -14 0
v -46 -14 0
v -47 -15 0
v -48 -15 0
v -48 -14 0
v -47 -14 0
v -48 -15 0
v -49 -15 0
v -49 -14 0
v -48 -14 0
v -49 -15 0
v -50 -15 0
v -50 -14 0
v -49 -14 0
v -50 -15 0
v -51 -15 0
v -51 -14 0
v -50 -14 0
v -51 -15 0
v -52 -15 0
v -52 -14 0
v -51 -14 0
v -52 -15 0
v -53 -15 0
v -53 -14 0
v -52 -14 0
v -53 -15 0
v -54 -15 0
v -54 -14 0
v -53 -14 0
v -54 -15 0
v -55 -15 0
v -55 -14 0
v -54 -14 0
v -55 -15 0
v -56 -15 0
v -56 -14 0
v -55 -14 0
v -56 -15 0
v -57 -15 0
v -57 -14 0
v -56 -14 0
v -57 -15 0
v -58 -15 0
v -58 -14 0
v -57 -14 0
v -58 -15 0
v -59 -15 0
v -59 -14 0
v -58 -14 0
v -59 -15 0
v -60 -15 0
v -60 -14 0
v -59 -14 0
v -60 -15 0
v -61 -15 0
v -61 -14 0
v -60 -14 0
v -61 -15 0
v -62 -15 0
v -62 -14 0
v -61 -14 0
v -62 -15 0
v -63 -15 0
v -63 -14 0
v -62 -14 0
v -63 -15 0
v -64 -15 0
v -64 -14 0
v -63 -14 0
v -64 -15 0
v -65 -15 0
v -65 -14 0
v -64 -14 0
v -65 -15 0
v -66 -15 0
v -66 -14 0
v -65 -14 0
v -66 -15 0
v -67 -15 0
v -67 -14 0
v -66 -14 0
v -67 -15 0
v -68 -15 0
v -68 -14 0
v -67 -14 0

# Texture cooridinates (Count = 9)
vt 0.3125 0.2678571
vt 0.375 0.2678571
vt 0.375 0.2857143
vt 0.3125 0.2857143
vt 0.4375 0.2678571
vt 0.4375 0.2857143
vt 0.3125 0.25
vt 0.375 0.25
vt 0.4375 0.25

# Normal
vn 0 0 -1

# Mesh description
g SecondMap_1_mesh_0001

# Faces
f 1/1/1 2/2/1 3/3/1 4/4/1
f 5/2/1 6/5/1 7/6/1 8/3/1
f 9/2/1 10/5/1 11/6/1 12/3/1
f 13/2/1 14/5/1 15/6/1 16/3/1
f 17/2/1 18/5/1 19/6/1 20/3/1
f 21/2/1 22/5/1 23/6/1 24/3/1
f 25/2/1 26/5/1 27/6/1 28/3/1
f 29/2/1 30/5/1 31/6/1 32/3/1
f 33/2/1 34/5/1 35/6/1 36/3/1
f 37/2/1 38/5/1 39/6/1 40/3/1
f 41/2/1 42/5/1 43/6/1 44/3/1
f 45/2/1 46/5/1 47/6/1 48/3/1
f 49/2/1 50/5/1 51/6/1 52/3/1
f 53/2/1 54/5/1 55/6/1 56/3/1
f 57/2/1 58/5/1 59/6/1 60/3/1
f 61/2/1 62/5/1 63/6/1 64/3/1
f 65/2/1 66/5/1 67/6/1 68/3/1
f 69/2/1 70/5/1 71/6/1 72/3/1
f 73/2/1 74/5/1 75/6/1 76/3/1
f 77/2/1 78/5/1 79/6/1 80/3/1
f 81/2/1 82/5/1 83/6/1 84/3/1
f 85/2/1 86/5/1 87/6/1 88/3/1
f 89/2/1 90/5/1 91/6/1 92/3/1
f 93/2/1 94/5/1 95/6/1 96/3/1
f 97/2/1 98/5/1 99/6/1 100/3/1
f 101/7/1 102/8/1 103/2/1 104/1/1
f 105/8/1 106/9/1 107/5/1 108/2/1
f 109/8/1 110/9/1 111/5/1 112/2/1
f 113/8/1 114/9/1 115/5/1 116/2/1
f 117/8/1 118/9/1 119/5/1 120/2/1
f 121/8/1 122/9/1 123/5/1 124/2/1
f 125/8/1 126/9/1 127/5/1 128/2/1
f 129/8/1 130/9/1 131/5/1 132/2/1
f 133/8/1 134/9/1 135/5/1 136/2/1
f 137/8/1 138/9/1 139/5/1 140/2/1
f 141/8/1 142/9/1 143/5/1 144/2/1
f 145/8/1 146/9/1 147/5/1 148/2/1
f 149/8/1 150/9/1 151/5/1 152/2/1
f 153/8/1 154/9/1 155/5/1 156/2/1
f 157/8/1 158/9/1 159/5/1 160/2/1
f 161/8/1 162/9/1 163/5/1 164/2/1
f 165/8/1 166/9/1 167/5/1 168/2/1
f 169/8/1 170/9/1 171/5/1 172/2/1
f 173/8/1 174/9/1 175/5/1 176/2/1
f 177/8/1 178/9/1 179/5/1 180/2/1
f 181/8/1 182/9/1 183/5/1 184/2/1
f 185/8/1 186/9/1 187/5/1 188/2/1
f 189/8/1 190/9/1 191/5/1 192/2/1
f 193/8/1 194/9/1 195/5/1 196/2/1
f 197/8/1 198/9/1 199/5/1 200/2/1
f 201/7/1 202/8/1 203/2/1 204/1/1
f 205/8/1 206/9/1 207/5/1 208/2/1
f 209/8/1 210/9/1 211/5/1 212/2/1
f 213/8/1 214/9/1 215/5/1 216/2/1
f 217/8/1 218/9/1 219/5/1 220/2/1
f 221/8/1 222/9/1 223/5/1 224/2/1
f 225/8/1 226/9/1 227/5/1 228/2/1
f 229/8/1 230/9/1 231/5/1 232/2/1
f 233/8/1 234/9/1 235/5/1 236/2/1
f 237/8/1 238/9/1 239/5/1 240/2/1
f 241/8/1 242/9/1 243/5/1 244/2/1
f 245/8/1 246/9/1 247/5/1 248/2/1
f 249/8/1 250/9/1 251/5/1 252/2/1
f 253/8/1 254/9/1 255/5/1 256/2/1
f 257/8/1 258/9/1 259/5/1 260/2/1
f 261/8/1 262/9/1 263/5/1 264/2/1
f 265/8/1 266/9/1 267/5/1 268/2/1
f 269/8/1 270/9/1 271/5/1 272/2/1
f 273/8/1 274/9/1 275/5/1 276/2/1
f 277/8/1 278/9/1 279/5/1 280/2/1
f 281/8/1 282/9/1 283/5/1 284/2/1
f 285/8/1 286/9/1 287/5/1 288/2/1
f 289/8/1 290/9/1 291/5/1 292/2/1
f 293/8/1 294/9/1 295/5/1 296/2/1
f 297/8/1 298/9/1 299/5/1 300/2/1
f 301/7/1 302/8/1 303/2/1 304/1/1
f 305/8/1 306/9/1 307/5/1 308/2/1
f 309/8/1 310/9/1 311/5/1 312/2/1
f 313/8/1 314/9/1 315/5/1 316/2/1
f 317/8/1 318/9/1 319/5/1 320/2/1
f 321/8/1 322/9/1 323/5/1 324/2/1
f 325/8/1 326/9/1 327/5/1 328/2/1
f 329/8/1 330/9/1 331/5/1 332/2/1
f 333/8/1 334/9/1 335/5/1 336/2/1
f 337/8/1 338/9/1 339/5/1 340/2/1
f 341/8/1 342/9/1 343/5/1 344/2/1
f 345/8/1 346/9/1 347/5/1 348/2/1
f 349/8/1 350/9/1 351/5/1 352/2/1
f 353/8/1 354/9/1 355/5/1 356/2/1
f 357/8/1 358/9/1 359/5/1 360/2/1
f 361/8/1 362/9/1 363/5/1 364/2/1
f 365/8/1 366/9/1 367/5/1 368/2/1
f 369/8/1 370/9/1 371/5/1 372/2/1
f 373/8/1 374/9/1 375/5/1 376/2/1
f 377/8/1 378/9/1 379/5/1 380/2/1
f 381/8/1 382/9/1 383/5/1 384/2/1
f 385/8/1 386/9/1 387/5/1 388/2/1
f 389/8/1 390/9/1 391/5/1 392/2/1
f 393/8/1 394/9/1 395/5/1 396/2/1
f 397/8/1 398/9/1 399/5/1 400/2/1
f 401/7/1 402/8/1 403/2/1 404/1/1
f 405/8/1 406/9/1 407/5/1 408/2/1
f 409/8/1 410/9/1 411/5/1 412/2/1
f 413/8/1 414/9/1 415/5/1 416/2/1
f 417/8/1 418/9/1 419/5/1 420/2/1
f 421/8/1 422/9/1 423/5/1 424/2/1
f 425/8/1 426/9/1 427/5/1 428/2/1
f 429/8/1 430/9/1 431/5/1 432/2/1
f 433/8/1 434/9/1 435/5/1 436/2/1
f 437/8/1 438/9/1 439/5/1 440/2/1
f 441/8/1 442/9/1 443/5/1 444/2/1
f 445/8/1 446/9/1 447/5/1 448/2/1
f 449/8/1 450/9/1 451/5/1 452/2/1
f 453/8/1 454/9/1 455/5/1 456/2/1
f 457/8/1 458/9/1 459/5/1 460/2/1
f 461/8/1 462/9/1 463/5/1 464/2/1
f 465/8/1 466/9/1 467/5/1 468/2/1
f 469/8/1 470/9/1 471/5/1 472/2/1
f 473/8/1 474/9/1 475/5/1 476/2/1
f 477/8/1 478/9/1 479/5/1 480/2/1
f 481/8/1 482/9/1 483/5/1 484/2/1
f 485/8/1 486/9/1 487/5/1 488/2/1
f 489/8/1 490/9/1 491/5/1 492/2/1
f 493/8/1 494/9/1 495/5/1 496/2/1
f 497/8/1 498/9/1 499/5/1 500/2/1
f 501/7/1 502/8/1 503/2/1 504/1/1
f 505/8/1 506/9/1 507/5/1 508/2/1
f 509/8/1 510/9/1 511/5/1 512/2/1
f 513/8/1 514/9/1 515/5/1 516/2/1
f 517/8/1 518/9/1 519/5/1 520/2/1
f 521/8/1 522/9/1 523/5/1 524/2/1
f 525/8/1 526/9/1 527/5/1 528/2/1
f 529/8/1 530/9/1 531/5/1 532/2/1
f 533/8/1 534/9/1 535/5/1 536/2/1
f 537/8/1 538/9/1 539/5/1 540/2/1
f 541/8/1 542/9/1 543/5/1 544/2/1
f 545/8/1 546/9/1 547/5/1 548/2/1
f 549/8/1 550/9/1 551/5/1 552/2/1
f 553/8/1 554/9/1 555/5/1 556/2/1
f 557/8/1 558/9/1 559/5/1 560/2/1
f 561/8/1 562/9/1 563/5/1 564/2/1
f 565/8/1 566/9/1 567/5/1 568/2/1
f 569/8/1 570/9/1 571/5/1 572/2/1
f 573/8/1 574/9/1 575/5/1 576/2/1
f 577/8/1 578/9/1 579/5/1 580/2/1
f 581/8/1 582/9/1 583/5/1 584/2/1
f 585/8/1 586/9/1 587/5/1 588/2/1
f 589/8/1 590/9/1 591/5/1 592/2/1
f 593/8/1 594/9/1 595/5/1 596/2/1
f 597/8/1 598/9/1 599/5/1 600/2/1
f 601/7/1 602/8/1 603/2/1 604/1/1
f 605/8/1 606/9/1 607/5/1 608/2/1
f 609/8/1 610/9/1 611/5/1 612/2/1
f 613/8/1 614/9/1 615/5/1 616/2/1
f 617/8/1 618/9/1 619/5/1 620/2/1
f 621/8/1 622/9/1 623/5/1 624/2/1
f 625/8/1 626/9/1 627/5/1 628/2/1
f 629/8/1 630/9/1 631/5/1 632/2/1
f 633/8/1 634/9/1 635/5/1 636/2/1
f 637/8/1 638/9/1 639/5/1 640/2/1
f 641/8/1 642/9/1 643/5/1 644/2/1
f 645/8/1 646/9/1 647/5/1 648/2/1
f 649/8/1 650/9/1 651/5/1 652/2/1
f 653/8/1 654/9/1 655/5/1 656/2/1
f 657/8/1 658/9/1 659/5/1 660/2/1
f 661/8/1 662/9/1 663/5/1 664/2/1
f 665/8/1 666/9/1 667/5/1 668/2/1
f 669/8/1 670/9/1 671/5/1 672/2/1
f 673/8/1 674/9/1 675/5/1 676/2/1
f 677/8/1 678/9/1 679/5/1 680/2/1
f 681/8/1 682/9/1 683/5/1 684/2/1
f 685/8/1 686/9/1 687/5/1 688/2/1
f 689/8/1 690/9/1 691/5/1 692/2/1
f 693/8/1 694/9/1 695/5/1 696/2/1
f 697/8/1 698/9/1 699/5/1 700/2/1
f 701/7/1 702/8/1 703/2/1 704/1/1
f 705/8/1 706/9/1 707/5/1 708/2/1
f 709/8/1 710/9/1 711/5/1 712/2/1
f 713/8/1 714/9/1 715/5/1 716/2/1
f 717/8/1 718/9/1 719/5/1 720/2/1
f 721/8/1 722/9/1 723/5/1 724/2/1
f 725/8/1 726/9/1 727/5/1 728/2/1
f 729/8/1 730/9/1 731/5/1 732/2/1
f 733/8/1 734/9/1 735/5/1 736/2/1
f 737/8/1 738/9/1 739/5/1 740/2/1
f 741/8/1 742/9/1 743/5/1 744/2/1
f 745/8/1 746/9/1 747/5/1 748/2/1
f 749/8/1 750/9/1 751/5/1 752/2/1
f 753/8/1 754/9/1 755/5/1 756/2/1
f 757/8/1 758/9/1 759/5/1 760/2/1
f 761/8/1 762/9/1 763/5/1 764/2/1
f 765/8/1 766/9/1 767/5/1 768/2/1
f 769/8/1 770/9/1 771/5/1 772/2/1
f 773/8/1 774/9/1 775/5/1 776/2/1
f 777/8/1 778/9/1 779/5/1 780/2/1
f 781/8/1 782/9/1 783/5/1 784/2/1
f 785/8/1 786/9/1 787/5/1 788/2/1
f 789/8/1 790/9/1 791/5/1 792/2/1
f 793/8/1 794/9/1 795/5/1 796/2/1
f 797/8/1 798/9/1 799/5/1 800/2/1
f 801/7/1 802/8/1 803/2/1 804/1/1
f 805/8/1 806/9/1 807/5/1 808/2/1
f 809/8/1 810/9/1 811/5/1 812/2/1
f 813/8/1 814/9/1 815/5/1 816/2/1
f 817/8/1 818/9/1 819/5/1 820/2/1
f 821/8/1 822/9/1 823/5/1 824/2/1
f 825/8/1 826/9/1 827/5/1 828/2/1
f 829/8/1 830/9/1 831/5/1 832/2/1
f 833/8/1 834/9/1 835/5/1 836/2/1
f 837/8/1 838/9/1 839/5/1 840/2/1
f 841/8/1 842/9/1 843/5/1 844/2/1
f 845/8/1 846/9/1 847/5/1 848/2/1
f 849/8/1 850/9/1 851/5/1 852/2/1
f 853/8/1 854/9/1 855/5/1 856/2/1
f 857/8/1 858/9/1 859/5/1 860/2/1
f 861/8/1 862/9/1 863/5/1 864/2/1
f 865/8/1 866/9/1 867/5/1 868/2/1
f 869/8/1 870/9/1 871/5/1 872/2/1
f 873/8/1 874/9/1 875/5/1 876/2/1
f 877/8/1 878/9/1 879/5/1 880/2/1
f 881/8/1 882/9/1 883/5/1 884/2/1
f 885/8/1 886/9/1 887/5/1 888/2/1
f 889/8/1 890/9/1 891/5/1 892/2/1
f 893/8/1 894/9/1 895/5/1 896/2/1
f 897/8/1 898/9/1 899/5/1 900/2/1
f 901/7/1 902/8/1 903/2/1 904/1/1
f 905/8/1 906/9/1 907/5/1 908/2/1
f 909/8/1 910/9/1 911/5/1 912/2/1
f 913/8/1 914/9/1 915/5/1 916/2/1
f 917/8/1 918/9/1 919/5/1 920/2/1
f 921/8/1 922/9/1 923/5/1 924/2/1
f 925/8/1 926/9/1 927/5/1 928/2/1
f 929/8/1 930/9/1 931/5/1 932/2/1
f 933/8/1 934/9/1 935/5/1 936/2/1
f 937/8/1 938/9/1 939/5/1 940/2/1
f 941/8/1 942/9/1 943/5/1 944/2/1
f 945/8/1 946/9/1 947/5/1 948/2/1
f 949/8/1 950/9/1 951/5/1 952/2/1
f 953/8/1 954/9/1 955/5/1 956/2/1
f 957/8/1 958/9/1 959/5/1 960/2/1
f 961/8/1 962/9/1 963/5/1 964/2/1
f 965/8/1 966/9/1 967/5/1 968/2/1
f 969/8/1 970/9/1 971/5/1 972/2/1
f 973/8/1 974/9/1 975/5/1 976/2/1
f 977/8/1 978/9/1 979/5/1 980/2/1
f 981/8/1 982/9/1 983/5/1 984/2/1
f 985/8/1 986/9/1 987/5/1 988/2/1
f 989/8/1 990/9/1 991/5/1 992/2/1
f 993/8/1 994/9/1 995/5/1 996/2/1
f 997/8/1 998/9/1 999/5/1 1000/2/1

