# Tiled2Unity generated file. Do not modify by hand.
# Wavefront file for 'SecondMap_1_mesh_0005.obj'

# Vertices (Count = 568)
v -3 -25 0
v -4 -25 0
v -4 -24 0
v -3 -24 0
v -4 -25 0
v -5 -25 0
v -5 -24 0
v -4 -24 0
v -5 -25 0
v -6 -25 0
v -6 -24 0
v -5 -24 0
v -6 -25 0
v -7 -25 0
v -7 -24 0
v -6 -24 0
v -7 -25 0
v -8 -25 0
v -8 -24 0
v -7 -24 0
v -8 -25 0
v -9 -25 0
v -9 -24 0
v -8 -24 0
v -9 -25 0
v -10 -25 0
v -10 -24 0
v -9 -24 0
v -10 -25 0
v -11 -25 0
v -11 -24 0
v -10 -24 0
v -11 -25 0
v -12 -25 0
v -12 -24 0
v -11 -24 0
v -3 -26 0
v -4 -26 0
v -4 -25 0
v -3 -25 0
v -4 -26 0
v -5 -26 0
v -5 -25 0
v -4 -25 0
v -5 -26 0
v -6 -26 0
v -6 -25 0
v -5 -25 0
v -6 -26 0
v -7 -26 0
v -7 -25 0
v -6 -25 0
v -7 -26 0
v -8 -26 0
v -8 -25 0
v -7 -25 0
v -8 -26 0
v -9 -26 0
v -9 -25 0
v -8 -25 0
v -9 -26 0
v -10 -26 0
v -10 -25 0
v -9 -25 0
v -10 -26 0
v -11 -26 0
v -11 -25 0
v -10 -25 0
v -11 -26 0
v -12 -26 0
v -12 -25 0
v -11 -25 0
v -12 -26 0
v -13 -26 0
v -13 -25 0
v -12 -25 0
v -13 -26 0
v -14 -26 0
v -14 -25 0
v -13 -25 0
v -3 -27 0
v -4 -27 0
v -4 -26 0
v -3 -26 0
v -4 -27 0
v -5 -27 0
v -5 -26 0
v -4 -26 0
v -5 -27 0
v -6 -27 0
v -6 -26 0
v -5 -26 0
v -6 -27 0
v -7 -27 0
v -7 -26 0
v -6 -26 0
v -7 -27 0
v -8 -27 0
v -8 -26 0
v -7 -26 0
v -8 -27 0
v -9 -27 0
v -9 -26 0
v -8 -26 0
v -9 -27 0
v -10 -27 0
v -10 -26 0
v -9 -26 0
v -10 -27 0
v -11 -27 0
v -11 -26 0
v -10 -26 0
v -11 -27 0
v -12 -27 0
v -12 -26 0
v -11 -26 0
v -12 -27 0
v -13 -27 0
v -13 -26 0
v -12 -26 0
v -13 -27 0
v -14 -27 0
v -14 -26 0
v -13 -26 0
v -14 -27 0
v -15 -27 0
v -15 -26 0
v -14 -26 0
v -3 -28 0
v -4 -28 0
v -4 -27 0
v -3 -27 0
v -4 -28 0
v -5 -28 0
v -5 -27 0
v -4 -27 0
v -5 -28 0
v -6 -28 0
v -6 -27 0
v -5 -27 0
v -6 -28 0
v -7 -28 0
v -7 -27 0
v -6 -27 0
v -7 -28 0
v -8 -28 0
v -8 -27 0
v -7 -27 0
v -8 -28 0
v -9 -28 0
v -9 -27 0
v -8 -27 0
v -9 -28 0
v -10 -28 0
v -10 -27 0
v -9 -27 0
v -10 -28 0
v -11 -28 0
v -11 -27 0
v -10 -27 0
v -11 -28 0
v -12 -28 0
v -12 -27 0
v -11 -27 0
v -12 -28 0
v -13 -28 0
v -13 -27 0
v -12 -27 0
v -13 -28 0
v -14 -28 0
v -14 -27 0
v -13 -27 0
v -3 -29 0
v -4 -29 0
v -4 -28 0
v -3 -28 0
v -4 -29 0
v -5 -29 0
v -5 -28 0
v -4 -28 0
v -5 -29 0
v -6 -29 0
v -6 -28 0
v -5 -28 0
v -6 -29 0
v -7 -29 0
v -7 -28 0
v -6 -28 0
v -7 -29 0
v -8 -29 0
v -8 -28 0
v -7 -28 0
v -8 -29 0
v -9 -29 0
v -9 -28 0
v -8 -28 0
v -9 -29 0
v -10 -29 0
v -10 -28 0
v -9 -28 0
v -10 -29 0
v -11 -29 0
v -11 -28 0
v -10 -28 0
v -11 -29 0
v -12 -29 0
v -12 -28 0
v -11 -28 0
v -3 -30 0
v -4 -30 0
v -4 -29 0
v -3 -29 0
v -4 -30 0
v -5 -30 0
v -5 -29 0
v -4 -29 0
v -5 -30 0
v -6 -30 0
v -6 -29 0
v -5 -29 0
v -6 -30 0
v -7 -30 0
v -7 -29 0
v -6 -29 0
v -7 -30 0
v -8 -30 0
v -8 -29 0
v -7 -29 0
v -8 -30 0
v -9 -30 0
v -9 -29 0
v -8 -29 0
v -9 -30 0
v -10 -30 0
v -10 -29 0
v -9 -29 0
v -10 -30 0
v -11 -30 0
v -11 -29 0
v -10 -29 0
v -11 -30 0
v -12 -30 0
v -12 -29 0
v -11 -29 0
v -3 -31 0
v -4 -31 0
v -4 -30 0
v -3 -30 0
v -4 -31 0
v -5 -31 0
v -5 -30 0
v -4 -30 0
v -5 -31 0
v -6 -31 0
v -6 -30 0
v -5 -30 0
v -6 -31 0
v -7 -31 0
v -7 -30 0
v -6 -30 0
v -7 -31 0
v -8 -31 0
v -8 -30 0
v -7 -30 0
v -8 -31 0
v -9 -31 0
v -9 -30 0
v -8 -30 0
v -9 -31 0
v -10 -31 0
v -10 -30 0
v -9 -30 0
v -10 -31 0
v -11 -31 0
v -11 -30 0
v -10 -30 0
v -11 -31 0
v -12 -31 0
v -12 -30 0
v -11 -30 0
v -3 -32 0
v -4 -32 0
v -4 -31 0
v -3 -31 0
v -4 -32 0
v -5 -32 0
v -5 -31 0
v -4 -31 0
v -5 -32 0
v -6 -32 0
v -6 -31 0
v -5 -31 0
v -6 -32 0
v -7 -32 0
v -7 -31 0
v -6 -31 0
v -7 -32 0
v -8 -32 0
v -8 -31 0
v -7 -31 0
v -8 -32 0
v -9 -32 0
v -9 -31 0
v -8 -31 0
v -9 -32 0
v -10 -32 0
v -10 -31 0
v -9 -31 0
v -10 -32 0
v -11 -32 0
v -11 -31 0
v -10 -31 0
v -11 -32 0
v -12 -32 0
v -12 -31 0
v -11 -31 0
v -3 -33 0
v -4 -33 0
v -4 -32 0
v -3 -32 0
v -4 -33 0
v -5 -33 0
v -5 -32 0
v -4 -32 0
v -5 -33 0
v -6 -33 0
v -6 -32 0
v -5 -32 0
v -6 -33 0
v -7 -33 0
v -7 -32 0
v -6 -32 0
v -7 -33 0
v -8 -33 0
v -8 -32 0
v -7 -32 0
v -8 -33 0
v -9 -33 0
v -9 -32 0
v -8 -32 0
v -9 -33 0
v -10 -33 0
v -10 -32 0
v -9 -32 0
v -10 -33 0
v -11 -33 0
v -11 -32 0
v -10 -32 0
v -11 -33 0
v -12 -33 0
v -12 -32 0
v -11 -32 0
v -3 -34 0
v -4 -34 0
v -4 -33 0
v -3 -33 0
v -4 -34 0
v -5 -34 0
v -5 -33 0
v -4 -33 0
v -5 -34 0
v -6 -34 0
v -6 -33 0
v -5 -33 0
v -6 -34 0
v -7 -34 0
v -7 -33 0
v -6 -33 0
v -7 -34 0
v -8 -34 0
v -8 -33 0
v -7 -33 0
v -8 -34 0
v -9 -34 0
v -9 -33 0
v -8 -33 0
v -9 -34 0
v -10 -34 0
v -10 -33 0
v -9 -33 0
v -10 -34 0
v -11 -34 0
v -11 -33 0
v -10 -33 0
v -11 -34 0
v -12 -34 0
v -12 -33 0
v -11 -33 0
v -3 -35 0
v -4 -35 0
v -4 -34 0
v -3 -34 0
v -4 -35 0
v -5 -35 0
v -5 -34 0
v -4 -34 0
v -5 -35 0
v -6 -35 0
v -6 -34 0
v -5 -34 0
v -6 -35 0
v -7 -35 0
v -7 -34 0
v -6 -34 0
v -7 -35 0
v -8 -35 0
v -8 -34 0
v -7 -34 0
v -8 -35 0
v -9 -35 0
v -9 -34 0
v -8 -34 0
v -9 -35 0
v -10 -35 0
v -10 -34 0
v -9 -34 0
v -10 -35 0
v -11 -35 0
v -11 -34 0
v -10 -34 0
v -11 -35 0
v -12 -35 0
v -12 -34 0
v -11 -34 0
v -3 -36 0
v -4 -36 0
v -4 -35 0
v -3 -35 0
v -4 -36 0
v -5 -36 0
v -5 -35 0
v -4 -35 0
v -5 -36 0
v -6 -36 0
v -6 -35 0
v -5 -35 0
v -6 -36 0
v -7 -36 0
v -7 -35 0
v -6 -35 0
v -7 -36 0
v -8 -36 0
v -8 -35 0
v -7 -35 0
v -8 -36 0
v -9 -36 0
v -9 -35 0
v -8 -35 0
v -9 -36 0
v -10 -36 0
v -10 -35 0
v -9 -35 0
v -10 -36 0
v -11 -36 0
v -11 -35 0
v -10 -35 0
v -11 -36 0
v -12 -36 0
v -12 -35 0
v -11 -35 0
v -3 -37 0
v -4 -37 0
v -4 -36 0
v -3 -36 0
v -4 -37 0
v -5 -37 0
v -5 -36 0
v -4 -36 0
v -5 -37 0
v -6 -37 0
v -6 -36 0
v -5 -36 0
v -6 -37 0
v -7 -37 0
v -7 -36 0
v -6 -36 0
v -7 -37 0
v -8 -37 0
v -8 -36 0
v -7 -36 0
v -8 -37 0
v -9 -37 0
v -9 -36 0
v -8 -36 0
v -9 -37 0
v -10 -37 0
v -10 -36 0
v -9 -36 0
v -10 -37 0
v -11 -37 0
v -11 -36 0
v -10 -36 0
v -11 -37 0
v -12 -37 0
v -12 -36 0
v -11 -36 0
v -3 -38 0
v -4 -38 0
v -4 -37 0
v -3 -37 0
v -4 -38 0
v -5 -38 0
v -5 -37 0
v -4 -37 0
v -5 -38 0
v -6 -38 0
v -6 -37 0
v -5 -37 0
v -6 -38 0
v -7 -38 0
v -7 -37 0
v -6 -37 0
v -7 -38 0
v -8 -38 0
v -8 -37 0
v -7 -37 0
v -8 -38 0
v -9 -38 0
v -9 -37 0
v -8 -37 0
v -9 -38 0
v -10 -38 0
v -10 -37 0
v -9 -37 0
v -10 -38 0
v -11 -38 0
v -11 -37 0
v -10 -37 0
v -11 -38 0
v -12 -38 0
v -12 -37 0
v -11 -37 0
v -3 -39 0
v -4 -39 0
v -4 -38 0
v -3 -38 0
v -4 -39 0
v -5 -39 0
v -5 -38 0
v -4 -38 0
v -5 -39 0
v -6 -39 0
v -6 -38 0
v -5 -38 0
v -6 -39 0
v -7 -39 0
v -7 -38 0
v -6 -38 0
v -7 -39 0
v -8 -39 0
v -8 -38 0
v -7 -38 0
v -8 -39 0
v -9 -39 0
v -9 -38 0
v -8 -38 0
v -9 -39 0
v -10 -39 0
v -10 -38 0
v -9 -38 0
v -10 -39 0
v -11 -39 0
v -11 -38 0
v -10 -38 0
v -11 -39 0
v -12 -39 0
v -12 -38 0
v -11 -38 0

# Texture cooridinates (Count = 13)
vt 0.1 0.6
vt 0.2 0.6
vt 0.2 0.7
vt 0.1 0.7
vt 0.3 0.6
vt 0.3 0.7
vt 0.1 0.5
vt 0.2 0.5
vt 0.2 0.2
vt 0.3 0.2
vt 0.3 0.3
vt 0.2 0.3
vt 0.3 0.5

# Normal
vn 0 0 -1

# Mesh description
g SecondMap_1_mesh_0005

# Faces
f 1/1/1 2/2/1 3/3/1 4/4/1
f 5/2/1 6/5/1 7/6/1 8/3/1
f 9/2/1 10/5/1 11/6/1 12/3/1
f 13/2/1 14/5/1 15/6/1 16/3/1
f 17/2/1 18/5/1 19/6/1 20/3/1
f 21/2/1 22/5/1 23/6/1 24/3/1
f 25/2/1 26/5/1 27/6/1 28/3/1
f 29/2/1 30/5/1 31/6/1 32/3/1
f 33/2/1 34/5/1 35/6/1 36/3/1
f 37/7/1 38/8/1 39/2/1 40/1/1
f 41/9/1 42/10/1 43/11/1 44/12/1
f 45/9/1 46/10/1 47/11/1 48/12/1
f 49/9/1 50/10/1 51/11/1 52/12/1
f 53/9/1 54/10/1 55/11/1 56/12/1
f 57/9/1 58/10/1 59/11/1 60/12/1
f 61/9/1 62/10/1 63/11/1 64/12/1
f 65/9/1 66/10/1 67/11/1 68/12/1
f 69/8/1 70/13/1 71/5/1 72/2/1
f 73/8/1 74/13/1 75/5/1 76/2/1
f 77/8/1 78/13/1 79/5/1 80/2/1
f 81/7/1 82/8/1 83/2/1 84/1/1
f 85/9/1 86/10/1 87/11/1 88/12/1
f 89/9/1 90/10/1 91/11/1 92/12/1
f 93/9/1 94/10/1 95/11/1 96/12/1
f 97/9/1 98/10/1 99/11/1 100/12/1
f 101/9/1 102/10/1 103/11/1 104/12/1
f 105/9/1 106/10/1 107/11/1 108/12/1
f 109/9/1 110/10/1 111/11/1 112/12/1
f 113/8/1 114/13/1 115/5/1 116/2/1
f 117/8/1 118/13/1 119/5/1 120/2/1
f 121/8/1 122/13/1 123/5/1 124/2/1
f 125/8/1 126/13/1 127/5/1 128/2/1
f 129/7/1 130/8/1 131/2/1 132/1/1
f 133/9/1 134/10/1 135/11/1 136/12/1
f 137/9/1 138/10/1 139/11/1 140/12/1
f 141/9/1 142/10/1 143/11/1 144/12/1
f 145/9/1 146/10/1 147/11/1 148/12/1
f 149/9/1 150/10/1 151/11/1 152/12/1
f 153/9/1 154/10/1 155/11/1 156/12/1
f 157/9/1 158/10/1 159/11/1 160/12/1
f 161/8/1 162/13/1 163/5/1 164/2/1
f 165/8/1 166/13/1 167/5/1 168/2/1
f 169/8/1 170/13/1 171/5/1 172/2/1
f 173/7/1 174/8/1 175/2/1 176/1/1
f 177/9/1 178/10/1 179/11/1 180/12/1
f 181/9/1 182/10/1 183/11/1 184/12/1
f 185/9/1 186/10/1 187/11/1 188/12/1
f 189/9/1 190/10/1 191/11/1 192/12/1
f 193/9/1 194/10/1 195/11/1 196/12/1
f 197/9/1 198/10/1 199/11/1 200/12/1
f 201/9/1 202/10/1 203/11/1 204/12/1
f 205/8/1 206/13/1 207/5/1 208/2/1
f 209/7/1 210/8/1 211/2/1 212/1/1
f 213/9/1 214/10/1 215/11/1 216/12/1
f 217/9/1 218/10/1 219/11/1 220/12/1
f 221/9/1 222/10/1 223/11/1 224/12/1
f 225/9/1 226/10/1 227/11/1 228/12/1
f 229/9/1 230/10/1 231/11/1 232/12/1
f 233/9/1 234/10/1 235/11/1 236/12/1
f 237/9/1 238/10/1 239/11/1 240/12/1
f 241/8/1 242/13/1 243/5/1 244/2/1
f 245/7/1 246/8/1 247/2/1 248/1/1
f 249/9/1 250/10/1 251/11/1 252/12/1
f 253/9/1 254/10/1 255/11/1 256/12/1
f 257/9/1 258/10/1 259/11/1 260/12/1
f 261/9/1 262/10/1 263/11/1 264/12/1
f 265/9/1 266/10/1 267/11/1 268/12/1
f 269/9/1 270/10/1 271/11/1 272/12/1
f 273/9/1 274/10/1 275/11/1 276/12/1
f 277/8/1 278/13/1 279/5/1 280/2/1
f 281/7/1 282/8/1 283/2/1 284/1/1
f 285/9/1 286/10/1 287/11/1 288/12/1
f 289/9/1 290/10/1 291/11/1 292/12/1
f 293/9/1 294/10/1 295/11/1 296/12/1
f 297/9/1 298/10/1 299/11/1 300/12/1
f 301/9/1 302/10/1 303/11/1 304/12/1
f 305/9/1 306/10/1 307/11/1 308/12/1
f 309/9/1 310/10/1 311/11/1 312/12/1
f 313/8/1 314/13/1 315/5/1 316/2/1
f 317/7/1 318/8/1 319/2/1 320/1/1
f 321/9/1 322/10/1 323/11/1 324/12/1
f 325/9/1 326/10/1 327/11/1 328/12/1
f 329/9/1 330/10/1 331/11/1 332/12/1
f 333/9/1 334/10/1 335/11/1 336/12/1
f 337/9/1 338/10/1 339/11/1 340/12/1
f 341/9/1 342/10/1 343/11/1 344/12/1
f 345/9/1 346/10/1 347/11/1 348/12/1
f 349/8/1 350/13/1 351/5/1 352/2/1
f 353/7/1 354/8/1 355/2/1 356/1/1
f 357/9/1 358/10/1 359/11/1 360/12/1
f 361/9/1 362/10/1 363/11/1 364/12/1
f 365/9/1 366/10/1 367/11/1 368/12/1
f 369/9/1 370/10/1 371/11/1 372/12/1
f 373/9/1 374/10/1 375/11/1 376/12/1
f 377/9/1 378/10/1 379/11/1 380/12/1
f 381/9/1 382/10/1 383/11/1 384/12/1
f 385/8/1 386/13/1 387/5/1 388/2/1
f 389/7/1 390/8/1 391/2/1 392/1/1
f 393/9/1 394/10/1 395/11/1 396/12/1
f 397/9/1 398/10/1 399/11/1 400/12/1
f 401/9/1 402/10/1 403/11/1 404/12/1
f 405/9/1 406/10/1 407/11/1 408/12/1
f 409/9/1 410/10/1 411/11/1 412/12/1
f 413/9/1 414/10/1 415/11/1 416/12/1
f 417/9/1 418/10/1 419/11/1 420/12/1
f 421/8/1 422/13/1 423/5/1 424/2/1
f 425/7/1 426/8/1 427/2/1 428/1/1
f 429/9/1 430/10/1 431/11/1 432/12/1
f 433/9/1 434/10/1 435/11/1 436/12/1
f 437/9/1 438/10/1 439/11/1 440/12/1
f 441/9/1 442/10/1 443/11/1 444/12/1
f 445/9/1 446/10/1 447/11/1 448/12/1
f 449/9/1 450/10/1 451/11/1 452/12/1
f 453/9/1 454/10/1 455/11/1 456/12/1
f 457/8/1 458/13/1 459/5/1 460/2/1
f 461/7/1 462/8/1 463/2/1 464/1/1
f 465/9/1 466/10/1 467/11/1 468/12/1
f 469/9/1 470/10/1 471/11/1 472/12/1
f 473/9/1 474/10/1 475/11/1 476/12/1
f 477/9/1 478/10/1 479/11/1 480/12/1
f 481/9/1 482/10/1 483/11/1 484/12/1
f 485/9/1 486/10/1 487/11/1 488/12/1
f 489/9/1 490/10/1 491/11/1 492/12/1
f 493/8/1 494/13/1 495/5/1 496/2/1
f 497/7/1 498/8/1 499/2/1 500/1/1
f 501/9/1 502/10/1 503/11/1 504/12/1
f 505/9/1 506/10/1 507/11/1 508/12/1
f 509/9/1 510/10/1 511/11/1 512/12/1
f 513/9/1 514/10/1 515/11/1 516/12/1
f 517/9/1 518/10/1 519/11/1 520/12/1
f 521/9/1 522/10/1 523/11/1 524/12/1
f 525/9/1 526/10/1 527/11/1 528/12/1
f 529/8/1 530/13/1 531/5/1 532/2/1
f 533/7/1 534/8/1 535/2/1 536/1/1
f 537/8/1 538/13/1 539/5/1 540/2/1
f 541/8/1 542/13/1 543/5/1 544/2/1
f 545/8/1 546/13/1 547/5/1 548/2/1
f 549/8/1 550/13/1 551/5/1 552/2/1
f 553/8/1 554/13/1 555/5/1 556/2/1
f 557/8/1 558/13/1 559/5/1 560/2/1
f 561/8/1 562/13/1 563/5/1 564/2/1
f 565/8/1 566/13/1 567/5/1 568/2/1

