# Tiled2Unity generated file. Do not modify by hand.
# Wavefront file for 'SecondMap_1_mesh_0030.obj'

# Vertices (Count = 28)
v -42 -17 0
v -43.5 -17 0
v -43.5 -15.5 0
v -42 -15.5 0
v -44 -17 0
v -45.5 -17 0
v -45.5 -15.5 0
v -44 -15.5 0
v -58 -17 0
v -59.5 -17 0
v -59.5 -15.5 0
v -58 -15.5 0
v -68 -17 0
v -69.5 -17 0
v -69.5 -15.5 0
v -68 -15.5 0
v -66 -22 0
v -67.5 -22 0
v -67.5 -20.5 0
v -66 -20.5 0
v -67 -26 0
v -68.5 -26 0
v -68.5 -24.5 0
v -67 -24.5 0
v -67 -29 0
v -68.5 -29 0
v -68.5 -27.5 0
v -67 -27.5 0

# Texture cooridinates (Count = 8)
vt 0.1666667 0.9166667
vt 0.25 0.9166667
vt 0.25 1
vt 0.1666667 1
vt 0.3333333 0.9166667
vt 0.3333333 1
vt 0.1666667 0.8333333
vt 0.25 0.8333333

# Normal
vn 0 0 -1

# Mesh description
g SecondMap_1_mesh_0030

# Faces
f 1/1/1 2/2/1 3/3/1 4/4/1
f 5/2/1 6/5/1 7/6/1 8/3/1
f 9/1/1 10/2/1 11/3/1 12/4/1
f 13/1/1 14/2/1 15/3/1 16/4/1
f 17/7/1 18/8/1 19/2/1 20/1/1
f 21/7/1 22/8/1 23/2/1 24/1/1
f 25/7/1 26/8/1 27/2/1 28/1/1

