# Tiled2Unity generated file. Do not modify by hand.
# Wavefront file for 'SecondMap_1_mesh_0022.obj'

# Vertices (Count = 344)
v -41 -16 0
v -42 -16 0
v -42 -15 0
v -41 -15 0
v -42 -16 0
v -43 -16 0
v -43 -15 0
v -42 -15 0
v -43 -16 0
v -44 -16 0
v -44 -15 0
v -43 -15 0
v -44 -16 0
v -45 -16 0
v -45 -15 0
v -44 -15 0
v -45 -16 0
v -46 -16 0
v -46 -15 0
v -45 -15 0
v -46 -16 0
v -47 -16 0
v -47 -15 0
v -46 -15 0
v -47 -16 0
v -48 -16 0
v -48 -15 0
v -47 -15 0
v -48 -16 0
v -49 -16 0
v -49 -15 0
v -48 -15 0
v -49 -16 0
v -50 -16 0
v -50 -15 0
v -49 -15 0
v -50 -16 0
v -51 -16 0
v -51 -15 0
v -50 -15 0
v -51 -16 0
v -52 -16 0
v -52 -15 0
v -51 -15 0
v -52 -16 0
v -53 -16 0
v -53 -15 0
v -52 -15 0
v -53 -16 0
v -54 -16 0
v -54 -15 0
v -53 -15 0
v -54 -16 0
v -55 -16 0
v -55 -15 0
v -54 -15 0
v -55 -16 0
v -56 -16 0
v -56 -15 0
v -55 -15 0
v -56 -16 0
v -57 -16 0
v -57 -15 0
v -56 -15 0
v -57 -16 0
v -58 -16 0
v -58 -15 0
v -57 -15 0
v -58 -16 0
v -59 -16 0
v -59 -15 0
v -58 -15 0
v -59 -16 0
v -60 -16 0
v -60 -15 0
v -59 -15 0
v -67 -16 0
v -68 -16 0
v -68 -15 0
v -67 -15 0
v -68 -16 0
v -69 -16 0
v -69 -15 0
v -68 -15 0
v -69 -16 0
v -70 -16 0
v -70 -15 0
v -69 -15 0
v -41 -17 0
v -42 -17 0
v -42 -16 0
v -41 -16 0
v -42 -17 0
v -43 -17 0
v -43 -16 0
v -42 -16 0
v -43 -17 0
v -44 -17 0
v -44 -16 0
v -43 -16 0
v -44 -17 0
v -45 -17 0
v -45 -16 0
v -44 -16 0
v -45 -17 0
v -46 -17 0
v -46 -16 0
v -45 -16 0
v -46 -17 0
v -47 -17 0
v -47 -16 0
v -46 -16 0
v -47 -17 0
v -48 -17 0
v -48 -16 0
v -47 -16 0
v -48 -17 0
v -49 -17 0
v -49 -16 0
v -48 -16 0
v -49 -17 0
v -50 -17 0
v -50 -16 0
v -49 -16 0
v -50 -17 0
v -51 -17 0
v -51 -16 0
v -50 -16 0
v -51 -17 0
v -52 -17 0
v -52 -16 0
v -51 -16 0
v -52 -17 0
v -53 -17 0
v -53 -16 0
v -52 -16 0
v -53 -17 0
v -54 -17 0
v -54 -16 0
v -53 -16 0
v -54 -17 0
v -55 -17 0
v -55 -16 0
v -54 -16 0
v -55 -17 0
v -56 -17 0
v -56 -16 0
v -55 -16 0
v -56 -17 0
v -57 -17 0
v -57 -16 0
v -56 -16 0
v -57 -17 0
v -58 -17 0
v -58 -16 0
v -57 -16 0
v -58 -17 0
v -59 -17 0
v -59 -16 0
v -58 -16 0
v -59 -17 0
v -60 -17 0
v -60 -16 0
v -59 -16 0
v -67 -17 0
v -68 -17 0
v -68 -16 0
v -67 -16 0
v -68 -17 0
v -69 -17 0
v -69 -16 0
v -68 -16 0
v -69 -17 0
v -70 -17 0
v -70 -16 0
v -69 -16 0
v -41 -18 0
v -42 -18 0
v -42 -17 0
v -41 -17 0
v -69 -18 0
v -70 -18 0
v -70 -17 0
v -69 -17 0
v -41 -19 0
v -42 -19 0
v -42 -18 0
v -41 -18 0
v -69 -19 0
v -70 -19 0
v -70 -18 0
v -69 -18 0
v -41 -20 0
v -42 -20 0
v -42 -19 0
v -41 -19 0
v -41 -21 0
v -42 -21 0
v -42 -20 0
v -41 -20 0
v -41 -22 0
v -42 -22 0
v -42 -21 0
v -41 -21 0
v -41 -23 0
v -42 -23 0
v -42 -22 0
v -41 -22 0
v -41 -24 0
v -42 -24 0
v -42 -23 0
v -41 -23 0
v -41 -25 0
v -42 -25 0
v -42 -24 0
v -41 -24 0
v -41 -26 0
v -42 -26 0
v -42 -25 0
v -41 -25 0
v -41 -27 0
v -42 -27 0
v -42 -26 0
v -41 -26 0
v -41 -28 0
v -42 -28 0
v -42 -27 0
v -41 -27 0
v -41 -29 0
v -42 -29 0
v -42 -28 0
v -41 -28 0
v -41 -30 0
v -42 -30 0
v -42 -29 0
v -41 -29 0
v -41 -31 0
v -42 -31 0
v -42 -30 0
v -41 -30 0
v -41 -32 0
v -42 -32 0
v -42 -31 0
v -41 -31 0
v -41 -33 0
v -42 -33 0
v -42 -32 0
v -41 -32 0
v -41 -34 0
v -42 -34 0
v -42 -33 0
v -41 -33 0
v -41 -35 0
v -42 -35 0
v -42 -34 0
v -41 -34 0
v -41 -36 0
v -42 -36 0
v -42 -35 0
v -41 -35 0
v -45 -36 0
v -46 -36 0
v -46 -35 0
v -45 -35 0
v -51 -36 0
v -52 -36 0
v -52 -35 0
v -51 -35 0
v -45 -37 0
v -46 -37 0
v -46 -36 0
v -45 -36 0
v -51 -37 0
v -52 -37 0
v -52 -36 0
v -51 -36 0
v -69 -37 0
v -70 -37 0
v -70 -36 0
v -69 -36 0
v -45 -38 0
v -46 -38 0
v -46 -37 0
v -45 -37 0
v -51 -38 0
v -52 -38 0
v -52 -37 0
v -51 -37 0
v -70 -38 0
v -71 -38 0
v -71 -37 0
v -70 -37 0
v -45 -39 0
v -46 -39 0
v -46 -38 0
v -45 -38 0
v -70 -39 0
v -71 -39 0
v -71 -38 0
v -70 -38 0
v -45 -40 0
v -46 -40 0
v -46 -39 0
v -45 -39 0
v -45 -41 0
v -46 -41 0
v -46 -40 0
v -45 -40 0
v -41 -42 0
v -42 -42 0
v -42 -41 0
v -41 -41 0
v -42 -42 0
v -43 -42 0
v -43 -41 0
v -42 -41 0
v -43 -42 0
v -44 -42 0
v -44 -41 0
v -43 -41 0
v -44 -42 0
v -45 -42 0
v -45 -41 0
v -44 -41 0
v -45 -42 0
v -46 -42 0
v -46 -41 0
v -45 -41 0
v -41 -43 0
v -42 -43 0
v -42 -42 0
v -41 -42 0
v -42 -43 0
v -43 -43 0
v -43 -42 0
v -42 -42 0
v -43 -43 0
v -44 -43 0
v -44 -42 0
v -43 -42 0
v -44 -43 0
v -45 -43 0
v -45 -42 0
v -44 -42 0

# Texture cooridinates (Count = 25)
vt 0 0.8
vt 0.1 0.8
vt 0.1 0.9
vt 0 0.9
vt 0.2 0.8
vt 0.2 0.9
vt 0.3 0.8
vt 0.3 0.9
vt 0 0.7
vt 0.1 0.7
vt 0.2 0.7
vt 0.3 0.7
vt 0 0.6
vt 0.1 0.6
vt 0 0.5
vt 0.1 0.5
vt 0.4 0.8
vt 0.4 0.9
vt 0.3 0.6
vt 0.4 0.6
vt 0.4 0.7
vt 0.3 0.5
vt 0.4 0.5
vt 0.3 0.4
vt 0.4 0.4

# Normal
vn 0 0 -1

# Mesh description
g SecondMap_1_mesh_0022

# Faces
f 1/1/1 2/2/1 3/3/1 4/4/1
f 5/2/1 6/5/1 7/6/1 8/3/1
f 9/5/1 10/7/1 11/8/1 12/6/1
f 13/2/1 14/5/1 15/6/1 16/3/1
f 17/2/1 18/5/1 19/6/1 20/3/1
f 21/2/1 22/5/1 23/6/1 24/3/1
f 25/2/1 26/5/1 27/6/1 28/3/1
f 29/2/1 30/5/1 31/6/1 32/3/1
f 33/5/1 34/7/1 35/8/1 36/6/1
f 37/2/1 38/5/1 39/6/1 40/3/1
f 41/2/1 42/5/1 43/6/1 44/3/1
f 45/2/1 46/5/1 47/6/1 48/3/1
f 49/5/1 50/7/1 51/8/1 52/6/1
f 53/2/1 54/5/1 55/6/1 56/3/1
f 57/2/1 58/5/1 59/6/1 60/3/1
f 61/2/1 62/5/1 63/6/1 64/3/1
f 65/2/1 66/5/1 67/6/1 68/3/1
f 69/2/1 70/5/1 71/6/1 72/3/1
f 73/5/1 74/7/1 75/8/1 76/6/1
f 77/2/1 78/5/1 79/6/1 80/3/1
f 81/2/1 82/5/1 83/6/1 84/3/1
f 85/1/1 86/2/1 87/3/1 88/4/1
f 89/9/1 90/10/1 91/2/1 92/1/1
f 93/10/1 94/11/1 95/5/1 96/2/1
f 97/11/1 98/12/1 99/7/1 100/5/1
f 101/10/1 102/11/1 103/5/1 104/2/1
f 105/10/1 106/11/1 107/5/1 108/2/1
f 109/10/1 110/11/1 111/5/1 112/2/1
f 113/10/1 114/11/1 115/5/1 116/2/1
f 117/10/1 118/11/1 119/5/1 120/2/1
f 121/11/1 122/12/1 123/7/1 124/5/1
f 125/10/1 126/11/1 127/5/1 128/2/1
f 129/10/1 130/11/1 131/5/1 132/2/1
f 133/10/1 134/11/1 135/5/1 136/2/1
f 137/11/1 138/12/1 139/7/1 140/5/1
f 141/10/1 142/11/1 143/5/1 144/2/1
f 145/10/1 146/11/1 147/5/1 148/2/1
f 149/10/1 150/11/1 151/5/1 152/2/1
f 153/10/1 154/11/1 155/5/1 156/2/1
f 157/10/1 158/11/1 159/5/1 160/2/1
f 161/11/1 162/12/1 163/7/1 164/5/1
f 165/10/1 166/11/1 167/5/1 168/2/1
f 169/10/1 170/11/1 171/5/1 172/2/1
f 173/13/1 174/14/1 175/10/1 176/9/1
f 177/9/1 178/10/1 179/2/1 180/1/1
f 181/9/1 182/10/1 183/2/1 184/1/1
f 185/13/1 186/14/1 187/10/1 188/9/1
f 189/13/1 190/14/1 191/10/1 192/9/1
f 193/15/1 194/16/1 195/14/1 196/13/1
f 197/9/1 198/10/1 199/2/1 200/1/1
f 201/13/1 202/14/1 203/10/1 204/9/1
f 205/15/1 206/16/1 207/14/1 208/13/1
f 209/9/1 210/10/1 211/2/1 212/1/1
f 213/13/1 214/14/1 215/10/1 216/9/1
f 217/15/1 218/16/1 219/14/1 220/13/1
f 221/9/1 222/10/1 223/2/1 224/1/1
f 225/13/1 226/14/1 227/10/1 228/9/1
f 229/15/1 230/16/1 231/14/1 232/13/1
f 233/9/1 234/10/1 235/2/1 236/1/1
f 237/13/1 238/14/1 239/10/1 240/9/1
f 241/15/1 242/16/1 243/14/1 244/13/1
f 245/9/1 246/10/1 247/2/1 248/1/1
f 249/13/1 250/14/1 251/10/1 252/9/1
f 253/15/1 254/16/1 255/14/1 256/13/1
f 257/9/1 258/10/1 259/2/1 260/1/1
f 261/7/1 262/17/1 263/18/1 264/8/1
f 265/1/1 266/2/1 267/3/1 268/4/1
f 269/19/1 270/20/1 271/21/1 272/12/1
f 273/9/1 274/10/1 275/2/1 276/1/1
f 277/1/1 278/2/1 279/3/1 280/4/1
f 281/19/1 282/20/1 283/21/1 284/12/1
f 285/9/1 286/10/1 287/2/1 288/1/1
f 289/22/1 290/23/1 291/20/1 292/19/1
f 293/22/1 294/23/1 295/20/1 296/19/1
f 297/22/1 298/23/1 299/20/1 300/19/1
f 301/19/1 302/20/1 303/21/1 304/12/1
f 305/22/1 306/23/1 307/20/1 308/19/1
f 309/7/1 310/17/1 311/18/1 312/8/1
f 313/2/1 314/5/1 315/6/1 316/3/1
f 317/2/1 318/5/1 319/6/1 320/3/1
f 321/5/1 322/7/1 323/8/1 324/6/1
f 325/24/1 326/25/1 327/23/1 328/22/1
f 329/22/1 330/23/1 331/20/1 332/19/1
f 333/10/1 334/11/1 335/5/1 336/2/1
f 337/10/1 338/11/1 339/5/1 340/2/1
f 341/11/1 342/12/1 343/7/1 344/5/1

