# Tiled2Unity generated file. Do not modify by hand.
# Wavefront file for 'SecondMap_1_mesh_0031.obj'

# Vertices (Count = 56)
v -42 -19 0
v -43 -19 0
v -43 -18 0
v -42 -18 0
v -48 -19 0
v -49 -19 0
v -49 -18 0
v -48 -18 0
v -45 -20 0
v -46 -20 0
v -46 -19 0
v -45 -19 0
v -68 -20 0
v -69 -20 0
v -69 -19 0
v -68 -19 0
v -67 -23 0
v -68 -23 0
v -68 -22 0
v -67 -22 0
v -68 -23 0
v -69 -23 0
v -69 -22 0
v -68 -22 0
v -66 -25 0
v -67 -25 0
v -67 -24 0
v -66 -24 0
v -68 -26 0
v -69 -26 0
v -69 -25 0
v -68 -25 0
v -66 -27 0
v -67 -27 0
v -67 -26 0
v -66 -26 0
v -66 -28 0
v -67 -28 0
v -67 -27 0
v -66 -27 0
v -66 -30 0
v -67 -30 0
v -67 -29 0
v -66 -29 0
v -68 -30 0
v -69 -30 0
v -69 -29 0
v -68 -29 0
v -59 -32 0
v -60 -32 0
v -60 -31 0
v -59 -31 0
v -46 -35 0
v -47 -35 0
v -47 -34 0
v -46 -34 0

# Texture cooridinates (Count = 33)
vt 0.25 0.3333333
vt 0.375 0.3333333
vt 0.375 0.5
vt 0.25 0.5
vt 0.125 0.8333333
vt 0.25 0.8333333
vt 0.25 1
vt 0.125 1
vt 0 0.1666667
vt 0.125 0.1666667
vt 0.125 0.3333333
vt 0 0.3333333
vt 0 0.5
vt 0.125 0.5
vt 0.125 0.6666666
vt 0 0.6666666
vt 0.875 0.8333333
vt 1 0.8333333
vt 1 1
vt 0.875 1
vt 0.375 0.8333333
vt 0.5 0.8333333
vt 0.5 1
vt 0.375 1
vt 0.125 0
vt 0.25 0
vt 0.25 0.1666667
vt 0.625 0.8333333
vt 0.75 0.8333333
vt 0.75 1
vt 0.625 1
vt 0.375 0
vt 0.375 0.1666667

# Normal
vn 0 0 -1

# Mesh description
g SecondMap_1_mesh_0031

# Faces
f 1/1/1 2/2/1 3/3/1 4/4/1
f 5/5/1 6/6/1 7/7/1 8/8/1
f 9/9/1 10/10/1 11/11/1 12/12/1
f 13/13/1 14/14/1 15/15/1 16/16/1
f 17/17/1 18/18/1 19/19/1 20/20/1
f 21/21/1 22/22/1 23/23/1 24/24/1
f 25/25/1 26/26/1 27/27/1 28/10/1
f 29/28/1 30/29/1 31/30/1 32/31/1
f 33/21/1 34/22/1 35/23/1 36/24/1
f 37/29/1 38/17/1 39/20/1 40/30/1
f 41/28/1 42/29/1 43/30/1 44/31/1
f 45/26/1 46/32/1 47/33/1 48/27/1
f 49/9/1 50/10/1 51/11/1 52/12/1
f 53/13/1 54/14/1 55/15/1 56/16/1

