# Tiled2Unity generated file. Do not modify by hand.
# Wavefront file for 'SecondMap_1_mesh_0041.obj'

# Vertices (Count = 200)
v -43 -4 0
v -44 -4 0
v -44 -3 0
v -43 -3 0
v -44 -4 0
v -45 -4 0
v -45 -3 0
v -44 -3 0
v -45 -4 0
v -46 -4 0
v -46 -3 0
v -45 -3 0
v -46 -4 0
v -47 -4 0
v -47 -3 0
v -46 -3 0
v -47 -4 0
v -48 -4 0
v -48 -3 0
v -47 -3 0
v -48 -4 0
v -49 -4 0
v -49 -3 0
v -48 -3 0
v -49 -4 0
v -50 -4 0
v -50 -3 0
v -49 -3 0
v -50 -4 0
v -51 -4 0
v -51 -3 0
v -50 -3 0
v -51 -4 0
v -52 -4 0
v -52 -3 0
v -51 -3 0
v -52 -4 0
v -53 -4 0
v -53 -3 0
v -52 -3 0
v -53 -4 0
v -54 -4 0
v -54 -3 0
v -53 -3 0
v -54 -4 0
v -55 -4 0
v -55 -3 0
v -54 -3 0
v -55 -4 0
v -56 -4 0
v -56 -3 0
v -55 -3 0
v -56 -4 0
v -57 -4 0
v -57 -3 0
v -56 -3 0
v -57 -4 0
v -58 -4 0
v -58 -3 0
v -57 -3 0
v -58 -4 0
v -59 -4 0
v -59 -3 0
v -58 -3 0
v -59 -4 0
v -60 -4 0
v -60 -3 0
v -59 -3 0
v -60 -4 0
v -61 -4 0
v -61 -3 0
v -60 -3 0
v -61 -4 0
v -62 -4 0
v -62 -3 0
v -61 -3 0
v -62 -4 0
v -63 -4 0
v -63 -3 0
v -62 -3 0
v -63 -4 0
v -64 -4 0
v -64 -3 0
v -63 -3 0
v -64 -4 0
v -65 -4 0
v -65 -3 0
v -64 -3 0
v -65 -4 0
v -66 -4 0
v -66 -3 0
v -65 -3 0
v -66 -4 0
v -67 -4 0
v -67 -3 0
v -66 -3 0
v -67 -4 0
v -68 -4 0
v -68 -3 0
v -67 -3 0
v -43 -5 0
v -44 -5 0
v -44 -4 0
v -43 -4 0
v -44 -5 0
v -45 -5 0
v -45 -4 0
v -44 -4 0
v -45 -5 0
v -46 -5 0
v -46 -4 0
v -45 -4 0
v -46 -5 0
v -47 -5 0
v -47 -4 0
v -46 -4 0
v -47 -5 0
v -48 -5 0
v -48 -4 0
v -47 -4 0
v -48 -5 0
v -49 -5 0
v -49 -4 0
v -48 -4 0
v -49 -5 0
v -50 -5 0
v -50 -4 0
v -49 -4 0
v -50 -5 0
v -51 -5 0
v -51 -4 0
v -50 -4 0
v -51 -5 0
v -52 -5 0
v -52 -4 0
v -51 -4 0
v -52 -5 0
v -53 -5 0
v -53 -4 0
v -52 -4 0
v -53 -5 0
v -54 -5 0
v -54 -4 0
v -53 -4 0
v -54 -5 0
v -55 -5 0
v -55 -4 0
v -54 -4 0
v -55 -5 0
v -56 -5 0
v -56 -4 0
v -55 -4 0
v -56 -5 0
v -57 -5 0
v -57 -4 0
v -56 -4 0
v -57 -5 0
v -58 -5 0
v -58 -4 0
v -57 -4 0
v -58 -5 0
v -59 -5 0
v -59 -4 0
v -58 -4 0
v -59 -5 0
v -60 -5 0
v -60 -4 0
v -59 -4 0
v -60 -5 0
v -61 -5 0
v -61 -4 0
v -60 -4 0
v -61 -5 0
v -62 -5 0
v -62 -4 0
v -61 -4 0
v -62 -5 0
v -63 -5 0
v -63 -4 0
v -62 -4 0
v -63 -5 0
v -64 -5 0
v -64 -4 0
v -63 -4 0
v -64 -5 0
v -65 -5 0
v -65 -4 0
v -64 -4 0
v -65 -5 0
v -66 -5 0
v -66 -4 0
v -65 -4 0
v -66 -5 0
v -67 -5 0
v -67 -4 0
v -66 -4 0
v -67 -5 0
v -68 -5 0
v -68 -4 0
v -67 -4 0

# Texture cooridinates (Count = 6)
vt 0.5 0.3035714
vt 0.5625 0.3035714
vt 0.5625 0.3214286
vt 0.5 0.3214286
vt 0.5 0.2857143
vt 0.5625 0.2857143

# Normal
vn 0 0 -1

# Mesh description
g SecondMap_1_mesh_0041

# Faces
f 1/1/1 2/2/1 3/3/1 4/4/1
f 5/1/1 6/2/1 7/3/1 8/4/1
f 9/1/1 10/2/1 11/3/1 12/4/1
f 13/1/1 14/2/1 15/3/1 16/4/1
f 17/1/1 18/2/1 19/3/1 20/4/1
f 21/1/1 22/2/1 23/3/1 24/4/1
f 25/1/1 26/2/1 27/3/1 28/4/1
f 29/1/1 30/2/1 31/3/1 32/4/1
f 33/1/1 34/2/1 35/3/1 36/4/1
f 37/1/1 38/2/1 39/3/1 40/4/1
f 41/1/1 42/2/1 43/3/1 44/4/1
f 45/1/1 46/2/1 47/3/1 48/4/1
f 49/1/1 50/2/1 51/3/1 52/4/1
f 53/1/1 54/2/1 55/3/1 56/4/1
f 57/1/1 58/2/1 59/3/1 60/4/1
f 61/1/1 62/2/1 63/3/1 64/4/1
f 65/1/1 66/2/1 67/3/1 68/4/1
f 69/1/1 70/2/1 71/3/1 72/4/1
f 73/1/1 74/2/1 75/3/1 76/4/1
f 77/1/1 78/2/1 79/3/1 80/4/1
f 81/1/1 82/2/1 83/3/1 84/4/1
f 85/1/1 86/2/1 87/3/1 88/4/1
f 89/1/1 90/2/1 91/3/1 92/4/1
f 93/1/1 94/2/1 95/3/1 96/4/1
f 97/1/1 98/2/1 99/3/1 100/4/1
f 101/5/1 102/6/1 103/2/1 104/1/1
f 105/5/1 106/6/1 107/2/1 108/1/1
f 109/5/1 110/6/1 111/2/1 112/1/1
f 113/5/1 114/6/1 115/2/1 116/1/1
f 117/5/1 118/6/1 119/2/1 120/1/1
f 121/5/1 122/6/1 123/2/1 124/1/1
f 125/5/1 126/6/1 127/2/1 128/1/1
f 129/5/1 130/6/1 131/2/1 132/1/1
f 133/5/1 134/6/1 135/2/1 136/1/1
f 137/5/1 138/6/1 139/2/1 140/1/1
f 141/5/1 142/6/1 143/2/1 144/1/1
f 145/5/1 146/6/1 147/2/1 148/1/1
f 149/5/1 150/6/1 151/2/1 152/1/1
f 153/5/1 154/6/1 155/2/1 156/1/1
f 157/5/1 158/6/1 159/2/1 160/1/1
f 161/5/1 162/6/1 163/2/1 164/1/1
f 165/5/1 166/6/1 167/2/1 168/1/1
f 169/5/1 170/6/1 171/2/1 172/1/1
f 173/5/1 174/6/1 175/2/1 176/1/1
f 177/5/1 178/6/1 179/2/1 180/1/1
f 181/5/1 182/6/1 183/2/1 184/1/1
f 185/5/1 186/6/1 187/2/1 188/1/1
f 189/5/1 190/6/1 191/2/1 192/1/1
f 193/5/1 194/6/1 195/2/1 196/1/1
f 197/5/1 198/6/1 199/2/1 200/1/1

