# Tiled2Unity generated file. Do not modify by hand.
# Wavefront file for 'SecondMap_1_mesh_0008.obj'

# Vertices (Count = 116)
v -3 -23 0
v -4 -23 0
v -4 -22 0
v -3 -22 0
v -4 -23 0
v -5 -23 0
v -5 -22 0
v -4 -22 0
v -6 -23 0
v -7 -23 0
v -7 -22 0
v -6 -22 0
v -8 -23 0
v -9 -23 0
v -9 -22 0
v -8 -22 0
v -3 -24 0
v -4 -24 0
v -4 -23 0
v -3 -23 0
v -4 -24 0
v -5 -24 0
v -5 -23 0
v -4 -23 0
v -6 -24 0
v -7 -24 0
v -7 -23 0
v -6 -23 0
v -8 -24 0
v -9 -24 0
v -9 -23 0
v -8 -23 0
v -10 -24 0
v -11 -24 0
v -11 -23 0
v -10 -23 0
v -11 -24 0
v -12 -24 0
v -12 -23 0
v -11 -23 0
v -10 -25 0
v -11 -25 0
v -11 -24 0
v -10 -24 0
v -11 -25 0
v -12 -25 0
v -12 -24 0
v -11 -24 0
v -6 -28 0
v -7 -28 0
v -7 -27 0
v -6 -27 0
v -7 -28 0
v -8 -28 0
v -8 -27 0
v -7 -27 0
v -8 -28 0
v -9 -28 0
v -9 -27 0
v -8 -27 0
v -3 -29 0
v -4 -29 0
v -4 -28 0
v -3 -28 0
v -6 -29 0
v -7 -29 0
v -7 -28 0
v -6 -28 0
v -7 -29 0
v -8 -29 0
v -8 -28 0
v -7 -28 0
v -8 -29 0
v -9 -29 0
v -9 -28 0
v -8 -28 0
v -3 -30 0
v -4 -30 0
v -4 -29 0
v -3 -29 0
v -11 -31 0
v -12 -31 0
v -12 -30 0
v -11 -30 0
v -11 -32 0
v -12 -32 0
v -12 -31 0
v -11 -31 0
v -11 -33 0
v -12 -33 0
v -12 -32 0
v -11 -32 0
v -11 -36 0
v -12 -36 0
v -12 -35 0
v -11 -35 0
v -3 -37 0
v -4 -37 0
v -4 -36 0
v -3 -36 0
v -11 -37 0
v -12 -37 0
v -12 -36 0
v -11 -36 0
v -3 -38 0
v -4 -38 0
v -4 -37 0
v -3 -37 0
v -11 -38 0
v -12 -38 0
v -12 -37 0
v -11 -37 0
v -3 -39 0
v -4 -39 0
v -4 -38 0
v -3 -38 0

# Texture cooridinates (Count = 50)
vt 0.5 0.5892857
vt 0.5625 0.5892857
vt 0.5625 0.6071429
vt 0.5 0.6071429
vt 0.625 0.5892857
vt 0.625 0.6071429
vt 0.5625 0.2678571
vt 0.625 0.2678571
vt 0.625 0.2857143
vt 0.5625 0.2857143
vt 0.5 0.5714285
vt 0.5625 0.5714285
vt 0.625 0.5714285
vt 0.5625 0.25
vt 0.625 0.25
vt 0.5 0.4285714
vt 0.5625 0.4285714
vt 0.5625 0.4464286
vt 0.5 0.4464286
vt 0.625 0.4285714
vt 0.625 0.4464286
vt 0.5 0.4107143
vt 0.5625 0.4107143
vt 0.625 0.4107143
vt 0.1875 0.01785713
vt 0.25 0.01785713
vt 0.25 0.03571427
vt 0.1875 0.03571427
vt 0.3125 0.01785713
vt 0.3125 0.03571427
vt 0.375 0.01785713
vt 0.375 0.03571427
vt 0.9375 0.5178571
vt 1 0.5178571
vt 1 0.5357143
vt 0.9375 0.5357143
vt 0.1875 0
vt 0.25 0
vt 0.3125 0
vt 0.375 0
vt 0.9375 0.5
vt 1 0.5
vt 0.9375 0.0714286
vt 1 0.0714286
vt 1 0.08928573
vt 0.9375 0.08928573
vt 0.9375 0.0535714
vt 1 0.0535714
vt 0.9375 0.03571427
vt 1 0.03571427

# Normal
vn 0 0 -1

# Mesh description
g SecondMap_1_mesh_0008

# Faces
f 1/1/1 2/2/1 3/3/1 4/4/1
f 5/2/1 6/5/1 7/6/1 8/3/1
f 9/7/1 10/8/1 11/9/1 12/10/1
f 13/7/1 14/8/1 15/9/1 16/10/1
f 17/11/1 18/12/1 19/2/1 20/1/1
f 21/12/1 22/13/1 23/5/1 24/2/1
f 25/14/1 26/15/1 27/8/1 28/7/1
f 29/14/1 30/15/1 31/8/1 32/7/1
f 33/16/1 34/17/1 35/18/1 36/19/1
f 37/17/1 38/20/1 39/21/1 40/18/1
f 41/22/1 42/23/1 43/17/1 44/16/1
f 45/23/1 46/24/1 47/20/1 48/17/1
f 49/25/1 50/26/1 51/27/1 52/28/1
f 53/26/1 54/29/1 55/30/1 56/27/1
f 57/29/1 58/31/1 59/32/1 60/30/1
f 61/33/1 62/34/1 63/35/1 64/36/1
f 65/37/1 66/38/1 67/26/1 68/25/1
f 69/38/1 70/39/1 71/29/1 72/26/1
f 73/39/1 74/40/1 75/31/1 76/29/1
f 77/41/1 78/42/1 79/34/1 80/33/1
f 81/43/1 82/44/1 83/45/1 84/46/1
f 85/47/1 86/48/1 87/44/1 88/43/1
f 89/49/1 90/50/1 91/48/1 92/47/1
f 93/43/1 94/44/1 95/45/1 96/46/1
f 97/44/1 98/43/1 99/46/1 100/45/1
f 101/47/1 102/48/1 103/44/1 104/43/1
f 105/48/1 106/47/1 107/43/1 108/44/1
f 109/49/1 110/50/1 111/48/1 112/47/1
f 113/50/1 114/49/1 115/47/1 116/48/1

