# Tiled2Unity generated file. Do not modify by hand.
# Wavefront file for 'SecondMap_1_mesh_0036.obj'

# Vertices (Count = 172)
v -73 -34 0
v -74 -34 0
v -74 -33 0
v -73 -33 0
v -56 -38 0
v -57 -38 0
v -57 -37 0
v -56 -37 0
v -57 -38 0
v -58 -38 0
v -58 -37 0
v -57 -37 0
v -58 -38 0
v -59 -38 0
v -59 -37 0
v -58 -37 0
v -72 -38 0
v -73 -38 0
v -73 -37 0
v -72 -37 0
v -73 -38 0
v -74 -38 0
v -74 -37 0
v -73 -37 0
v -74 -38 0
v -75 -38 0
v -75 -37 0
v -74 -37 0
v -56 -39 0
v -57 -39 0
v -57 -38 0
v -56 -38 0
v -57 -39 0
v -58 -39 0
v -58 -38 0
v -57 -38 0
v -58 -39 0
v -59 -39 0
v -59 -38 0
v -58 -38 0
v -63 -39 0
v -64 -39 0
v -64 -38 0
v -63 -38 0
v -64 -39 0
v -65 -39 0
v -65 -38 0
v -64 -38 0
v -65 -39 0
v -66 -39 0
v -66 -38 0
v -65 -38 0
v -72 -39 0
v -73 -39 0
v -73 -38 0
v -72 -38 0
v -73 -39 0
v -74 -39 0
v -74 -38 0
v -73 -38 0
v -74 -39 0
v -75 -39 0
v -75 -38 0
v -74 -38 0
v -56 -40 0
v -57 -40 0
v -57 -39 0
v -56 -39 0
v -57 -40 0
v -58 -40 0
v -58 -39 0
v -57 -39 0
v -58 -40 0
v -59 -40 0
v -59 -39 0
v -58 -39 0
v -63 -40 0
v -64 -40 0
v -64 -39 0
v -63 -39 0
v -64 -40 0
v -65 -40 0
v -65 -39 0
v -64 -39 0
v -65 -40 0
v -66 -40 0
v -66 -39 0
v -65 -39 0
v -72 -40 0
v -73 -40 0
v -73 -39 0
v -72 -39 0
v -73 -40 0
v -74 -40 0
v -74 -39 0
v -73 -39 0
v -74 -40 0
v -75 -40 0
v -75 -39 0
v -74 -39 0
v -47 -42 0
v -48 -42 0
v -48 -41 0
v -47 -41 0
v -48 -42 0
v -49 -42 0
v -49 -41 0
v -48 -41 0
v -49 -42 0
v -50 -42 0
v -50 -41 0
v -49 -41 0
v -71 -42 0
v -72 -42 0
v -72 -41 0
v -71 -41 0
v -72 -42 0
v -73 -42 0
v -73 -41 0
v -72 -41 0
v -73 -42 0
v -74 -42 0
v -74 -41 0
v -73 -41 0
v -47 -43 0
v -48 -43 0
v -48 -42 0
v -47 -42 0
v -48 -43 0
v -49 -43 0
v -49 -42 0
v -48 -42 0
v -49 -43 0
v -50 -43 0
v -50 -42 0
v -49 -42 0
v -71 -43 0
v -72 -43 0
v -72 -42 0
v -71 -42 0
v -72 -43 0
v -73 -43 0
v -73 -42 0
v -72 -42 0
v -73 -43 0
v -74 -43 0
v -74 -42 0
v -73 -42 0
v -47 -44 0
v -48 -44 0
v -48 -43 0
v -47 -43 0
v -48 -44 0
v -49 -44 0
v -49 -43 0
v -48 -43 0
v -49 -44 0
v -50 -44 0
v -50 -43 0
v -49 -43 0
v -71 -44 0
v -72 -44 0
v -72 -43 0
v -71 -43 0
v -72 -44 0
v -73 -44 0
v -73 -43 0
v -72 -43 0
v -73 -44 0
v -74 -44 0
v -74 -43 0
v -73 -43 0

# Texture cooridinates (Count = 64)
vt 0.5833333 0.3333333
vt 0.625 0.3333333
vt 0.625 0.375
vt 0.5833333 0.375
vt 0.75 0.08333331
vt 0.7916667 0.08333331
vt 0.7916667 0.125
vt 0.75 0.125
vt 0.8333333 0.08333331
vt 0.8333333 0.125
vt 0.875 0.08333331
vt 0.875 0.125
vt 0.625 0.08333331
vt 0.6666667 0.08333331
vt 0.6666667 0.125
vt 0.625 0.125
vt 0.7083333 0.08333331
vt 0.7083333 0.125
vt 0.75 0.04166669
vt 0.7916667 0.04166669
vt 0.8333333 0.04166669
vt 0.875 0.04166669
vt 0.625 0.1666667
vt 0.6666667 0.1666667
vt 0.6666667 0.2083333
vt 0.625 0.2083333
vt 0.7083333 0.1666667
vt 0.7083333 0.2083333
vt 0.75 0.1666667
vt 0.75 0.2083333
vt 0.625 0.04166669
vt 0.6666667 0.04166669
vt 0.7083333 0.04166669
vt 0.75 0
vt 0.7916667 0
vt 0.8333333 0
vt 0.875 0
vt 0.625 0
vt 0.6666667 0
vt 0.7083333 0
vt 0.9166667 0.08333331
vt 0.9166667 0.125
vt 0.9583333 0.08333331
vt 0.9583333 0.125
vt 1 0.08333331
vt 1 0.125
vt 0.875 0.2083333
vt 0.9166667 0.2083333
vt 0.9166667 0.25
vt 0.875 0.25
vt 0.9583333 0.2083333
vt 0.9583333 0.25
vt 1 0.2083333
vt 1 0.25
vt 0.9166667 0.04166669
vt 0.9583333 0.04166669
vt 1 0.04166669
vt 0.875 0.1666667
vt 0.9166667 0.1666667
vt 0.9583333 0.1666667
vt 1 0.1666667
vt 0.9166667 0
vt 0.9583333 0
vt 1 0

# Normal
vn 0 0 -1

# Mesh description
g SecondMap_1_mesh_0036

# Faces
f 1/1/1 2/2/1 3/3/1 4/4/1
f 5/5/1 6/6/1 7/7/1 8/8/1
f 9/6/1 10/9/1 11/10/1 12/7/1
f 13/9/1 14/11/1 15/12/1 16/10/1
f 17/13/1 18/14/1 19/15/1 20/16/1
f 21/14/1 22/17/1 23/18/1 24/15/1
f 25/17/1 26/5/1 27/8/1 28/18/1
f 29/19/1 30/20/1 31/6/1 32/5/1
f 33/20/1 34/21/1 35/9/1 36/6/1
f 37/21/1 38/22/1 39/11/1 40/9/1
f 41/23/1 42/24/1 43/25/1 44/26/1
f 45/24/1 46/27/1 47/28/1 48/25/1
f 49/27/1 50/29/1 51/30/1 52/28/1
f 53/31/1 54/32/1 55/14/1 56/13/1
f 57/32/1 58/33/1 59/17/1 60/14/1
f 61/33/1 62/19/1 63/5/1 64/17/1
f 65/34/1 66/35/1 67/20/1 68/19/1
f 69/35/1 70/36/1 71/21/1 72/20/1
f 73/36/1 74/37/1 75/22/1 76/21/1
f 77/16/1 78/15/1 79/24/1 80/23/1
f 81/15/1 82/18/1 83/27/1 84/24/1
f 85/18/1 86/8/1 87/29/1 88/27/1
f 89/38/1 90/39/1 91/32/1 92/31/1
f 93/39/1 94/40/1 95/33/1 96/32/1
f 97/40/1 98/34/1 99/19/1 100/33/1
f 101/11/1 102/41/1 103/42/1 104/12/1
f 105/41/1 106/43/1 107/44/1 108/42/1
f 109/43/1 110/45/1 111/46/1 112/44/1
f 113/47/1 114/48/1 115/49/1 116/50/1
f 117/48/1 118/51/1 119/52/1 120/49/1
f 121/51/1 122/53/1 123/54/1 124/52/1
f 125/22/1 126/55/1 127/41/1 128/11/1
f 129/55/1 130/56/1 131/43/1 132/41/1
f 133/56/1 134/57/1 135/45/1 136/43/1
f 137/58/1 138/59/1 139/48/1 140/47/1
f 141/59/1 142/60/1 143/51/1 144/48/1
f 145/60/1 146/61/1 147/53/1 148/51/1
f 149/37/1 150/62/1 151/55/1 152/22/1
f 153/62/1 154/63/1 155/56/1 156/55/1
f 157/63/1 158/64/1 159/57/1 160/56/1
f 161/12/1 162/42/1 163/59/1 164/58/1
f 165/42/1 166/44/1 167/60/1 168/59/1
f 169/44/1 170/46/1 171/61/1 172/60/1

