# Tiled2Unity generated file. Do not modify by hand.
# Wavefront file for 'SecondMap_1_mesh_0019.obj'

# Vertices (Count = 32)
v -17 -24 0
v -18 -24 0
v -18 -23 0
v -17 -23 0
v -19 -27 0
v -20 -27 0
v -20 -26 0
v -19 -26 0
v -37 -31 0
v -38 -31 0
v -38 -30 0
v -37 -30 0
v -21 -32 0
v -22 -32 0
v -22 -31 0
v -21 -31 0
v -28 -32 0
v -29 -32 0
v -29 -31 0
v -28 -31 0
v -24 -36 0
v -25 -36 0
v -25 -35 0
v -24 -35 0
v -39 -38 0
v -40 -38 0
v -40 -37 0
v -39 -37 0
v -33 -41 0
v -34 -41 0
v -34 -40 0
v -33 -40 0

# Texture cooridinates (Count = 13)
vt 0 0.75
vt 0.2 0.75
vt 0.2 1
vt 0 1
vt 0 0.25
vt 0.2 0.25
vt 0.2 0.5
vt 0 0.5
vt 0.4 0.5
vt 0.6 0.5
vt 0.6 0.75
vt 0.4 0.75
vt 0.4 0.25

# Normal
vn 0 0 -1

# Mesh description
g SecondMap_1_mesh_0019

# Faces
f 1/1/1 2/2/1 3/3/1 4/4/1
f 5/5/1 6/6/1 7/7/1 8/8/1
f 9/5/1 10/6/1 11/7/1 12/8/1
f 13/9/1 14/10/1 15/11/1 16/12/1
f 17/6/1 18/13/1 19/9/1 20/7/1
f 21/5/1 22/6/1 23/7/1 24/8/1
f 25/9/1 26/10/1 27/11/1 28/12/1
f 29/1/1 30/2/1 31/3/1 32/4/1

