# Tiled2Unity generated file. Do not modify by hand.
# Wavefront file for 'SecondMap_1_mesh_0040.obj'

# Vertices (Count = 96)
v -42 -4 0
v -43 -4 0
v -43 -3 0
v -42 -3 0
v -68 -4 0
v -69 -4 0
v -69 -3 0
v -68 -3 0
v -42 -5 0
v -43 -5 0
v -43 -4 0
v -42 -4 0
v -68 -5 0
v -69 -5 0
v -69 -4 0
v -68 -4 0
v -42 -6 0
v -43 -6 0
v -43 -5 0
v -42 -5 0
v -68 -6 0
v -69 -6 0
v -69 -5 0
v -68 -5 0
v -42 -7 0
v -43 -7 0
v -43 -6 0
v -42 -6 0
v -68 -7 0
v -69 -7 0
v -69 -6 0
v -68 -6 0
v -42 -8 0
v -43 -8 0
v -43 -7 0
v -42 -7 0
v -68 -8 0
v -69 -8 0
v -69 -7 0
v -68 -7 0
v -42 -9 0
v -43 -9 0
v -43 -8 0
v -42 -8 0
v -68 -9 0
v -69 -9 0
v -69 -8 0
v -68 -8 0
v -42 -10 0
v -43 -10 0
v -43 -9 0
v -42 -9 0
v -68 -10 0
v -69 -10 0
v -69 -9 0
v -68 -9 0
v -42 -11 0
v -43 -11 0
v -43 -10 0
v -42 -10 0
v -68 -11 0
v -69 -11 0
v -69 -10 0
v -68 -10 0
v -42 -12 0
v -43 -12 0
v -43 -11 0
v -42 -11 0
v -68 -12 0
v -69 -12 0
v -69 -11 0
v -68 -11 0
v -42 -13 0
v -43 -13 0
v -43 -12 0
v -42 -12 0
v -68 -13 0
v -69 -13 0
v -69 -12 0
v -68 -12 0
v -42 -14 0
v -43 -14 0
v -43 -13 0
v -42 -13 0
v -68 -14 0
v -69 -14 0
v -69 -13 0
v -68 -13 0
v -42 -15 0
v -43 -15 0
v -43 -14 0
v -42 -14 0
v -68 -15 0
v -69 -15 0
v -69 -14 0
v -68 -14 0

# Texture cooridinates (Count = 20)
vt 0 0.8
vt 0.1 0.8
vt 0.1 0.9
vt 0 0.9
vt 0.3 0.8
vt 0.4 0.8
vt 0.4 0.9
vt 0.3 0.9
vt 0 0.7
vt 0.1 0.7
vt 0.3 0.7
vt 0.4 0.7
vt 0 0.6
vt 0.1 0.6
vt 0.3 0.6
vt 0.4 0.6
vt 0 0.5
vt 0.1 0.5
vt 0.3 0.5
vt 0.4 0.5

# Normal
vn 0 0 -1

# Mesh description
g SecondMap_1_mesh_0040

# Faces
f 1/1/1 2/2/1 3/3/1 4/4/1
f 5/5/1 6/6/1 7/7/1 8/8/1
f 9/9/1 10/10/1 11/2/1 12/1/1
f 13/11/1 14/12/1 15/6/1 16/5/1
f 17/13/1 18/14/1 19/10/1 20/9/1
f 21/15/1 22/16/1 23/12/1 24/11/1
f 25/17/1 26/18/1 27/14/1 28/13/1
f 29/19/1 30/20/1 31/16/1 32/15/1
f 33/9/1 34/10/1 35/2/1 36/1/1
f 37/11/1 38/12/1 39/6/1 40/5/1
f 41/13/1 42/14/1 43/10/1 44/9/1
f 45/15/1 46/16/1 47/12/1 48/11/1
f 49/17/1 50/18/1 51/14/1 52/13/1
f 53/19/1 54/20/1 55/16/1 56/15/1
f 57/9/1 58/10/1 59/2/1 60/1/1
f 61/11/1 62/12/1 63/6/1 64/5/1
f 65/13/1 66/14/1 67/10/1 68/9/1
f 69/15/1 70/16/1 71/12/1 72/11/1
f 73/17/1 74/18/1 75/14/1 76/13/1
f 77/19/1 78/20/1 79/16/1 80/15/1
f 81/9/1 82/10/1 83/2/1 84/1/1
f 85/11/1 86/12/1 87/6/1 88/5/1
f 89/13/1 90/14/1 91/10/1 92/9/1
f 93/15/1 94/16/1 95/12/1 96/11/1

