# Tiled2Unity generated file. Do not modify by hand.
# Wavefront file for 'MapFloor1_4_mesh_0057.obj'

# Vertices (Count = 16)
v -59 -65 0
v -60 -65 0
v -60 -64 0
v -59 -64 0
v -61 -65 0
v -62 -65 0
v -62 -64 0
v -61 -64 0
v -63 -65 0
v -64 -65 0
v -64 -64 0
v -63 -64 0
v -64 -66 0
v -65 -66 0
v -65 -65 0
v -64 -65 0

# Texture cooridinates (Count = 8)
vt 0.75 0.75
vt 0.8125 0.75
vt 0.8125 0.7678571
vt 0.75 0.7678571
vt 0.6875 0.7321429
vt 0.75 0.7321429
vt 0.6875 0.75
vt 0.8125 0.7321429

# Normal
vn 0 0 -1

# Mesh description
g MapFloor1_4_mesh_0057

# Faces
f 1/1/1 2/2/1 3/3/1 4/4/1
f 5/5/1 6/6/1 7/1/1 8/7/1
f 9/1/1 10/2/1 11/3/1 12/4/1
f 13/6/1 14/8/1 15/2/1 16/1/1

