# Tiled2Unity generated file. Do not modify by hand.
# Wavefront file for 'MapFloor1_4_mesh_0010.obj'

# Vertices (Count = 364)
v -43 -41 0
v -44 -41 0
v -44 -40 0
v -43 -40 0
v -44 -41 0
v -45 -41 0
v -45 -40 0
v -44 -40 0
v -45 -41 0
v -46 -41 0
v -46 -40 0
v -45 -40 0
v -46 -41 0
v -47 -41 0
v -47 -40 0
v -46 -40 0
v -47 -41 0
v -48 -41 0
v -48 -40 0
v -47 -40 0
v -48 -41 0
v -49 -41 0
v -49 -40 0
v -48 -40 0
v -49 -41 0
v -50 -41 0
v -50 -40 0
v -49 -40 0
v -50 -41 0
v -51 -41 0
v -51 -40 0
v -50 -40 0
v -51 -41 0
v -52 -41 0
v -52 -40 0
v -51 -40 0
v -52 -41 0
v -53 -41 0
v -53 -40 0
v -52 -40 0
v -53 -41 0
v -54 -41 0
v -54 -40 0
v -53 -40 0
v -54 -41 0
v -55 -41 0
v -55 -40 0
v -54 -40 0
v -55 -41 0
v -56 -41 0
v -56 -40 0
v -55 -40 0
v -56 -41 0
v -57 -41 0
v -57 -40 0
v -56 -40 0
v -57 -41 0
v -58 -41 0
v -58 -40 0
v -57 -40 0
v -58 -41 0
v -59 -41 0
v -59 -40 0
v -58 -40 0
v -59 -41 0
v -60 -41 0
v -60 -40 0
v -59 -40 0
v -60 -41 0
v -61 -41 0
v -61 -40 0
v -60 -40 0
v -61 -41 0
v -62 -41 0
v -62 -40 0
v -61 -40 0
v -62 -41 0
v -63 -41 0
v -63 -40 0
v -62 -40 0
v -63 -41 0
v -64 -41 0
v -64 -40 0
v -63 -40 0
v -64 -41 0
v -65 -41 0
v -65 -40 0
v -64 -40 0
v -43 -42 0
v -44 -42 0
v -44 -41 0
v -43 -41 0
v -44 -42 0
v -45 -42 0
v -45 -41 0
v -44 -41 0
v -45 -42 0
v -46 -42 0
v -46 -41 0
v -45 -41 0
v -46 -42 0
v -47 -42 0
v -47 -41 0
v -46 -41 0
v -47 -42 0
v -48 -42 0
v -48 -41 0
v -47 -41 0
v -48 -42 0
v -49 -42 0
v -49 -41 0
v -48 -41 0
v -49 -42 0
v -50 -42 0
v -50 -41 0
v -49 -41 0
v -50 -42 0
v -51 -42 0
v -51 -41 0
v -50 -41 0
v -51 -42 0
v -52 -42 0
v -52 -41 0
v -51 -41 0
v -52 -42 0
v -53 -42 0
v -53 -41 0
v -52 -41 0
v -53 -42 0
v -54 -42 0
v -54 -41 0
v -53 -41 0
v -54 -42 0
v -55 -42 0
v -55 -41 0
v -54 -41 0
v -55 -42 0
v -56 -42 0
v -56 -41 0
v -55 -41 0
v -56 -42 0
v -57 -42 0
v -57 -41 0
v -56 -41 0
v -57 -42 0
v -58 -42 0
v -58 -41 0
v -57 -41 0
v -58 -42 0
v -59 -42 0
v -59 -41 0
v -58 -41 0
v -59 -42 0
v -60 -42 0
v -60 -41 0
v -59 -41 0
v -60 -42 0
v -61 -42 0
v -61 -41 0
v -60 -41 0
v -61 -42 0
v -62 -42 0
v -62 -41 0
v -61 -41 0
v -62 -42 0
v -63 -42 0
v -63 -41 0
v -62 -41 0
v -63 -42 0
v -64 -42 0
v -64 -41 0
v -63 -41 0
v -64 -42 0
v -65 -42 0
v -65 -41 0
v -64 -41 0
v -43 -43 0
v -44 -43 0
v -44 -42 0
v -43 -42 0
v -64 -43 0
v -65 -43 0
v -65 -42 0
v -64 -42 0
v -43 -44 0
v -44 -44 0
v -44 -43 0
v -43 -43 0
v -64 -44 0
v -65 -44 0
v -65 -43 0
v -64 -43 0
v -43 -45 0
v -44 -45 0
v -44 -44 0
v -43 -44 0
v -64 -45 0
v -65 -45 0
v -65 -44 0
v -64 -44 0
v -43 -46 0
v -44 -46 0
v -44 -45 0
v -43 -45 0
v -64 -46 0
v -65 -46 0
v -65 -45 0
v -64 -45 0
v -43 -47 0
v -44 -47 0
v -44 -46 0
v -43 -46 0
v -43 -48 0
v -44 -48 0
v -44 -47 0
v -43 -47 0
v -43 -49 0
v -44 -49 0
v -44 -48 0
v -43 -48 0
v -43 -50 0
v -44 -50 0
v -44 -49 0
v -43 -49 0
v -43 -51 0
v -44 -51 0
v -44 -50 0
v -43 -50 0
v -43 -52 0
v -44 -52 0
v -44 -51 0
v -43 -51 0
v -43 -53 0
v -44 -53 0
v -44 -52 0
v -43 -52 0
v -43 -54 0
v -44 -54 0
v -44 -53 0
v -43 -53 0
v -64 -54 0
v -65 -54 0
v -65 -53 0
v -64 -53 0
v -43 -55 0
v -44 -55 0
v -44 -54 0
v -43 -54 0
v -64 -55 0
v -65 -55 0
v -65 -54 0
v -64 -54 0
v -43 -56 0
v -44 -56 0
v -44 -55 0
v -43 -55 0
v -64 -56 0
v -65 -56 0
v -65 -55 0
v -64 -55 0
v -43 -57 0
v -44 -57 0
v -44 -56 0
v -43 -56 0
v -64 -57 0
v -65 -57 0
v -65 -56 0
v -64 -56 0
v -43 -58 0
v -44 -58 0
v -44 -57 0
v -43 -57 0
v -64 -58 0
v -65 -58 0
v -65 -57 0
v -64 -57 0
v -43 -59 0
v -44 -59 0
v -44 -58 0
v -43 -58 0
v -44 -59 0
v -45 -59 0
v -45 -58 0
v -44 -58 0
v -45 -59 0
v -46 -59 0
v -46 -58 0
v -45 -58 0
v -46 -59 0
v -47 -59 0
v -47 -58 0
v -46 -58 0
v -47 -59 0
v -48 -59 0
v -48 -58 0
v -47 -58 0
v -48 -59 0
v -49 -59 0
v -49 -58 0
v -48 -58 0
v -49 -59 0
v -50 -59 0
v -50 -58 0
v -49 -58 0
v -50 -59 0
v -51 -59 0
v -51 -58 0
v -50 -58 0
v -51 -59 0
v -52 -59 0
v -52 -58 0
v -51 -58 0
v -52 -59 0
v -53 -59 0
v -53 -58 0
v -52 -58 0
v -53 -59 0
v -54 -59 0
v -54 -58 0
v -53 -58 0
v -54 -59 0
v -55 -59 0
v -55 -58 0
v -54 -58 0
v -55 -59 0
v -56 -59 0
v -56 -58 0
v -55 -58 0
v -56 -59 0
v -57 -59 0
v -57 -58 0
v -56 -58 0
v -57 -59 0
v -58 -59 0
v -58 -58 0
v -57 -58 0
v -58 -59 0
v -59 -59 0
v -59 -58 0
v -58 -58 0
v -59 -59 0
v -60 -59 0
v -60 -58 0
v -59 -58 0
v -60 -59 0
v -61 -59 0
v -61 -58 0
v -60 -58 0
v -61 -59 0
v -62 -59 0
v -62 -58 0
v -61 -58 0
v -62 -59 0
v -63 -59 0
v -63 -58 0
v -62 -58 0
v -63 -59 0
v -64 -59 0
v -64 -58 0
v -63 -58 0
v -64 -59 0
v -65 -59 0
v -65 -58 0
v -64 -58 0

# Texture cooridinates (Count = 29)
vt 0 0.8
vt 0.1 0.8
vt 0.1 0.9
vt 0 0.9
vt 0.2 0.8
vt 0.2 0.9
vt 0.3 0.8
vt 0.3 0.9
vt 0.4 0.8
vt 0.4 0.9
vt 0 0.7
vt 0.1 0.7
vt 0.2 0.7
vt 0.3 0.7
vt 0.4 0.7
vt 0 0.6
vt 0.1 0.6
vt 0 0.5
vt 0.1 0.5
vt 0.3 0.6
vt 0.4 0.6
vt 0.3 0.5
vt 0.4 0.5
vt 0 0.4
vt 0.1 0.4
vt 0.2 0.4
vt 0.2 0.5
vt 0.3 0.4
vt 0.4 0.4

# Normal
vn 0 0 -1

# Mesh description
g MapFloor1_4_mesh_0010

# Faces
f 1/1/1 2/2/1 3/3/1 4/4/1
f 5/2/1 6/5/1 7/6/1 8/3/1
f 9/5/1 10/7/1 11/8/1 12/6/1
f 13/2/1 14/5/1 15/6/1 16/3/1
f 17/5/1 18/7/1 19/8/1 20/6/1
f 21/2/1 22/5/1 23/6/1 24/3/1
f 25/5/1 26/7/1 27/8/1 28/6/1
f 29/2/1 30/5/1 31/6/1 32/3/1
f 33/5/1 34/7/1 35/8/1 36/6/1
f 37/2/1 38/5/1 39/6/1 40/3/1
f 41/5/1 42/7/1 43/8/1 44/6/1
f 45/2/1 46/5/1 47/6/1 48/3/1
f 49/5/1 50/7/1 51/8/1 52/6/1
f 53/2/1 54/5/1 55/6/1 56/3/1
f 57/5/1 58/7/1 59/8/1 60/6/1
f 61/2/1 62/5/1 63/6/1 64/3/1
f 65/5/1 66/7/1 67/8/1 68/6/1
f 69/2/1 70/5/1 71/6/1 72/3/1
f 73/5/1 74/7/1 75/8/1 76/6/1
f 77/2/1 78/5/1 79/6/1 80/3/1
f 81/5/1 82/7/1 83/8/1 84/6/1
f 85/7/1 86/9/1 87/10/1 88/8/1
f 89/11/1 90/12/1 91/2/1 92/1/1
f 93/12/1 94/13/1 95/5/1 96/2/1
f 97/13/1 98/14/1 99/7/1 100/5/1
f 101/12/1 102/13/1 103/5/1 104/2/1
f 105/13/1 106/14/1 107/7/1 108/5/1
f 109/12/1 110/13/1 111/5/1 112/2/1
f 113/13/1 114/14/1 115/7/1 116/5/1
f 117/12/1 118/13/1 119/5/1 120/2/1
f 121/13/1 122/14/1 123/7/1 124/5/1
f 125/12/1 126/13/1 127/5/1 128/2/1
f 129/13/1 130/14/1 131/7/1 132/5/1
f 133/12/1 134/13/1 135/5/1 136/2/1
f 137/13/1 138/14/1 139/7/1 140/5/1
f 141/12/1 142/13/1 143/5/1 144/2/1
f 145/13/1 146/14/1 147/7/1 148/5/1
f 149/12/1 150/13/1 151/5/1 152/2/1
f 153/13/1 154/14/1 155/7/1 156/5/1
f 157/12/1 158/13/1 159/5/1 160/2/1
f 161/13/1 162/14/1 163/7/1 164/5/1
f 165/12/1 166/13/1 167/5/1 168/2/1
f 169/13/1 170/14/1 171/7/1 172/5/1
f 173/14/1 174/15/1 175/9/1 176/7/1
f 177/16/1 178/17/1 179/12/1 180/11/1
f 181/7/1 182/9/1 183/10/1 184/8/1
f 185/18/1 186/19/1 187/17/1 188/16/1
f 189/14/1 190/15/1 191/9/1 192/7/1
f 193/11/1 194/12/1 195/2/1 196/1/1
f 197/7/1 198/9/1 199/10/1 200/8/1
f 201/16/1 202/17/1 203/12/1 204/11/1
f 205/14/1 206/15/1 207/9/1 208/7/1
f 209/18/1 210/19/1 211/17/1 212/16/1
f 213/11/1 214/12/1 215/2/1 216/1/1
f 217/16/1 218/17/1 219/12/1 220/11/1
f 221/18/1 222/19/1 223/17/1 224/16/1
f 225/11/1 226/12/1 227/2/1 228/1/1
f 229/16/1 230/17/1 231/12/1 232/11/1
f 233/18/1 234/19/1 235/17/1 236/16/1
f 237/11/1 238/12/1 239/2/1 240/1/1
f 241/20/1 242/21/1 243/15/1 244/14/1
f 245/16/1 246/17/1 247/12/1 248/11/1
f 249/22/1 250/23/1 251/21/1 252/20/1
f 253/18/1 254/19/1 255/17/1 256/16/1
f 257/20/1 258/21/1 259/15/1 260/14/1
f 261/11/1 262/12/1 263/2/1 264/1/1
f 265/22/1 266/23/1 267/21/1 268/20/1
f 269/16/1 270/17/1 271/12/1 272/11/1
f 273/20/1 274/21/1 275/15/1 276/14/1
f 277/24/1 278/25/1 279/19/1 280/18/1
f 281/25/1 282/26/1 283/27/1 284/19/1
f 285/26/1 286/28/1 287/22/1 288/27/1
f 289/25/1 290/26/1 291/27/1 292/19/1
f 293/26/1 294/28/1 295/22/1 296/27/1
f 297/25/1 298/26/1 299/27/1 300/19/1
f 301/26/1 302/28/1 303/22/1 304/27/1
f 305/25/1 306/26/1 307/27/1 308/19/1
f 309/26/1 310/28/1 311/22/1 312/27/1
f 313/25/1 314/26/1 315/27/1 316/19/1
f 317/26/1 318/28/1 319/22/1 320/27/1
f 321/25/1 322/26/1 323/27/1 324/19/1
f 325/26/1 326/28/1 327/22/1 328/27/1
f 329/25/1 330/26/1 331/27/1 332/19/1
f 333/26/1 334/28/1 335/22/1 336/27/1
f 337/25/1 338/26/1 339/27/1 340/19/1
f 341/26/1 342/28/1 343/22/1 344/27/1
f 345/25/1 346/26/1 347/27/1 348/19/1
f 349/26/1 350/28/1 351/22/1 352/27/1
f 353/25/1 354/26/1 355/27/1 356/19/1
f 357/26/1 358/28/1 359/22/1 360/27/1
f 361/28/1 362/29/1 363/23/1 364/22/1

