# Tiled2Unity generated file. Do not modify by hand.
# Wavefront file for 'MapFloor1_4_mesh_0040.obj'

# Vertices (Count = 224)
v -73 -5 0
v -74 -5 0
v -74 -4 0
v -73 -4 0
v -74 -5 0
v -75 -5 0
v -75 -4 0
v -74 -4 0
v -75 -5 0
v -76 -5 0
v -76 -4 0
v -75 -4 0
v -76 -5 0
v -77 -5 0
v -77 -4 0
v -76 -4 0
v -77 -5 0
v -78 -5 0
v -78 -4 0
v -77 -4 0
v -78 -5 0
v -79 -5 0
v -79 -4 0
v -78 -4 0
v -79 -5 0
v -80 -5 0
v -80 -4 0
v -79 -4 0
v -80 -5 0
v -81 -5 0
v -81 -4 0
v -80 -4 0
v -73 -6 0
v -74 -6 0
v -74 -5 0
v -73 -5 0
v -74 -6 0
v -75 -6 0
v -75 -5 0
v -74 -5 0
v -75 -6 0
v -76 -6 0
v -76 -5 0
v -75 -5 0
v -76 -6 0
v -77 -6 0
v -77 -5 0
v -76 -5 0
v -77 -6 0
v -78 -6 0
v -78 -5 0
v -77 -5 0
v -78 -6 0
v -79 -6 0
v -79 -5 0
v -78 -5 0
v -79 -6 0
v -80 -6 0
v -80 -5 0
v -79 -5 0
v -80 -6 0
v -81 -6 0
v -81 -5 0
v -80 -5 0
v -73 -7 0
v -74 -7 0
v -74 -6 0
v -73 -6 0
v -74 -7 0
v -75 -7 0
v -75 -6 0
v -74 -6 0
v -75 -7 0
v -76 -7 0
v -76 -6 0
v -75 -6 0
v -76 -7 0
v -77 -7 0
v -77 -6 0
v -76 -6 0
v -77 -7 0
v -78 -7 0
v -78 -6 0
v -77 -6 0
v -78 -7 0
v -79 -7 0
v -79 -6 0
v -78 -6 0
v -79 -7 0
v -80 -7 0
v -80 -6 0
v -79 -6 0
v -80 -7 0
v -81 -7 0
v -81 -6 0
v -80 -6 0
v -73 -8 0
v -74 -8 0
v -74 -7 0
v -73 -7 0
v -74 -8 0
v -75 -8 0
v -75 -7 0
v -74 -7 0
v -75 -8 0
v -76 -8 0
v -76 -7 0
v -75 -7 0
v -76 -8 0
v -77 -8 0
v -77 -7 0
v -76 -7 0
v -77 -8 0
v -78 -8 0
v -78 -7 0
v -77 -7 0
v -78 -8 0
v -79 -8 0
v -79 -7 0
v -78 -7 0
v -79 -8 0
v -80 -8 0
v -80 -7 0
v -79 -7 0
v -80 -8 0
v -81 -8 0
v -81 -7 0
v -80 -7 0
v -73 -9 0
v -74 -9 0
v -74 -8 0
v -73 -8 0
v -74 -9 0
v -75 -9 0
v -75 -8 0
v -74 -8 0
v -75 -9 0
v -76 -9 0
v -76 -8 0
v -75 -8 0
v -76 -9 0
v -77 -9 0
v -77 -8 0
v -76 -8 0
v -77 -9 0
v -78 -9 0
v -78 -8 0
v -77 -8 0
v -78 -9 0
v -79 -9 0
v -79 -8 0
v -78 -8 0
v -79 -9 0
v -80 -9 0
v -80 -8 0
v -79 -8 0
v -80 -9 0
v -81 -9 0
v -81 -8 0
v -80 -8 0
v -73 -10 0
v -74 -10 0
v -74 -9 0
v -73 -9 0
v -74 -10 0
v -75 -10 0
v -75 -9 0
v -74 -9 0
v -75 -10 0
v -76 -10 0
v -76 -9 0
v -75 -9 0
v -76 -10 0
v -77 -10 0
v -77 -9 0
v -76 -9 0
v -77 -10 0
v -78 -10 0
v -78 -9 0
v -77 -9 0
v -78 -10 0
v -79 -10 0
v -79 -9 0
v -78 -9 0
v -79 -10 0
v -80 -10 0
v -80 -9 0
v -79 -9 0
v -80 -10 0
v -81 -10 0
v -81 -9 0
v -80 -9 0
v -73 -11 0
v -74 -11 0
v -74 -10 0
v -73 -10 0
v -74 -11 0
v -75 -11 0
v -75 -10 0
v -74 -10 0
v -75 -11 0
v -76 -11 0
v -76 -10 0
v -75 -10 0
v -76 -11 0
v -77 -11 0
v -77 -10 0
v -76 -10 0
v -77 -11 0
v -78 -11 0
v -78 -10 0
v -77 -10 0
v -78 -11 0
v -79 -11 0
v -79 -10 0
v -78 -10 0
v -79 -11 0
v -80 -11 0
v -80 -10 0
v -79 -10 0
v -80 -11 0
v -81 -11 0
v -81 -10 0
v -80 -10 0

# Texture cooridinates (Count = 12)
vt 0.1666667 0.6666666
vt 0.25 0.6666666
vt 0.25 0.8333333
vt 0.1666667 0.8333333
vt 0.25 1
vt 0.1666667 1
vt 0.3333333 0.6666666
vt 0.3333333 0.8333333
vt 0.3333333 1
vt 0.1666667 0.5
vt 0.25 0.5
vt 0.3333333 0.5

# Normal
vn 0 0 -1

# Mesh description
g MapFloor1_4_mesh_0040

# Faces
f 1/1/1 2/2/1 3/3/1 4/4/1
f 5/4/1 6/3/1 7/5/1 8/6/1
f 9/4/1 10/3/1 11/5/1 12/6/1
f 13/4/1 14/3/1 15/5/1 16/6/1
f 17/4/1 18/3/1 19/5/1 20/6/1
f 21/4/1 22/3/1 23/5/1 24/6/1
f 25/4/1 26/3/1 27/5/1 28/6/1
f 29/2/1 30/7/1 31/8/1 32/3/1
f 33/4/1 34/3/1 35/5/1 36/6/1
f 37/3/1 38/8/1 39/9/1 40/5/1
f 41/3/1 42/8/1 43/9/1 44/5/1
f 45/3/1 46/8/1 47/9/1 48/5/1
f 49/3/1 50/8/1 51/9/1 52/5/1
f 53/3/1 54/8/1 55/9/1 56/5/1
f 57/3/1 58/8/1 59/9/1 60/5/1
f 61/4/1 62/3/1 63/5/1 64/6/1
f 65/4/1 66/3/1 67/5/1 68/6/1
f 69/3/1 70/8/1 71/9/1 72/5/1
f 73/3/1 74/8/1 75/9/1 76/5/1
f 77/3/1 78/8/1 79/9/1 80/5/1
f 81/3/1 82/8/1 83/9/1 84/5/1
f 85/3/1 86/8/1 87/9/1 88/5/1
f 89/3/1 90/8/1 91/9/1 92/5/1
f 93/4/1 94/3/1 95/5/1 96/6/1
f 97/4/1 98/3/1 99/5/1 100/6/1
f 101/3/1 102/8/1 103/9/1 104/5/1
f 105/3/1 106/8/1 107/9/1 108/5/1
f 109/3/1 110/8/1 111/9/1 112/5/1
f 113/3/1 114/8/1 115/9/1 116/5/1
f 117/3/1 118/8/1 119/9/1 120/5/1
f 121/3/1 122/8/1 123/9/1 124/5/1
f 125/4/1 126/3/1 127/5/1 128/6/1
f 129/4/1 130/3/1 131/5/1 132/6/1
f 133/3/1 134/8/1 135/9/1 136/5/1
f 137/3/1 138/8/1 139/9/1 140/5/1
f 141/3/1 142/8/1 143/9/1 144/5/1
f 145/3/1 146/8/1 147/9/1 148/5/1
f 149/3/1 150/8/1 151/9/1 152/5/1
f 153/3/1 154/8/1 155/9/1 156/5/1
f 157/4/1 158/3/1 159/5/1 160/6/1
f 161/4/1 162/3/1 163/5/1 164/6/1
f 165/3/1 166/8/1 167/9/1 168/5/1
f 169/3/1 170/8/1 171/9/1 172/5/1
f 173/3/1 174/8/1 175/9/1 176/5/1
f 177/3/1 178/8/1 179/9/1 180/5/1
f 181/3/1 182/8/1 183/9/1 184/5/1
f 185/3/1 186/8/1 187/9/1 188/5/1
f 189/4/1 190/3/1 191/5/1 192/6/1
f 193/10/1 194/11/1 195/2/1 196/1/1
f 197/4/1 198/3/1 199/5/1 200/6/1
f 201/4/1 202/3/1 203/5/1 204/6/1
f 205/4/1 206/3/1 207/5/1 208/6/1
f 209/4/1 210/3/1 211/5/1 212/6/1
f 213/4/1 214/3/1 215/5/1 216/6/1
f 217/4/1 218/3/1 219/5/1 220/6/1
f 221/11/1 222/12/1 223/7/1 224/2/1

