# Tiled2Unity generated file. Do not modify by hand.
# Wavefront file for 'MapFloor1_4_mesh_0055.obj'

# Vertices (Count = 68)
v -52 -65 0
v -53 -65 0
v -53 -64 0
v -52 -64 0
v -67 -65 0
v -68 -65 0
v -68 -64 0
v -67 -64 0
v -66 -66 0
v -67 -66 0
v -67 -65 0
v -66 -65 0
v -67 -66 0
v -68 -66 0
v -68 -65 0
v -67 -65 0
v -26 -87 0
v -27 -87 0
v -27 -86 0
v -26 -86 0
v -30 -87 0
v -31 -87 0
v -31 -86 0
v -30 -86 0
v -32 -87 0
v -33 -87 0
v -33 -86 0
v -32 -86 0
v -35 -87 0
v -36 -87 0
v -36 -86 0
v -35 -86 0
v -42 -87 0
v -43 -87 0
v -43 -86 0
v -42 -86 0
v -45 -88 0
v -46 -88 0
v -46 -87 0
v -45 -87 0
v -30 -89 0
v -31 -89 0
v -31 -88 0
v -30 -88 0
v -44 -89 0
v -45 -89 0
v -45 -88 0
v -44 -88 0
v -25 -91 0
v -26 -91 0
v -26 -90 0
v -25 -90 0
v -39 -91 0
v -40 -91 0
v -40 -90 0
v -39 -90 0
v -22 -92 0
v -23 -92 0
v -23 -91 0
v -22 -91 0
v -29 -92 0
v -30 -92 0
v -30 -91 0
v -29 -91 0
v -40 -92 0
v -41 -92 0
v -41 -91 0
v -40 -91 0

# Texture cooridinates (Count = 26)
vt 0.875 0.8333333
vt 1 0.8333333
vt 1 1
vt 0.875 1
vt 0.375 0.8333333
vt 0.5 0.8333333
vt 0.5 1
vt 0.375 1
vt 0.125 0.8333333
vt 0.25 0.8333333
vt 0.25 1
vt 0.125 1
vt 0.75 0.8333333
vt 0.75 1
vt 0 0.5
vt 0.125 0.5
vt 0.125 0.6666666
vt 0 0.6666666
vt 0.25 0.3333333
vt 0.375 0.3333333
vt 0.375 0.5
vt 0.25 0.5
vt 0.25 0
vt 0.375 0
vt 0.375 0.1666667
vt 0.25 0.1666667

# Normal
vn 0 0 -1

# Mesh description
g MapFloor1_4_mesh_0055

# Faces
f 1/1/1 2/2/1 3/3/1 4/4/1
f 5/5/1 6/6/1 7/7/1 8/8/1
f 9/1/1 10/2/1 11/3/1 12/4/1
f 13/9/1 14/10/1 15/11/1 16/12/1
f 17/13/1 18/1/1 19/4/1 20/14/1
f 21/13/1 22/1/1 23/4/1 24/14/1
f 25/5/1 26/6/1 27/7/1 28/8/1
f 29/13/1 30/1/1 31/4/1 32/14/1
f 33/5/1 34/6/1 35/7/1 36/8/1
f 37/15/1 38/16/1 39/17/1 40/18/1
f 41/5/1 42/6/1 43/7/1 44/8/1
f 45/19/1 46/20/1 47/21/1 48/22/1
f 49/23/1 50/24/1 51/25/1 52/26/1
f 53/23/1 54/24/1 55/25/1 56/26/1
f 57/1/1 58/2/1 59/3/1 60/4/1
f 61/1/1 62/2/1 63/3/1 64/4/1
f 65/1/1 66/2/1 67/3/1 68/4/1

