# Tiled2Unity generated file. Do not modify by hand.
# Wavefront file for 'MapFloor1_4_mesh_0027.obj'

# Vertices (Count = 20)
v -30 -14 0
v -31 -14 0
v -31 -13 0
v -30 -13 0
v -36 -22 0
v -37 -22 0
v -37 -21 0
v -36 -21 0
v -38 -27 0
v -39 -27 0
v -39 -26 0
v -38 -26 0
v -16 -29 0
v -17 -29 0
v -17 -28 0
v -16 -28 0
v -14 -31 0
v -15 -31 0
v -15 -30 0
v -14 -30 0

# Texture cooridinates (Count = 8)
vt 0 0.75
vt 0.2 0.75
vt 0.2 1
vt 0 1
vt 0.6 0.5
vt 0.8 0.5
vt 0.8 0.75
vt 0.6 0.75

# Normal
vn 0 0 -1

# Mesh description
g MapFloor1_4_mesh_0027

# Faces
f 1/1/1 2/2/1 3/3/1 4/4/1
f 5/5/1 6/6/1 7/7/1 8/8/1
f 9/5/1 10/6/1 11/7/1 12/8/1
f 13/5/1 14/6/1 15/7/1 16/8/1
f 17/1/1 18/2/1 19/3/1 20/4/1

