# Tiled2Unity generated file. Do not modify by hand.
# Wavefront file for 'MapFloor1_4_mesh_0020.obj'

# Vertices (Count = 292)
v -15 -5 0
v -16 -5 0
v -16 -4 0
v -15 -4 0
v -16 -5 0
v -17 -5 0
v -17 -4 0
v -16 -4 0
v -17 -5 0
v -18 -5 0
v -18 -4 0
v -17 -4 0
v -22 -5 0
v -23 -5 0
v -23 -4 0
v -22 -4 0
v -23 -5 0
v -24 -5 0
v -24 -4 0
v -23 -4 0
v -26 -5 0
v -27 -5 0
v -27 -4 0
v -26 -4 0
v -27 -5 0
v -28 -5 0
v -28 -4 0
v -27 -4 0
v -29 -5 0
v -30 -5 0
v -30 -4 0
v -29 -4 0
v -30 -5 0
v -31 -5 0
v -31 -4 0
v -30 -4 0
v -32 -5 0
v -33 -5 0
v -33 -4 0
v -32 -4 0
v -35 -5 0
v -36 -5 0
v -36 -4 0
v -35 -4 0
v -36 -5 0
v -37 -5 0
v -37 -4 0
v -36 -4 0
v -37 -5 0
v -38 -5 0
v -38 -4 0
v -37 -4 0
v -15 -6 0
v -16 -6 0
v -16 -5 0
v -15 -5 0
v -16 -6 0
v -17 -6 0
v -17 -5 0
v -16 -5 0
v -17 -6 0
v -18 -6 0
v -18 -5 0
v -17 -5 0
v -18 -6 0
v -19 -6 0
v -19 -5 0
v -18 -5 0
v -19 -6 0
v -20 -6 0
v -20 -5 0
v -19 -5 0
v -22 -6 0
v -23 -6 0
v -23 -5 0
v -22 -5 0
v -23 -6 0
v -24 -6 0
v -24 -5 0
v -23 -5 0
v -26 -6 0
v -27 -6 0
v -27 -5 0
v -26 -5 0
v -27 -6 0
v -28 -6 0
v -28 -5 0
v -27 -5 0
v -29 -6 0
v -30 -6 0
v -30 -5 0
v -29 -5 0
v -30 -6 0
v -31 -6 0
v -31 -5 0
v -30 -5 0
v -32 -6 0
v -33 -6 0
v -33 -5 0
v -32 -5 0
v -35 -6 0
v -36 -6 0
v -36 -5 0
v -35 -5 0
v -36 -6 0
v -37 -6 0
v -37 -5 0
v -36 -5 0
v -37 -6 0
v -38 -6 0
v -38 -5 0
v -37 -5 0
v -18 -7 0
v -19 -7 0
v -19 -6 0
v -18 -6 0
v -19 -7 0
v -20 -7 0
v -20 -6 0
v -19 -6 0
v -26 -7 0
v -27 -7 0
v -27 -6 0
v -26 -6 0
v -27 -7 0
v -28 -7 0
v -28 -6 0
v -27 -6 0
v -32 -7 0
v -33 -7 0
v -33 -6 0
v -32 -6 0
v -17 -31 0
v -18 -31 0
v -18 -30 0
v -17 -30 0
v -18 -31 0
v -19 -31 0
v -19 -30 0
v -18 -30 0
v -20 -31 0
v -21 -31 0
v -21 -30 0
v -20 -30 0
v -21 -31 0
v -22 -31 0
v -22 -30 0
v -21 -30 0
v -24 -31 0
v -25 -31 0
v -25 -30 0
v -24 -30 0
v -25 -31 0
v -26 -31 0
v -26 -30 0
v -25 -30 0
v -27 -31 0
v -28 -31 0
v -28 -30 0
v -27 -30 0
v -28 -31 0
v -29 -31 0
v -29 -30 0
v -28 -30 0
v -29 -31 0
v -30 -31 0
v -30 -30 0
v -29 -30 0
v -30 -31 0
v -31 -31 0
v -31 -30 0
v -30 -30 0
v -33 -31 0
v -34 -31 0
v -34 -30 0
v -33 -30 0
v -34 -31 0
v -35 -31 0
v -35 -30 0
v -34 -30 0
v -17 -32 0
v -18 -32 0
v -18 -31 0
v -17 -31 0
v -18 -32 0
v -19 -32 0
v -19 -31 0
v -18 -31 0
v -20 -32 0
v -21 -32 0
v -21 -31 0
v -20 -31 0
v -21 -32 0
v -22 -32 0
v -22 -31 0
v -21 -31 0
v -24 -32 0
v -25 -32 0
v -25 -31 0
v -24 -31 0
v -25 -32 0
v -26 -32 0
v -26 -31 0
v -25 -31 0
v -27 -32 0
v -28 -32 0
v -28 -31 0
v -27 -31 0
v -28 -32 0
v -29 -32 0
v -29 -31 0
v -28 -31 0
v -29 -32 0
v -30 -32 0
v -30 -31 0
v -29 -31 0
v -30 -32 0
v -31 -32 0
v -31 -31 0
v -30 -31 0
v -33 -32 0
v -34 -32 0
v -34 -31 0
v -33 -31 0
v -34 -32 0
v -35 -32 0
v -35 -31 0
v -34 -31 0
v -13 -34 0
v -14 -34 0
v -14 -33 0
v -13 -33 0
v -14 -34 0
v -15 -34 0
v -15 -33 0
v -14 -33 0
v -36 -34 0
v -37 -34 0
v -37 -33 0
v -36 -33 0
v -37 -34 0
v -38 -34 0
v -38 -33 0
v -37 -33 0
v -13 -35 0
v -14 -35 0
v -14 -34 0
v -13 -34 0
v -14 -35 0
v -15 -35 0
v -15 -34 0
v -14 -34 0
v -36 -35 0
v -37 -35 0
v -37 -34 0
v -36 -34 0
v -37 -35 0
v -38 -35 0
v -38 -34 0
v -37 -34 0
v -13 -37 0
v -14 -37 0
v -14 -36 0
v -13 -36 0
v -14 -37 0
v -15 -37 0
v -15 -36 0
v -14 -36 0
v -36 -37 0
v -37 -37 0
v -37 -36 0
v -36 -36 0
v -37 -37 0
v -38 -37 0
v -38 -36 0
v -37 -36 0
v -13 -38 0
v -14 -38 0
v -14 -37 0
v -13 -37 0
v -14 -38 0
v -15 -38 0
v -15 -37 0
v -14 -37 0
v -36 -38 0
v -37 -38 0
v -37 -37 0
v -36 -37 0
v -37 -38 0
v -38 -38 0
v -38 -37 0
v -37 -37 0

# Texture cooridinates (Count = 57)
vt 0.25 0.5535715
vt 0.3125 0.5535715
vt 0.3125 0.5714285
vt 0.25 0.5714285
vt 0.375 0.5535715
vt 0.375 0.5714285
vt 0.4375 0.5535715
vt 0.4375 0.5714285
vt 0.1875 0.75
vt 0.25 0.75
vt 0.25 0.7678571
vt 0.1875 0.7678571
vt 0.3125 0.75
vt 0.3125 0.7678571
vt 0.0625 0.3928571
vt 0.125 0.3928571
vt 0.125 0.4107143
vt 0.0625 0.4107143
vt 0.1875 0.3928571
vt 0.1875 0.4107143
vt 0.125 0.6607143
vt 0.1875 0.6607143
vt 0.1875 0.6785715
vt 0.125 0.6785715
vt 0.25 0.5357143
vt 0.3125 0.5357143
vt 0.375 0.5357143
vt 0.4375 0.5357143
vt 0.3125 0.7321429
vt 0.375 0.7321429
vt 0.375 0.75
vt 0.4375 0.7321429
vt 0.4375 0.75
vt 0.1875 0.7321429
vt 0.25 0.7321429
vt 0.0625 0.375
vt 0.125 0.375
vt 0.1875 0.375
vt 0.125 0.6428571
vt 0.1875 0.6428571
vt 0.3125 0.7142857
vt 0.375 0.7142857
vt 0.4375 0.7142857
vt 0.0625 0.3571429
vt 0.125 0.3571429
vt 0.1875 0.3571429
vt 0.125 0.625
vt 0.1875 0.625
vt 0.3125 0.4821429
vt 0.375 0.4821429
vt 0.375 0.5
vt 0.3125 0.5
vt 0.4375 0.4821429
vt 0.4375 0.5
vt 0.3125 0.4642857
vt 0.375 0.4642857
vt 0.4375 0.4642857

# Normal
vn 0 0 -1

# Mesh description
g MapFloor1_4_mesh_0020

# Faces
f 1/1/1 2/2/1 3/3/1 4/4/1
f 5/2/1 6/5/1 7/6/1 8/3/1
f 9/5/1 10/7/1 11/8/1 12/6/1
f 13/9/1 14/10/1 15/11/1 16/12/1
f 17/10/1 18/13/1 19/14/1 20/11/1
f 21/15/1 22/16/1 23/17/1 24/18/1
f 25/16/1 26/19/1 27/20/1 28/17/1
f 29/9/1 30/10/1 31/11/1 32/12/1
f 33/10/1 34/13/1 35/14/1 36/11/1
f 37/21/1 38/22/1 39/23/1 40/24/1
f 41/1/1 42/2/1 43/3/1 44/4/1
f 45/2/1 46/5/1 47/6/1 48/3/1
f 49/5/1 50/7/1 51/8/1 52/6/1
f 53/25/1 54/26/1 55/2/1 56/1/1
f 57/26/1 58/27/1 59/5/1 60/2/1
f 61/27/1 62/28/1 63/7/1 64/5/1
f 65/29/1 66/30/1 67/31/1 68/13/1
f 69/30/1 70/32/1 71/33/1 72/31/1
f 73/34/1 74/35/1 75/10/1 76/9/1
f 77/35/1 78/29/1 79/13/1 80/10/1
f 81/36/1 82/37/1 83/16/1 84/15/1
f 85/37/1 86/38/1 87/19/1 88/16/1
f 89/34/1 90/35/1 91/10/1 92/9/1
f 93/35/1 94/29/1 95/13/1 96/10/1
f 97/39/1 98/40/1 99/22/1 100/21/1
f 101/25/1 102/26/1 103/2/1 104/1/1
f 105/26/1 106/27/1 107/5/1 108/2/1
f 109/27/1 110/28/1 111/7/1 112/5/1
f 113/41/1 114/42/1 115/30/1 116/29/1
f 117/42/1 118/43/1 119/32/1 120/30/1
f 121/44/1 122/45/1 123/37/1 124/36/1
f 125/45/1 126/46/1 127/38/1 128/37/1
f 129/47/1 130/48/1 131/40/1 132/39/1
f 133/49/1 134/50/1 135/51/1 136/52/1
f 137/50/1 138/53/1 139/54/1 140/51/1
f 141/49/1 142/50/1 143/51/1 144/52/1
f 145/50/1 146/53/1 147/54/1 148/51/1
f 149/49/1 150/50/1 151/51/1 152/52/1
f 153/50/1 154/53/1 155/54/1 156/51/1
f 157/49/1 158/50/1 159/51/1 160/52/1
f 161/50/1 162/53/1 163/54/1 164/51/1
f 165/49/1 166/50/1 167/51/1 168/52/1
f 169/50/1 170/53/1 171/54/1 172/51/1
f 173/49/1 174/50/1 175/51/1 176/52/1
f 177/50/1 178/53/1 179/54/1 180/51/1
f 181/55/1 182/56/1 183/50/1 184/49/1
f 185/56/1 186/57/1 187/53/1 188/50/1
f 189/55/1 190/56/1 191/50/1 192/49/1
f 193/56/1 194/57/1 195/53/1 196/50/1
f 197/55/1 198/56/1 199/50/1 200/49/1
f 201/56/1 202/57/1 203/53/1 204/50/1
f 205/55/1 206/56/1 207/50/1 208/49/1
f 209/56/1 210/57/1 211/53/1 212/50/1
f 213/55/1 214/56/1 215/50/1 216/49/1
f 217/56/1 218/57/1 219/53/1 220/50/1
f 221/55/1 222/56/1 223/50/1 224/49/1
f 225/56/1 226/57/1 227/53/1 228/50/1
f 229/49/1 230/50/1 231/51/1 232/52/1
f 233/50/1 234/53/1 235/54/1 236/51/1
f 237/49/1 238/50/1 239/51/1 240/52/1
f 241/50/1 242/53/1 243/54/1 244/51/1
f 245/55/1 246/56/1 247/50/1 248/49/1
f 249/56/1 250/57/1 251/53/1 252/50/1
f 253/55/1 254/56/1 255/50/1 256/49/1
f 257/56/1 258/57/1 259/53/1 260/50/1
f 261/49/1 262/50/1 263/51/1 264/52/1
f 265/50/1 266/53/1 267/54/1 268/51/1
f 269/49/1 270/50/1 271/51/1 272/52/1
f 273/50/1 274/53/1 275/54/1 276/51/1
f 277/55/1 278/56/1 279/50/1 280/49/1
f 281/56/1 282/57/1 283/53/1 284/50/1
f 285/55/1 286/56/1 287/50/1 288/49/1
f 289/56/1 290/57/1 291/53/1 292/50/1

