# Tiled2Unity generated file. Do not modify by hand.
# Wavefront file for 'MapFloor1_4_mesh_0042.obj'

# Vertices (Count = 216)
v -45 -41 0
v -46 -41 0
v -46 -40 0
v -45 -40 0
v -46 -41 0
v -47 -41 0
v -47 -40 0
v -46 -40 0
v -47 -41 0
v -48 -41 0
v -48 -40 0
v -47 -40 0
v -48 -41 0
v -49 -41 0
v -49 -40 0
v -48 -40 0
v -49 -41 0
v -50 -41 0
v -50 -40 0
v -49 -40 0
v -50 -41 0
v -51 -41 0
v -51 -40 0
v -50 -40 0
v -59 -41 0
v -60 -41 0
v -60 -40 0
v -59 -40 0
v -45 -42 0
v -46 -42 0
v -46 -41 0
v -45 -41 0
v -46 -42 0
v -47 -42 0
v -47 -41 0
v -46 -41 0
v -47 -42 0
v -48 -42 0
v -48 -41 0
v -47 -41 0
v -48 -42 0
v -49 -42 0
v -49 -41 0
v -48 -41 0
v -49 -42 0
v -50 -42 0
v -50 -41 0
v -49 -41 0
v -50 -42 0
v -51 -42 0
v -51 -41 0
v -50 -41 0
v -51 -42 0
v -52 -42 0
v -52 -41 0
v -51 -41 0
v -52 -42 0
v -53 -42 0
v -53 -41 0
v -52 -41 0
v -53 -42 0
v -54 -42 0
v -54 -41 0
v -53 -41 0
v -54 -42 0
v -55 -42 0
v -55 -41 0
v -54 -41 0
v -55 -42 0
v -56 -42 0
v -56 -41 0
v -55 -41 0
v -56 -42 0
v -57 -42 0
v -57 -41 0
v -56 -41 0
v -59 -42 0
v -60 -42 0
v -60 -41 0
v -59 -41 0
v -45 -43 0
v -46 -43 0
v -46 -42 0
v -45 -42 0
v -46 -43 0
v -47 -43 0
v -47 -42 0
v -46 -42 0
v -47 -43 0
v -48 -43 0
v -48 -42 0
v -47 -42 0
v -48 -43 0
v -49 -43 0
v -49 -42 0
v -48 -42 0
v -49 -43 0
v -50 -43 0
v -50 -42 0
v -49 -42 0
v -50 -43 0
v -51 -43 0
v -51 -42 0
v -50 -42 0
v -51 -43 0
v -52 -43 0
v -52 -42 0
v -51 -42 0
v -52 -43 0
v -53 -43 0
v -53 -42 0
v -52 -42 0
v -53 -43 0
v -54 -43 0
v -54 -42 0
v -53 -42 0
v -54 -43 0
v -55 -43 0
v -55 -42 0
v -54 -42 0
v -55 -43 0
v -56 -43 0
v -56 -42 0
v -55 -42 0
v -56 -43 0
v -57 -43 0
v -57 -42 0
v -56 -42 0
v -45 -46 0
v -46 -46 0
v -46 -45 0
v -45 -45 0
v -46 -46 0
v -47 -46 0
v -47 -45 0
v -46 -45 0
v -47 -46 0
v -48 -46 0
v -48 -45 0
v -47 -45 0
v -48 -46 0
v -49 -46 0
v -49 -45 0
v -48 -45 0
v -45 -47 0
v -46 -47 0
v -46 -46 0
v -45 -46 0
v -46 -47 0
v -47 -47 0
v -47 -46 0
v -46 -46 0
v -47 -47 0
v -48 -47 0
v -48 -46 0
v -47 -46 0
v -48 -47 0
v -49 -47 0
v -49 -46 0
v -48 -46 0
v -45 -48 0
v -46 -48 0
v -46 -47 0
v -45 -47 0
v -46 -48 0
v -47 -48 0
v -47 -47 0
v -46 -47 0
v -47 -48 0
v -48 -48 0
v -48 -47 0
v -47 -47 0
v -48 -48 0
v -49 -48 0
v -49 -47 0
v -48 -47 0
v -46 -49 0
v -47 -49 0
v -47 -48 0
v -46 -48 0
v -47 -49 0
v -48 -49 0
v -48 -48 0
v -47 -48 0
v -46 -51 0
v -47 -51 0
v -47 -50 0
v -46 -50 0
v -47 -51 0
v -48 -51 0
v -48 -50 0
v -47 -50 0
v -46 -52 0
v -47 -52 0
v -47 -51 0
v -46 -51 0
v -47 -52 0
v -48 -52 0
v -48 -51 0
v -47 -51 0
v -46 -53 0
v -47 -53 0
v -47 -52 0
v -46 -52 0
v -47 -53 0
v -48 -53 0
v -48 -52 0
v -47 -52 0
v -46 -54 0
v -47 -54 0
v -47 -53 0
v -46 -53 0
v -47 -54 0
v -48 -54 0
v -48 -53 0
v -47 -53 0

# Texture cooridinates (Count = 90)
vt 0.5 0.625
vt 0.5625 0.625
vt 0.5625 0.6875
vt 0.5 0.6875
vt 0.625 0.625
vt 0.625 0.6875
vt 0.6875 0.625
vt 0.6875 0.6875
vt 0.75 0.625
vt 0.75 0.6875
vt 0.75 0.9375
vt 0.8125 0.9375
vt 0.8125 1
vt 0.75 1
vt 0.875 0.9375
vt 0.875 1
vt 0 0.3125
vt 0.0625 0.3125
vt 0.0625 0.375
vt 0 0.375
vt 0.5 0.5625
vt 0.5625 0.5625
vt 0.625 0.5625
vt 0.6875 0.5625
vt 0.75 0.5625
vt 0.75 0.875
vt 0.8125 0.875
vt 0.875 0.875
vt 0.875 0.75
vt 0.9375 0.75
vt 0.9375 0.8125
vt 0.875 0.8125
vt 1 0.75
vt 1 0.8125
vt 0.5 0.875
vt 0.5625 0.875
vt 0.5625 0.9375
vt 0.5 0.9375
vt 0.625 0.875
vt 0.625 0.9375
vt 0.5 0.75
vt 0.5625 0.75
vt 0.5625 0.8125
vt 0.5 0.8125
vt 0.625 0.75
vt 0.625 0.8125
vt 0 0.25
vt 0.0625 0.25
vt 0.5 0.5
vt 0.5625 0.5
vt 0.625 0.5
vt 0.6875 0.5
vt 0.75 0.5
vt 0.75 0.8125
vt 0.8125 0.8125
vt 0.875 0.6875
vt 0.9375 0.6875
vt 1 0.6875
vt 0.375 0.9375
vt 0.4375 0.9375
vt 0.4375 1
vt 0.375 1
vt 0.375 0.75
vt 0.4375 0.75
vt 0.4375 0.8125
vt 0.375 0.8125
vt 0.5 1
vt 0.375 0.875
vt 0.4375 0.875
vt 0.25 0.875
vt 0.3125 0.875
vt 0.3125 0.9375
vt 0.25 0.9375
vt 0 0.9375
vt 0.0625 0.9375
vt 0.0625 1
vt 0 1
vt 0.125 0.9375
vt 0.125 1
vt 0 0.875
vt 0.0625 0.875
vt 0.125 0.875
vt 0.375 0.4375
vt 0.4375 0.4375
vt 0.4375 0.5
vt 0.375 0.5
vt 0.5 0.4375
vt 0.375 0.375
vt 0.4375 0.375
vt 0.5 0.375

# Normal
vn 0 0 -1

# Mesh description
g MapFloor1_4_mesh_0042

# Faces
f 1/1/1 2/2/1 3/3/1 4/4/1
f 5/2/1 6/5/1 7/6/1 8/3/1
f 9/5/1 10/7/1 11/8/1 12/6/1
f 13/7/1 14/9/1 15/10/1 16/8/1
f 17/11/1 18/12/1 19/13/1 20/14/1
f 21/12/1 22/15/1 23/16/1 24/13/1
f 25/17/1 26/18/1 27/19/1 28/20/1
f 29/21/1 30/22/1 31/2/1 32/1/1
f 33/22/1 34/23/1 35/5/1 36/2/1
f 37/23/1 38/24/1 39/7/1 40/5/1
f 41/24/1 42/25/1 43/9/1 44/7/1
f 45/26/1 46/27/1 47/12/1 48/11/1
f 49/27/1 50/28/1 51/15/1 52/12/1
f 53/29/1 54/30/1 55/31/1 56/32/1
f 57/30/1 58/33/1 59/34/1 60/31/1
f 61/35/1 62/36/1 63/37/1 64/38/1
f 65/36/1 66/39/1 67/40/1 68/37/1
f 69/41/1 70/42/1 71/43/1 72/44/1
f 73/42/1 74/45/1 75/46/1 76/43/1
f 77/47/1 78/48/1 79/18/1 80/17/1
f 81/49/1 82/50/1 83/22/1 84/21/1
f 85/50/1 86/51/1 87/23/1 88/22/1
f 89/51/1 90/52/1 91/24/1 92/23/1
f 93/52/1 94/53/1 95/25/1 96/24/1
f 97/54/1 98/55/1 99/27/1 100/26/1
f 101/55/1 102/32/1 103/28/1 104/27/1
f 105/56/1 106/57/1 107/30/1 108/29/1
f 109/57/1 110/58/1 111/33/1 112/30/1
f 113/44/1 114/43/1 115/36/1 116/35/1
f 117/43/1 118/46/1 119/39/1 120/36/1
f 121/4/1 122/3/1 123/42/1 124/41/1
f 125/3/1 126/6/1 127/45/1 128/42/1
f 129/59/1 130/60/1 131/61/1 132/62/1
f 133/63/1 134/64/1 135/65/1 136/66/1
f 137/64/1 138/41/1 139/44/1 140/65/1
f 141/60/1 142/38/1 143/67/1 144/61/1
f 145/68/1 146/69/1 147/60/1 148/59/1
f 149/68/1 150/69/1 151/60/1 152/59/1
f 153/69/1 154/35/1 155/38/1 156/60/1
f 157/69/1 158/35/1 159/38/1 160/60/1
f 161/66/1 162/65/1 163/69/1 164/68/1
f 165/66/1 166/65/1 167/69/1 168/68/1
f 169/65/1 170/44/1 171/35/1 172/69/1
f 173/65/1 174/44/1 175/35/1 176/69/1
f 177/70/1 178/71/1 179/72/1 180/73/1
f 181/71/1 182/68/1 183/59/1 184/72/1
f 185/74/1 186/75/1 187/76/1 188/77/1
f 189/75/1 190/78/1 191/79/1 192/76/1
f 193/80/1 194/81/1 195/75/1 196/74/1
f 197/81/1 198/82/1 199/78/1 200/75/1
f 201/83/1 202/84/1 203/85/1 204/86/1
f 205/84/1 206/87/1 207/49/1 208/85/1
f 209/88/1 210/89/1 211/84/1 212/83/1
f 213/89/1 214/90/1 215/87/1 216/84/1

