# Tiled2Unity generated file. Do not modify by hand.
# Wavefront file for 'MapFloor1_4_mesh_0046.obj'

# Vertices (Count = 204)
v -5 -71 0
v -6 -71 0
v -6 -70 0
v -5 -70 0
v -6 -71 0
v -7 -71 0
v -7 -70 0
v -6 -70 0
v -7 -71 0
v -8 -71 0
v -8 -70 0
v -7 -70 0
v -5 -72 0
v -6 -72 0
v -6 -71 0
v -5 -71 0
v -6 -72 0
v -7 -72 0
v -7 -71 0
v -6 -71 0
v -7 -72 0
v -8 -72 0
v -8 -71 0
v -7 -71 0
v -5 -73 0
v -6 -73 0
v -6 -72 0
v -5 -72 0
v -6 -73 0
v -7 -73 0
v -7 -72 0
v -6 -72 0
v -7 -73 0
v -8 -73 0
v -8 -72 0
v -7 -72 0
v -5 -74 0
v -6 -74 0
v -6 -73 0
v -5 -73 0
v -6 -74 0
v -7 -74 0
v -7 -73 0
v -6 -73 0
v -7 -74 0
v -8 -74 0
v -8 -73 0
v -7 -73 0
v -5 -75 0
v -6 -75 0
v -6 -74 0
v -5 -74 0
v -6 -75 0
v -7 -75 0
v -7 -74 0
v -6 -74 0
v -7 -75 0
v -8 -75 0
v -8 -74 0
v -7 -74 0
v -5 -76 0
v -6 -76 0
v -6 -75 0
v -5 -75 0
v -6 -76 0
v -7 -76 0
v -7 -75 0
v -6 -75 0
v -7 -76 0
v -8 -76 0
v -8 -75 0
v -7 -75 0
v -5 -77 0
v -6 -77 0
v -6 -76 0
v -5 -76 0
v -6 -77 0
v -7 -77 0
v -7 -76 0
v -6 -76 0
v -7 -77 0
v -8 -77 0
v -8 -76 0
v -7 -76 0
v -5 -78 0
v -6 -78 0
v -6 -77 0
v -5 -77 0
v -6 -78 0
v -7 -78 0
v -7 -77 0
v -6 -77 0
v -7 -78 0
v -8 -78 0
v -8 -77 0
v -7 -77 0
v -5 -81 0
v -6 -81 0
v -6 -80 0
v -5 -80 0
v -6 -81 0
v -7 -81 0
v -7 -80 0
v -6 -80 0
v -7 -81 0
v -8 -81 0
v -8 -80 0
v -7 -80 0
v -5 -82 0
v -6 -82 0
v -6 -81 0
v -5 -81 0
v -6 -82 0
v -7 -82 0
v -7 -81 0
v -6 -81 0
v -7 -82 0
v -8 -82 0
v -8 -81 0
v -7 -81 0
v -5 -83 0
v -6 -83 0
v -6 -82 0
v -5 -82 0
v -6 -83 0
v -7 -83 0
v -7 -82 0
v -6 -82 0
v -7 -83 0
v -8 -83 0
v -8 -82 0
v -7 -82 0
v -5 -84 0
v -6 -84 0
v -6 -83 0
v -5 -83 0
v -6 -84 0
v -7 -84 0
v -7 -83 0
v -6 -83 0
v -7 -84 0
v -8 -84 0
v -8 -83 0
v -7 -83 0
v -5 -85 0
v -6 -85 0
v -6 -84 0
v -5 -84 0
v -6 -85 0
v -7 -85 0
v -7 -84 0
v -6 -84 0
v -7 -85 0
v -8 -85 0
v -8 -84 0
v -7 -84 0
v -5 -86 0
v -6 -86 0
v -6 -85 0
v -5 -85 0
v -6 -86 0
v -7 -86 0
v -7 -85 0
v -6 -85 0
v -7 -86 0
v -8 -86 0
v -8 -85 0
v -7 -85 0
v -5 -87 0
v -6 -87 0
v -6 -86 0
v -5 -86 0
v -6 -87 0
v -7 -87 0
v -7 -86 0
v -6 -86 0
v -7 -87 0
v -8 -87 0
v -8 -86 0
v -7 -86 0
v -5 -88 0
v -6 -88 0
v -6 -87 0
v -5 -87 0
v -6 -88 0
v -7 -88 0
v -7 -87 0
v -6 -87 0
v -7 -88 0
v -8 -88 0
v -8 -87 0
v -7 -87 0
v -5 -89 0
v -6 -89 0
v -6 -88 0
v -5 -88 0
v -6 -89 0
v -7 -89 0
v -7 -88 0
v -6 -88 0
v -7 -89 0
v -8 -89 0
v -8 -88 0
v -7 -88 0

# Texture cooridinates (Count = 16)
vt 0 0.8125
vt 0.0625 0.8125
vt 0.0625 0.875
vt 0 0.875
vt 0.125 0.8125
vt 0.125 0.875
vt 0.1875 0.8125
vt 0.1875 0.875
vt 0 0.75
vt 0.0625 0.75
vt 0.125 0.75
vt 0.1875 0.75
vt 0 0.6875
vt 0.0625 0.6875
vt 0.125 0.6875
vt 0.1875 0.6875

# Normal
vn 0 0 -1

# Mesh description
g MapFloor1_4_mesh_0046

# Faces
f 1/1/1 2/2/1 3/3/1 4/4/1
f 5/2/1 6/5/1 7/6/1 8/3/1
f 9/5/1 10/7/1 11/8/1 12/6/1
f 13/9/1 14/10/1 15/2/1 16/1/1
f 17/10/1 18/11/1 19/5/1 20/2/1
f 21/11/1 22/12/1 23/7/1 24/5/1
f 25/9/1 26/10/1 27/2/1 28/1/1
f 29/10/1 30/11/1 31/5/1 32/2/1
f 33/11/1 34/12/1 35/7/1 36/5/1
f 37/9/1 38/10/1 39/2/1 40/1/1
f 41/10/1 42/11/1 43/5/1 44/2/1
f 45/11/1 46/12/1 47/7/1 48/5/1
f 49/9/1 50/10/1 51/2/1 52/1/1
f 53/10/1 54/11/1 55/5/1 56/2/1
f 57/11/1 58/12/1 59/7/1 60/5/1
f 61/9/1 62/10/1 63/2/1 64/1/1
f 65/10/1 66/11/1 67/5/1 68/2/1
f 69/11/1 70/12/1 71/7/1 72/5/1
f 73/9/1 74/10/1 75/2/1 76/1/1
f 77/10/1 78/11/1 79/5/1 80/2/1
f 81/11/1 82/12/1 83/7/1 84/5/1
f 85/13/1 86/14/1 87/10/1 88/9/1
f 89/14/1 90/15/1 91/11/1 92/10/1
f 93/15/1 94/16/1 95/12/1 96/11/1
f 97/1/1 98/2/1 99/3/1 100/4/1
f 101/2/1 102/5/1 103/6/1 104/3/1
f 105/5/1 106/7/1 107/8/1 108/6/1
f 109/9/1 110/10/1 111/2/1 112/1/1
f 113/10/1 114/11/1 115/5/1 116/2/1
f 117/11/1 118/12/1 119/7/1 120/5/1
f 121/9/1 122/10/1 123/2/1 124/1/1
f 125/10/1 126/11/1 127/5/1 128/2/1
f 129/11/1 130/12/1 131/7/1 132/5/1
f 133/9/1 134/10/1 135/2/1 136/1/1
f 137/10/1 138/11/1 139/5/1 140/2/1
f 141/11/1 142/12/1 143/7/1 144/5/1
f 145/9/1 146/10/1 147/2/1 148/1/1
f 149/10/1 150/11/1 151/5/1 152/2/1
f 153/11/1 154/12/1 155/7/1 156/5/1
f 157/9/1 158/10/1 159/2/1 160/1/1
f 161/10/1 162/11/1 163/5/1 164/2/1
f 165/11/1 166/12/1 167/7/1 168/5/1
f 169/9/1 170/10/1 171/2/1 172/1/1
f 173/10/1 174/11/1 175/5/1 176/2/1
f 177/11/1 178/12/1 179/7/1 180/5/1
f 181/9/1 182/10/1 183/2/1 184/1/1
f 185/10/1 186/11/1 187/5/1 188/2/1
f 189/11/1 190/12/1 191/7/1 192/5/1
f 193/13/1 194/14/1 195/10/1 196/9/1
f 197/14/1 198/15/1 199/11/1 200/10/1
f 201/15/1 202/16/1 203/12/1 204/11/1

