# Tiled2Unity generated file. Do not modify by hand.
# Wavefront file for 'MapFloor1_4_mesh_0034.obj'

# Vertices (Count = 148)
v -81 -1 0
v -82 -1 0
v -82 0 0
v -81 0 0
v -82 -1 0
v -83 -1 0
v -83 0 0
v -82 0 0
v -69 -2 0
v -70 -2 0
v -70 -1 0
v -69 -1 0
v -70 -2 0
v -71 -2 0
v -71 -1 0
v -70 -1 0
v -71 -2 0
v -72 -2 0
v -72 -1 0
v -71 -1 0
v -79 -2 0
v -80 -2 0
v -80 -1 0
v -79 -1 0
v -80 -2 0
v -81 -2 0
v -81 -1 0
v -80 -1 0
v -81 -2 0
v -82 -2 0
v -82 -1 0
v -81 -1 0
v -69 -3 0
v -70 -3 0
v -70 -2 0
v -69 -2 0
v -70 -3 0
v -71 -3 0
v -71 -2 0
v -70 -2 0
v -71 -3 0
v -72 -3 0
v -72 -2 0
v -71 -2 0
v -72 -3 0
v -73 -3 0
v -73 -2 0
v -72 -2 0
v -75 -3 0
v -76 -3 0
v -76 -2 0
v -75 -2 0
v -79 -3 0
v -80 -3 0
v -80 -2 0
v -79 -2 0
v -80 -3 0
v -81 -3 0
v -81 -2 0
v -80 -2 0
v -81 -3 0
v -82 -3 0
v -82 -2 0
v -81 -2 0
v -82 -3 0
v -83 -3 0
v -83 -2 0
v -82 -2 0
v -90 -3 0
v -91 -3 0
v -91 -2 0
v -90 -2 0
v -81 -4 0
v -82 -4 0
v -82 -3 0
v -81 -3 0
v -82 -4 0
v -83 -4 0
v -83 -3 0
v -82 -3 0
v -81 -5 0
v -82 -5 0
v -82 -4 0
v -81 -4 0
v -82 -5 0
v -83 -5 0
v -83 -4 0
v -82 -4 0
v -83 -5 0
v -84 -5 0
v -84 -4 0
v -83 -4 0
v -84 -5 0
v -85 -5 0
v -85 -4 0
v -84 -4 0
v -85 -5 0
v -86 -5 0
v -86 -4 0
v -85 -4 0
v -86 -5 0
v -87 -5 0
v -87 -4 0
v -86 -4 0
v -81 -6 0
v -82 -6 0
v -82 -5 0
v -81 -5 0
v -82 -6 0
v -83 -6 0
v -83 -5 0
v -82 -5 0
v -83 -6 0
v -84 -6 0
v -84 -5 0
v -83 -5 0
v -84 -6 0
v -85 -6 0
v -85 -5 0
v -84 -5 0
v -85 -6 0
v -86 -6 0
v -86 -5 0
v -85 -5 0
v -86 -6 0
v -87 -6 0
v -87 -5 0
v -86 -5 0
v -82 -7 0
v -83 -7 0
v -83 -6 0
v -82 -6 0
v -83 -7 0
v -84 -7 0
v -84 -6 0
v -83 -6 0
v -84 -7 0
v -85 -7 0
v -85 -6 0
v -84 -6 0
v -85 -7 0
v -86 -7 0
v -86 -6 0
v -85 -6 0
v -86 -7 0
v -87 -7 0
v -87 -6 0
v -86 -6 0

# Texture cooridinates (Count = 56)
vt 0.1875 0.5178571
vt 0.25 0.5178571
vt 0.25 0.5357143
vt 0.1875 0.5357143
vt 0.25 0.5535715
vt 0.3125 0.5535715
vt 0.3125 0.5714285
vt 0.25 0.5714285
vt 0.375 0.5535715
vt 0.375 0.5714285
vt 0.4375 0.5535715
vt 0.4375 0.5714285
vt 0.5 0.5535715
vt 0.5 0.5714285
vt 0.5625 0.5535715
vt 0.5625 0.5714285
vt 0.3125 0.5357143
vt 0.375 0.5357143
vt 0.4375 0.5357143
vt 0 0.6964285
vt 0.0625 0.6964285
vt 0.0625 0.7142857
vt 0 0.7142857
vt 0.0625 0.6428571
vt 0.125 0.6428571
vt 0.125 0.6607143
vt 0.0625 0.6607143
vt 0.5 0.5357143
vt 0.5625 0.5357143
vt 0.3125 0.5178571
vt 0.375 0.5178571
vt 0.25 0.5
vt 0.3125 0.5
vt 0.375 0.5
vt 0.4375 0.7142857
vt 0.5 0.7142857
vt 0.5 0.7321429
vt 0.4375 0.7321429
vt 0.5625 0.7142857
vt 0.5625 0.7321429
vt 0.625 0.7142857
vt 0.625 0.7321429
vt 0.6875 0.7142857
vt 0.6875 0.7321429
vt 0.4375 0.6964285
vt 0.5 0.6964285
vt 0.5625 0.6964285
vt 0.6875 0.75
vt 0.625 0.75
vt 0.625 0.6964285
vt 0.6875 0.6964285
vt 0.4375 0.6785715
vt 0.5 0.6785715
vt 0.5625 0.6785715
vt 0.625 0.6785715
vt 0.6875 0.6785715

# Normal
vn 0 0 -1

# Mesh description
g MapFloor1_4_mesh_0034

# Faces
f 1/1/1 2/2/1 3/3/1 4/4/1
f 5/1/1 6/2/1 7/3/1 8/4/1
f 9/5/1 10/6/1 11/7/1 12/8/1
f 13/6/1 14/9/1 15/10/1 16/7/1
f 17/9/1 18/11/1 19/12/1 20/10/1
f 21/11/1 22/13/1 23/14/1 24/12/1
f 25/13/1 26/15/1 27/16/1 28/14/1
f 29/1/1 30/2/1 31/3/1 32/4/1
f 33/3/1 34/17/1 35/6/1 36/5/1
f 37/17/1 38/18/1 39/9/1 40/6/1
f 41/18/1 42/19/1 43/11/1 44/9/1
f 45/20/1 46/21/1 47/22/1 48/23/1
f 49/24/1 50/25/1 51/26/1 52/27/1
f 53/19/1 54/28/1 55/13/1 56/11/1
f 57/28/1 58/29/1 59/15/1 60/13/1
f 61/2/1 62/30/1 63/17/1 64/3/1
f 65/30/1 66/31/1 67/18/1 68/17/1
f 69/24/1 70/25/1 71/26/1 72/27/1
f 73/32/1 74/33/1 75/30/1 76/2/1
f 77/33/1 78/34/1 79/31/1 80/30/1
f 81/1/1 82/2/1 83/3/1 84/4/1
f 85/35/1 86/36/1 87/37/1 88/38/1
f 89/36/1 90/39/1 91/40/1 92/37/1
f 93/36/1 94/39/1 95/40/1 96/37/1
f 97/39/1 98/41/1 99/42/1 100/40/1
f 101/41/1 102/43/1 103/44/1 104/42/1
f 105/1/1 106/2/1 107/3/1 108/4/1
f 109/45/1 110/46/1 111/36/1 112/35/1
f 113/46/1 114/47/1 115/39/1 116/36/1
f 117/42/1 118/44/1 119/48/1 120/49/1
f 121/47/1 122/50/1 123/41/1 124/39/1
f 125/50/1 126/51/1 127/43/1 128/41/1
f 129/52/1 130/53/1 131/46/1 132/45/1
f 133/53/1 134/54/1 135/47/1 136/46/1
f 137/53/1 138/54/1 139/47/1 140/46/1
f 141/54/1 142/55/1 143/50/1 144/47/1
f 145/55/1 146/56/1 147/51/1 148/50/1

