# Tiled2Unity generated file. Do not modify by hand.
# Wavefront file for 'MapFloor1_4_mesh_0011.obj'

# Vertices (Count = 200)
v -68 -1 0
v -69 -1 0
v -69 0 0
v -68 0 0
v -69 -1 0
v -70 -1 0
v -70 0 0
v -69 0 0
v -70 -1 0
v -71 -1 0
v -71 0 0
v -70 0 0
v -71 -1 0
v -72 -1 0
v -72 0 0
v -71 0 0
v -72 -1 0
v -73 -1 0
v -73 0 0
v -72 0 0
v -73 -1 0
v -74 -1 0
v -74 0 0
v -73 0 0
v -74 -1 0
v -75 -1 0
v -75 0 0
v -74 0 0
v -75 -1 0
v -76 -1 0
v -76 0 0
v -75 0 0
v -76 -1 0
v -77 -1 0
v -77 0 0
v -76 0 0
v -77 -1 0
v -78 -1 0
v -78 0 0
v -77 0 0
v -78 -1 0
v -79 -1 0
v -79 0 0
v -78 0 0
v -79 -1 0
v -80 -1 0
v -80 0 0
v -79 0 0
v -80 -1 0
v -81 -1 0
v -81 0 0
v -80 0 0
v -81 -1 0
v -82 -1 0
v -82 0 0
v -81 0 0
v -82 -1 0
v -83 -1 0
v -83 0 0
v -82 0 0
v -83 -1 0
v -84 -1 0
v -84 0 0
v -83 0 0
v -84 -1 0
v -85 -1 0
v -85 0 0
v -84 0 0
v -85 -1 0
v -86 -1 0
v -86 0 0
v -85 0 0
v -86 -1 0
v -87 -1 0
v -87 0 0
v -86 0 0
v -87 -1 0
v -88 -1 0
v -88 0 0
v -87 0 0
v -88 -1 0
v -89 -1 0
v -89 0 0
v -88 0 0
v -89 -1 0
v -90 -1 0
v -90 0 0
v -89 0 0
v -90 -1 0
v -91 -1 0
v -91 0 0
v -90 0 0
v -91 -1 0
v -92 -1 0
v -92 0 0
v -91 0 0
v -92 -1 0
v -93 -1 0
v -93 0 0
v -92 0 0
v -93 -1 0
v -94 -1 0
v -94 0 0
v -93 0 0
v -68 -2 0
v -69 -2 0
v -69 -1 0
v -68 -1 0
v -93 -2 0
v -94 -2 0
v -94 -1 0
v -93 -1 0
v -68 -3 0
v -69 -3 0
v -69 -2 0
v -68 -2 0
v -93 -3 0
v -94 -3 0
v -94 -2 0
v -93 -2 0
v -68 -4 0
v -69 -4 0
v -69 -3 0
v -68 -3 0
v -93 -4 0
v -94 -4 0
v -94 -3 0
v -93 -3 0
v -68 -5 0
v -69 -5 0
v -69 -4 0
v -68 -4 0
v -93 -5 0
v -94 -5 0
v -94 -4 0
v -93 -4 0
v -68 -6 0
v -69 -6 0
v -69 -5 0
v -68 -5 0
v -93 -6 0
v -94 -6 0
v -94 -5 0
v -93 -5 0
v -68 -7 0
v -69 -7 0
v -69 -6 0
v -68 -6 0
v -93 -7 0
v -94 -7 0
v -94 -6 0
v -93 -6 0
v -68 -8 0
v -69 -8 0
v -69 -7 0
v -68 -7 0
v -93 -8 0
v -94 -8 0
v -94 -7 0
v -93 -7 0
v -68 -9 0
v -69 -9 0
v -69 -8 0
v -68 -8 0
v -93 -9 0
v -94 -9 0
v -94 -8 0
v -93 -8 0
v -68 -10 0
v -69 -10 0
v -69 -9 0
v -68 -9 0
v -93 -10 0
v -94 -10 0
v -94 -9 0
v -93 -9 0
v -68 -11 0
v -69 -11 0
v -69 -10 0
v -68 -10 0
v -93 -11 0
v -94 -11 0
v -94 -10 0
v -93 -10 0
v -68 -12 0
v -69 -12 0
v -69 -11 0
v -68 -11 0
v -93 -12 0
v -94 -12 0
v -94 -11 0
v -93 -11 0
v -68 -13 0
v -69 -13 0
v -69 -12 0
v -68 -12 0
v -93 -13 0
v -94 -13 0
v -94 -12 0
v -93 -12 0

# Texture cooridinates (Count = 16)
vt 0.625 0.9821429
vt 0.6875 0.9821429
vt 0.6875 1
vt 0.625 1
vt 0.75 0.9821429
vt 0.75 1
vt 0.8125 0.9821429
vt 0.8125 1
vt 0.625 0.9642857
vt 0.6875 0.9642857
vt 0.75 0.9642857
vt 0.8125 0.9642857
vt 0.625 0.9464286
vt 0.6875 0.9464286
vt 0.75 0.9464286
vt 0.8125 0.9464286

# Normal
vn 0 0 -1

# Mesh description
g MapFloor1_4_mesh_0011

# Faces
f 1/1/1 2/2/1 3/3/1 4/4/1
f 5/2/1 6/5/1 7/6/1 8/3/1
f 9/2/1 10/5/1 11/6/1 12/3/1
f 13/2/1 14/5/1 15/6/1 16/3/1
f 17/2/1 18/5/1 19/6/1 20/3/1
f 21/2/1 22/5/1 23/6/1 24/3/1
f 25/2/1 26/5/1 27/6/1 28/3/1
f 29/2/1 30/5/1 31/6/1 32/3/1
f 33/2/1 34/5/1 35/6/1 36/3/1
f 37/2/1 38/5/1 39/6/1 40/3/1
f 41/2/1 42/5/1 43/6/1 44/3/1
f 45/2/1 46/5/1 47/6/1 48/3/1
f 49/2/1 50/5/1 51/6/1 52/3/1
f 53/2/1 54/5/1 55/6/1 56/3/1
f 57/2/1 58/5/1 59/6/1 60/3/1
f 61/2/1 62/5/1 63/6/1 64/3/1
f 65/2/1 66/5/1 67/6/1 68/3/1
f 69/2/1 70/5/1 71/6/1 72/3/1
f 73/2/1 74/5/1 75/6/1 76/3/1
f 77/2/1 78/5/1 79/6/1 80/3/1
f 81/2/1 82/5/1 83/6/1 84/3/1
f 85/2/1 86/5/1 87/6/1 88/3/1
f 89/2/1 90/5/1 91/6/1 92/3/1
f 93/2/1 94/5/1 95/6/1 96/3/1
f 97/2/1 98/5/1 99/6/1 100/3/1
f 101/5/1 102/7/1 103/8/1 104/6/1
f 105/9/1 106/10/1 107/2/1 108/1/1
f 109/11/1 110/12/1 111/7/1 112/5/1
f 113/13/1 114/14/1 115/10/1 116/9/1
f 117/15/1 118/16/1 119/12/1 120/11/1
f 121/13/1 122/14/1 123/10/1 124/9/1
f 125/15/1 126/16/1 127/12/1 128/11/1
f 129/13/1 130/14/1 131/10/1 132/9/1
f 133/15/1 134/16/1 135/12/1 136/11/1
f 137/13/1 138/14/1 139/10/1 140/9/1
f 141/15/1 142/16/1 143/12/1 144/11/1
f 145/13/1 146/14/1 147/10/1 148/9/1
f 149/15/1 150/16/1 151/12/1 152/11/1
f 153/13/1 154/14/1 155/10/1 156/9/1
f 157/15/1 158/16/1 159/12/1 160/11/1
f 161/13/1 162/14/1 163/10/1 164/9/1
f 165/15/1 166/16/1 167/12/1 168/11/1
f 169/13/1 170/14/1 171/10/1 172/9/1
f 173/15/1 174/16/1 175/12/1 176/11/1
f 177/13/1 178/14/1 179/10/1 180/9/1
f 181/15/1 182/16/1 183/12/1 184/11/1
f 185/13/1 186/14/1 187/10/1 188/9/1
f 189/15/1 190/16/1 191/12/1 192/11/1
f 193/13/1 194/14/1 195/10/1 196/9/1
f 197/15/1 198/16/1 199/12/1 200/11/1

