# Tiled2Unity generated file. Do not modify by hand.
# Wavefront file for 'MapFloor1_4_mesh_0023.obj'

# Vertices (Count = 52)
v -18 -6 0
v -19 -6 0
v -19 -5 0
v -18 -5 0
v -31 -11 0
v -32 -11 0
v -32 -10 0
v -31 -10 0
v -33 -11 0
v -34 -11 0
v -34 -10 0
v -33 -10 0
v -25 -21 0
v -26 -21 0
v -26 -20 0
v -25 -20 0
v -26 -22 0
v -27 -22 0
v -27 -21 0
v -26 -21 0
v -27 -24 0
v -28 -24 0
v -28 -23 0
v -27 -23 0
v -21 -34 0
v -22 -34 0
v -22 -33 0
v -21 -33 0
v -28 -34 0
v -29 -34 0
v -29 -33 0
v -28 -33 0
v -30 -35 0
v -31 -35 0
v -31 -34 0
v -30 -34 0
v -29 -36 0
v -30 -36 0
v -30 -35 0
v -29 -35 0
v -16 -37 0
v -17 -37 0
v -17 -36 0
v -16 -36 0
v -21 -37 0
v -22 -37 0
v -22 -36 0
v -21 -36 0
v -32 -37 0
v -33 -37 0
v -33 -36 0
v -32 -36 0

# Texture cooridinates (Count = 26)
vt 0.125 0.1666667
vt 0.25 0.1666667
vt 0.25 0.3333333
vt 0.125 0.3333333
vt 0 0.5
vt 0.125 0.5
vt 0.125 0.6666666
vt 0 0.6666666
vt 0.375 0.8333333
vt 0.5 0.8333333
vt 0.5 1
vt 0.375 1
vt 0.75 0.8333333
vt 0.875 0.8333333
vt 0.875 1
vt 0.75 1
vt 0.625 0.8333333
vt 0.625 1
vt 1 0.8333333
vt 1 1
vt 0.375 0
vt 0.5 0
vt 0.5 0.1666667
vt 0.375 0.1666667
vt 0.125 0
vt 0.25 0

# Normal
vn 0 0 -1

# Mesh description
g MapFloor1_4_mesh_0023

# Faces
f 1/1/1 2/2/1 3/3/1 4/4/1
f 5/5/1 6/6/1 7/7/1 8/8/1
f 9/9/1 10/10/1 11/11/1 12/12/1
f 13/13/1 14/14/1 15/15/1 16/16/1
f 17/5/1 18/6/1 19/7/1 20/8/1
f 21/17/1 22/13/1 23/16/1 24/18/1
f 25/14/1 26/19/1 27/20/1 28/15/1
f 29/17/1 30/13/1 31/16/1 32/18/1
f 33/5/1 34/6/1 35/7/1 36/8/1
f 37/21/1 38/22/1 39/23/1 40/24/1
f 41/5/1 42/6/1 43/7/1 44/8/1
f 45/25/1 46/26/1 47/2/1 48/1/1
f 49/5/1 50/6/1 51/7/1 52/8/1

