# Tiled2Unity generated file. Do not modify by hand.
# Wavefront file for 'MapFloor1_4_mesh_0028.obj'

# Vertices (Count = 28)
v -41 -14 0
v -42 -14 0
v -42 -13 0
v -41 -13 0
v -66 -14 0
v -67 -14 0
v -67 -13 0
v -66 -13 0
v -50 -15 0
v -51 -15 0
v -51 -14 0
v -50 -14 0
v -43 -16 0
v -44 -16 0
v -44 -15 0
v -43 -15 0
v -68 -16 0
v -69 -16 0
v -69 -15 0
v -68 -15 0
v -66 -17 0
v -67 -17 0
v -67 -16 0
v -66 -16 0
v -68 -33 0
v -69 -33 0
v -69 -32 0
v -68 -32 0

# Texture cooridinates (Count = 15)
vt 0.125 0.1666667
vt 0.25 0.1666667
vt 0.25 0.3333333
vt 0.125 0.3333333
vt 0 0.1666667
vt 0 0.3333333
vt 0 0.5
vt 0.125 0.5
vt 0.125 0.6666666
vt 0 0.6666666
vt 0.25 0.5
vt 0.125 0.8333333
vt 0.25 0.8333333
vt 0.25 1
vt 0.125 1

# Normal
vn 0 0 -1

# Mesh description
g MapFloor1_4_mesh_0028

# Faces
f 1/1/1 2/2/1 3/3/1 4/4/1
f 5/1/1 6/2/1 7/3/1 8/4/1
f 9/5/1 10/1/1 11/4/1 12/6/1
f 13/7/1 14/8/1 15/9/1 16/10/1
f 17/4/1 18/3/1 19/11/1 20/8/1
f 21/5/1 22/1/1 23/4/1 24/6/1
f 25/12/1 26/13/1 27/14/1 28/15/1

