# Tiled2Unity generated file. Do not modify by hand.
# Wavefront file for 'MapFloor1_4_mesh_0029.obj'

# Vertices (Count = 356)
v -43 -14 0
v -44 -14 0
v -44 -13 0
v -43 -13 0
v -44 -14 0
v -45 -14 0
v -45 -13 0
v -44 -13 0
v -46 -14 0
v -47 -14 0
v -47 -13 0
v -46 -13 0
v -47 -14 0
v -48 -14 0
v -48 -13 0
v -47 -13 0
v -48 -14 0
v -49 -14 0
v -49 -13 0
v -48 -13 0
v -49 -14 0
v -50 -14 0
v -50 -13 0
v -49 -13 0
v -51 -14 0
v -52 -14 0
v -52 -13 0
v -51 -13 0
v -52 -14 0
v -53 -14 0
v -53 -13 0
v -52 -13 0
v -54 -14 0
v -55 -14 0
v -55 -13 0
v -54 -13 0
v -55 -14 0
v -56 -14 0
v -56 -13 0
v -55 -13 0
v -58 -14 0
v -59 -14 0
v -59 -13 0
v -58 -13 0
v -59 -14 0
v -60 -14 0
v -60 -13 0
v -59 -13 0
v -62 -14 0
v -63 -14 0
v -63 -13 0
v -62 -13 0
v -63 -14 0
v -64 -14 0
v -64 -13 0
v -63 -13 0
v -67 -14 0
v -68 -14 0
v -68 -13 0
v -67 -13 0
v -68 -14 0
v -69 -14 0
v -69 -13 0
v -68 -13 0
v -69 -14 0
v -70 -14 0
v -70 -13 0
v -69 -13 0
v -91 -14 0
v -92 -14 0
v -92 -13 0
v -91 -13 0
v -92 -14 0
v -93 -14 0
v -93 -13 0
v -92 -13 0
v -93 -14 0
v -94 -14 0
v -94 -13 0
v -93 -13 0
v -48 -15 0
v -49 -15 0
v -49 -14 0
v -48 -14 0
v -49 -15 0
v -50 -15 0
v -50 -14 0
v -49 -14 0
v -67 -15 0
v -68 -15 0
v -68 -14 0
v -67 -14 0
v -68 -15 0
v -69 -15 0
v -69 -14 0
v -68 -14 0
v -69 -15 0
v -70 -15 0
v -70 -14 0
v -69 -14 0
v -91 -15 0
v -92 -15 0
v -92 -14 0
v -91 -14 0
v -92 -15 0
v -93 -15 0
v -93 -14 0
v -92 -14 0
v -91 -16 0
v -92 -16 0
v -92 -15 0
v -91 -15 0
v -92 -16 0
v -93 -16 0
v -93 -15 0
v -92 -15 0
v -71 -17 0
v -72 -17 0
v -72 -16 0
v -71 -16 0
v -72 -17 0
v -73 -17 0
v -73 -16 0
v -72 -16 0
v -93 -17 0
v -94 -17 0
v -94 -16 0
v -93 -16 0
v -71 -18 0
v -72 -18 0
v -72 -17 0
v -71 -17 0
v -72 -18 0
v -73 -18 0
v -73 -17 0
v -72 -17 0
v -93 -18 0
v -94 -18 0
v -94 -17 0
v -93 -17 0
v -93 -19 0
v -94 -19 0
v -94 -18 0
v -93 -18 0
v -93 -21 0
v -94 -21 0
v -94 -20 0
v -93 -20 0
v -93 -22 0
v -94 -22 0
v -94 -21 0
v -93 -21 0
v -93 -23 0
v -94 -23 0
v -94 -22 0
v -93 -22 0
v -93 -26 0
v -94 -26 0
v -94 -25 0
v -93 -25 0
v -93 -27 0
v -94 -27 0
v -94 -26 0
v -93 -26 0
v -93 -28 0
v -94 -28 0
v -94 -27 0
v -93 -27 0
v -91 -31 0
v -92 -31 0
v -92 -30 0
v -91 -30 0
v -92 -31 0
v -93 -31 0
v -93 -30 0
v -92 -30 0
v -93 -31 0
v -94 -31 0
v -94 -30 0
v -93 -30 0
v -91 -32 0
v -92 -32 0
v -92 -31 0
v -91 -31 0
v -92 -32 0
v -93 -32 0
v -93 -31 0
v -92 -31 0
v -93 -32 0
v -94 -32 0
v -94 -31 0
v -93 -31 0
v -91 -33 0
v -92 -33 0
v -92 -32 0
v -91 -32 0
v -92 -33 0
v -93 -33 0
v -93 -32 0
v -92 -32 0
v -93 -33 0
v -94 -33 0
v -94 -32 0
v -93 -32 0
v -71 -35 0
v -72 -35 0
v -72 -34 0
v -71 -34 0
v -72 -35 0
v -73 -35 0
v -73 -34 0
v -72 -34 0
v -71 -36 0
v -72 -36 0
v -72 -35 0
v -71 -35 0
v -72 -36 0
v -73 -36 0
v -73 -35 0
v -72 -35 0
v -71 -37 0
v -72 -37 0
v -72 -36 0
v -71 -36 0
v -72 -37 0
v -73 -37 0
v -73 -36 0
v -72 -36 0
v -91 -38 0
v -92 -38 0
v -92 -37 0
v -91 -37 0
v -91 -39 0
v -92 -39 0
v -92 -38 0
v -91 -38 0
v -91 -40 0
v -92 -40 0
v -92 -39 0
v -91 -39 0
v -66 -47 0
v -67 -47 0
v -67 -46 0
v -66 -46 0
v -67 -47 0
v -68 -47 0
v -68 -46 0
v -67 -46 0
v -91 -47 0
v -92 -47 0
v -92 -46 0
v -91 -46 0
v -66 -48 0
v -67 -48 0
v -67 -47 0
v -66 -47 0
v -67 -48 0
v -68 -48 0
v -68 -47 0
v -67 -47 0
v -91 -48 0
v -92 -48 0
v -92 -47 0
v -91 -47 0
v -71 -53 0
v -72 -53 0
v -72 -52 0
v -71 -52 0
v -71 -54 0
v -72 -54 0
v -72 -53 0
v -71 -53 0
v -91 -57 0
v -92 -57 0
v -92 -56 0
v -91 -56 0
v -91 -58 0
v -92 -58 0
v -92 -57 0
v -91 -57 0
v -91 -59 0
v -92 -59 0
v -92 -58 0
v -91 -58 0
v -71 -62 0
v -72 -62 0
v -72 -61 0
v -71 -61 0
v -72 -62 0
v -73 -62 0
v -73 -61 0
v -72 -61 0
v -90 -62 0
v -91 -62 0
v -91 -61 0
v -90 -61 0
v -91 -62 0
v -92 -62 0
v -92 -61 0
v -91 -61 0
v -71 -63 0
v -72 -63 0
v -72 -62 0
v -71 -62 0
v -72 -63 0
v -73 -63 0
v -73 -62 0
v -72 -62 0
v -80 -63 0
v -81 -63 0
v -81 -62 0
v -80 -62 0
v -81 -63 0
v -82 -63 0
v -82 -62 0
v -81 -62 0
v -82 -63 0
v -83 -63 0
v -83 -62 0
v -82 -62 0
v -90 -63 0
v -91 -63 0
v -91 -62 0
v -90 -62 0
v -91 -63 0
v -92 -63 0
v -92 -62 0
v -91 -62 0
v -71 -64 0
v -72 -64 0
v -72 -63 0
v -71 -63 0
v -72 -64 0
v -73 -64 0
v -73 -63 0
v -72 -63 0
v -80 -64 0
v -81 -64 0
v -81 -63 0
v -80 -63 0
v -81 -64 0
v -82 -64 0
v -82 -63 0
v -81 -63 0
v -82 -64 0
v -83 -64 0
v -83 -63 0
v -82 -63 0
v -90 -64 0
v -91 -64 0
v -91 -63 0
v -90 -63 0
v -91 -64 0
v -92 -64 0
v -92 -63 0
v -91 -63 0

# Texture cooridinates (Count = 76)
vt 0.5 0.4464286
vt 0.5625 0.4464286
vt 0.5625 0.4642857
vt 0.5 0.4642857
vt 0.625 0.4464286
vt 0.625 0.4642857
vt 0.5625 0.5535715
vt 0.625 0.5535715
vt 0.625 0.5714285
vt 0.5625 0.5714285
vt 0.6875 0.5535715
vt 0.6875 0.5714285
vt 0.75 0.4821429
vt 0.8125 0.4821429
vt 0.8125 0.5
vt 0.75 0.5
vt 0.875 0.4821429
vt 0.9375 0.4821429
vt 0.9375 0.5
vt 0.875 0.5
vt 1 0.4821429
vt 1 0.5
vt 0.5625 0.5357143
vt 0.625 0.5357143
vt 0.6875 0.5357143
vt 0.75 0.4642857
vt 0.8125 0.4642857
vt 0.875 0.4642857
vt 0.9375 0.4642857
vt 1 0.4642857
vt 0.875 0.4464286
vt 0.9375 0.4464286
vt 1 0.4464286
vt 0.8125 0.2678571
vt 0.875 0.2678571
vt 0.875 0.2857143
vt 0.8125 0.2857143
vt 0.9375 0.2678571
vt 0.9375 0.2857143
vt 0.9375 0.0714286
vt 1 0.0714286
vt 1 0.08928573
vt 0.9375 0.08928573
vt 0.8125 0.25
vt 0.875 0.25
vt 0.9375 0.25
vt 0.9375 0.0535714
vt 1 0.0535714
vt 0.9375 0.03571427
vt 1 0.03571427
vt 0.8125 0.08928573
vt 0.875 0.08928573
vt 0.875 0.1071429
vt 0.8125 0.1071429
vt 0.9375 0.1071429
vt 0.8125 0.0714286
vt 0.875 0.0714286
vt 0.625 0.4821429
vt 0.6875 0.4821429
vt 0.6875 0.5
vt 0.625 0.5
vt 0.6875 0.4642857
vt 0 0.01785713
vt 0.0625 0.01785713
vt 0.0625 0.03571427
vt 0 0.03571427
vt 0.125 0.01785713
vt 0.125 0.03571427
vt 0.1875 0.01785713
vt 0.1875 0.03571427
vt 0.6875 0.4464286
vt 0.75 0.4464286
vt 0 0
vt 0.0625 0
vt 0.125 0
vt 0.1875 0

# Normal
vn 0 0 -1

# Mesh description
g MapFloor1_4_mesh_0029

# Faces
f 1/1/1 2/2/1 3/3/1 4/4/1
f 5/2/1 6/5/1 7/6/1 8/3/1
f 9/1/1 10/2/1 11/3/1 12/4/1
f 13/2/1 14/5/1 15/6/1 16/3/1
f 17/7/1 18/8/1 19/9/1 20/10/1
f 21/8/1 22/11/1 23/12/1 24/9/1
f 25/1/1 26/2/1 27/3/1 28/4/1
f 29/2/1 30/5/1 31/6/1 32/3/1
f 33/1/1 34/2/1 35/3/1 36/4/1
f 37/2/1 38/5/1 39/6/1 40/3/1
f 41/1/1 42/2/1 43/3/1 44/4/1
f 45/2/1 46/5/1 47/6/1 48/3/1
f 49/1/1 50/2/1 51/3/1 52/4/1
f 53/2/1 54/5/1 55/6/1 56/3/1
f 57/7/1 58/8/1 59/9/1 60/10/1
f 61/8/1 62/11/1 63/12/1 64/9/1
f 65/13/1 66/14/1 67/15/1 68/16/1
f 69/17/1 70/18/1 71/19/1 72/20/1
f 73/18/1 74/21/1 75/22/1 76/19/1
f 77/1/1 78/2/1 79/3/1 80/4/1
f 81/23/1 82/24/1 83/8/1 84/7/1
f 85/24/1 86/25/1 87/11/1 88/8/1
f 89/23/1 90/24/1 91/8/1 92/7/1
f 93/24/1 94/25/1 95/11/1 96/8/1
f 97/26/1 98/27/1 99/14/1 100/13/1
f 101/28/1 102/29/1 103/18/1 104/17/1
f 105/29/1 106/30/1 107/21/1 108/18/1
f 109/31/1 110/32/1 111/29/1 112/28/1
f 113/32/1 114/33/1 115/30/1 116/29/1
f 117/34/1 118/35/1 119/36/1 120/37/1
f 121/35/1 122/38/1 123/39/1 124/36/1
f 125/40/1 126/41/1 127/42/1 128/43/1
f 129/44/1 130/45/1 131/35/1 132/34/1
f 133/45/1 134/46/1 135/38/1 136/35/1
f 137/47/1 138/48/1 139/41/1 140/40/1
f 141/49/1 142/50/1 143/48/1 144/47/1
f 145/40/1 146/41/1 147/42/1 148/43/1
f 149/47/1 150/48/1 151/41/1 152/40/1
f 153/49/1 154/50/1 155/48/1 156/47/1
f 157/40/1 158/41/1 159/42/1 160/43/1
f 161/47/1 162/48/1 163/41/1 164/40/1
f 165/49/1 166/50/1 167/48/1 168/47/1
f 169/17/1 170/18/1 171/19/1 172/20/1
f 173/18/1 174/21/1 175/22/1 176/19/1
f 177/40/1 178/41/1 179/42/1 180/43/1
f 181/28/1 182/29/1 183/18/1 184/17/1
f 185/29/1 186/30/1 187/21/1 188/18/1
f 189/47/1 190/48/1 191/41/1 192/40/1
f 193/31/1 194/32/1 195/29/1 196/28/1
f 197/32/1 198/33/1 199/30/1 200/29/1
f 201/49/1 202/50/1 203/48/1 204/47/1
f 205/17/1 206/18/1 207/19/1 208/20/1
f 209/18/1 210/21/1 211/22/1 212/19/1
f 213/28/1 214/29/1 215/18/1 216/17/1
f 217/29/1 218/30/1 219/21/1 220/18/1
f 221/31/1 222/32/1 223/29/1 224/28/1
f 225/32/1 226/33/1 227/30/1 228/29/1
f 229/40/1 230/41/1 231/42/1 232/43/1
f 233/47/1 234/48/1 235/41/1 236/40/1
f 237/49/1 238/50/1 239/48/1 240/47/1
f 241/51/1 242/52/1 243/53/1 244/54/1
f 245/52/1 246/43/1 247/55/1 248/53/1
f 249/40/1 250/41/1 251/42/1 252/43/1
f 253/56/1 254/57/1 255/52/1 256/51/1
f 257/57/1 258/40/1 259/43/1 260/52/1
f 261/47/1 262/48/1 263/41/1 264/40/1
f 265/13/1 266/14/1 267/15/1 268/16/1
f 269/26/1 270/27/1 271/14/1 272/13/1
f 273/40/1 274/41/1 275/42/1 276/43/1
f 277/47/1 278/48/1 279/41/1 280/40/1
f 281/49/1 282/50/1 283/48/1 284/47/1
f 285/58/1 286/59/1 287/60/1 288/61/1
f 289/59/1 290/13/1 291/16/1 292/60/1
f 293/58/1 294/59/1 295/60/1 296/61/1
f 297/59/1 298/13/1 299/16/1 300/60/1
f 301/6/1 302/62/1 303/59/1 304/58/1
f 305/62/1 306/26/1 307/13/1 308/59/1
f 309/63/1 310/64/1 311/65/1 312/66/1
f 313/64/1 314/67/1 315/68/1 316/65/1
f 317/67/1 318/69/1 319/70/1 320/68/1
f 321/6/1 322/62/1 323/59/1 324/58/1
f 325/62/1 326/26/1 327/13/1 328/59/1
f 329/5/1 330/71/1 331/62/1 332/6/1
f 333/71/1 334/72/1 335/26/1 336/62/1
f 337/73/1 338/74/1 339/64/1 340/63/1
f 341/74/1 342/75/1 343/67/1 344/64/1
f 345/75/1 346/76/1 347/69/1 348/67/1
f 349/5/1 350/71/1 351/62/1 352/6/1
f 353/71/1 354/72/1 355/26/1 356/62/1

