# Tiled2Unity generated file. Do not modify by hand.
# Wavefront file for 'MapFloor1_4_mesh_0038.obj'

# Vertices (Count = 20)
v -88 -3 0
v -89 -3 0
v -89 -2 0
v -88 -2 0
v -91 -3 0
v -92 -3 0
v -92 -2 0
v -91 -2 0
v -82 -9 0
v -83 -9 0
v -83 -8 0
v -82 -8 0
v -85 -12 0
v -86 -12 0
v -86 -11 0
v -85 -11 0
v -74 -13 0
v -75 -13 0
v -75 -12 0
v -74 -12 0

# Texture cooridinates (Count = 13)
vt 0.6 0.75
vt 0.8 0.75
vt 0.8 1
vt 0.6 1
vt 0 0.5
vt 0.2 0.5
vt 0.2 0.75
vt 0 0.75
vt 0.2 1
vt 0 1
vt 0.4 0.5
vt 0.6 0.5
vt 0.4 0.75

# Normal
vn 0 0 -1

# Mesh description
g MapFloor1_4_mesh_0038

# Faces
f 1/1/1 2/2/1 3/3/1 4/4/1
f 5/5/1 6/6/1 7/7/1 8/8/1
f 9/8/1 10/7/1 11/9/1 12/10/1
f 13/8/1 14/7/1 15/9/1 16/10/1
f 17/11/1 18/12/1 19/1/1 20/13/1

