# Tiled2Unity generated file. Do not modify by hand.
# Wavefront file for 'MapFloor1_4_mesh_0014.obj'

# Vertices (Count = 504)
v -13 -5 0
v -14 -5 0
v -14 -4 0
v -13 -4 0
v -14 -5 0
v -15 -5 0
v -15 -4 0
v -14 -4 0
v -15 -5 0
v -16 -5 0
v -16 -4 0
v -15 -4 0
v -16 -5 0
v -17 -5 0
v -17 -4 0
v -16 -4 0
v -17 -5 0
v -18 -5 0
v -18 -4 0
v -17 -4 0
v -18 -5 0
v -19 -5 0
v -19 -4 0
v -18 -4 0
v -19 -5 0
v -20 -5 0
v -20 -4 0
v -19 -4 0
v -20 -5 0
v -21 -5 0
v -21 -4 0
v -20 -4 0
v -21 -5 0
v -22 -5 0
v -22 -4 0
v -21 -4 0
v -22 -5 0
v -23 -5 0
v -23 -4 0
v -22 -4 0
v -23 -5 0
v -24 -5 0
v -24 -4 0
v -23 -4 0
v -24 -5 0
v -25 -5 0
v -25 -4 0
v -24 -4 0
v -25 -5 0
v -26 -5 0
v -26 -4 0
v -25 -4 0
v -26 -5 0
v -27 -5 0
v -27 -4 0
v -26 -4 0
v -27 -5 0
v -28 -5 0
v -28 -4 0
v -27 -4 0
v -28 -5 0
v -29 -5 0
v -29 -4 0
v -28 -4 0
v -29 -5 0
v -30 -5 0
v -30 -4 0
v -29 -4 0
v -30 -5 0
v -31 -5 0
v -31 -4 0
v -30 -4 0
v -31 -5 0
v -32 -5 0
v -32 -4 0
v -31 -4 0
v -32 -5 0
v -33 -5 0
v -33 -4 0
v -32 -4 0
v -33 -5 0
v -34 -5 0
v -34 -4 0
v -33 -4 0
v -34 -5 0
v -35 -5 0
v -35 -4 0
v -34 -4 0
v -35 -5 0
v -36 -5 0
v -36 -4 0
v -35 -4 0
v -36 -5 0
v -37 -5 0
v -37 -4 0
v -36 -4 0
v -37 -5 0
v -38 -5 0
v -38 -4 0
v -37 -4 0
v -38 -5 0
v -39 -5 0
v -39 -4 0
v -38 -4 0
v -39 -5 0
v -40 -5 0
v -40 -4 0
v -39 -4 0
v -40 -5 0
v -41 -5 0
v -41 -4 0
v -40 -4 0
v -41 -5 0
v -42 -5 0
v -42 -4 0
v -41 -4 0
v -13 -6 0
v -14 -6 0
v -14 -5 0
v -13 -5 0
v -14 -6 0
v -15 -6 0
v -15 -5 0
v -14 -5 0
v -15 -6 0
v -16 -6 0
v -16 -5 0
v -15 -5 0
v -16 -6 0
v -17 -6 0
v -17 -5 0
v -16 -5 0
v -17 -6 0
v -18 -6 0
v -18 -5 0
v -17 -5 0
v -18 -6 0
v -19 -6 0
v -19 -5 0
v -18 -5 0
v -19 -6 0
v -20 -6 0
v -20 -5 0
v -19 -5 0
v -20 -6 0
v -21 -6 0
v -21 -5 0
v -20 -5 0
v -21 -6 0
v -22 -6 0
v -22 -5 0
v -21 -5 0
v -22 -6 0
v -23 -6 0
v -23 -5 0
v -22 -5 0
v -23 -6 0
v -24 -6 0
v -24 -5 0
v -23 -5 0
v -24 -6 0
v -25 -6 0
v -25 -5 0
v -24 -5 0
v -25 -6 0
v -26 -6 0
v -26 -5 0
v -25 -5 0
v -26 -6 0
v -27 -6 0
v -27 -5 0
v -26 -5 0
v -27 -6 0
v -28 -6 0
v -28 -5 0
v -27 -5 0
v -28 -6 0
v -29 -6 0
v -29 -5 0
v -28 -5 0
v -29 -6 0
v -30 -6 0
v -30 -5 0
v -29 -5 0
v -30 -6 0
v -31 -6 0
v -31 -5 0
v -30 -5 0
v -31 -6 0
v -32 -6 0
v -32 -5 0
v -31 -5 0
v -32 -6 0
v -33 -6 0
v -33 -5 0
v -32 -5 0
v -33 -6 0
v -34 -6 0
v -34 -5 0
v -33 -5 0
v -34 -6 0
v -35 -6 0
v -35 -5 0
v -34 -5 0
v -35 -6 0
v -36 -6 0
v -36 -5 0
v -35 -5 0
v -36 -6 0
v -37 -6 0
v -37 -5 0
v -36 -5 0
v -37 -6 0
v -38 -6 0
v -38 -5 0
v -37 -5 0
v -38 -6 0
v -39 -6 0
v -39 -5 0
v -38 -5 0
v -39 -6 0
v -40 -6 0
v -40 -5 0
v -39 -5 0
v -40 -6 0
v -41 -6 0
v -41 -5 0
v -40 -5 0
v -41 -6 0
v -42 -6 0
v -42 -5 0
v -41 -5 0
v -41 -7 0
v -42 -7 0
v -42 -6 0
v -41 -6 0
v -41 -8 0
v -42 -8 0
v -42 -7 0
v -41 -7 0
v -41 -9 0
v -42 -9 0
v -42 -8 0
v -41 -8 0
v -41 -10 0
v -42 -10 0
v -42 -9 0
v -41 -9 0
v -41 -11 0
v -42 -11 0
v -42 -10 0
v -41 -10 0
v -41 -12 0
v -42 -12 0
v -42 -11 0
v -41 -11 0
v -41 -13 0
v -42 -13 0
v -42 -12 0
v -41 -12 0
v -41 -34 0
v -42 -34 0
v -42 -33 0
v -41 -33 0
v -41 -35 0
v -42 -35 0
v -42 -34 0
v -41 -34 0
v -41 -36 0
v -42 -36 0
v -42 -35 0
v -41 -35 0
v -41 -37 0
v -42 -37 0
v -42 -36 0
v -41 -36 0
v -41 -38 0
v -42 -38 0
v -42 -37 0
v -41 -37 0
v -13 -39 0
v -14 -39 0
v -14 -38 0
v -13 -38 0
v -14 -39 0
v -15 -39 0
v -15 -38 0
v -14 -38 0
v -15 -39 0
v -16 -39 0
v -16 -38 0
v -15 -38 0
v -16 -39 0
v -17 -39 0
v -17 -38 0
v -16 -38 0
v -17 -39 0
v -18 -39 0
v -18 -38 0
v -17 -38 0
v -18 -39 0
v -19 -39 0
v -19 -38 0
v -18 -38 0
v -19 -39 0
v -20 -39 0
v -20 -38 0
v -19 -38 0
v -20 -39 0
v -21 -39 0
v -21 -38 0
v -20 -38 0
v -21 -39 0
v -22 -39 0
v -22 -38 0
v -21 -38 0
v -22 -39 0
v -23 -39 0
v -23 -38 0
v -22 -38 0
v -23 -39 0
v -24 -39 0
v -24 -38 0
v -23 -38 0
v -24 -39 0
v -25 -39 0
v -25 -38 0
v -24 -38 0
v -25 -39 0
v -26 -39 0
v -26 -38 0
v -25 -38 0
v -26 -39 0
v -27 -39 0
v -27 -38 0
v -26 -38 0
v -27 -39 0
v -28 -39 0
v -28 -38 0
v -27 -38 0
v -28 -39 0
v -29 -39 0
v -29 -38 0
v -28 -38 0
v -29 -39 0
v -30 -39 0
v -30 -38 0
v -29 -38 0
v -30 -39 0
v -31 -39 0
v -31 -38 0
v -30 -38 0
v -31 -39 0
v -32 -39 0
v -32 -38 0
v -31 -38 0
v -32 -39 0
v -33 -39 0
v -33 -38 0
v -32 -38 0
v -33 -39 0
v -34 -39 0
v -34 -38 0
v -33 -38 0
v -34 -39 0
v -35 -39 0
v -35 -38 0
v -34 -38 0
v -35 -39 0
v -36 -39 0
v -36 -38 0
v -35 -38 0
v -36 -39 0
v -37 -39 0
v -37 -38 0
v -36 -38 0
v -37 -39 0
v -38 -39 0
v -38 -38 0
v -37 -38 0
v -38 -39 0
v -39 -39 0
v -39 -38 0
v -38 -38 0
v -39 -39 0
v -40 -39 0
v -40 -38 0
v -39 -38 0
v -40 -39 0
v -41 -39 0
v -41 -38 0
v -40 -38 0
v -13 -40 0
v -14 -40 0
v -14 -39 0
v -13 -39 0
v -14 -40 0
v -15 -40 0
v -15 -39 0
v -14 -39 0
v -15 -40 0
v -16 -40 0
v -16 -39 0
v -15 -39 0
v -16 -40 0
v -17 -40 0
v -17 -39 0
v -16 -39 0
v -17 -40 0
v -18 -40 0
v -18 -39 0
v -17 -39 0
v -18 -40 0
v -19 -40 0
v -19 -39 0
v -18 -39 0
v -19 -40 0
v -20 -40 0
v -20 -39 0
v -19 -39 0
v -20 -40 0
v -21 -40 0
v -21 -39 0
v -20 -39 0
v -21 -40 0
v -22 -40 0
v -22 -39 0
v -21 -39 0
v -22 -40 0
v -23 -40 0
v -23 -39 0
v -22 -39 0
v -23 -40 0
v -24 -40 0
v -24 -39 0
v -23 -39 0
v -24 -40 0
v -25 -40 0
v -25 -39 0
v -24 -39 0
v -25 -40 0
v -26 -40 0
v -26 -39 0
v -25 -39 0
v -26 -40 0
v -27 -40 0
v -27 -39 0
v -26 -39 0
v -27 -40 0
v -28 -40 0
v -28 -39 0
v -27 -39 0
v -28 -40 0
v -29 -40 0
v -29 -39 0
v -28 -39 0
v -29 -40 0
v -30 -40 0
v -30 -39 0
v -29 -39 0
v -30 -40 0
v -31 -40 0
v -31 -39 0
v -30 -39 0
v -31 -40 0
v -32 -40 0
v -32 -39 0
v -31 -39 0
v -32 -40 0
v -33 -40 0
v -33 -39 0
v -32 -39 0
v -33 -40 0
v -34 -40 0
v -34 -39 0
v -33 -39 0
v -34 -40 0
v -35 -40 0
v -35 -39 0
v -34 -39 0
v -35 -40 0
v -36 -40 0
v -36 -39 0
v -35 -39 0
v -36 -40 0
v -37 -40 0
v -37 -39 0
v -36 -39 0
v -37 -40 0
v -38 -40 0
v -38 -39 0
v -37 -39 0
v -38 -40 0
v -39 -40 0
v -39 -39 0
v -38 -39 0
v -39 -40 0
v -40 -40 0
v -40 -39 0
v -39 -39 0
v -40 -40 0
v -41 -40 0
v -41 -39 0
v -40 -39 0

# Texture cooridinates (Count = 16)
vt 0.1 0.8
vt 0.2 0.8
vt 0.2 0.9
vt 0.1 0.9
vt 0.3 0.8
vt 0.3 0.9
vt 0.4 0.8
vt 0.4 0.9
vt 0.1 0.7
vt 0.2 0.7
vt 0.3 0.7
vt 0.4 0.7
vt 0.3 0.6
vt 0.4 0.6
vt 0.3 0.5
vt 0.4 0.5

# Normal
vn 0 0 -1

# Mesh description
g MapFloor1_4_mesh_0014

# Faces
f 1/1/1 2/2/1 3/3/1 4/4/1
f 5/2/1 6/5/1 7/6/1 8/3/1
f 9/1/1 10/2/1 11/3/1 12/4/1
f 13/2/1 14/5/1 15/6/1 16/3/1
f 17/1/1 18/2/1 19/3/1 20/4/1
f 21/2/1 22/5/1 23/6/1 24/3/1
f 25/1/1 26/2/1 27/3/1 28/4/1
f 29/2/1 30/5/1 31/6/1 32/3/1
f 33/1/1 34/2/1 35/3/1 36/4/1
f 37/2/1 38/5/1 39/6/1 40/3/1
f 41/1/1 42/2/1 43/3/1 44/4/1
f 45/2/1 46/5/1 47/6/1 48/3/1
f 49/1/1 50/2/1 51/3/1 52/4/1
f 53/2/1 54/5/1 55/6/1 56/3/1
f 57/1/1 58/2/1 59/3/1 60/4/1
f 61/2/1 62/5/1 63/6/1 64/3/1
f 65/1/1 66/2/1 67/3/1 68/4/1
f 69/2/1 70/5/1 71/6/1 72/3/1
f 73/1/1 74/2/1 75/3/1 76/4/1
f 77/2/1 78/5/1 79/6/1 80/3/1
f 81/1/1 82/2/1 83/3/1 84/4/1
f 85/2/1 86/5/1 87/6/1 88/3/1
f 89/1/1 90/2/1 91/3/1 92/4/1
f 93/2/1 94/5/1 95/6/1 96/3/1
f 97/1/1 98/2/1 99/3/1 100/4/1
f 101/2/1 102/5/1 103/6/1 104/3/1
f 105/1/1 106/2/1 107/3/1 108/4/1
f 109/2/1 110/5/1 111/6/1 112/3/1
f 113/5/1 114/7/1 115/8/1 116/6/1
f 117/9/1 118/10/1 119/2/1 120/1/1
f 121/10/1 122/11/1 123/5/1 124/2/1
f 125/9/1 126/10/1 127/2/1 128/1/1
f 129/10/1 130/11/1 131/5/1 132/2/1
f 133/9/1 134/10/1 135/2/1 136/1/1
f 137/10/1 138/11/1 139/5/1 140/2/1
f 141/9/1 142/10/1 143/2/1 144/1/1
f 145/10/1 146/11/1 147/5/1 148/2/1
f 149/9/1 150/10/1 151/2/1 152/1/1
f 153/10/1 154/11/1 155/5/1 156/2/1
f 157/9/1 158/10/1 159/2/1 160/1/1
f 161/10/1 162/11/1 163/5/1 164/2/1
f 165/9/1 166/10/1 167/2/1 168/1/1
f 169/10/1 170/11/1 171/5/1 172/2/1
f 173/9/1 174/10/1 175/2/1 176/1/1
f 177/10/1 178/11/1 179/5/1 180/2/1
f 181/9/1 182/10/1 183/2/1 184/1/1
f 185/10/1 186/11/1 187/5/1 188/2/1
f 189/9/1 190/10/1 191/2/1 192/1/1
f 193/10/1 194/11/1 195/5/1 196/2/1
f 197/9/1 198/10/1 199/2/1 200/1/1
f 201/10/1 202/11/1 203/5/1 204/2/1
f 205/9/1 206/10/1 207/2/1 208/1/1
f 209/10/1 210/11/1 211/5/1 212/2/1
f 213/9/1 214/10/1 215/2/1 216/1/1
f 217/10/1 218/11/1 219/5/1 220/2/1
f 221/9/1 222/10/1 223/2/1 224/1/1
f 225/10/1 226/11/1 227/5/1 228/2/1
f 229/11/1 230/12/1 231/7/1 232/5/1
f 233/13/1 234/14/1 235/12/1 236/11/1
f 237/15/1 238/16/1 239/14/1 240/13/1
f 241/11/1 242/12/1 243/7/1 244/5/1
f 245/13/1 246/14/1 247/12/1 248/11/1
f 249/15/1 250/16/1 251/14/1 252/13/1
f 253/11/1 254/12/1 255/7/1 256/5/1
f 257/13/1 258/14/1 259/12/1 260/11/1
f 261/11/1 262/12/1 263/7/1 264/5/1
f 265/13/1 266/14/1 267/12/1 268/11/1
f 269/15/1 270/16/1 271/14/1 272/13/1
f 273/11/1 274/12/1 275/7/1 276/5/1
f 277/13/1 278/14/1 279/12/1 280/11/1
f 281/1/1 282/2/1 283/3/1 284/4/1
f 285/2/1 286/5/1 287/6/1 288/3/1
f 289/1/1 290/2/1 291/3/1 292/4/1
f 293/2/1 294/5/1 295/6/1 296/3/1
f 297/1/1 298/2/1 299/3/1 300/4/1
f 301/2/1 302/5/1 303/6/1 304/3/1
f 305/1/1 306/2/1 307/3/1 308/4/1
f 309/2/1 310/5/1 311/6/1 312/3/1
f 313/1/1 314/2/1 315/3/1 316/4/1
f 317/2/1 318/5/1 319/6/1 320/3/1
f 321/1/1 322/2/1 323/3/1 324/4/1
f 325/2/1 326/5/1 327/6/1 328/3/1
f 329/1/1 330/2/1 331/3/1 332/4/1
f 333/2/1 334/5/1 335/6/1 336/3/1
f 337/1/1 338/2/1 339/3/1 340/4/1
f 341/2/1 342/5/1 343/6/1 344/3/1
f 345/1/1 346/2/1 347/3/1 348/4/1
f 349/2/1 350/5/1 351/6/1 352/3/1
f 353/1/1 354/2/1 355/3/1 356/4/1
f 357/2/1 358/5/1 359/6/1 360/3/1
f 361/1/1 362/2/1 363/3/1 364/4/1
f 365/2/1 366/5/1 367/6/1 368/3/1
f 369/1/1 370/2/1 371/3/1 372/4/1
f 373/2/1 374/5/1 375/6/1 376/3/1
f 377/1/1 378/2/1 379/3/1 380/4/1
f 381/2/1 382/5/1 383/6/1 384/3/1
f 385/1/1 386/2/1 387/3/1 388/4/1
f 389/2/1 390/5/1 391/6/1 392/3/1
f 393/9/1 394/10/1 395/2/1 396/1/1
f 397/10/1 398/11/1 399/5/1 400/2/1
f 401/9/1 402/10/1 403/2/1 404/1/1
f 405/10/1 406/11/1 407/5/1 408/2/1
f 409/9/1 410/10/1 411/2/1 412/1/1
f 413/10/1 414/11/1 415/5/1 416/2/1
f 417/9/1 418/10/1 419/2/1 420/1/1
f 421/10/1 422/11/1 423/5/1 424/2/1
f 425/9/1 426/10/1 427/2/1 428/1/1
f 429/10/1 430/11/1 431/5/1 432/2/1
f 433/9/1 434/10/1 435/2/1 436/1/1
f 437/10/1 438/11/1 439/5/1 440/2/1
f 441/9/1 442/10/1 443/2/1 444/1/1
f 445/10/1 446/11/1 447/5/1 448/2/1
f 449/9/1 450/10/1 451/2/1 452/1/1
f 453/10/1 454/11/1 455/5/1 456/2/1
f 457/9/1 458/10/1 459/2/1 460/1/1
f 461/10/1 462/11/1 463/5/1 464/2/1
f 465/9/1 466/10/1 467/2/1 468/1/1
f 469/10/1 470/11/1 471/5/1 472/2/1
f 473/9/1 474/10/1 475/2/1 476/1/1
f 477/10/1 478/11/1 479/5/1 480/2/1
f 481/9/1 482/10/1 483/2/1 484/1/1
f 485/10/1 486/11/1 487/5/1 488/2/1
f 489/9/1 490/10/1 491/2/1 492/1/1
f 493/10/1 494/11/1 495/5/1 496/2/1
f 497/9/1 498/10/1 499/2/1 500/1/1
f 501/10/1 502/11/1 503/5/1 504/2/1

