# Tiled2Unity generated file. Do not modify by hand.
# Wavefront file for 'MapFloor1_4_mesh_0015.obj'

# Vertices (Count = 192)
v 0 -12 0
v -1 -12 0
v -1 -11 0
v 0 -11 0
v -1 -12 0
v -2 -12 0
v -2 -11 0
v -1 -11 0
v -2 -12 0
v -3 -12 0
v -3 -11 0
v -2 -11 0
v -3 -12 0
v -4 -12 0
v -4 -11 0
v -3 -11 0
v -4 -12 0
v -5 -12 0
v -5 -11 0
v -4 -11 0
v -5 -12 0
v -6 -12 0
v -6 -11 0
v -5 -11 0
v -6 -12 0
v -7 -12 0
v -7 -11 0
v -6 -11 0
v -7 -12 0
v -8 -12 0
v -8 -11 0
v -7 -11 0
v -8 -12 0
v -9 -12 0
v -9 -11 0
v -8 -11 0
v -9 -12 0
v -10 -12 0
v -10 -11 0
v -9 -11 0
v -10 -12 0
v -11 -12 0
v -11 -11 0
v -10 -11 0
v -11 -12 0
v -12 -12 0
v -12 -11 0
v -11 -11 0
v 0 -13 0
v -1 -13 0
v -1 -12 0
v 0 -12 0
v -1 -13 0
v -2 -13 0
v -2 -12 0
v -1 -12 0
v -2 -13 0
v -3 -13 0
v -3 -12 0
v -2 -12 0
v -3 -13 0
v -4 -13 0
v -4 -12 0
v -3 -12 0
v -4 -13 0
v -5 -13 0
v -5 -12 0
v -4 -12 0
v -5 -13 0
v -6 -13 0
v -6 -12 0
v -5 -12 0
v -6 -13 0
v -7 -13 0
v -7 -12 0
v -6 -12 0
v -7 -13 0
v -8 -13 0
v -8 -12 0
v -7 -12 0
v -8 -13 0
v -9 -13 0
v -9 -12 0
v -8 -12 0
v -9 -13 0
v -10 -13 0
v -10 -12 0
v -9 -12 0
v -10 -13 0
v -11 -13 0
v -11 -12 0
v -10 -12 0
v -11 -13 0
v -12 -13 0
v -12 -12 0
v -11 -12 0
v 0 -14 0
v -1 -14 0
v -1 -13 0
v 0 -13 0
v 0 -15 0
v -1 -15 0
v -1 -14 0
v 0 -14 0
v 0 -16 0
v -1 -16 0
v -1 -15 0
v 0 -15 0
v 0 -17 0
v -1 -17 0
v -1 -16 0
v 0 -16 0
v 0 -18 0
v -1 -18 0
v -1 -17 0
v 0 -17 0
v 0 -19 0
v -1 -19 0
v -1 -18 0
v 0 -18 0
v 0 -20 0
v -1 -20 0
v -1 -19 0
v 0 -19 0
v 0 -21 0
v -1 -21 0
v -1 -20 0
v 0 -20 0
v 0 -22 0
v -1 -22 0
v -1 -21 0
v 0 -21 0
v 0 -23 0
v -1 -23 0
v -1 -22 0
v 0 -22 0
v 0 -24 0
v -1 -24 0
v -1 -23 0
v 0 -23 0
v 0 -25 0
v -1 -25 0
v -1 -24 0
v 0 -24 0
v 0 -26 0
v -1 -26 0
v -1 -25 0
v 0 -25 0
v -1 -26 0
v -2 -26 0
v -2 -25 0
v -1 -25 0
v -2 -26 0
v -3 -26 0
v -3 -25 0
v -2 -25 0
v -3 -26 0
v -4 -26 0
v -4 -25 0
v -3 -25 0
v -4 -26 0
v -5 -26 0
v -5 -25 0
v -4 -25 0
v -5 -26 0
v -6 -26 0
v -6 -25 0
v -5 -25 0
v -6 -26 0
v -7 -26 0
v -7 -25 0
v -6 -25 0
v -7 -26 0
v -8 -26 0
v -8 -25 0
v -7 -25 0
v -8 -26 0
v -9 -26 0
v -9 -25 0
v -8 -25 0
v -9 -26 0
v -10 -26 0
v -10 -25 0
v -9 -25 0
v -10 -26 0
v -11 -26 0
v -11 -25 0
v -10 -25 0
v -11 -26 0
v -12 -26 0
v -12 -25 0
v -11 -25 0

# Texture cooridinates (Count = 22)
vt 0 0.8
vt 0.1 0.8
vt 0.1 0.9
vt 0 0.9
vt 0.2 0.8
vt 0.2 0.9
vt 0.3 0.8
vt 0.3 0.9
vt 0 0.7
vt 0.1 0.7
vt 0.2 0.7
vt 0.3 0.7
vt 0 0.6
vt 0.1 0.6
vt 0 0.5
vt 0.1 0.5
vt 0 0.4
vt 0.1 0.4
vt 0.2 0.4
vt 0.2 0.5
vt 0.3 0.4
vt 0.3 0.5

# Normal
vn 0 0 -1

# Mesh description
g MapFloor1_4_mesh_0015

# Faces
f 1/1/1 2/2/1 3/3/1 4/4/1
f 5/2/1 6/5/1 7/6/1 8/3/1
f 9/5/1 10/7/1 11/8/1 12/6/1
f 13/5/1 14/7/1 15/8/1 16/6/1
f 17/5/1 18/7/1 19/8/1 20/6/1
f 21/5/1 22/7/1 23/8/1 24/6/1
f 25/5/1 26/7/1 27/8/1 28/6/1
f 29/5/1 30/7/1 31/8/1 32/6/1
f 33/5/1 34/7/1 35/8/1 36/6/1
f 37/5/1 38/7/1 39/8/1 40/6/1
f 41/5/1 42/7/1 43/8/1 44/6/1
f 45/5/1 46/7/1 47/8/1 48/6/1
f 49/9/1 50/10/1 51/2/1 52/1/1
f 53/10/1 54/11/1 55/5/1 56/2/1
f 57/11/1 58/12/1 59/7/1 60/5/1
f 61/11/1 62/12/1 63/7/1 64/5/1
f 65/11/1 66/12/1 67/7/1 68/5/1
f 69/11/1 70/12/1 71/7/1 72/5/1
f 73/11/1 74/12/1 75/7/1 76/5/1
f 77/11/1 78/12/1 79/7/1 80/5/1
f 81/11/1 82/12/1 83/7/1 84/5/1
f 85/11/1 86/12/1 87/7/1 88/5/1
f 89/11/1 90/12/1 91/7/1 92/5/1
f 93/11/1 94/12/1 95/7/1 96/5/1
f 97/9/1 98/10/1 99/2/1 100/1/1
f 101/9/1 102/10/1 103/2/1 104/1/1
f 105/9/1 106/10/1 107/2/1 108/1/1
f 109/9/1 110/10/1 111/2/1 112/1/1
f 113/13/1 114/14/1 115/10/1 116/9/1
f 117/15/1 118/16/1 119/14/1 120/13/1
f 121/9/1 122/10/1 123/2/1 124/1/1
f 125/9/1 126/10/1 127/2/1 128/1/1
f 129/9/1 130/10/1 131/2/1 132/1/1
f 133/9/1 134/10/1 135/2/1 136/1/1
f 137/13/1 138/14/1 139/10/1 140/9/1
f 141/15/1 142/16/1 143/14/1 144/13/1
f 145/17/1 146/18/1 147/16/1 148/15/1
f 149/18/1 150/19/1 151/20/1 152/16/1
f 153/18/1 154/19/1 155/20/1 156/16/1
f 157/18/1 158/19/1 159/20/1 160/16/1
f 161/18/1 162/19/1 163/20/1 164/16/1
f 165/18/1 166/19/1 167/20/1 168/16/1
f 169/18/1 170/19/1 171/20/1 172/16/1
f 173/18/1 174/19/1 175/20/1 176/16/1
f 177/18/1 178/19/1 179/20/1 180/16/1
f 181/18/1 182/19/1 183/20/1 184/16/1
f 185/18/1 186/19/1 187/20/1 188/16/1
f 189/19/1 190/21/1 191/22/1 192/20/1

