# Tiled2Unity generated file. Do not modify by hand.
# Wavefront file for 'MapFloor1_4_mesh_0026.obj'

# Vertices (Count = 144)
v -30 -11 0
v -31 -11 0
v -31 -10 0
v -30 -10 0
v -32 -11 0
v -33 -11 0
v -33 -10 0
v -32 -10 0
v -34 -11 0
v -35 -11 0
v -35 -10 0
v -34 -10 0
v -35 -11 0
v -36 -11 0
v -36 -10 0
v -35 -10 0
v -36 -11 0
v -37 -11 0
v -37 -10 0
v -36 -10 0
v -37 -11 0
v -38 -11 0
v -38 -10 0
v -37 -10 0
v -24 -21 0
v -25 -21 0
v -25 -20 0
v -24 -20 0
v -24 -22 0
v -25 -22 0
v -25 -21 0
v -24 -21 0
v -28 -22 0
v -29 -22 0
v -29 -21 0
v -28 -21 0
v -24 -23 0
v -25 -23 0
v -25 -22 0
v -24 -22 0
v -25 -23 0
v -26 -23 0
v -26 -22 0
v -25 -22 0
v -28 -23 0
v -29 -23 0
v -29 -22 0
v -28 -22 0
v -24 -24 0
v -25 -24 0
v -25 -23 0
v -24 -23 0
v -25 -24 0
v -26 -24 0
v -26 -23 0
v -25 -23 0
v -28 -24 0
v -29 -24 0
v -29 -23 0
v -28 -23 0
v -28 -25 0
v -29 -25 0
v -29 -24 0
v -28 -24 0
v -16 -35 0
v -17 -35 0
v -17 -34 0
v -16 -34 0
v -17 -35 0
v -18 -35 0
v -18 -34 0
v -17 -34 0
v -19 -35 0
v -20 -35 0
v -20 -34 0
v -19 -34 0
v -23 -35 0
v -24 -35 0
v -24 -34 0
v -23 -34 0
v -24 -35 0
v -25 -35 0
v -25 -34 0
v -24 -34 0
v -25 -35 0
v -26 -35 0
v -26 -34 0
v -25 -34 0
v -26 -35 0
v -27 -35 0
v -27 -34 0
v -26 -34 0
v -27 -35 0
v -28 -35 0
v -28 -34 0
v -27 -34 0
v -32 -35 0
v -33 -35 0
v -33 -34 0
v -32 -34 0
v -33 -35 0
v -34 -35 0
v -34 -34 0
v -33 -34 0
v -16 -36 0
v -17 -36 0
v -17 -35 0
v -16 -35 0
v -17 -36 0
v -18 -36 0
v -18 -35 0
v -17 -35 0
v -19 -36 0
v -20 -36 0
v -20 -35 0
v -19 -35 0
v -20 -36 0
v -21 -36 0
v -21 -35 0
v -20 -35 0
v -24 -36 0
v -25 -36 0
v -25 -35 0
v -24 -35 0
v -25 -36 0
v -26 -36 0
v -26 -35 0
v -25 -35 0
v -26 -36 0
v -27 -36 0
v -27 -35 0
v -26 -35 0
v -27 -36 0
v -28 -36 0
v -28 -35 0
v -27 -35 0
v -32 -36 0
v -33 -36 0
v -33 -35 0
v -32 -35 0
v -33 -36 0
v -34 -36 0
v -34 -35 0
v -33 -35 0

# Texture cooridinates (Count = 26)
vt 0.6875 0.75
vt 0.75 0.75
vt 0.75 0.7678571
vt 0.6875 0.7678571
vt 0.75 0.7321429
vt 0.8125 0.7321429
vt 0.8125 0.75
vt 0.75 0.7857143
vt 0.6875 0.7857143
vt 0.8125 0.7678571
vt 0.6875 0.7321429
vt 0.625 0.5178571
vt 0.6875 0.5178571
vt 0.6875 0.5357143
vt 0.625 0.5357143
vt 0.625 0.5
vt 0.6875 0.5
vt 0.25 0.4285714
vt 0.3125 0.4285714
vt 0.3125 0.4464286
vt 0.25 0.4464286
vt 0.375 0.4285714
vt 0.375 0.4464286
vt 0.25 0.4107143
vt 0.3125 0.4107143
vt 0.375 0.4107143

# Normal
vn 0 0 -1

# Mesh description
g MapFloor1_4_mesh_0026

# Faces
f 1/1/1 2/2/1 3/3/1 4/4/1
f 5/1/1 6/2/1 7/3/1 8/4/1
f 9/5/1 10/6/1 11/7/1 12/2/1
f 13/4/1 14/3/1 15/8/1 16/9/1
f 17/2/1 18/7/1 19/10/1 20/3/1
f 21/11/1 22/5/1 23/2/1 24/1/1
f 25/12/1 26/13/1 27/14/1 28/15/1
f 29/16/1 30/17/1 31/13/1 32/12/1
f 33/4/1 34/3/1 35/8/1 36/9/1
f 37/1/1 38/2/1 39/3/1 40/4/1
f 41/2/1 42/7/1 43/10/1 44/3/1
f 45/4/1 46/3/1 47/8/1 48/9/1
f 49/11/1 50/5/1 51/2/1 52/1/1
f 53/5/1 54/6/1 55/7/1 56/2/1
f 57/12/1 58/13/1 59/14/1 60/15/1
f 61/16/1 62/17/1 63/13/1 64/12/1
f 65/18/1 66/19/1 67/20/1 68/21/1
f 69/19/1 70/22/1 71/23/1 72/20/1
f 73/12/1 74/13/1 75/14/1 76/15/1
f 77/4/1 78/3/1 79/8/1 80/9/1
f 81/18/1 82/19/1 83/20/1 84/21/1
f 85/19/1 86/22/1 87/23/1 88/20/1
f 89/1/1 90/2/1 91/3/1 92/4/1
f 93/2/1 94/7/1 95/10/1 96/3/1
f 97/18/1 98/19/1 99/20/1 100/21/1
f 101/19/1 102/22/1 103/23/1 104/20/1
f 105/24/1 106/25/1 107/19/1 108/18/1
f 109/25/1 110/26/1 111/22/1 112/19/1
f 113/16/1 114/17/1 115/13/1 116/12/1
f 117/4/1 118/3/1 119/8/1 120/9/1
f 121/24/1 122/25/1 123/19/1 124/18/1
f 125/25/1 126/26/1 127/22/1 128/19/1
f 129/11/1 130/5/1 131/2/1 132/1/1
f 133/5/1 134/6/1 135/7/1 136/2/1
f 137/24/1 138/25/1 139/19/1 140/18/1
f 141/25/1 142/26/1 143/22/1 144/19/1

