# Tiled2Unity generated file. Do not modify by hand.
# Wavefront file for 'MapFloor1_4_mesh_0043.obj'

# Vertices (Count = 60)
v -59 -43 0
v -60 -43 0
v -60 -42 0
v -59 -42 0
v -60 -43 0
v -61 -43 0
v -61 -42 0
v -60 -42 0
v -61 -43 0
v -62 -43 0
v -62 -42 0
v -61 -42 0
v -59 -44 0
v -60 -44 0
v -60 -43 0
v -59 -43 0
v -60 -44 0
v -61 -44 0
v -61 -43 0
v -60 -43 0
v -61 -44 0
v -62 -44 0
v -62 -43 0
v -61 -43 0
v -52 -50 0
v -53 -50 0
v -53 -49 0
v -52 -49 0
v -53 -50 0
v -54 -50 0
v -54 -49 0
v -53 -49 0
v -54 -50 0
v -55 -50 0
v -55 -49 0
v -54 -49 0
v -52 -51 0
v -53 -51 0
v -53 -50 0
v -52 -50 0
v -53 -51 0
v -54 -51 0
v -54 -50 0
v -53 -50 0
v -54 -51 0
v -55 -51 0
v -55 -50 0
v -54 -50 0
v -52 -52 0
v -53 -52 0
v -53 -51 0
v -52 -51 0
v -53 -52 0
v -54 -52 0
v -54 -51 0
v -53 -51 0
v -54 -52 0
v -55 -52 0
v -55 -51 0
v -54 -51 0

# Texture cooridinates (Count = 28)
vt 0.875 0.4166667
vt 0.9166667 0.4166667
vt 0.9166667 0.4583333
vt 0.875 0.4583333
vt 0.9583333 0.4166667
vt 0.9583333 0.4583333
vt 1 0.4166667
vt 1 0.4583333
vt 0.875 0.375
vt 0.9166667 0.375
vt 0.9583333 0.375
vt 1 0.375
vt 0.875 0.08333331
vt 0.9166667 0.08333331
vt 0.9166667 0.125
vt 0.875 0.125
vt 0.9583333 0.08333331
vt 0.9583333 0.125
vt 1 0.08333331
vt 1 0.125
vt 0.875 0.04166669
vt 0.9166667 0.04166669
vt 0.9583333 0.04166669
vt 1 0.04166669
vt 0.875 0
vt 0.9166667 0
vt 0.9583333 0
vt 1 0

# Normal
vn 0 0 -1

# Mesh description
g MapFloor1_4_mesh_0043

# Faces
f 1/1/1 2/2/1 3/3/1 4/4/1
f 5/2/1 6/5/1 7/6/1 8/3/1
f 9/5/1 10/7/1 11/8/1 12/6/1
f 13/9/1 14/10/1 15/2/1 16/1/1
f 17/10/1 18/11/1 19/5/1 20/2/1
f 21/11/1 22/12/1 23/7/1 24/5/1
f 25/13/1 26/14/1 27/15/1 28/16/1
f 29/14/1 30/17/1 31/18/1 32/15/1
f 33/17/1 34/19/1 35/20/1 36/18/1
f 37/21/1 38/22/1 39/14/1 40/13/1
f 41/22/1 42/23/1 43/17/1 44/14/1
f 45/23/1 46/24/1 47/19/1 48/17/1
f 49/25/1 50/26/1 51/22/1 52/21/1
f 53/26/1 54/27/1 55/23/1 56/22/1
f 57/27/1 58/28/1 59/24/1 60/23/1

