# Tiled2Unity generated file. Do not modify by hand.
# Wavefront file for 'MapFloor1_4_mesh_0033.obj'

# Vertices (Count = 40)
v -92 -17 0
v -93 -17 0
v -93 -16 0
v -92 -16 0
v -92 -18 0
v -93 -18 0
v -93 -17 0
v -92 -17 0
v -71 -39 0
v -72 -39 0
v -72 -38 0
v -71 -38 0
v -71 -40 0
v -72 -40 0
v -72 -39 0
v -71 -39 0
v -90 -49 0
v -91 -49 0
v -91 -48 0
v -90 -48 0
v -91 -49 0
v -92 -49 0
v -92 -48 0
v -91 -48 0
v -90 -50 0
v -91 -50 0
v -91 -49 0
v -90 -49 0
v -91 -50 0
v -92 -50 0
v -92 -49 0
v -91 -49 0
v -90 -51 0
v -91 -51 0
v -91 -50 0
v -90 -50 0
v -91 -51 0
v -92 -51 0
v -92 -50 0
v -91 -50 0

# Texture cooridinates (Count = 18)
vt 0.3571429 0.1666667
vt 0.4285714 0.1666667
vt 0.4285714 0.1944444
vt 0.3571429 0.1944444
vt 0.3571429 0.1388889
vt 0.4285714 0.1388889
vt 0.7142857 0.1944444
vt 0.7857143 0.1944444
vt 0.7857143 0.2222222
vt 0.7142857 0.2222222
vt 0.8571429 0.1944444
vt 0.8571429 0.2222222
vt 0.7142857 0.1666667
vt 0.7857143 0.1666667
vt 0.8571429 0.1666667
vt 0.7142857 0.1388889
vt 0.7857143 0.1388889
vt 0.8571429 0.1388889

# Normal
vn 0 0 -1

# Mesh description
g MapFloor1_4_mesh_0033

# Faces
f 1/1/1 2/2/1 3/3/1 4/4/1
f 5/5/1 6/6/1 7/2/1 8/1/1
f 9/1/1 10/2/1 11/3/1 12/4/1
f 13/5/1 14/6/1 15/2/1 16/1/1
f 17/7/1 18/8/1 19/9/1 20/10/1
f 21/8/1 22/11/1 23/12/1 24/9/1
f 25/13/1 26/14/1 27/8/1 28/7/1
f 29/14/1 30/15/1 31/11/1 32/8/1
f 33/16/1 34/17/1 35/14/1 36/13/1
f 37/17/1 38/18/1 39/15/1 40/14/1

