# Tiled2Unity generated file. Do not modify by hand.
# Wavefront file for 'MapFloor1_4_mesh_0051.obj'

# Vertices (Count = 168)
v -30 -64 0
v -31 -64 0
v -31 -63 0
v -30 -63 0
v -31 -64 0
v -32 -64 0
v -32 -63 0
v -31 -63 0
v -38 -64 0
v -39 -64 0
v -39 -63 0
v -38 -63 0
v -39 -64 0
v -40 -64 0
v -40 -63 0
v -39 -63 0
v -46 -64 0
v -47 -64 0
v -47 -63 0
v -46 -63 0
v -47 -64 0
v -48 -64 0
v -48 -63 0
v -47 -63 0
v -21 -65 0
v -22 -65 0
v -22 -64 0
v -21 -64 0
v -22 -65 0
v -23 -65 0
v -23 -64 0
v -22 -64 0
v -30 -65 0
v -31 -65 0
v -31 -64 0
v -30 -64 0
v -31 -65 0
v -32 -65 0
v -32 -64 0
v -31 -64 0
v -38 -65 0
v -39 -65 0
v -39 -64 0
v -38 -64 0
v -39 -65 0
v -40 -65 0
v -40 -64 0
v -39 -64 0
v -46 -65 0
v -47 -65 0
v -47 -64 0
v -46 -64 0
v -47 -65 0
v -48 -65 0
v -48 -64 0
v -47 -64 0
v -18 -66 0
v -19 -66 0
v -19 -65 0
v -18 -65 0
v -19 -66 0
v -20 -66 0
v -20 -65 0
v -19 -65 0
v -20 -66 0
v -21 -66 0
v -21 -65 0
v -20 -65 0
v -21 -66 0
v -22 -66 0
v -22 -65 0
v -21 -65 0
v -22 -66 0
v -23 -66 0
v -23 -65 0
v -22 -65 0
v -23 -66 0
v -24 -66 0
v -24 -65 0
v -23 -65 0
v -24 -66 0
v -25 -66 0
v -25 -65 0
v -24 -65 0
v -25 -66 0
v -26 -66 0
v -26 -65 0
v -25 -65 0
v -26 -66 0
v -27 -66 0
v -27 -65 0
v -26 -65 0
v -27 -66 0
v -28 -66 0
v -28 -65 0
v -27 -65 0
v -28 -66 0
v -29 -66 0
v -29 -65 0
v -28 -65 0
v -30 -66 0
v -31 -66 0
v -31 -65 0
v -30 -65 0
v -31 -66 0
v -32 -66 0
v -32 -65 0
v -31 -65 0
v -38 -66 0
v -39 -66 0
v -39 -65 0
v -38 -65 0
v -39 -66 0
v -40 -66 0
v -40 -65 0
v -39 -65 0
v -46 -66 0
v -47 -66 0
v -47 -65 0
v -46 -65 0
v -47 -66 0
v -48 -66 0
v -48 -65 0
v -47 -65 0
v -18 -67 0
v -19 -67 0
v -19 -66 0
v -18 -66 0
v -19 -67 0
v -20 -67 0
v -20 -66 0
v -19 -66 0
v -20 -67 0
v -21 -67 0
v -21 -66 0
v -20 -66 0
v -21 -67 0
v -22 -67 0
v -22 -66 0
v -21 -66 0
v -22 -67 0
v -23 -67 0
v -23 -66 0
v -22 -66 0
v -23 -67 0
v -24 -67 0
v -24 -66 0
v -23 -66 0
v -24 -67 0
v -25 -67 0
v -25 -66 0
v -24 -66 0
v -25 -67 0
v -26 -67 0
v -26 -66 0
v -25 -66 0
v -26 -67 0
v -27 -67 0
v -27 -66 0
v -26 -66 0
v -27 -67 0
v -28 -67 0
v -28 -66 0
v -27 -66 0
v -28 -67 0
v -29 -67 0
v -29 -66 0
v -28 -66 0

# Texture cooridinates (Count = 33)
vt 0.0625 0.9375
vt 0.125 0.9375
vt 0.125 1
vt 0.0625 1
vt 0.1875 0.9375
vt 0.1875 1
vt 0.1875 0.875
vt 0.25 0.875
vt 0.25 0.9375
vt 0.3125 0.875
vt 0.3125 0.9375
vt 0.0625 0.875
vt 0.125 0.875
vt 0 0.5
vt 0.0625 0.5
vt 0.0625 0.5625
vt 0 0.5625
vt 0.125 0.5
vt 0.125 0.5625
vt 0.1875 0.5
vt 0.1875 0.5625
vt 0.1875 0.8125
vt 0.25 0.8125
vt 0.3125 0.8125
vt 0.0625 0.8125
vt 0.125 0.8125
vt 0 0.4375
vt 0.0625 0.4375
vt 0.125 0.4375
vt 0.1875 0.4375
vt 0.1875 0.75
vt 0.25 0.75
vt 0.3125 0.75

# Normal
vn 0 0 -1

# Mesh description
g MapFloor1_4_mesh_0051

# Faces
f 1/1/1 2/2/1 3/3/1 4/4/1
f 5/2/1 6/5/1 7/6/1 8/3/1
f 9/1/1 10/2/1 11/3/1 12/4/1
f 13/2/1 14/5/1 15/6/1 16/3/1
f 17/1/1 18/2/1 19/3/1 20/4/1
f 21/2/1 22/5/1 23/6/1 24/3/1
f 25/7/1 26/8/1 27/9/1 28/5/1
f 29/8/1 30/10/1 31/11/1 32/9/1
f 33/12/1 34/13/1 35/2/1 36/1/1
f 37/13/1 38/7/1 39/5/1 40/2/1
f 41/12/1 42/13/1 43/2/1 44/1/1
f 45/13/1 46/7/1 47/5/1 48/2/1
f 49/12/1 50/13/1 51/2/1 52/1/1
f 53/13/1 54/7/1 55/5/1 56/2/1
f 57/14/1 58/15/1 59/16/1 60/17/1
f 61/15/1 62/18/1 63/19/1 64/16/1
f 65/18/1 66/20/1 67/21/1 68/19/1
f 69/22/1 70/23/1 71/8/1 72/7/1
f 73/23/1 74/24/1 75/10/1 76/8/1
f 77/14/1 78/15/1 79/16/1 80/17/1
f 81/15/1 82/18/1 83/19/1 84/16/1
f 85/18/1 86/20/1 87/21/1 88/19/1
f 89/14/1 90/15/1 91/16/1 92/17/1
f 93/15/1 94/18/1 95/19/1 96/16/1
f 97/18/1 98/20/1 99/21/1 100/19/1
f 101/25/1 102/26/1 103/13/1 104/12/1
f 105/26/1 106/22/1 107/7/1 108/13/1
f 109/25/1 110/26/1 111/13/1 112/12/1
f 113/26/1 114/22/1 115/7/1 116/13/1
f 117/25/1 118/26/1 119/13/1 120/12/1
f 121/26/1 122/22/1 123/7/1 124/13/1
f 125/27/1 126/28/1 127/15/1 128/14/1
f 129/28/1 130/29/1 131/18/1 132/15/1
f 133/29/1 134/30/1 135/20/1 136/18/1
f 137/31/1 138/32/1 139/23/1 140/22/1
f 141/32/1 142/33/1 143/24/1 144/23/1
f 145/27/1 146/28/1 147/15/1 148/14/1
f 149/28/1 150/29/1 151/18/1 152/15/1
f 153/29/1 154/30/1 155/20/1 156/18/1
f 157/27/1 158/28/1 159/15/1 160/14/1
f 161/28/1 162/29/1 163/18/1 164/15/1
f 165/29/1 166/30/1 167/20/1 168/18/1

