# Tiled2Unity generated file. Do not modify by hand.
# Wavefront file for 'MapFloor1_4_mesh_0013.obj'

# Vertices (Count = 112)
v -12 -4 0
v -13 -4 0
v -13 -3 0
v -12 -3 0
v -12 -5 0
v -13 -5 0
v -13 -4 0
v -12 -4 0
v -12 -6 0
v -13 -6 0
v -13 -5 0
v -12 -5 0
v -12 -7 0
v -13 -7 0
v -13 -6 0
v -12 -6 0
v -12 -8 0
v -13 -8 0
v -13 -7 0
v -12 -7 0
v -12 -9 0
v -13 -9 0
v -13 -8 0
v -12 -8 0
v -12 -10 0
v -13 -10 0
v -13 -9 0
v -12 -9 0
v -12 -11 0
v -13 -11 0
v -13 -10 0
v -12 -10 0
v -12 -20 0
v -13 -20 0
v -13 -19 0
v -12 -19 0
v -12 -21 0
v -13 -21 0
v -13 -20 0
v -12 -20 0
v -12 -22 0
v -13 -22 0
v -13 -21 0
v -12 -21 0
v -12 -23 0
v -13 -23 0
v -13 -22 0
v -12 -22 0
v -12 -24 0
v -13 -24 0
v -13 -23 0
v -12 -23 0
v -12 -25 0
v -13 -25 0
v -13 -24 0
v -12 -24 0
v -12 -26 0
v -13 -26 0
v -13 -25 0
v -12 -25 0
v -12 -27 0
v -13 -27 0
v -13 -26 0
v -12 -26 0
v -12 -28 0
v -13 -28 0
v -13 -27 0
v -12 -27 0
v -12 -29 0
v -13 -29 0
v -13 -28 0
v -12 -28 0
v -12 -30 0
v -13 -30 0
v -13 -29 0
v -12 -29 0
v -12 -31 0
v -13 -31 0
v -13 -30 0
v -12 -30 0
v -12 -32 0
v -13 -32 0
v -13 -31 0
v -12 -31 0
v -12 -33 0
v -13 -33 0
v -13 -32 0
v -12 -32 0
v -12 -34 0
v -13 -34 0
v -13 -33 0
v -12 -33 0
v -12 -35 0
v -13 -35 0
v -13 -34 0
v -12 -34 0
v -12 -36 0
v -13 -36 0
v -13 -35 0
v -12 -35 0
v -12 -37 0
v -13 -37 0
v -13 -36 0
v -12 -36 0
v -12 -38 0
v -13 -38 0
v -13 -37 0
v -12 -37 0
v -12 -39 0
v -13 -39 0
v -13 -38 0
v -12 -38 0

# Texture cooridinates (Count = 10)
vt 0.4375 0.875
vt 0.5 0.875
vt 0.5 0.8928571
vt 0.4375 0.8928571
vt 0.625 0.9464286
vt 0.6875 0.9464286
vt 0.6875 0.9642857
vt 0.625 0.9642857
vt 0.625 0.9285714
vt 0.6875 0.9285714

# Normal
vn 0 0 -1

# Mesh description
g MapFloor1_4_mesh_0013

# Faces
f 1/1/1 2/2/1 3/3/1 4/4/1
f 5/5/1 6/6/1 7/7/1 8/8/1
f 9/5/1 10/6/1 11/7/1 12/8/1
f 13/5/1 14/6/1 15/7/1 16/8/1
f 17/5/1 18/6/1 19/7/1 20/8/1
f 21/5/1 22/6/1 23/7/1 24/8/1
f 25/5/1 26/6/1 27/7/1 28/8/1
f 29/5/1 30/6/1 31/7/1 32/8/1
f 33/5/1 34/6/1 35/7/1 36/8/1
f 37/5/1 38/6/1 39/7/1 40/8/1
f 41/5/1 42/6/1 43/7/1 44/8/1
f 45/5/1 46/6/1 47/7/1 48/8/1
f 49/5/1 50/6/1 51/7/1 52/8/1
f 53/5/1 54/6/1 55/7/1 56/8/1
f 57/5/1 58/6/1 59/7/1 60/8/1
f 61/5/1 62/6/1 63/7/1 64/8/1
f 65/5/1 66/6/1 67/7/1 68/8/1
f 69/5/1 70/6/1 71/7/1 72/8/1
f 73/5/1 74/6/1 75/7/1 76/8/1
f 77/5/1 78/6/1 79/7/1 80/8/1
f 81/5/1 82/6/1 83/7/1 84/8/1
f 85/5/1 86/6/1 87/7/1 88/8/1
f 89/5/1 90/6/1 91/7/1 92/8/1
f 93/5/1 94/6/1 95/7/1 96/8/1
f 97/5/1 98/6/1 99/7/1 100/8/1
f 101/5/1 102/6/1 103/7/1 104/8/1
f 105/5/1 106/6/1 107/7/1 108/8/1
f 109/9/1 110/10/1 111/6/1 112/5/1

