# Tiled2Unity generated file. Do not modify by hand.
# Wavefront file for 'MapFloor1_4_mesh_0050.obj'

# Vertices (Count = 288)
v -65 -61 0
v -66.5 -61 0
v -66.5 -59.5 0
v -65 -59.5 0
v -52 -66 0
v -53.5 -66 0
v -53.5 -64.5 0
v -52 -64.5 0
v -53 -66 0
v -54.5 -66 0
v -54.5 -64.5 0
v -53 -64.5 0
v -54 -66 0
v -55.5 -66 0
v -55.5 -64.5 0
v -54 -64.5 0
v -55 -66 0
v -56.5 -66 0
v -56.5 -64.5 0
v -55 -64.5 0
v -56 -66 0
v -57.5 -66 0
v -57.5 -64.5 0
v -56 -64.5 0
v -57 -66 0
v -58.5 -66 0
v -58.5 -64.5 0
v -57 -64.5 0
v -58 -66 0
v -59.5 -66 0
v -59.5 -64.5 0
v -58 -64.5 0
v -59 -66 0
v -60.5 -66 0
v -60.5 -64.5 0
v -59 -64.5 0
v -60 -66 0
v -61.5 -66 0
v -61.5 -64.5 0
v -60 -64.5 0
v -61 -66 0
v -62.5 -66 0
v -62.5 -64.5 0
v -61 -64.5 0
v -62 -66 0
v -63.5 -66 0
v -63.5 -64.5 0
v -62 -64.5 0
v -63 -66 0
v -64.5 -66 0
v -64.5 -64.5 0
v -63 -64.5 0
v -64 -66 0
v -65.5 -66 0
v -65.5 -64.5 0
v -64 -64.5 0
v -65 -66 0
v -66.5 -66 0
v -66.5 -64.5 0
v -65 -64.5 0
v -66 -66 0
v -67.5 -66 0
v -67.5 -64.5 0
v -66 -64.5 0
v -67 -66 0
v -68.5 -66 0
v -68.5 -64.5 0
v -67 -64.5 0
v -52 -67 0
v -53.5 -67 0
v -53.5 -65.5 0
v -52 -65.5 0
v -53 -67 0
v -54.5 -67 0
v -54.5 -65.5 0
v -53 -65.5 0
v -54 -67 0
v -55.5 -67 0
v -55.5 -65.5 0
v -54 -65.5 0
v -55 -67 0
v -56.5 -67 0
v -56.5 -65.5 0
v -55 -65.5 0
v -56 -67 0
v -57.5 -67 0
v -57.5 -65.5 0
v -56 -65.5 0
v -57 -67 0
v -58.5 -67 0
v -58.5 -65.5 0
v -57 -65.5 0
v -58 -67 0
v -59.5 -67 0
v -59.5 -65.5 0
v -58 -65.5 0
v -59 -67 0
v -60.5 -67 0
v -60.5 -65.5 0
v -59 -65.5 0
v -60 -67 0
v -61.5 -67 0
v -61.5 -65.5 0
v -60 -65.5 0
v -61 -67 0
v -62.5 -67 0
v -62.5 -65.5 0
v -61 -65.5 0
v -62 -67 0
v -63.5 -67 0
v -63.5 -65.5 0
v -62 -65.5 0
v -63 -67 0
v -64.5 -67 0
v -64.5 -65.5 0
v -63 -65.5 0
v -64 -67 0
v -65.5 -67 0
v -65.5 -65.5 0
v -64 -65.5 0
v -65 -67 0
v -66.5 -67 0
v -66.5 -65.5 0
v -65 -65.5 0
v -66 -67 0
v -67.5 -67 0
v -67.5 -65.5 0
v -66 -65.5 0
v -67 -67 0
v -68.5 -67 0
v -68.5 -65.5 0
v -67 -65.5 0
v -92 -72 0
v -93.5 -72 0
v -93.5 -70.5 0
v -92 -70.5 0
v -93 -72 0
v -94.5 -72 0
v -94.5 -70.5 0
v -93 -70.5 0
v -94 -72 0
v -95.5 -72 0
v -95.5 -70.5 0
v -94 -70.5 0
v -92 -73 0
v -93.5 -73 0
v -93.5 -71.5 0
v -92 -71.5 0
v -93 -73 0
v -94.5 -73 0
v -94.5 -71.5 0
v -93 -71.5 0
v -94 -73 0
v -95.5 -73 0
v -95.5 -71.5 0
v -94 -71.5 0
v -92 -74 0
v -93.5 -74 0
v -93.5 -72.5 0
v -92 -72.5 0
v -93 -74 0
v -94.5 -74 0
v -94.5 -72.5 0
v -93 -72.5 0
v -94 -74 0
v -95.5 -74 0
v -95.5 -72.5 0
v -94 -72.5 0
v -92 -75 0
v -93.5 -75 0
v -93.5 -73.5 0
v -92 -73.5 0
v -93 -75 0
v -94.5 -75 0
v -94.5 -73.5 0
v -93 -73.5 0
v -94 -75 0
v -95.5 -75 0
v -95.5 -73.5 0
v -94 -73.5 0
v -92 -76 0
v -93.5 -76 0
v -93.5 -74.5 0
v -92 -74.5 0
v -93 -76 0
v -94.5 -76 0
v -94.5 -74.5 0
v -93 -74.5 0
v -94 -76 0
v -95.5 -76 0
v -95.5 -74.5 0
v -94 -74.5 0
v -92 -77 0
v -93.5 -77 0
v -93.5 -75.5 0
v -92 -75.5 0
v -93 -77 0
v -94.5 -77 0
v -94.5 -75.5 0
v -93 -75.5 0
v -94 -77 0
v -95.5 -77 0
v -95.5 -75.5 0
v -94 -75.5 0
v -92 -78 0
v -93.5 -78 0
v -93.5 -76.5 0
v -92 -76.5 0
v -93 -78 0
v -94.5 -78 0
v -94.5 -76.5 0
v -93 -76.5 0
v -94 -78 0
v -95.5 -78 0
v -95.5 -76.5 0
v -94 -76.5 0
v -92 -79 0
v -93.5 -79 0
v -93.5 -77.5 0
v -92 -77.5 0
v -93 -79 0
v -94.5 -79 0
v -94.5 -77.5 0
v -93 -77.5 0
v -94 -79 0
v -95.5 -79 0
v -95.5 -77.5 0
v -94 -77.5 0
v -92 -80 0
v -93.5 -80 0
v -93.5 -78.5 0
v -92 -78.5 0
v -93 -80 0
v -94.5 -80 0
v -94.5 -78.5 0
v -93 -78.5 0
v -94 -80 0
v -95.5 -80 0
v -95.5 -78.5 0
v -94 -78.5 0
v -92 -81 0
v -93.5 -81 0
v -93.5 -79.5 0
v -92 -79.5 0
v -93 -81 0
v -94.5 -81 0
v -94.5 -79.5 0
v -93 -79.5 0
v -94 -81 0
v -95.5 -81 0
v -95.5 -79.5 0
v -94 -79.5 0
v -92 -82 0
v -93.5 -82 0
v -93.5 -80.5 0
v -92 -80.5 0
v -93 -82 0
v -94.5 -82 0
v -94.5 -80.5 0
v -93 -80.5 0
v -94 -82 0
v -95.5 -82 0
v -95.5 -80.5 0
v -94 -80.5 0
v -92 -83 0
v -93.5 -83 0
v -93.5 -81.5 0
v -92 -81.5 0
v -93 -83 0
v -94.5 -83 0
v -94.5 -81.5 0
v -93 -81.5 0
v -94 -83 0
v -95.5 -83 0
v -95.5 -81.5 0
v -94 -81.5 0
v -92 -84 0
v -93.5 -84 0
v -93.5 -82.5 0
v -92 -82.5 0
v -93 -84 0
v -94.5 -84 0
v -94.5 -82.5 0
v -93 -82.5 0
v -94 -84 0
v -95.5 -84 0
v -95.5 -82.5 0
v -94 -82.5 0

# Texture cooridinates (Count = 24)
vt 0 0.6666666
vt 0.08333334 0.6666666
vt 0.08333334 0.75
vt 0 0.75
vt 0.4166667 0.75
vt 0.5 0.75
vt 0.5 0.8333333
vt 0.4166667 0.8333333
vt 0.5833333 0.75
vt 0.5833333 0.8333333
vt 0.4166667 0.6666666
vt 0.5 0.6666666
vt 0.5833333 0.6666666
vt 0.75 0.5
vt 0.8333333 0.5
vt 0.8333333 0.5833334
vt 0.75 0.5833334
vt 0.9166667 0.5
vt 0.9166667 0.5833334
vt 0.9166667 0.6666666
vt 0.8333333 0.6666666
vt 0.8333333 0.4166667
vt 0.9166667 0.4166667
vt 0.75 0.4166667

# Normal
vn 0 0 -1

# Mesh description
g MapFloor1_4_mesh_0050

# Faces
f 1/1/1 2/2/1 3/3/1 4/4/1
f 5/5/1 6/6/1 7/7/1 8/8/1
f 9/6/1 10/9/1 11/10/1 12/7/1
f 13/5/1 14/6/1 15/7/1 16/8/1
f 17/6/1 18/9/1 19/10/1 20/7/1
f 21/5/1 22/6/1 23/7/1 24/8/1
f 25/6/1 26/9/1 27/10/1 28/7/1
f 29/5/1 30/6/1 31/7/1 32/8/1
f 33/6/1 34/9/1 35/10/1 36/7/1
f 37/5/1 38/6/1 39/7/1 40/8/1
f 41/6/1 42/9/1 43/10/1 44/7/1
f 45/5/1 46/6/1 47/7/1 48/8/1
f 49/6/1 50/9/1 51/10/1 52/7/1
f 53/5/1 54/6/1 55/7/1 56/8/1
f 57/6/1 58/9/1 59/10/1 60/7/1
f 61/5/1 62/6/1 63/7/1 64/8/1
f 65/6/1 66/9/1 67/10/1 68/7/1
f 69/11/1 70/12/1 71/6/1 72/5/1
f 73/12/1 74/13/1 75/9/1 76/6/1
f 77/11/1 78/12/1 79/6/1 80/5/1
f 81/12/1 82/13/1 83/9/1 84/6/1
f 85/11/1 86/12/1 87/6/1 88/5/1
f 89/12/1 90/13/1 91/9/1 92/6/1
f 93/11/1 94/12/1 95/6/1 96/5/1
f 97/12/1 98/13/1 99/9/1 100/6/1
f 101/11/1 102/12/1 103/6/1 104/5/1
f 105/12/1 106/13/1 107/9/1 108/6/1
f 109/11/1 110/12/1 111/6/1 112/5/1
f 113/12/1 114/13/1 115/9/1 116/6/1
f 117/11/1 118/12/1 119/6/1 120/5/1
f 121/12/1 122/13/1 123/9/1 124/6/1
f 125/11/1 126/12/1 127/6/1 128/5/1
f 129/12/1 130/13/1 131/9/1 132/6/1
f 133/14/1 134/15/1 135/16/1 136/17/1
f 137/14/1 138/15/1 139/16/1 140/17/1
f 141/14/1 142/15/1 143/16/1 144/17/1
f 145/14/1 146/15/1 147/16/1 148/17/1
f 149/14/1 150/15/1 151/16/1 152/17/1
f 153/14/1 154/15/1 155/16/1 156/17/1
f 157/14/1 158/15/1 159/16/1 160/17/1
f 161/14/1 162/15/1 163/16/1 164/17/1
f 165/14/1 166/15/1 167/16/1 168/17/1
f 169/14/1 170/15/1 171/16/1 172/17/1
f 173/14/1 174/15/1 175/16/1 176/17/1
f 177/14/1 178/15/1 179/16/1 180/17/1
f 181/15/1 182/18/1 183/19/1 184/16/1
f 185/14/1 186/15/1 187/16/1 188/17/1
f 189/14/1 190/15/1 191/16/1 192/17/1
f 193/16/1 194/19/1 195/20/1 196/21/1
f 197/14/1 198/15/1 199/16/1 200/17/1
f 201/14/1 202/15/1 203/16/1 204/17/1
f 205/15/1 206/18/1 207/19/1 208/16/1
f 209/14/1 210/15/1 211/16/1 212/17/1
f 213/14/1 214/15/1 215/16/1 216/17/1
f 217/22/1 218/23/1 219/18/1 220/15/1
f 221/14/1 222/15/1 223/16/1 224/17/1
f 225/14/1 226/15/1 227/16/1 228/17/1
f 229/16/1 230/19/1 231/20/1 232/21/1
f 233/14/1 234/15/1 235/16/1 236/17/1
f 237/14/1 238/15/1 239/16/1 240/17/1
f 241/15/1 242/18/1 243/19/1 244/16/1
f 245/14/1 246/15/1 247/16/1 248/17/1
f 249/14/1 250/15/1 251/16/1 252/17/1
f 253/16/1 254/19/1 255/20/1 256/21/1
f 257/14/1 258/15/1 259/16/1 260/17/1
f 261/14/1 262/15/1 263/16/1 264/17/1
f 265/14/1 266/15/1 267/16/1 268/17/1
f 269/14/1 270/15/1 271/16/1 272/17/1
f 273/14/1 274/15/1 275/16/1 276/17/1
f 277/22/1 278/23/1 279/18/1 280/15/1
f 281/24/1 282/22/1 283/15/1 284/14/1
f 285/22/1 286/23/1 287/18/1 288/15/1

