# Tiled2Unity generated file. Do not modify by hand.
# Wavefront file for 'MapFloor1_4_mesh_0004.obj'

# Vertices (Count = 816)
v -12 -12 0
v -13 -12 0
v -13 -11 0
v -12 -11 0
v -12 -13 0
v -13 -13 0
v -13 -12 0
v -12 -12 0
v -1 -14 0
v -2 -14 0
v -2 -13 0
v -1 -13 0
v -2 -14 0
v -3 -14 0
v -3 -13 0
v -2 -13 0
v -3 -14 0
v -4 -14 0
v -4 -13 0
v -3 -13 0
v -4 -14 0
v -5 -14 0
v -5 -13 0
v -4 -13 0
v -5 -14 0
v -6 -14 0
v -6 -13 0
v -5 -13 0
v -6 -14 0
v -7 -14 0
v -7 -13 0
v -6 -13 0
v -7 -14 0
v -8 -14 0
v -8 -13 0
v -7 -13 0
v -8 -14 0
v -9 -14 0
v -9 -13 0
v -8 -13 0
v -9 -14 0
v -10 -14 0
v -10 -13 0
v -9 -13 0
v -10 -14 0
v -11 -14 0
v -11 -13 0
v -10 -13 0
v -11 -14 0
v -12 -14 0
v -12 -13 0
v -11 -13 0
v -12 -14 0
v -13 -14 0
v -13 -13 0
v -12 -13 0
v -13 -14 0
v -14 -14 0
v -14 -13 0
v -13 -13 0
v -1 -15 0
v -2 -15 0
v -2 -14 0
v -1 -14 0
v -2 -15 0
v -3 -15 0
v -3 -14 0
v -2 -14 0
v -3 -15 0
v -4 -15 0
v -4 -14 0
v -3 -14 0
v -4 -15 0
v -5 -15 0
v -5 -14 0
v -4 -14 0
v -5 -15 0
v -6 -15 0
v -6 -14 0
v -5 -14 0
v -6 -15 0
v -7 -15 0
v -7 -14 0
v -6 -14 0
v -7 -15 0
v -8 -15 0
v -8 -14 0
v -7 -14 0
v -8 -15 0
v -9 -15 0
v -9 -14 0
v -8 -14 0
v -9 -15 0
v -10 -15 0
v -10 -14 0
v -9 -14 0
v -10 -15 0
v -11 -15 0
v -11 -14 0
v -10 -14 0
v -11 -15 0
v -12 -15 0
v -12 -14 0
v -11 -14 0
v -12 -15 0
v -13 -15 0
v -13 -14 0
v -12 -14 0
v -13 -15 0
v -14 -15 0
v -14 -14 0
v -13 -14 0
v -14 -15 0
v -15 -15 0
v -15 -14 0
v -14 -14 0
v -1 -16 0
v -2 -16 0
v -2 -15 0
v -1 -15 0
v -2 -16 0
v -3 -16 0
v -3 -15 0
v -2 -15 0
v -3 -16 0
v -4 -16 0
v -4 -15 0
v -3 -15 0
v -4 -16 0
v -5 -16 0
v -5 -15 0
v -4 -15 0
v -5 -16 0
v -6 -16 0
v -6 -15 0
v -5 -15 0
v -6 -16 0
v -7 -16 0
v -7 -15 0
v -6 -15 0
v -7 -16 0
v -8 -16 0
v -8 -15 0
v -7 -15 0
v -8 -16 0
v -9 -16 0
v -9 -15 0
v -8 -15 0
v -9 -16 0
v -10 -16 0
v -10 -15 0
v -9 -15 0
v -10 -16 0
v -11 -16 0
v -11 -15 0
v -10 -15 0
v -11 -16 0
v -12 -16 0
v -12 -15 0
v -11 -15 0
v -12 -16 0
v -13 -16 0
v -13 -15 0
v -12 -15 0
v -13 -16 0
v -14 -16 0
v -14 -15 0
v -13 -15 0
v -14 -16 0
v -15 -16 0
v -15 -15 0
v -14 -15 0
v -15 -16 0
v -16 -16 0
v -16 -15 0
v -15 -15 0
v -1 -17 0
v -2 -17 0
v -2 -16 0
v -1 -16 0
v -2 -17 0
v -3 -17 0
v -3 -16 0
v -2 -16 0
v -3 -17 0
v -4 -17 0
v -4 -16 0
v -3 -16 0
v -4 -17 0
v -5 -17 0
v -5 -16 0
v -4 -16 0
v -5 -17 0
v -6 -17 0
v -6 -16 0
v -5 -16 0
v -6 -17 0
v -7 -17 0
v -7 -16 0
v -6 -16 0
v -7 -17 0
v -8 -17 0
v -8 -16 0
v -7 -16 0
v -8 -17 0
v -9 -17 0
v -9 -16 0
v -8 -16 0
v -9 -17 0
v -10 -17 0
v -10 -16 0
v -9 -16 0
v -10 -17 0
v -11 -17 0
v -11 -16 0
v -10 -16 0
v -11 -17 0
v -12 -17 0
v -12 -16 0
v -11 -16 0
v -12 -17 0
v -13 -17 0
v -13 -16 0
v -12 -16 0
v -13 -17 0
v -14 -17 0
v -14 -16 0
v -13 -16 0
v -14 -17 0
v -15 -17 0
v -15 -16 0
v -14 -16 0
v -15 -17 0
v -16 -17 0
v -16 -16 0
v -15 -16 0
v -1 -18 0
v -2 -18 0
v -2 -17 0
v -1 -17 0
v -2 -18 0
v -3 -18 0
v -3 -17 0
v -2 -17 0
v -3 -18 0
v -4 -18 0
v -4 -17 0
v -3 -17 0
v -4 -18 0
v -5 -18 0
v -5 -17 0
v -4 -17 0
v -5 -18 0
v -6 -18 0
v -6 -17 0
v -5 -17 0
v -6 -18 0
v -7 -18 0
v -7 -17 0
v -6 -17 0
v -7 -18 0
v -8 -18 0
v -8 -17 0
v -7 -17 0
v -8 -18 0
v -9 -18 0
v -9 -17 0
v -8 -17 0
v -9 -18 0
v -10 -18 0
v -10 -17 0
v -9 -17 0
v -10 -18 0
v -11 -18 0
v -11 -17 0
v -10 -17 0
v -11 -18 0
v -12 -18 0
v -12 -17 0
v -11 -17 0
v -12 -18 0
v -13 -18 0
v -13 -17 0
v -12 -17 0
v -13 -18 0
v -14 -18 0
v -14 -17 0
v -13 -17 0
v -14 -18 0
v -15 -18 0
v -15 -17 0
v -14 -17 0
v -1 -19 0
v -2 -19 0
v -2 -18 0
v -1 -18 0
v -2 -19 0
v -3 -19 0
v -3 -18 0
v -2 -18 0
v -3 -19 0
v -4 -19 0
v -4 -18 0
v -3 -18 0
v -4 -19 0
v -5 -19 0
v -5 -18 0
v -4 -18 0
v -5 -19 0
v -6 -19 0
v -6 -18 0
v -5 -18 0
v -6 -19 0
v -7 -19 0
v -7 -18 0
v -6 -18 0
v -7 -19 0
v -8 -19 0
v -8 -18 0
v -7 -18 0
v -8 -19 0
v -9 -19 0
v -9 -18 0
v -8 -18 0
v -9 -19 0
v -10 -19 0
v -10 -18 0
v -9 -18 0
v -10 -19 0
v -11 -19 0
v -11 -18 0
v -10 -18 0
v -11 -19 0
v -12 -19 0
v -12 -18 0
v -11 -18 0
v -12 -19 0
v -13 -19 0
v -13 -18 0
v -12 -18 0
v -13 -19 0
v -14 -19 0
v -14 -18 0
v -13 -18 0
v -1 -20 0
v -2 -20 0
v -2 -19 0
v -1 -19 0
v -2 -20 0
v -3 -20 0
v -3 -19 0
v -2 -19 0
v -3 -20 0
v -4 -20 0
v -4 -19 0
v -3 -19 0
v -4 -20 0
v -5 -20 0
v -5 -19 0
v -4 -19 0
v -5 -20 0
v -6 -20 0
v -6 -19 0
v -5 -19 0
v -6 -20 0
v -7 -20 0
v -7 -19 0
v -6 -19 0
v -7 -20 0
v -8 -20 0
v -8 -19 0
v -7 -19 0
v -8 -20 0
v -9 -20 0
v -9 -19 0
v -8 -19 0
v -9 -20 0
v -10 -20 0
v -10 -19 0
v -9 -19 0
v -10 -20 0
v -11 -20 0
v -11 -19 0
v -10 -19 0
v -11 -20 0
v -12 -20 0
v -12 -19 0
v -11 -19 0
v -12 -20 0
v -13 -20 0
v -13 -19 0
v -12 -19 0
v -1 -21 0
v -2 -21 0
v -2 -20 0
v -1 -20 0
v -2 -21 0
v -3 -21 0
v -3 -20 0
v -2 -20 0
v -3 -21 0
v -4 -21 0
v -4 -20 0
v -3 -20 0
v -4 -21 0
v -5 -21 0
v -5 -20 0
v -4 -20 0
v -5 -21 0
v -6 -21 0
v -6 -20 0
v -5 -20 0
v -6 -21 0
v -7 -21 0
v -7 -20 0
v -6 -20 0
v -7 -21 0
v -8 -21 0
v -8 -20 0
v -7 -20 0
v -8 -21 0
v -9 -21 0
v -9 -20 0
v -8 -20 0
v -9 -21 0
v -10 -21 0
v -10 -20 0
v -9 -20 0
v -10 -21 0
v -11 -21 0
v -11 -20 0
v -10 -20 0
v -11 -21 0
v -12 -21 0
v -12 -20 0
v -11 -20 0
v -12 -21 0
v -13 -21 0
v -13 -20 0
v -12 -20 0
v -1 -22 0
v -2 -22 0
v -2 -21 0
v -1 -21 0
v -2 -22 0
v -3 -22 0
v -3 -21 0
v -2 -21 0
v -3 -22 0
v -4 -22 0
v -4 -21 0
v -3 -21 0
v -4 -22 0
v -5 -22 0
v -5 -21 0
v -4 -21 0
v -5 -22 0
v -6 -22 0
v -6 -21 0
v -5 -21 0
v -6 -22 0
v -7 -22 0
v -7 -21 0
v -6 -21 0
v -7 -22 0
v -8 -22 0
v -8 -21 0
v -7 -21 0
v -8 -22 0
v -9 -22 0
v -9 -21 0
v -8 -21 0
v -9 -22 0
v -10 -22 0
v -10 -21 0
v -9 -21 0
v -10 -22 0
v -11 -22 0
v -11 -21 0
v -10 -21 0
v -11 -22 0
v -12 -22 0
v -12 -21 0
v -11 -21 0
v -12 -22 0
v -13 -22 0
v -13 -21 0
v -12 -21 0
v -1 -23 0
v -2 -23 0
v -2 -22 0
v -1 -22 0
v -2 -23 0
v -3 -23 0
v -3 -22 0
v -2 -22 0
v -3 -23 0
v -4 -23 0
v -4 -22 0
v -3 -22 0
v -4 -23 0
v -5 -23 0
v -5 -22 0
v -4 -22 0
v -5 -23 0
v -6 -23 0
v -6 -22 0
v -5 -22 0
v -6 -23 0
v -7 -23 0
v -7 -22 0
v -6 -22 0
v -7 -23 0
v -8 -23 0
v -8 -22 0
v -7 -22 0
v -8 -23 0
v -9 -23 0
v -9 -22 0
v -8 -22 0
v -9 -23 0
v -10 -23 0
v -10 -22 0
v -9 -22 0
v -10 -23 0
v -11 -23 0
v -11 -22 0
v -10 -22 0
v -11 -23 0
v -12 -23 0
v -12 -22 0
v -11 -22 0
v -12 -23 0
v -13 -23 0
v -13 -22 0
v -12 -22 0
v -1 -24 0
v -2 -24 0
v -2 -23 0
v -1 -23 0
v -2 -24 0
v -3 -24 0
v -3 -23 0
v -2 -23 0
v -3 -24 0
v -4 -24 0
v -4 -23 0
v -3 -23 0
v -4 -24 0
v -5 -24 0
v -5 -23 0
v -4 -23 0
v -5 -24 0
v -6 -24 0
v -6 -23 0
v -5 -23 0
v -6 -24 0
v -7 -24 0
v -7 -23 0
v -6 -23 0
v -7 -24 0
v -8 -24 0
v -8 -23 0
v -7 -23 0
v -8 -24 0
v -9 -24 0
v -9 -23 0
v -8 -23 0
v -9 -24 0
v -10 -24 0
v -10 -23 0
v -9 -23 0
v -10 -24 0
v -11 -24 0
v -11 -23 0
v -10 -23 0
v -11 -24 0
v -12 -24 0
v -12 -23 0
v -11 -23 0
v -12 -24 0
v -13 -24 0
v -13 -23 0
v -12 -23 0
v -1 -25 0
v -2 -25 0
v -2 -24 0
v -1 -24 0
v -2 -25 0
v -3 -25 0
v -3 -24 0
v -2 -24 0
v -3 -25 0
v -4 -25 0
v -4 -24 0
v -3 -24 0
v -4 -25 0
v -5 -25 0
v -5 -24 0
v -4 -24 0
v -5 -25 0
v -6 -25 0
v -6 -24 0
v -5 -24 0
v -6 -25 0
v -7 -25 0
v -7 -24 0
v -6 -24 0
v -7 -25 0
v -8 -25 0
v -8 -24 0
v -7 -24 0
v -8 -25 0
v -9 -25 0
v -9 -24 0
v -8 -24 0
v -9 -25 0
v -10 -25 0
v -10 -24 0
v -9 -24 0
v -10 -25 0
v -11 -25 0
v -11 -24 0
v -10 -24 0
v -11 -25 0
v -12 -25 0
v -12 -24 0
v -11 -24 0
v -12 -25 0
v -13 -25 0
v -13 -24 0
v -12 -24 0
v -1 -26 0
v -2 -26 0
v -2 -25 0
v -1 -25 0
v -2 -26 0
v -3 -26 0
v -3 -25 0
v -2 -25 0
v -3 -26 0
v -4 -26 0
v -4 -25 0
v -3 -25 0
v -4 -26 0
v -5 -26 0
v -5 -25 0
v -4 -25 0
v -5 -26 0
v -6 -26 0
v -6 -25 0
v -5 -25 0
v -6 -26 0
v -7 -26 0
v -7 -25 0
v -6 -25 0
v -7 -26 0
v -8 -26 0
v -8 -25 0
v -7 -25 0
v -8 -26 0
v -9 -26 0
v -9 -25 0
v -8 -25 0
v -9 -26 0
v -10 -26 0
v -10 -25 0
v -9 -25 0
v -10 -26 0
v -11 -26 0
v -11 -25 0
v -10 -25 0
v -11 -26 0
v -12 -26 0
v -12 -25 0
v -11 -25 0
v -12 -26 0
v -13 -26 0
v -13 -25 0
v -12 -25 0
v -1 -27 0
v -2 -27 0
v -2 -26 0
v -1 -26 0
v -2 -27 0
v -3 -27 0
v -3 -26 0
v -2 -26 0
v -3 -27 0
v -4 -27 0
v -4 -26 0
v -3 -26 0
v -4 -27 0
v -5 -27 0
v -5 -26 0
v -4 -26 0
v -5 -27 0
v -6 -27 0
v -6 -26 0
v -5 -26 0
v -6 -27 0
v -7 -27 0
v -7 -26 0
v -6 -26 0
v -7 -27 0
v -8 -27 0
v -8 -26 0
v -7 -26 0
v -8 -27 0
v -9 -27 0
v -9 -26 0
v -8 -26 0
v -9 -27 0
v -10 -27 0
v -10 -26 0
v -9 -26 0
v -10 -27 0
v -11 -27 0
v -11 -26 0
v -10 -26 0
v -11 -27 0
v -12 -27 0
v -12 -26 0
v -11 -26 0
v -12 -27 0
v -13 -27 0
v -13 -26 0
v -12 -26 0
v -4 -92 0
v -5 -92 0
v -5 -91 0
v -4 -91 0
v -5 -92 0
v -6 -92 0
v -6 -91 0
v -5 -91 0
v -6 -92 0
v -7 -92 0
v -7 -91 0
v -6 -91 0
v -7 -92 0
v -8 -92 0
v -8 -91 0
v -7 -91 0
v -8 -92 0
v -9 -92 0
v -9 -91 0
v -8 -91 0
v -9 -92 0
v -10 -92 0
v -10 -91 0
v -9 -91 0
v -10 -92 0
v -11 -92 0
v -11 -91 0
v -10 -91 0
v -11 -92 0
v -12 -92 0
v -12 -91 0
v -11 -91 0
v -12 -92 0
v -13 -92 0
v -13 -91 0
v -12 -91 0
v -13 -92 0
v -14 -92 0
v -14 -91 0
v -13 -91 0
v -14 -92 0
v -15 -92 0
v -15 -91 0
v -14 -91 0
v -4 -93 0
v -5 -93 0
v -5 -92 0
v -4 -92 0
v -5 -93 0
v -6 -93 0
v -6 -92 0
v -5 -92 0
v -6 -93 0
v -7 -93 0
v -7 -92 0
v -6 -92 0
v -7 -93 0
v -8 -93 0
v -8 -92 0
v -7 -92 0
v -8 -93 0
v -9 -93 0
v -9 -92 0
v -8 -92 0
v -9 -93 0
v -10 -93 0
v -10 -92 0
v -9 -92 0
v -10 -93 0
v -11 -93 0
v -11 -92 0
v -10 -92 0
v -11 -93 0
v -12 -93 0
v -12 -92 0
v -11 -92 0
v -12 -93 0
v -13 -93 0
v -13 -92 0
v -12 -92 0
v -13 -93 0
v -14 -93 0
v -14 -92 0
v -13 -92 0
v -14 -93 0
v -15 -93 0
v -15 -92 0
v -14 -92 0

# Texture cooridinates (Count = 31)
vt 0.2 0.8
vt 0.3 0.8
vt 0.3 0.9
vt 0.2 0.9
vt 0.2 0.7
vt 0.3 0.7
vt 0.2 0.3
vt 0.3 0.3
vt 0.3 0.4
vt 0.2 0.4
vt 0.2 0.5
vt 0.3 0.5
vt 0.3 0.6
vt 0.2 0.6
vt 0.2 0.2
vt 0.3 0.2
vt 0.1 0.8
vt 0.1 0.9
vt 0.1 0.7
vt 0.5 0.7
vt 0.6 0.7
vt 0.6 0.8
vt 0.5 0.8
vt 0.7 0.7
vt 0.7 0.8
vt 0.8 0.7
vt 0.8 0.8
vt 0.5 0.6
vt 0.6 0.6
vt 0.7 0.6
vt 0.8 0.6

# Normal
vn 0 0 -1

# Mesh description
g MapFloor1_4_mesh_0004

# Faces
f 1/1/1 2/2/1 3/3/1 4/4/1
f 5/5/1 6/6/1 7/2/1 8/1/1
f 9/7/1 10/8/1 11/9/1 12/10/1
f 13/7/1 14/8/1 15/9/1 16/10/1
f 17/7/1 18/8/1 19/9/1 20/10/1
f 21/7/1 22/8/1 23/9/1 24/10/1
f 25/7/1 26/8/1 27/9/1 28/10/1
f 29/7/1 30/8/1 31/9/1 32/10/1
f 33/7/1 34/8/1 35/9/1 36/10/1
f 37/7/1 38/8/1 39/9/1 40/10/1
f 41/7/1 42/8/1 43/9/1 44/10/1
f 45/7/1 46/8/1 47/9/1 48/10/1
f 49/7/1 50/8/1 51/9/1 52/10/1
f 53/7/1 54/8/1 55/9/1 56/10/1
f 57/11/1 58/12/1 59/13/1 60/14/1
f 61/15/1 62/16/1 63/8/1 64/7/1
f 65/15/1 66/16/1 67/8/1 68/7/1
f 69/15/1 70/16/1 71/8/1 72/7/1
f 73/15/1 74/16/1 75/8/1 76/7/1
f 77/15/1 78/16/1 79/8/1 80/7/1
f 81/15/1 82/16/1 83/8/1 84/7/1
f 85/15/1 86/16/1 87/8/1 88/7/1
f 89/15/1 90/16/1 91/8/1 92/7/1
f 93/15/1 94/16/1 95/8/1 96/7/1
f 97/15/1 98/16/1 99/8/1 100/7/1
f 101/15/1 102/16/1 103/8/1 104/7/1
f 105/15/1 106/16/1 107/8/1 108/7/1
f 109/11/1 110/12/1 111/13/1 112/14/1
f 113/11/1 114/12/1 115/13/1 116/14/1
f 117/15/1 118/16/1 119/8/1 120/7/1
f 121/15/1 122/16/1 123/8/1 124/7/1
f 125/15/1 126/16/1 127/8/1 128/7/1
f 129/15/1 130/16/1 131/8/1 132/7/1
f 133/15/1 134/16/1 135/8/1 136/7/1
f 137/15/1 138/16/1 139/8/1 140/7/1
f 141/15/1 142/16/1 143/8/1 144/7/1
f 145/15/1 146/16/1 147/8/1 148/7/1
f 149/15/1 150/16/1 151/8/1 152/7/1
f 153/15/1 154/16/1 155/8/1 156/7/1
f 157/15/1 158/16/1 159/8/1 160/7/1
f 161/11/1 162/12/1 163/13/1 164/14/1
f 165/11/1 166/12/1 167/13/1 168/14/1
f 169/11/1 170/12/1 171/13/1 172/14/1
f 173/11/1 174/12/1 175/13/1 176/14/1
f 177/15/1 178/16/1 179/8/1 180/7/1
f 181/15/1 182/16/1 183/8/1 184/7/1
f 185/15/1 186/16/1 187/8/1 188/7/1
f 189/15/1 190/16/1 191/8/1 192/7/1
f 193/15/1 194/16/1 195/8/1 196/7/1
f 197/15/1 198/16/1 199/8/1 200/7/1
f 201/15/1 202/16/1 203/8/1 204/7/1
f 205/15/1 206/16/1 207/8/1 208/7/1
f 209/15/1 210/16/1 211/8/1 212/7/1
f 213/15/1 214/16/1 215/8/1 216/7/1
f 217/15/1 218/16/1 219/8/1 220/7/1
f 221/11/1 222/12/1 223/13/1 224/14/1
f 225/11/1 226/12/1 227/13/1 228/14/1
f 229/11/1 230/12/1 231/13/1 232/14/1
f 233/11/1 234/12/1 235/13/1 236/14/1
f 237/15/1 238/16/1 239/8/1 240/7/1
f 241/15/1 242/16/1 243/8/1 244/7/1
f 245/15/1 246/16/1 247/8/1 248/7/1
f 249/15/1 250/16/1 251/8/1 252/7/1
f 253/15/1 254/16/1 255/8/1 256/7/1
f 257/15/1 258/16/1 259/8/1 260/7/1
f 261/15/1 262/16/1 263/8/1 264/7/1
f 265/15/1 266/16/1 267/8/1 268/7/1
f 269/15/1 270/16/1 271/8/1 272/7/1
f 273/15/1 274/16/1 275/8/1 276/7/1
f 277/15/1 278/16/1 279/8/1 280/7/1
f 281/15/1 282/16/1 283/8/1 284/7/1
f 285/11/1 286/12/1 287/13/1 288/14/1
f 289/11/1 290/12/1 291/13/1 292/14/1
f 293/15/1 294/16/1 295/8/1 296/7/1
f 297/15/1 298/16/1 299/8/1 300/7/1
f 301/15/1 302/16/1 303/8/1 304/7/1
f 305/15/1 306/16/1 307/8/1 308/7/1
f 309/15/1 310/16/1 311/8/1 312/7/1
f 313/15/1 314/16/1 315/8/1 316/7/1
f 317/15/1 318/16/1 319/8/1 320/7/1
f 321/15/1 322/16/1 323/8/1 324/7/1
f 325/15/1 326/16/1 327/8/1 328/7/1
f 329/15/1 330/16/1 331/8/1 332/7/1
f 333/15/1 334/16/1 335/8/1 336/7/1
f 337/15/1 338/16/1 339/8/1 340/7/1
f 341/11/1 342/12/1 343/13/1 344/14/1
f 345/15/1 346/16/1 347/8/1 348/7/1
f 349/15/1 350/16/1 351/8/1 352/7/1
f 353/15/1 354/16/1 355/8/1 356/7/1
f 357/15/1 358/16/1 359/8/1 360/7/1
f 361/15/1 362/16/1 363/8/1 364/7/1
f 365/15/1 366/16/1 367/8/1 368/7/1
f 369/15/1 370/16/1 371/8/1 372/7/1
f 373/15/1 374/16/1 375/8/1 376/7/1
f 377/15/1 378/16/1 379/8/1 380/7/1
f 381/15/1 382/16/1 383/8/1 384/7/1
f 385/15/1 386/16/1 387/8/1 388/7/1
f 389/15/1 390/16/1 391/8/1 392/7/1
f 393/15/1 394/16/1 395/8/1 396/7/1
f 397/15/1 398/16/1 399/8/1 400/7/1
f 401/15/1 402/16/1 403/8/1 404/7/1
f 405/15/1 406/16/1 407/8/1 408/7/1
f 409/15/1 410/16/1 411/8/1 412/7/1
f 413/15/1 414/16/1 415/8/1 416/7/1
f 417/15/1 418/16/1 419/8/1 420/7/1
f 421/15/1 422/16/1 423/8/1 424/7/1
f 425/15/1 426/16/1 427/8/1 428/7/1
f 429/15/1 430/16/1 431/8/1 432/7/1
f 433/15/1 434/16/1 435/8/1 436/7/1
f 437/15/1 438/16/1 439/8/1 440/7/1
f 441/15/1 442/16/1 443/8/1 444/7/1
f 445/15/1 446/16/1 447/8/1 448/7/1
f 449/15/1 450/16/1 451/8/1 452/7/1
f 453/15/1 454/16/1 455/8/1 456/7/1
f 457/15/1 458/16/1 459/8/1 460/7/1
f 461/15/1 462/16/1 463/8/1 464/7/1
f 465/15/1 466/16/1 467/8/1 468/7/1
f 469/15/1 470/16/1 471/8/1 472/7/1
f 473/15/1 474/16/1 475/8/1 476/7/1
f 477/15/1 478/16/1 479/8/1 480/7/1
f 481/15/1 482/16/1 483/8/1 484/7/1
f 485/15/1 486/16/1 487/8/1 488/7/1
f 489/15/1 490/16/1 491/8/1 492/7/1
f 493/15/1 494/16/1 495/8/1 496/7/1
f 497/15/1 498/16/1 499/8/1 500/7/1
f 501/15/1 502/16/1 503/8/1 504/7/1
f 505/15/1 506/16/1 507/8/1 508/7/1
f 509/15/1 510/16/1 511/8/1 512/7/1
f 513/15/1 514/16/1 515/8/1 516/7/1
f 517/15/1 518/16/1 519/8/1 520/7/1
f 521/15/1 522/16/1 523/8/1 524/7/1
f 525/15/1 526/16/1 527/8/1 528/7/1
f 529/15/1 530/16/1 531/8/1 532/7/1
f 533/15/1 534/16/1 535/8/1 536/7/1
f 537/15/1 538/16/1 539/8/1 540/7/1
f 541/15/1 542/16/1 543/8/1 544/7/1
f 545/15/1 546/16/1 547/8/1 548/7/1
f 549/15/1 550/16/1 551/8/1 552/7/1
f 553/15/1 554/16/1 555/8/1 556/7/1
f 557/15/1 558/16/1 559/8/1 560/7/1
f 561/15/1 562/16/1 563/8/1 564/7/1
f 565/15/1 566/16/1 567/8/1 568/7/1
f 569/15/1 570/16/1 571/8/1 572/7/1
f 573/15/1 574/16/1 575/8/1 576/7/1
f 577/15/1 578/16/1 579/8/1 580/7/1
f 581/15/1 582/16/1 583/8/1 584/7/1
f 585/15/1 586/16/1 587/8/1 588/7/1
f 589/15/1 590/16/1 591/8/1 592/7/1
f 593/15/1 594/16/1 595/8/1 596/7/1
f 597/15/1 598/16/1 599/8/1 600/7/1
f 601/15/1 602/16/1 603/8/1 604/7/1
f 605/15/1 606/16/1 607/8/1 608/7/1
f 609/15/1 610/16/1 611/8/1 612/7/1
f 613/15/1 614/16/1 615/8/1 616/7/1
f 617/15/1 618/16/1 619/8/1 620/7/1
f 621/15/1 622/16/1 623/8/1 624/7/1
f 625/15/1 626/16/1 627/8/1 628/7/1
f 629/15/1 630/16/1 631/8/1 632/7/1
f 633/17/1 634/1/1 635/4/1 636/18/1
f 637/17/1 638/1/1 639/4/1 640/18/1
f 641/17/1 642/1/1 643/4/1 644/18/1
f 645/17/1 646/1/1 647/4/1 648/18/1
f 649/17/1 650/1/1 651/4/1 652/18/1
f 653/17/1 654/1/1 655/4/1 656/18/1
f 657/17/1 658/1/1 659/4/1 660/18/1
f 661/17/1 662/1/1 663/4/1 664/18/1
f 665/17/1 666/1/1 667/4/1 668/18/1
f 669/17/1 670/1/1 671/4/1 672/18/1
f 673/17/1 674/1/1 675/4/1 676/18/1
f 677/1/1 678/2/1 679/3/1 680/4/1
f 681/19/1 682/5/1 683/1/1 684/17/1
f 685/19/1 686/5/1 687/1/1 688/17/1
f 689/19/1 690/5/1 691/1/1 692/17/1
f 693/19/1 694/5/1 695/1/1 696/17/1
f 697/19/1 698/5/1 699/1/1 700/17/1
f 701/19/1 702/5/1 703/1/1 704/17/1
f 705/19/1 706/5/1 707/1/1 708/17/1
f 709/19/1 710/5/1 711/1/1 712/17/1
f 713/19/1 714/5/1 715/1/1 716/17/1
f 717/19/1 718/5/1 719/1/1 720/17/1
f 721/19/1 722/5/1 723/1/1 724/17/1
f 725/5/1 726/6/1 727/2/1 728/1/1
f 729/20/1 730/21/1 731/22/1 732/23/1
f 733/21/1 734/24/1 735/25/1 736/22/1
f 737/24/1 738/26/1 739/27/1 740/25/1
f 741/20/1 742/21/1 743/22/1 744/23/1
f 745/21/1 746/24/1 747/25/1 748/22/1
f 749/24/1 750/26/1 751/27/1 752/25/1
f 753/20/1 754/21/1 755/22/1 756/23/1
f 757/21/1 758/24/1 759/25/1 760/22/1
f 761/24/1 762/26/1 763/27/1 764/25/1
f 765/20/1 766/21/1 767/22/1 768/23/1
f 769/21/1 770/24/1 771/25/1 772/22/1
f 773/28/1 774/29/1 775/21/1 776/20/1
f 777/29/1 778/30/1 779/24/1 780/21/1
f 781/30/1 782/31/1 783/26/1 784/24/1
f 785/28/1 786/29/1 787/21/1 788/20/1
f 789/29/1 790/30/1 791/24/1 792/21/1
f 793/30/1 794/31/1 795/26/1 796/24/1
f 797/28/1 798/29/1 799/21/1 800/20/1
f 801/29/1 802/30/1 803/24/1 804/21/1
f 805/30/1 806/31/1 807/26/1 808/24/1
f 809/28/1 810/29/1 811/21/1 812/20/1
f 813/29/1 814/30/1 815/24/1 816/21/1

