# Tiled2Unity generated file. Do not modify by hand.
# Wavefront file for 'MapFloor1_4_mesh_0008.obj'

# Vertices (Count = 952)
v -14 -63 0
v -15 -63 0
v -15 -62 0
v -14 -62 0
v -15 -63 0
v -16 -63 0
v -16 -62 0
v -15 -62 0
v -16 -63 0
v -17 -63 0
v -17 -62 0
v -16 -62 0
v -17 -63 0
v -18 -63 0
v -18 -62 0
v -17 -62 0
v -18 -63 0
v -19 -63 0
v -19 -62 0
v -18 -62 0
v -19 -63 0
v -20 -63 0
v -20 -62 0
v -19 -62 0
v -20 -63 0
v -21 -63 0
v -21 -62 0
v -20 -62 0
v -21 -63 0
v -22 -63 0
v -22 -62 0
v -21 -62 0
v -22 -63 0
v -23 -63 0
v -23 -62 0
v -22 -62 0
v -23 -63 0
v -24 -63 0
v -24 -62 0
v -23 -62 0
v -24 -63 0
v -25 -63 0
v -25 -62 0
v -24 -62 0
v -25 -63 0
v -26 -63 0
v -26 -62 0
v -25 -62 0
v -26 -63 0
v -27 -63 0
v -27 -62 0
v -26 -62 0
v -27 -63 0
v -28 -63 0
v -28 -62 0
v -27 -62 0
v -28 -63 0
v -29 -63 0
v -29 -62 0
v -28 -62 0
v -29 -63 0
v -30 -63 0
v -30 -62 0
v -29 -62 0
v -30 -63 0
v -31 -63 0
v -31 -62 0
v -30 -62 0
v -31 -63 0
v -32 -63 0
v -32 -62 0
v -31 -62 0
v -32 -63 0
v -33 -63 0
v -33 -62 0
v -32 -62 0
v -33 -63 0
v -34 -63 0
v -34 -62 0
v -33 -62 0
v -34 -63 0
v -35 -63 0
v -35 -62 0
v -34 -62 0
v -35 -63 0
v -36 -63 0
v -36 -62 0
v -35 -62 0
v -36 -63 0
v -37 -63 0
v -37 -62 0
v -36 -62 0
v -37 -63 0
v -38 -63 0
v -38 -62 0
v -37 -62 0
v -38 -63 0
v -39 -63 0
v -39 -62 0
v -38 -62 0
v -39 -63 0
v -40 -63 0
v -40 -62 0
v -39 -62 0
v -40 -63 0
v -41 -63 0
v -41 -62 0
v -40 -62 0
v -41 -63 0
v -42 -63 0
v -42 -62 0
v -41 -62 0
v -42 -63 0
v -43 -63 0
v -43 -62 0
v -42 -62 0
v -43 -63 0
v -44 -63 0
v -44 -62 0
v -43 -62 0
v -44 -63 0
v -45 -63 0
v -45 -62 0
v -44 -62 0
v -45 -63 0
v -46 -63 0
v -46 -62 0
v -45 -62 0
v -46 -63 0
v -47 -63 0
v -47 -62 0
v -46 -62 0
v -47 -63 0
v -48 -63 0
v -48 -62 0
v -47 -62 0
v -48 -63 0
v -49 -63 0
v -49 -62 0
v -48 -62 0
v -49 -63 0
v -50 -63 0
v -50 -62 0
v -49 -62 0
v -50 -63 0
v -51 -63 0
v -51 -62 0
v -50 -62 0
v -51 -63 0
v -52 -63 0
v -52 -62 0
v -51 -62 0
v -52 -63 0
v -53 -63 0
v -53 -62 0
v -52 -62 0
v -53 -63 0
v -54 -63 0
v -54 -62 0
v -53 -62 0
v -54 -63 0
v -55 -63 0
v -55 -62 0
v -54 -62 0
v -55 -63 0
v -56 -63 0
v -56 -62 0
v -55 -62 0
v -56 -63 0
v -57 -63 0
v -57 -62 0
v -56 -62 0
v -57 -63 0
v -58 -63 0
v -58 -62 0
v -57 -62 0
v -58 -63 0
v -59 -63 0
v -59 -62 0
v -58 -62 0
v -59 -63 0
v -60 -63 0
v -60 -62 0
v -59 -62 0
v -60 -63 0
v -61 -63 0
v -61 -62 0
v -60 -62 0
v -61 -63 0
v -62 -63 0
v -62 -62 0
v -61 -62 0
v -62 -63 0
v -63 -63 0
v -63 -62 0
v -62 -62 0
v -63 -63 0
v -64 -63 0
v -64 -62 0
v -63 -62 0
v -64 -63 0
v -65 -63 0
v -65 -62 0
v -64 -62 0
v -65 -63 0
v -66 -63 0
v -66 -62 0
v -65 -62 0
v -66 -63 0
v -67 -63 0
v -67 -62 0
v -66 -62 0
v -67 -63 0
v -68 -63 0
v -68 -62 0
v -67 -62 0
v -68 -63 0
v -69 -63 0
v -69 -62 0
v -68 -62 0
v -69 -63 0
v -70 -63 0
v -70 -62 0
v -69 -62 0
v -92 -63 0
v -93 -63 0
v -93 -62 0
v -92 -62 0
v -93 -63 0
v -94 -63 0
v -94 -62 0
v -93 -62 0
v -94 -63 0
v -95 -63 0
v -95 -62 0
v -94 -62 0
v -95 -63 0
v -96 -63 0
v -96 -62 0
v -95 -62 0
v -96 -63 0
v -97 -63 0
v -97 -62 0
v -96 -62 0
v -14 -64 0
v -15 -64 0
v -15 -63 0
v -14 -63 0
v -15 -64 0
v -16 -64 0
v -16 -63 0
v -15 -63 0
v -16 -64 0
v -17 -64 0
v -17 -63 0
v -16 -63 0
v -17 -64 0
v -18 -64 0
v -18 -63 0
v -17 -63 0
v -18 -64 0
v -19 -64 0
v -19 -63 0
v -18 -63 0
v -19 -64 0
v -20 -64 0
v -20 -63 0
v -19 -63 0
v -20 -64 0
v -21 -64 0
v -21 -63 0
v -20 -63 0
v -21 -64 0
v -22 -64 0
v -22 -63 0
v -21 -63 0
v -22 -64 0
v -23 -64 0
v -23 -63 0
v -22 -63 0
v -23 -64 0
v -24 -64 0
v -24 -63 0
v -23 -63 0
v -24 -64 0
v -25 -64 0
v -25 -63 0
v -24 -63 0
v -25 -64 0
v -26 -64 0
v -26 -63 0
v -25 -63 0
v -26 -64 0
v -27 -64 0
v -27 -63 0
v -26 -63 0
v -27 -64 0
v -28 -64 0
v -28 -63 0
v -27 -63 0
v -28 -64 0
v -29 -64 0
v -29 -63 0
v -28 -63 0
v -29 -64 0
v -30 -64 0
v -30 -63 0
v -29 -63 0
v -30 -64 0
v -31 -64 0
v -31 -63 0
v -30 -63 0
v -31 -64 0
v -32 -64 0
v -32 -63 0
v -31 -63 0
v -32 -64 0
v -33 -64 0
v -33 -63 0
v -32 -63 0
v -33 -64 0
v -34 -64 0
v -34 -63 0
v -33 -63 0
v -34 -64 0
v -35 -64 0
v -35 -63 0
v -34 -63 0
v -35 -64 0
v -36 -64 0
v -36 -63 0
v -35 -63 0
v -36 -64 0
v -37 -64 0
v -37 -63 0
v -36 -63 0
v -37 -64 0
v -38 -64 0
v -38 -63 0
v -37 -63 0
v -38 -64 0
v -39 -64 0
v -39 -63 0
v -38 -63 0
v -39 -64 0
v -40 -64 0
v -40 -63 0
v -39 -63 0
v -40 -64 0
v -41 -64 0
v -41 -63 0
v -40 -63 0
v -41 -64 0
v -42 -64 0
v -42 -63 0
v -41 -63 0
v -42 -64 0
v -43 -64 0
v -43 -63 0
v -42 -63 0
v -43 -64 0
v -44 -64 0
v -44 -63 0
v -43 -63 0
v -44 -64 0
v -45 -64 0
v -45 -63 0
v -44 -63 0
v -45 -64 0
v -46 -64 0
v -46 -63 0
v -45 -63 0
v -46 -64 0
v -47 -64 0
v -47 -63 0
v -46 -63 0
v -47 -64 0
v -48 -64 0
v -48 -63 0
v -47 -63 0
v -48 -64 0
v -49 -64 0
v -49 -63 0
v -48 -63 0
v -49 -64 0
v -50 -64 0
v -50 -63 0
v -49 -63 0
v -50 -64 0
v -51 -64 0
v -51 -63 0
v -50 -63 0
v -51 -64 0
v -52 -64 0
v -52 -63 0
v -51 -63 0
v -52 -64 0
v -53 -64 0
v -53 -63 0
v -52 -63 0
v -53 -64 0
v -54 -64 0
v -54 -63 0
v -53 -63 0
v -54 -64 0
v -55 -64 0
v -55 -63 0
v -54 -63 0
v -55 -64 0
v -56 -64 0
v -56 -63 0
v -55 -63 0
v -56 -64 0
v -57 -64 0
v -57 -63 0
v -56 -63 0
v -57 -64 0
v -58 -64 0
v -58 -63 0
v -57 -63 0
v -58 -64 0
v -59 -64 0
v -59 -63 0
v -58 -63 0
v -59 -64 0
v -60 -64 0
v -60 -63 0
v -59 -63 0
v -60 -64 0
v -61 -64 0
v -61 -63 0
v -60 -63 0
v -61 -64 0
v -62 -64 0
v -62 -63 0
v -61 -63 0
v -62 -64 0
v -63 -64 0
v -63 -63 0
v -62 -63 0
v -63 -64 0
v -64 -64 0
v -64 -63 0
v -63 -63 0
v -64 -64 0
v -65 -64 0
v -65 -63 0
v -64 -63 0
v -65 -64 0
v -66 -64 0
v -66 -63 0
v -65 -63 0
v -66 -64 0
v -67 -64 0
v -67 -63 0
v -66 -63 0
v -67 -64 0
v -68 -64 0
v -68 -63 0
v -67 -63 0
v -68 -64 0
v -69 -64 0
v -69 -63 0
v -68 -63 0
v -69 -64 0
v -70 -64 0
v -70 -63 0
v -69 -63 0
v -92 -64 0
v -93 -64 0
v -93 -63 0
v -92 -63 0
v -93 -64 0
v -94 -64 0
v -94 -63 0
v -93 -63 0
v -94 -64 0
v -95 -64 0
v -95 -63 0
v -94 -63 0
v -95 -64 0
v -96 -64 0
v -96 -63 0
v -95 -63 0
v -96 -64 0
v -97 -64 0
v -97 -63 0
v -96 -63 0
v -14 -65 0
v -15 -65 0
v -15 -64 0
v -14 -64 0
v -96 -65 0
v -97 -65 0
v -97 -64 0
v -96 -64 0
v -96 -66 0
v -97 -66 0
v -97 -65 0
v -96 -65 0
v -96 -67 0
v -97 -67 0
v -97 -66 0
v -96 -66 0
v -96 -68 0
v -97 -68 0
v -97 -67 0
v -96 -67 0
v -96 -69 0
v -97 -69 0
v -97 -68 0
v -96 -68 0
v -96 -70 0
v -97 -70 0
v -97 -69 0
v -96 -69 0
v -96 -71 0
v -97 -71 0
v -97 -70 0
v -96 -70 0
v -96 -72 0
v -97 -72 0
v -97 -71 0
v -96 -71 0
v -96 -73 0
v -97 -73 0
v -97 -72 0
v -96 -72 0
v -96 -74 0
v -97 -74 0
v -97 -73 0
v -96 -73 0
v -96 -75 0
v -97 -75 0
v -97 -74 0
v -96 -74 0
v -96 -76 0
v -97 -76 0
v -97 -75 0
v -96 -75 0
v -96 -77 0
v -97 -77 0
v -97 -76 0
v -96 -76 0
v -96 -78 0
v -97 -78 0
v -97 -77 0
v -96 -77 0
v -96 -79 0
v -97 -79 0
v -97 -78 0
v -96 -78 0
v -96 -80 0
v -97 -80 0
v -97 -79 0
v -96 -79 0
v -96 -81 0
v -97 -81 0
v -97 -80 0
v -96 -80 0
v -96 -82 0
v -97 -82 0
v -97 -81 0
v -96 -81 0
v -96 -83 0
v -97 -83 0
v -97 -82 0
v -96 -82 0
v -96 -84 0
v -97 -84 0
v -97 -83 0
v -96 -83 0
v -96 -85 0
v -97 -85 0
v -97 -84 0
v -96 -84 0
v -96 -86 0
v -97 -86 0
v -97 -85 0
v -96 -85 0
v -96 -87 0
v -97 -87 0
v -97 -86 0
v -96 -86 0
v -96 -88 0
v -97 -88 0
v -97 -87 0
v -96 -87 0
v -96 -89 0
v -97 -89 0
v -97 -88 0
v -96 -88 0
v -96 -90 0
v -97 -90 0
v -97 -89 0
v -96 -89 0
v -96 -91 0
v -97 -91 0
v -97 -90 0
v -96 -90 0
v -96 -92 0
v -97 -92 0
v -97 -91 0
v -96 -91 0
v -14 -93 0
v -15 -93 0
v -15 -92 0
v -14 -92 0
v -96 -93 0
v -97 -93 0
v -97 -92 0
v -96 -92 0
v -14 -94 0
v -15 -94 0
v -15 -93 0
v -14 -93 0
v -96 -94 0
v -97 -94 0
v -97 -93 0
v -96 -93 0
v -14 -95 0
v -15 -95 0
v -15 -94 0
v -14 -94 0
v -15 -95 0
v -16 -95 0
v -16 -94 0
v -15 -94 0
v -16 -95 0
v -17 -95 0
v -17 -94 0
v -16 -94 0
v -17 -95 0
v -18 -95 0
v -18 -94 0
v -17 -94 0
v -18 -95 0
v -19 -95 0
v -19 -94 0
v -18 -94 0
v -19 -95 0
v -20 -95 0
v -20 -94 0
v -19 -94 0
v -20 -95 0
v -21 -95 0
v -21 -94 0
v -20 -94 0
v -21 -95 0
v -22 -95 0
v -22 -94 0
v -21 -94 0
v -22 -95 0
v -23 -95 0
v -23 -94 0
v -22 -94 0
v -23 -95 0
v -24 -95 0
v -24 -94 0
v -23 -94 0
v -24 -95 0
v -25 -95 0
v -25 -94 0
v -24 -94 0
v -25 -95 0
v -26 -95 0
v -26 -94 0
v -25 -94 0
v -26 -95 0
v -27 -95 0
v -27 -94 0
v -26 -94 0
v -27 -95 0
v -28 -95 0
v -28 -94 0
v -27 -94 0
v -28 -95 0
v -29 -95 0
v -29 -94 0
v -28 -94 0
v -29 -95 0
v -30 -95 0
v -30 -94 0
v -29 -94 0
v -30 -95 0
v -31 -95 0
v -31 -94 0
v -30 -94 0
v -31 -95 0
v -32 -95 0
v -32 -94 0
v -31 -94 0
v -32 -95 0
v -33 -95 0
v -33 -94 0
v -32 -94 0
v -33 -95 0
v -34 -95 0
v -34 -94 0
v -33 -94 0
v -34 -95 0
v -35 -95 0
v -35 -94 0
v -34 -94 0
v -35 -95 0
v -36 -95 0
v -36 -94 0
v -35 -94 0
v -36 -95 0
v -37 -95 0
v -37 -94 0
v -36 -94 0
v -37 -95 0
v -38 -95 0
v -38 -94 0
v -37 -94 0
v -38 -95 0
v -39 -95 0
v -39 -94 0
v -38 -94 0
v -39 -95 0
v -40 -95 0
v -40 -94 0
v -39 -94 0
v -40 -95 0
v -41 -95 0
v -41 -94 0
v -40 -94 0
v -41 -95 0
v -42 -95 0
v -42 -94 0
v -41 -94 0
v -42 -95 0
v -43 -95 0
v -43 -94 0
v -42 -94 0
v -43 -95 0
v -44 -95 0
v -44 -94 0
v -43 -94 0
v -44 -95 0
v -45 -95 0
v -45 -94 0
v -44 -94 0
v -45 -95 0
v -46 -95 0
v -46 -94 0
v -45 -94 0
v -46 -95 0
v -47 -95 0
v -47 -94 0
v -46 -94 0
v -47 -95 0
v -48 -95 0
v -48 -94 0
v -47 -94 0
v -48 -95 0
v -49 -95 0
v -49 -94 0
v -48 -94 0
v -49 -95 0
v -50 -95 0
v -50 -94 0
v -49 -94 0
v -50 -95 0
v -51 -95 0
v -51 -94 0
v -50 -94 0
v -51 -95 0
v -52 -95 0
v -52 -94 0
v -51 -94 0
v -52 -95 0
v -53 -95 0
v -53 -94 0
v -52 -94 0
v -53 -95 0
v -54 -95 0
v -54 -94 0
v -53 -94 0
v -54 -95 0
v -55 -95 0
v -55 -94 0
v -54 -94 0
v -55 -95 0
v -56 -95 0
v -56 -94 0
v -55 -94 0
v -56 -95 0
v -57 -95 0
v -57 -94 0
v -56 -94 0
v -57 -95 0
v -58 -95 0
v -58 -94 0
v -57 -94 0
v -58 -95 0
v -59 -95 0
v -59 -94 0
v -58 -94 0
v -59 -95 0
v -60 -95 0
v -60 -94 0
v -59 -94 0
v -60 -95 0
v -61 -95 0
v -61 -94 0
v -60 -94 0
v -61 -95 0
v -62 -95 0
v -62 -94 0
v -61 -94 0
v -62 -95 0
v -63 -95 0
v -63 -94 0
v -62 -94 0
v -63 -95 0
v -64 -95 0
v -64 -94 0
v -63 -94 0
v -64 -95 0
v -65 -95 0
v -65 -94 0
v -64 -94 0
v -65 -95 0
v -66 -95 0
v -66 -94 0
v -65 -94 0
v -66 -95 0
v -67 -95 0
v -67 -94 0
v -66 -94 0
v -67 -95 0
v -68 -95 0
v -68 -94 0
v -67 -94 0
v -68 -95 0
v -69 -95 0
v -69 -94 0
v -68 -94 0
v -69 -95 0
v -70 -95 0
v -70 -94 0
v -69 -94 0
v -70 -95 0
v -71 -95 0
v -71 -94 0
v -70 -94 0
v -71 -95 0
v -72 -95 0
v -72 -94 0
v -71 -94 0
v -72 -95 0
v -73 -95 0
v -73 -94 0
v -72 -94 0
v -73 -95 0
v -74 -95 0
v -74 -94 0
v -73 -94 0
v -74 -95 0
v -75 -95 0
v -75 -94 0
v -74 -94 0
v -75 -95 0
v -76 -95 0
v -76 -94 0
v -75 -94 0
v -76 -95 0
v -77 -95 0
v -77 -94 0
v -76 -94 0
v -77 -95 0
v -78 -95 0
v -78 -94 0
v -77 -94 0
v -78 -95 0
v -79 -95 0
v -79 -94 0
v -78 -94 0
v -79 -95 0
v -80 -95 0
v -80 -94 0
v -79 -94 0
v -80 -95 0
v -81 -95 0
v -81 -94 0
v -80 -94 0
v -81 -95 0
v -82 -95 0
v -82 -94 0
v -81 -94 0
v -82 -95 0
v -83 -95 0
v -83 -94 0
v -82 -94 0
v -83 -95 0
v -84 -95 0
v -84 -94 0
v -83 -94 0
v -84 -95 0
v -85 -95 0
v -85 -94 0
v -84 -94 0
v -85 -95 0
v -86 -95 0
v -86 -94 0
v -85 -94 0
v -86 -95 0
v -87 -95 0
v -87 -94 0
v -86 -94 0
v -87 -95 0
v -88 -95 0
v -88 -94 0
v -87 -94 0
v -88 -95 0
v -89 -95 0
v -89 -94 0
v -88 -94 0
v -89 -95 0
v -90 -95 0
v -90 -94 0
v -89 -94 0
v -90 -95 0
v -91 -95 0
v -91 -94 0
v -90 -94 0
v -91 -95 0
v -92 -95 0
v -92 -94 0
v -91 -94 0
v -92 -95 0
v -93 -95 0
v -93 -94 0
v -92 -94 0
v -93 -95 0
v -94 -95 0
v -94 -94 0
v -93 -94 0
v -94 -95 0
v -95 -95 0
v -95 -94 0
v -94 -94 0
v -95 -95 0
v -96 -95 0
v -96 -94 0
v -95 -94 0
v -96 -95 0
v -97 -95 0
v -97 -94 0
v -96 -94 0

# Texture cooridinates (Count = 23)
vt 0.25 0.9821429
vt 0.3125 0.9821429
vt 0.3125 1
vt 0.25 1
vt 0.0625 0.9821429
vt 0.125 0.9821429
vt 0.125 1
vt 0.0625 1
vt 0.1875 0.9821429
vt 0.1875 1
vt 0 0.9642857
vt 0.0625 0.9642857
vt 0 0.9821429
vt 0.125 0.9642857
vt 0.1875 0.9642857
vt 0 0.9464286
vt 0.0625 0.9464286
vt 0.125 0.9464286
vt 0.1875 0.9464286
vt 0 0.9285714
vt 0.0625 0.9285714
vt 0.125 0.9285714
vt 0.1875 0.9285714

# Normal
vn 0 0 -1

# Mesh description
g MapFloor1_4_mesh_0008

# Faces
f 1/1/1 2/2/1 3/3/1 4/4/1
f 5/5/1 6/6/1 7/7/1 8/8/1
f 9/5/1 10/6/1 11/7/1 12/8/1
f 13/5/1 14/6/1 15/7/1 16/8/1
f 17/5/1 18/6/1 19/7/1 20/8/1
f 21/5/1 22/6/1 23/7/1 24/8/1
f 25/5/1 26/6/1 27/7/1 28/8/1
f 29/5/1 30/6/1 31/7/1 32/8/1
f 33/5/1 34/6/1 35/7/1 36/8/1
f 37/5/1 38/6/1 39/7/1 40/8/1
f 41/5/1 42/6/1 43/7/1 44/8/1
f 45/5/1 46/6/1 47/7/1 48/8/1
f 49/5/1 50/6/1 51/7/1 52/8/1
f 53/5/1 54/6/1 55/7/1 56/8/1
f 57/5/1 58/6/1 59/7/1 60/8/1
f 61/5/1 62/6/1 63/7/1 64/8/1
f 65/5/1 66/6/1 67/7/1 68/8/1
f 69/5/1 70/6/1 71/7/1 72/8/1
f 73/5/1 74/6/1 75/7/1 76/8/1
f 77/5/1 78/6/1 79/7/1 80/8/1
f 81/5/1 82/6/1 83/7/1 84/8/1
f 85/5/1 86/6/1 87/7/1 88/8/1
f 89/5/1 90/6/1 91/7/1 92/8/1
f 93/5/1 94/6/1 95/7/1 96/8/1
f 97/5/1 98/6/1 99/7/1 100/8/1
f 101/5/1 102/6/1 103/7/1 104/8/1
f 105/5/1 106/6/1 107/7/1 108/8/1
f 109/5/1 110/6/1 111/7/1 112/8/1
f 113/5/1 114/6/1 115/7/1 116/8/1
f 117/5/1 118/6/1 119/7/1 120/8/1
f 121/5/1 122/6/1 123/7/1 124/8/1
f 125/5/1 126/6/1 127/7/1 128/8/1
f 129/5/1 130/6/1 131/7/1 132/8/1
f 133/5/1 134/6/1 135/7/1 136/8/1
f 137/5/1 138/6/1 139/7/1 140/8/1
f 141/5/1 142/6/1 143/7/1 144/8/1
f 145/5/1 146/6/1 147/7/1 148/8/1
f 149/5/1 150/6/1 151/7/1 152/8/1
f 153/5/1 154/6/1 155/7/1 156/8/1
f 157/5/1 158/6/1 159/7/1 160/8/1
f 161/5/1 162/6/1 163/7/1 164/8/1
f 165/5/1 166/6/1 167/7/1 168/8/1
f 169/5/1 170/6/1 171/7/1 172/8/1
f 173/5/1 174/6/1 175/7/1 176/8/1
f 177/5/1 178/6/1 179/7/1 180/8/1
f 181/5/1 182/6/1 183/7/1 184/8/1
f 185/5/1 186/6/1 187/7/1 188/8/1
f 189/5/1 190/6/1 191/7/1 192/8/1
f 193/5/1 194/6/1 195/7/1 196/8/1
f 197/5/1 198/6/1 199/7/1 200/8/1
f 201/5/1 202/6/1 203/7/1 204/8/1
f 205/5/1 206/6/1 207/7/1 208/8/1
f 209/5/1 210/6/1 211/7/1 212/8/1
f 213/5/1 214/6/1 215/7/1 216/8/1
f 217/5/1 218/6/1 219/7/1 220/8/1
f 221/5/1 222/6/1 223/7/1 224/8/1
f 225/5/1 226/6/1 227/7/1 228/8/1
f 229/5/1 230/6/1 231/7/1 232/8/1
f 233/5/1 234/6/1 235/7/1 236/8/1
f 237/5/1 238/6/1 239/7/1 240/8/1
f 241/6/1 242/9/1 243/10/1 244/7/1
f 245/11/1 246/12/1 247/5/1 248/13/1
f 249/12/1 250/14/1 251/6/1 252/5/1
f 253/12/1 254/14/1 255/6/1 256/5/1
f 257/12/1 258/14/1 259/6/1 260/5/1
f 261/12/1 262/14/1 263/6/1 264/5/1
f 265/12/1 266/14/1 267/6/1 268/5/1
f 269/12/1 270/14/1 271/6/1 272/5/1
f 273/12/1 274/14/1 275/6/1 276/5/1
f 277/12/1 278/14/1 279/6/1 280/5/1
f 281/12/1 282/14/1 283/6/1 284/5/1
f 285/12/1 286/14/1 287/6/1 288/5/1
f 289/12/1 290/14/1 291/6/1 292/5/1
f 293/12/1 294/14/1 295/6/1 296/5/1
f 297/12/1 298/14/1 299/6/1 300/5/1
f 301/12/1 302/14/1 303/6/1 304/5/1
f 305/12/1 306/14/1 307/6/1 308/5/1
f 309/12/1 310/14/1 311/6/1 312/5/1
f 313/12/1 314/14/1 315/6/1 316/5/1
f 317/12/1 318/14/1 319/6/1 320/5/1
f 321/12/1 322/14/1 323/6/1 324/5/1
f 325/12/1 326/14/1 327/6/1 328/5/1
f 329/12/1 330/14/1 331/6/1 332/5/1
f 333/12/1 334/14/1 335/6/1 336/5/1
f 337/12/1 338/14/1 339/6/1 340/5/1
f 341/12/1 342/14/1 343/6/1 344/5/1
f 345/12/1 346/14/1 347/6/1 348/5/1
f 349/12/1 350/14/1 351/6/1 352/5/1
f 353/12/1 354/14/1 355/6/1 356/5/1
f 357/12/1 358/14/1 359/6/1 360/5/1
f 361/12/1 362/14/1 363/6/1 364/5/1
f 365/12/1 366/14/1 367/6/1 368/5/1
f 369/12/1 370/14/1 371/6/1 372/5/1
f 373/12/1 374/14/1 375/6/1 376/5/1
f 377/12/1 378/14/1 379/6/1 380/5/1
f 381/12/1 382/14/1 383/6/1 384/5/1
f 385/12/1 386/14/1 387/6/1 388/5/1
f 389/12/1 390/14/1 391/6/1 392/5/1
f 393/12/1 394/14/1 395/6/1 396/5/1
f 397/12/1 398/14/1 399/6/1 400/5/1
f 401/12/1 402/14/1 403/6/1 404/5/1
f 405/12/1 406/14/1 407/6/1 408/5/1
f 409/12/1 410/14/1 411/6/1 412/5/1
f 413/12/1 414/14/1 415/6/1 416/5/1
f 417/12/1 418/14/1 419/6/1 420/5/1
f 421/12/1 422/14/1 423/6/1 424/5/1
f 425/12/1 426/14/1 427/6/1 428/5/1
f 429/12/1 430/14/1 431/6/1 432/5/1
f 433/12/1 434/14/1 435/6/1 436/5/1
f 437/12/1 438/14/1 439/6/1 440/5/1
f 441/12/1 442/14/1 443/6/1 444/5/1
f 445/12/1 446/14/1 447/6/1 448/5/1
f 449/12/1 450/14/1 451/6/1 452/5/1
f 453/12/1 454/14/1 455/6/1 456/5/1
f 457/12/1 458/14/1 459/6/1 460/5/1
f 461/12/1 462/14/1 463/6/1 464/5/1
f 465/12/1 466/14/1 467/6/1 468/5/1
f 469/12/1 470/14/1 471/6/1 472/5/1
f 473/12/1 474/14/1 475/6/1 476/5/1
f 477/12/1 478/14/1 479/6/1 480/5/1
f 481/12/1 482/14/1 483/6/1 484/5/1
f 485/14/1 486/15/1 487/9/1 488/6/1
f 489/16/1 490/17/1 491/12/1 492/11/1
f 493/18/1 494/19/1 495/15/1 496/14/1
f 497/18/1 498/19/1 499/15/1 500/14/1
f 501/18/1 502/19/1 503/15/1 504/14/1
f 505/18/1 506/19/1 507/15/1 508/14/1
f 509/18/1 510/19/1 511/15/1 512/14/1
f 513/18/1 514/19/1 515/15/1 516/14/1
f 517/18/1 518/19/1 519/15/1 520/14/1
f 521/18/1 522/19/1 523/15/1 524/14/1
f 525/18/1 526/19/1 527/15/1 528/14/1
f 529/18/1 530/19/1 531/15/1 532/14/1
f 533/18/1 534/19/1 535/15/1 536/14/1
f 537/18/1 538/19/1 539/15/1 540/14/1
f 541/18/1 542/19/1 543/15/1 544/14/1
f 545/18/1 546/19/1 547/15/1 548/14/1
f 549/18/1 550/19/1 551/15/1 552/14/1
f 553/18/1 554/19/1 555/15/1 556/14/1
f 557/18/1 558/19/1 559/15/1 560/14/1
f 561/18/1 562/19/1 563/15/1 564/14/1
f 565/18/1 566/19/1 567/15/1 568/14/1
f 569/18/1 570/19/1 571/15/1 572/14/1
f 573/18/1 574/19/1 575/15/1 576/14/1
f 577/18/1 578/19/1 579/15/1 580/14/1
f 581/18/1 582/19/1 583/15/1 584/14/1
f 585/18/1 586/19/1 587/15/1 588/14/1
f 589/18/1 590/19/1 591/15/1 592/14/1
f 593/18/1 594/19/1 595/15/1 596/14/1
f 597/18/1 598/19/1 599/15/1 600/14/1
f 601/18/1 602/19/1 603/15/1 604/14/1
f 605/16/1 606/17/1 607/12/1 608/11/1
f 609/18/1 610/19/1 611/15/1 612/14/1
f 613/16/1 614/17/1 615/12/1 616/11/1
f 617/18/1 618/19/1 619/15/1 620/14/1
f 621/20/1 622/21/1 623/17/1 624/16/1
f 625/21/1 626/22/1 627/18/1 628/17/1
f 629/21/1 630/22/1 631/18/1 632/17/1
f 633/21/1 634/22/1 635/18/1 636/17/1
f 637/21/1 638/22/1 639/18/1 640/17/1
f 641/21/1 642/22/1 643/18/1 644/17/1
f 645/21/1 646/22/1 647/18/1 648/17/1
f 649/21/1 650/22/1 651/18/1 652/17/1
f 653/21/1 654/22/1 655/18/1 656/17/1
f 657/21/1 658/22/1 659/18/1 660/17/1
f 661/21/1 662/22/1 663/18/1 664/17/1
f 665/21/1 666/22/1 667/18/1 668/17/1
f 669/21/1 670/22/1 671/18/1 672/17/1
f 673/21/1 674/22/1 675/18/1 676/17/1
f 677/21/1 678/22/1 679/18/1 680/17/1
f 681/21/1 682/22/1 683/18/1 684/17/1
f 685/21/1 686/22/1 687/18/1 688/17/1
f 689/21/1 690/22/1 691/18/1 692/17/1
f 693/21/1 694/22/1 695/18/1 696/17/1
f 697/21/1 698/22/1 699/18/1 700/17/1
f 701/21/1 702/22/1 703/18/1 704/17/1
f 705/21/1 706/22/1 707/18/1 708/17/1
f 709/21/1 710/22/1 711/18/1 712/17/1
f 713/21/1 714/22/1 715/18/1 716/17/1
f 717/21/1 718/22/1 719/18/1 720/17/1
f 721/21/1 722/22/1 723/18/1 724/17/1
f 725/21/1 726/22/1 727/18/1 728/17/1
f 729/21/1 730/22/1 731/18/1 732/17/1
f 733/21/1 734/22/1 735/18/1 736/17/1
f 737/21/1 738/22/1 739/18/1 740/17/1
f 741/21/1 742/22/1 743/18/1 744/17/1
f 745/21/1 746/22/1 747/18/1 748/17/1
f 749/21/1 750/22/1 751/18/1 752/17/1
f 753/21/1 754/22/1 755/18/1 756/17/1
f 757/21/1 758/22/1 759/18/1 760/17/1
f 761/21/1 762/22/1 763/18/1 764/17/1
f 765/21/1 766/22/1 767/18/1 768/17/1
f 769/21/1 770/22/1 771/18/1 772/17/1
f 773/21/1 774/22/1 775/18/1 776/17/1
f 777/21/1 778/22/1 779/18/1 780/17/1
f 781/21/1 782/22/1 783/18/1 784/17/1
f 785/21/1 786/22/1 787/18/1 788/17/1
f 789/21/1 790/22/1 791/18/1 792/17/1
f 793/21/1 794/22/1 795/18/1 796/17/1
f 797/21/1 798/22/1 799/18/1 800/17/1
f 801/21/1 802/22/1 803/18/1 804/17/1
f 805/21/1 806/22/1 807/18/1 808/17/1
f 809/21/1 810/22/1 811/18/1 812/17/1
f 813/21/1 814/22/1 815/18/1 816/17/1
f 817/21/1 818/22/1 819/18/1 820/17/1
f 821/21/1 822/22/1 823/18/1 824/17/1
f 825/21/1 826/22/1 827/18/1 828/17/1
f 829/21/1 830/22/1 831/18/1 832/17/1
f 833/21/1 834/22/1 835/18/1 836/17/1
f 837/21/1 838/22/1 839/18/1 840/17/1
f 841/21/1 842/22/1 843/18/1 844/17/1
f 845/21/1 846/22/1 847/18/1 848/17/1
f 849/21/1 850/22/1 851/18/1 852/17/1
f 853/21/1 854/22/1 855/18/1 856/17/1
f 857/21/1 858/22/1 859/18/1 860/17/1
f 861/21/1 862/22/1 863/18/1 864/17/1
f 865/21/1 866/22/1 867/18/1 868/17/1
f 869/21/1 870/22/1 871/18/1 872/17/1
f 873/21/1 874/22/1 875/18/1 876/17/1
f 877/21/1 878/22/1 879/18/1 880/17/1
f 881/21/1 882/22/1 883/18/1 884/17/1
f 885/21/1 886/22/1 887/18/1 888/17/1
f 889/21/1 890/22/1 891/18/1 892/17/1
f 893/21/1 894/22/1 895/18/1 896/17/1
f 897/21/1 898/22/1 899/18/1 900/17/1
f 901/21/1 902/22/1 903/18/1 904/17/1
f 905/21/1 906/22/1 907/18/1 908/17/1
f 909/21/1 910/22/1 911/18/1 912/17/1
f 913/21/1 914/22/1 915/18/1 916/17/1
f 917/21/1 918/22/1 919/18/1 920/17/1
f 921/21/1 922/22/1 923/18/1 924/17/1
f 925/21/1 926/22/1 927/18/1 928/17/1
f 929/21/1 930/22/1 931/18/1 932/17/1
f 933/21/1 934/22/1 935/18/1 936/17/1
f 937/21/1 938/22/1 939/18/1 940/17/1
f 941/21/1 942/22/1 943/18/1 944/17/1
f 945/21/1 946/22/1 947/18/1 948/17/1
f 949/22/1 950/23/1 951/19/1 952/18/1

