# Tiled2Unity generated file. Do not modify by hand.
# Wavefront file for 'MapFloor1_4_mesh_0021.obj'

# Vertices (Count = 916)
v -34 -5 0
v -35 -5 0
v -35 -4 0
v -34 -4 0
v -34 -6 0
v -35 -6 0
v -35 -5 0
v -34 -5 0
v -40 -6 0
v -41 -6 0
v -41 -5 0
v -40 -5 0
v -40 -7 0
v -41 -7 0
v -41 -6 0
v -40 -6 0
v -30 -8 0
v -31 -8 0
v -31 -7 0
v -30 -7 0
v -34 -8 0
v -35 -8 0
v -35 -7 0
v -34 -7 0
v -37 -8 0
v -38 -8 0
v -38 -7 0
v -37 -7 0
v -30 -9 0
v -31 -9 0
v -31 -8 0
v -30 -8 0
v -34 -9 0
v -35 -9 0
v -35 -8 0
v -34 -8 0
v -37 -9 0
v -38 -9 0
v -38 -8 0
v -37 -8 0
v -29 -10 0
v -30 -10 0
v -30 -9 0
v -29 -9 0
v -30 -10 0
v -31 -10 0
v -31 -9 0
v -30 -9 0
v -31 -10 0
v -32 -10 0
v -32 -9 0
v -31 -9 0
v -32 -10 0
v -33 -10 0
v -33 -9 0
v -32 -9 0
v -33 -10 0
v -34 -10 0
v -34 -9 0
v -33 -9 0
v -34 -10 0
v -35 -10 0
v -35 -9 0
v -34 -9 0
v -35 -10 0
v -36 -10 0
v -36 -9 0
v -35 -9 0
v -36 -10 0
v -37 -10 0
v -37 -9 0
v -36 -9 0
v -37 -10 0
v -38 -10 0
v -38 -9 0
v -37 -9 0
v -38 -10 0
v -39 -10 0
v -39 -9 0
v -38 -9 0
v -29 -11 0
v -30 -11 0
v -30 -10 0
v -29 -10 0
v -30 -11 0
v -31 -11 0
v -31 -10 0
v -30 -10 0
v -31 -11 0
v -32 -11 0
v -32 -10 0
v -31 -10 0
v -32 -11 0
v -33 -11 0
v -33 -10 0
v -32 -10 0
v -33 -11 0
v -34 -11 0
v -34 -10 0
v -33 -10 0
v -34 -11 0
v -35 -11 0
v -35 -10 0
v -34 -10 0
v -35 -11 0
v -36 -11 0
v -36 -10 0
v -35 -10 0
v -36 -11 0
v -37 -11 0
v -37 -10 0
v -36 -10 0
v -37 -11 0
v -38 -11 0
v -38 -10 0
v -37 -10 0
v -38 -11 0
v -39 -11 0
v -39 -10 0
v -38 -10 0
v -29 -12 0
v -30 -12 0
v -30 -11 0
v -29 -11 0
v -30 -12 0
v -31 -12 0
v -31 -11 0
v -30 -11 0
v -31 -12 0
v -32 -12 0
v -32 -11 0
v -31 -11 0
v -32 -12 0
v -33 -12 0
v -33 -11 0
v -32 -11 0
v -33 -12 0
v -34 -12 0
v -34 -11 0
v -33 -11 0
v -34 -12 0
v -35 -12 0
v -35 -11 0
v -34 -11 0
v -35 -12 0
v -36 -12 0
v -36 -11 0
v -35 -11 0
v -36 -12 0
v -37 -12 0
v -37 -11 0
v -36 -11 0
v -37 -12 0
v -38 -12 0
v -38 -11 0
v -37 -11 0
v -38 -12 0
v -39 -12 0
v -39 -11 0
v -38 -11 0
v -23 -20 0
v -24 -20 0
v -24 -19 0
v -23 -19 0
v -24 -20 0
v -25 -20 0
v -25 -19 0
v -24 -19 0
v -25 -20 0
v -26 -20 0
v -26 -19 0
v -25 -19 0
v -26 -20 0
v -27 -20 0
v -27 -19 0
v -26 -19 0
v -27 -20 0
v -28 -20 0
v -28 -19 0
v -27 -19 0
v -28 -20 0
v -29 -20 0
v -29 -19 0
v -28 -19 0
v -29 -20 0
v -30 -20 0
v -30 -19 0
v -29 -19 0
v -22 -21 0
v -23 -21 0
v -23 -20 0
v -22 -20 0
v -23 -21 0
v -24 -21 0
v -24 -20 0
v -23 -20 0
v -24 -21 0
v -25 -21 0
v -25 -20 0
v -24 -20 0
v -25 -21 0
v -26 -21 0
v -26 -20 0
v -25 -20 0
v -26 -21 0
v -27 -21 0
v -27 -20 0
v -26 -20 0
v -27 -21 0
v -28 -21 0
v -28 -20 0
v -27 -20 0
v -28 -21 0
v -29 -21 0
v -29 -20 0
v -28 -20 0
v -29 -21 0
v -30 -21 0
v -30 -20 0
v -29 -20 0
v -22 -22 0
v -23 -22 0
v -23 -21 0
v -22 -21 0
v -23 -22 0
v -24 -22 0
v -24 -21 0
v -23 -21 0
v -24 -22 0
v -25 -22 0
v -25 -21 0
v -24 -21 0
v -25 -22 0
v -26 -22 0
v -26 -21 0
v -25 -21 0
v -26 -22 0
v -27 -22 0
v -27 -21 0
v -26 -21 0
v -27 -22 0
v -28 -22 0
v -28 -21 0
v -27 -21 0
v -28 -22 0
v -29 -22 0
v -29 -21 0
v -28 -21 0
v -29 -22 0
v -30 -22 0
v -30 -21 0
v -29 -21 0
v -30 -22 0
v -31 -22 0
v -31 -21 0
v -30 -21 0
v -22 -23 0
v -23 -23 0
v -23 -22 0
v -22 -22 0
v -23 -23 0
v -24 -23 0
v -24 -22 0
v -23 -22 0
v -24 -23 0
v -25 -23 0
v -25 -22 0
v -24 -22 0
v -25 -23 0
v -26 -23 0
v -26 -22 0
v -25 -22 0
v -26 -23 0
v -27 -23 0
v -27 -22 0
v -26 -22 0
v -27 -23 0
v -28 -23 0
v -28 -22 0
v -27 -22 0
v -28 -23 0
v -29 -23 0
v -29 -22 0
v -28 -22 0
v -29 -23 0
v -30 -23 0
v -30 -22 0
v -29 -22 0
v -30 -23 0
v -31 -23 0
v -31 -22 0
v -30 -22 0
v -22 -24 0
v -23 -24 0
v -23 -23 0
v -22 -23 0
v -23 -24 0
v -24 -24 0
v -24 -23 0
v -23 -23 0
v -24 -24 0
v -25 -24 0
v -25 -23 0
v -24 -23 0
v -25 -24 0
v -26 -24 0
v -26 -23 0
v -25 -23 0
v -26 -24 0
v -27 -24 0
v -27 -23 0
v -26 -23 0
v -27 -24 0
v -28 -24 0
v -28 -23 0
v -27 -23 0
v -28 -24 0
v -29 -24 0
v -29 -23 0
v -28 -23 0
v -29 -24 0
v -30 -24 0
v -30 -23 0
v -29 -23 0
v -30 -24 0
v -31 -24 0
v -31 -23 0
v -30 -23 0
v -23 -25 0
v -24 -25 0
v -24 -24 0
v -23 -24 0
v -24 -25 0
v -25 -25 0
v -25 -24 0
v -24 -24 0
v -25 -25 0
v -26 -25 0
v -26 -24 0
v -25 -24 0
v -26 -25 0
v -27 -25 0
v -27 -24 0
v -26 -24 0
v -27 -25 0
v -28 -25 0
v -28 -24 0
v -27 -24 0
v -28 -25 0
v -29 -25 0
v -29 -24 0
v -28 -24 0
v -29 -25 0
v -30 -25 0
v -30 -24 0
v -29 -24 0
v -23 -26 0
v -24 -26 0
v -24 -25 0
v -23 -25 0
v -24 -26 0
v -25 -26 0
v -25 -25 0
v -24 -25 0
v -25 -26 0
v -26 -26 0
v -26 -25 0
v -25 -25 0
v -26 -26 0
v -27 -26 0
v -27 -25 0
v -26 -25 0
v -27 -26 0
v -28 -26 0
v -28 -25 0
v -27 -25 0
v -28 -26 0
v -29 -26 0
v -29 -25 0
v -28 -25 0
v -29 -26 0
v -30 -26 0
v -30 -25 0
v -29 -25 0
v -23 -27 0
v -24 -27 0
v -24 -26 0
v -23 -26 0
v -24 -27 0
v -25 -27 0
v -25 -26 0
v -24 -26 0
v -25 -27 0
v -26 -27 0
v -26 -26 0
v -25 -26 0
v -26 -27 0
v -27 -27 0
v -27 -26 0
v -26 -26 0
v -27 -27 0
v -28 -27 0
v -28 -26 0
v -27 -26 0
v -28 -27 0
v -29 -27 0
v -29 -26 0
v -28 -26 0
v -29 -27 0
v -30 -27 0
v -30 -26 0
v -29 -26 0
v -15 -33 0
v -16 -33 0
v -16 -32 0
v -15 -32 0
v -16 -33 0
v -17 -33 0
v -17 -32 0
v -16 -32 0
v -17 -33 0
v -18 -33 0
v -18 -32 0
v -17 -32 0
v -18 -33 0
v -19 -33 0
v -19 -32 0
v -18 -32 0
v -19 -33 0
v -20 -33 0
v -20 -32 0
v -19 -32 0
v -20 -33 0
v -21 -33 0
v -21 -32 0
v -20 -32 0
v -21 -33 0
v -22 -33 0
v -22 -32 0
v -21 -32 0
v -22 -33 0
v -23 -33 0
v -23 -32 0
v -22 -32 0
v -23 -33 0
v -24 -33 0
v -24 -32 0
v -23 -32 0
v -24 -33 0
v -25 -33 0
v -25 -32 0
v -24 -32 0
v -25 -33 0
v -26 -33 0
v -26 -32 0
v -25 -32 0
v -26 -33 0
v -27 -33 0
v -27 -32 0
v -26 -32 0
v -27 -33 0
v -28 -33 0
v -28 -32 0
v -27 -32 0
v -28 -33 0
v -29 -33 0
v -29 -32 0
v -28 -32 0
v -29 -33 0
v -30 -33 0
v -30 -32 0
v -29 -32 0
v -30 -33 0
v -31 -33 0
v -31 -32 0
v -30 -32 0
v -31 -33 0
v -32 -33 0
v -32 -32 0
v -31 -32 0
v -32 -33 0
v -33 -33 0
v -33 -32 0
v -32 -32 0
v -33 -33 0
v -34 -33 0
v -34 -32 0
v -33 -32 0
v -34 -33 0
v -35 -33 0
v -35 -32 0
v -34 -32 0
v -35 -33 0
v -36 -33 0
v -36 -32 0
v -35 -32 0
v -15 -34 0
v -16 -34 0
v -16 -33 0
v -15 -33 0
v -16 -34 0
v -17 -34 0
v -17 -33 0
v -16 -33 0
v -17 -34 0
v -18 -34 0
v -18 -33 0
v -17 -33 0
v -18 -34 0
v -19 -34 0
v -19 -33 0
v -18 -33 0
v -19 -34 0
v -20 -34 0
v -20 -33 0
v -19 -33 0
v -20 -34 0
v -21 -34 0
v -21 -33 0
v -20 -33 0
v -21 -34 0
v -22 -34 0
v -22 -33 0
v -21 -33 0
v -22 -34 0
v -23 -34 0
v -23 -33 0
v -22 -33 0
v -23 -34 0
v -24 -34 0
v -24 -33 0
v -23 -33 0
v -24 -34 0
v -25 -34 0
v -25 -33 0
v -24 -33 0
v -25 -34 0
v -26 -34 0
v -26 -33 0
v -25 -33 0
v -26 -34 0
v -27 -34 0
v -27 -33 0
v -26 -33 0
v -27 -34 0
v -28 -34 0
v -28 -33 0
v -27 -33 0
v -28 -34 0
v -29 -34 0
v -29 -33 0
v -28 -33 0
v -29 -34 0
v -30 -34 0
v -30 -33 0
v -29 -33 0
v -30 -34 0
v -31 -34 0
v -31 -33 0
v -30 -33 0
v -31 -34 0
v -32 -34 0
v -32 -33 0
v -31 -33 0
v -32 -34 0
v -33 -34 0
v -33 -33 0
v -32 -33 0
v -33 -34 0
v -34 -34 0
v -34 -33 0
v -33 -33 0
v -34 -34 0
v -35 -34 0
v -35 -33 0
v -34 -33 0
v -35 -34 0
v -36 -34 0
v -36 -33 0
v -35 -33 0
v -15 -35 0
v -16 -35 0
v -16 -34 0
v -15 -34 0
v -16 -35 0
v -17 -35 0
v -17 -34 0
v -16 -34 0
v -17 -35 0
v -18 -35 0
v -18 -34 0
v -17 -34 0
v -18 -35 0
v -19 -35 0
v -19 -34 0
v -18 -34 0
v -19 -35 0
v -20 -35 0
v -20 -34 0
v -19 -34 0
v -20 -35 0
v -21 -35 0
v -21 -34 0
v -20 -34 0
v -21 -35 0
v -22 -35 0
v -22 -34 0
v -21 -34 0
v -22 -35 0
v -23 -35 0
v -23 -34 0
v -22 -34 0
v -23 -35 0
v -24 -35 0
v -24 -34 0
v -23 -34 0
v -24 -35 0
v -25 -35 0
v -25 -34 0
v -24 -34 0
v -25 -35 0
v -26 -35 0
v -26 -34 0
v -25 -34 0
v -26 -35 0
v -27 -35 0
v -27 -34 0
v -26 -34 0
v -27 -35 0
v -28 -35 0
v -28 -34 0
v -27 -34 0
v -28 -35 0
v -29 -35 0
v -29 -34 0
v -28 -34 0
v -29 -35 0
v -30 -35 0
v -30 -34 0
v -29 -34 0
v -30 -35 0
v -31 -35 0
v -31 -34 0
v -30 -34 0
v -31 -35 0
v -32 -35 0
v -32 -34 0
v -31 -34 0
v -32 -35 0
v -33 -35 0
v -33 -34 0
v -32 -34 0
v -33 -35 0
v -34 -35 0
v -34 -34 0
v -33 -34 0
v -34 -35 0
v -35 -35 0
v -35 -34 0
v -34 -34 0
v -35 -35 0
v -36 -35 0
v -36 -34 0
v -35 -34 0
v -15 -36 0
v -16 -36 0
v -16 -35 0
v -15 -35 0
v -16 -36 0
v -17 -36 0
v -17 -35 0
v -16 -35 0
v -17 -36 0
v -18 -36 0
v -18 -35 0
v -17 -35 0
v -18 -36 0
v -19 -36 0
v -19 -35 0
v -18 -35 0
v -19 -36 0
v -20 -36 0
v -20 -35 0
v -19 -35 0
v -20 -36 0
v -21 -36 0
v -21 -35 0
v -20 -35 0
v -21 -36 0
v -22 -36 0
v -22 -35 0
v -21 -35 0
v -22 -36 0
v -23 -36 0
v -23 -35 0
v -22 -35 0
v -23 -36 0
v -24 -36 0
v -24 -35 0
v -23 -35 0
v -24 -36 0
v -25 -36 0
v -25 -35 0
v -24 -35 0
v -25 -36 0
v -26 -36 0
v -26 -35 0
v -25 -35 0
v -26 -36 0
v -27 -36 0
v -27 -35 0
v -26 -35 0
v -27 -36 0
v -28 -36 0
v -28 -35 0
v -27 -35 0
v -28 -36 0
v -29 -36 0
v -29 -35 0
v -28 -35 0
v -29 -36 0
v -30 -36 0
v -30 -35 0
v -29 -35 0
v -30 -36 0
v -31 -36 0
v -31 -35 0
v -30 -35 0
v -31 -36 0
v -32 -36 0
v -32 -35 0
v -31 -35 0
v -32 -36 0
v -33 -36 0
v -33 -35 0
v -32 -35 0
v -33 -36 0
v -34 -36 0
v -34 -35 0
v -33 -35 0
v -34 -36 0
v -35 -36 0
v -35 -35 0
v -34 -35 0
v -35 -36 0
v -36 -36 0
v -36 -35 0
v -35 -35 0
v -15 -37 0
v -16 -37 0
v -16 -36 0
v -15 -36 0
v -16 -37 0
v -17 -37 0
v -17 -36 0
v -16 -36 0
v -17 -37 0
v -18 -37 0
v -18 -36 0
v -17 -36 0
v -18 -37 0
v -19 -37 0
v -19 -36 0
v -18 -36 0
v -19 -37 0
v -20 -37 0
v -20 -36 0
v -19 -36 0
v -20 -37 0
v -21 -37 0
v -21 -36 0
v -20 -36 0
v -21 -37 0
v -22 -37 0
v -22 -36 0
v -21 -36 0
v -22 -37 0
v -23 -37 0
v -23 -36 0
v -22 -36 0
v -23 -37 0
v -24 -37 0
v -24 -36 0
v -23 -36 0
v -24 -37 0
v -25 -37 0
v -25 -36 0
v -24 -36 0
v -25 -37 0
v -26 -37 0
v -26 -36 0
v -25 -36 0
v -26 -37 0
v -27 -37 0
v -27 -36 0
v -26 -36 0
v -27 -37 0
v -28 -37 0
v -28 -36 0
v -27 -36 0
v -28 -37 0
v -29 -37 0
v -29 -36 0
v -28 -36 0
v -29 -37 0
v -30 -37 0
v -30 -36 0
v -29 -36 0
v -30 -37 0
v -31 -37 0
v -31 -36 0
v -30 -36 0
v -31 -37 0
v -32 -37 0
v -32 -36 0
v -31 -36 0
v -32 -37 0
v -33 -37 0
v -33 -36 0
v -32 -36 0
v -33 -37 0
v -34 -37 0
v -34 -36 0
v -33 -36 0
v -34 -37 0
v -35 -37 0
v -35 -36 0
v -34 -36 0
v -35 -37 0
v -36 -37 0
v -36 -36 0
v -35 -36 0
v -15 -38 0
v -16 -38 0
v -16 -37 0
v -15 -37 0
v -16 -38 0
v -17 -38 0
v -17 -37 0
v -16 -37 0
v -17 -38 0
v -18 -38 0
v -18 -37 0
v -17 -37 0
v -18 -38 0
v -19 -38 0
v -19 -37 0
v -18 -37 0
v -19 -38 0
v -20 -38 0
v -20 -37 0
v -19 -37 0
v -20 -38 0
v -21 -38 0
v -21 -37 0
v -20 -37 0
v -21 -38 0
v -22 -38 0
v -22 -37 0
v -21 -37 0
v -22 -38 0
v -23 -38 0
v -23 -37 0
v -22 -37 0
v -23 -38 0
v -24 -38 0
v -24 -37 0
v -23 -37 0
v -24 -38 0
v -25 -38 0
v -25 -37 0
v -24 -37 0
v -25 -38 0
v -26 -38 0
v -26 -37 0
v -25 -37 0
v -26 -38 0
v -27 -38 0
v -27 -37 0
v -26 -37 0
v -27 -38 0
v -28 -38 0
v -28 -37 0
v -27 -37 0
v -28 -38 0
v -29 -38 0
v -29 -37 0
v -28 -37 0
v -29 -38 0
v -30 -38 0
v -30 -37 0
v -29 -37 0
v -30 -38 0
v -31 -38 0
v -31 -37 0
v -30 -37 0
v -31 -38 0
v -32 -38 0
v -32 -37 0
v -31 -37 0
v -32 -38 0
v -33 -38 0
v -33 -37 0
v -32 -37 0
v -33 -38 0
v -34 -38 0
v -34 -37 0
v -33 -37 0
v -34 -38 0
v -35 -38 0
v -35 -37 0
v -34 -37 0
v -35 -38 0
v -36 -38 0
v -36 -37 0
v -35 -37 0

# Texture cooridinates (Count = 61)
vt 0 0.3125
vt 0.0625 0.3125
vt 0.0625 0.375
vt 0 0.375
vt 0 0.25
vt 0.0625 0.25
vt 0.25 0.3125
vt 0.3125 0.3125
vt 0.3125 0.375
vt 0.25 0.375
vt 0.25 0.25
vt 0.3125 0.25
vt 0 0.625
vt 0.0625 0.625
vt 0.0625 0.6875
vt 0 0.6875
vt 0 0.5625
vt 0.0625 0.5625
vt 0 0.8125
vt 0.0625 0.8125
vt 0.0625 0.875
vt 0 0.875
vt 0.125 0.8125
vt 0.125 0.875
vt 0.1875 0.8125
vt 0.1875 0.875
vt 0 0.75
vt 0.0625 0.75
vt 0.125 0.75
vt 0.1875 0.75
vt 0.125 0.6875
vt 0.1875 0.6875
vt 0.25 0.8125
vt 0.25 0.875
vt 0.3125 0.8125
vt 0.3125 0.875
vt 0.375 0.8125
vt 0.375 0.875
vt 0.125 0.625
vt 0.1875 0.625
vt 0.25 0.75
vt 0.3125 0.75
vt 0.375 0.75
vt 0.125 0.5625
vt 0.1875 0.5625
vt 0.25 0.5
vt 0.3125 0.5
vt 0.3125 0.5625
vt 0.25 0.5625
vt 0.25 0.4375
vt 0.3125 0.4375
vt 0.125 0.375
vt 0.125 0.4375
vt 0.0625 0.4375
vt 0.1875 0.375
vt 0.1875 0.4375
vt 0.125 0.3125
vt 0.1875 0.3125
vt 0.25 0.6875
vt 0.3125 0.6875
vt 0.375 0.6875

# Normal
vn 0 0 -1

# Mesh description
g MapFloor1_4_mesh_0021

# Faces
f 1/1/1 2/2/1 3/3/1 4/4/1
f 5/5/1 6/6/1 7/2/1 8/1/1
f 9/7/1 10/8/1 11/9/1 12/10/1
f 13/11/1 14/12/1 15/8/1 16/7/1
f 17/13/1 18/14/1 19/15/1 20/16/1
f 21/13/1 22/14/1 23/15/1 24/16/1
f 25/13/1 26/14/1 27/15/1 28/16/1
f 29/17/1 30/18/1 31/14/1 32/13/1
f 33/17/1 34/18/1 35/14/1 36/13/1
f 37/17/1 38/18/1 39/14/1 40/13/1
f 41/19/1 42/20/1 43/21/1 44/22/1
f 45/20/1 46/23/1 47/24/1 48/21/1
f 49/20/1 50/23/1 51/24/1 52/21/1
f 53/20/1 54/23/1 55/24/1 56/21/1
f 57/20/1 58/23/1 59/24/1 60/21/1
f 61/20/1 62/23/1 63/24/1 64/21/1
f 65/20/1 66/23/1 67/24/1 68/21/1
f 69/20/1 70/23/1 71/24/1 72/21/1
f 73/20/1 74/23/1 75/24/1 76/21/1
f 77/23/1 78/25/1 79/26/1 80/24/1
f 81/27/1 82/28/1 83/20/1 84/19/1
f 85/28/1 86/29/1 87/23/1 88/20/1
f 89/28/1 90/29/1 91/23/1 92/20/1
f 93/28/1 94/29/1 95/23/1 96/20/1
f 97/28/1 98/29/1 99/23/1 100/20/1
f 101/28/1 102/29/1 103/23/1 104/20/1
f 105/28/1 106/29/1 107/23/1 108/20/1
f 109/28/1 110/29/1 111/23/1 112/20/1
f 113/28/1 114/29/1 115/23/1 116/20/1
f 117/29/1 118/30/1 119/25/1 120/23/1
f 121/16/1 122/15/1 123/28/1 124/27/1
f 125/15/1 126/31/1 127/29/1 128/28/1
f 129/15/1 130/31/1 131/29/1 132/28/1
f 133/15/1 134/31/1 135/29/1 136/28/1
f 137/15/1 138/31/1 139/29/1 140/28/1
f 141/15/1 142/31/1 143/29/1 144/28/1
f 145/15/1 146/31/1 147/29/1 148/28/1
f 149/15/1 150/31/1 151/29/1 152/28/1
f 153/15/1 154/31/1 155/29/1 156/28/1
f 157/31/1 158/32/1 159/30/1 160/29/1
f 161/25/1 162/33/1 163/34/1 164/26/1
f 165/33/1 166/35/1 167/36/1 168/34/1
f 169/33/1 170/35/1 171/36/1 172/34/1
f 173/33/1 174/35/1 175/36/1 176/34/1
f 177/33/1 178/35/1 179/36/1 180/34/1
f 181/33/1 182/35/1 183/36/1 184/34/1
f 185/35/1 186/37/1 187/38/1 188/36/1
f 189/39/1 190/40/1 191/32/1 192/31/1
f 193/30/1 194/41/1 195/33/1 196/25/1
f 197/41/1 198/42/1 199/35/1 200/33/1
f 201/41/1 202/42/1 203/35/1 204/33/1
f 205/41/1 206/42/1 207/35/1 208/33/1
f 209/41/1 210/42/1 211/35/1 212/33/1
f 213/41/1 214/42/1 215/35/1 216/33/1
f 217/42/1 218/43/1 219/37/1 220/35/1
f 221/44/1 222/45/1 223/40/1 224/39/1
f 225/30/1 226/41/1 227/33/1 228/25/1
f 229/41/1 230/42/1 231/35/1 232/33/1
f 233/41/1 234/42/1 235/35/1 236/33/1
f 237/41/1 238/42/1 239/35/1 240/33/1
f 241/41/1 242/42/1 243/35/1 244/33/1
f 245/41/1 246/42/1 247/35/1 248/33/1
f 249/42/1 250/43/1 251/37/1 252/35/1
f 253/46/1 254/47/1 255/48/1 256/49/1
f 257/39/1 258/40/1 259/32/1 260/31/1
f 261/30/1 262/41/1 263/33/1 264/25/1
f 265/41/1 266/42/1 267/35/1 268/33/1
f 269/41/1 270/42/1 271/35/1 272/33/1
f 273/41/1 274/42/1 275/35/1 276/33/1
f 277/41/1 278/42/1 279/35/1 280/33/1
f 281/41/1 282/42/1 283/35/1 284/33/1
f 285/42/1 286/43/1 287/37/1 288/35/1
f 289/50/1 290/51/1 291/47/1 292/46/1
f 293/44/1 294/45/1 295/40/1 296/39/1
f 297/30/1 298/41/1 299/33/1 300/25/1
f 301/41/1 302/42/1 303/35/1 304/33/1
f 305/41/1 306/42/1 307/35/1 308/33/1
f 309/41/1 310/42/1 311/35/1 312/33/1
f 313/41/1 314/42/1 315/35/1 316/33/1
f 317/41/1 318/42/1 319/35/1 320/33/1
f 321/42/1 322/43/1 323/37/1 324/35/1
f 325/10/1 326/9/1 327/51/1 328/50/1
f 329/30/1 330/41/1 331/33/1 332/25/1
f 333/41/1 334/42/1 335/35/1 336/33/1
f 337/41/1 338/42/1 339/35/1 340/33/1
f 341/41/1 342/42/1 343/35/1 344/33/1
f 345/41/1 346/42/1 347/35/1 348/33/1
f 349/41/1 350/42/1 351/35/1 352/33/1
f 353/42/1 354/43/1 355/37/1 356/35/1
f 357/3/1 358/52/1 359/53/1 360/54/1
f 361/52/1 362/55/1 363/56/1 364/53/1
f 365/52/1 366/55/1 367/56/1 368/53/1
f 369/52/1 370/55/1 371/56/1 372/53/1
f 373/52/1 374/55/1 375/56/1 376/53/1
f 377/52/1 378/55/1 379/56/1 380/53/1
f 381/55/1 382/10/1 383/50/1 384/56/1
f 385/2/1 386/57/1 387/52/1 388/3/1
f 389/57/1 390/58/1 391/55/1 392/52/1
f 393/57/1 394/58/1 395/55/1 396/52/1
f 397/57/1 398/58/1 399/55/1 400/52/1
f 401/57/1 402/58/1 403/55/1 404/52/1
f 405/57/1 406/58/1 407/55/1 408/52/1
f 409/58/1 410/7/1 411/10/1 412/55/1
f 413/25/1 414/33/1 415/34/1 416/26/1
f 417/33/1 418/35/1 419/36/1 420/34/1
f 421/33/1 422/35/1 423/36/1 424/34/1
f 425/33/1 426/35/1 427/36/1 428/34/1
f 429/33/1 430/35/1 431/36/1 432/34/1
f 433/33/1 434/35/1 435/36/1 436/34/1
f 437/33/1 438/35/1 439/36/1 440/34/1
f 441/33/1 442/35/1 443/36/1 444/34/1
f 445/33/1 446/35/1 447/36/1 448/34/1
f 449/33/1 450/35/1 451/36/1 452/34/1
f 453/33/1 454/35/1 455/36/1 456/34/1
f 457/33/1 458/35/1 459/36/1 460/34/1
f 461/33/1 462/35/1 463/36/1 464/34/1
f 465/33/1 466/35/1 467/36/1 468/34/1
f 469/33/1 470/35/1 471/36/1 472/34/1
f 473/33/1 474/35/1 475/36/1 476/34/1
f 477/33/1 478/35/1 479/36/1 480/34/1
f 481/33/1 482/35/1 483/36/1 484/34/1
f 485/33/1 486/35/1 487/36/1 488/34/1
f 489/33/1 490/35/1 491/36/1 492/34/1
f 493/35/1 494/37/1 495/38/1 496/36/1
f 497/30/1 498/41/1 499/33/1 500/25/1
f 501/41/1 502/42/1 503/35/1 504/33/1
f 505/41/1 506/42/1 507/35/1 508/33/1
f 509/41/1 510/42/1 511/35/1 512/33/1
f 513/41/1 514/42/1 515/35/1 516/33/1
f 517/41/1 518/42/1 519/35/1 520/33/1
f 521/41/1 522/42/1 523/35/1 524/33/1
f 525/41/1 526/42/1 527/35/1 528/33/1
f 529/41/1 530/42/1 531/35/1 532/33/1
f 533/41/1 534/42/1 535/35/1 536/33/1
f 537/41/1 538/42/1 539/35/1 540/33/1
f 541/41/1 542/42/1 543/35/1 544/33/1
f 545/41/1 546/42/1 547/35/1 548/33/1
f 549/41/1 550/42/1 551/35/1 552/33/1
f 553/41/1 554/42/1 555/35/1 556/33/1
f 557/41/1 558/42/1 559/35/1 560/33/1
f 561/41/1 562/42/1 563/35/1 564/33/1
f 565/41/1 566/42/1 567/35/1 568/33/1
f 569/41/1 570/42/1 571/35/1 572/33/1
f 573/41/1 574/42/1 575/35/1 576/33/1
f 577/42/1 578/43/1 579/37/1 580/35/1
f 581/30/1 582/41/1 583/33/1 584/25/1
f 585/41/1 586/42/1 587/35/1 588/33/1
f 589/41/1 590/42/1 591/35/1 592/33/1
f 593/41/1 594/42/1 595/35/1 596/33/1
f 597/41/1 598/42/1 599/35/1 600/33/1
f 601/41/1 602/42/1 603/35/1 604/33/1
f 605/41/1 606/42/1 607/35/1 608/33/1
f 609/41/1 610/42/1 611/35/1 612/33/1
f 613/41/1 614/42/1 615/35/1 616/33/1
f 617/41/1 618/42/1 619/35/1 620/33/1
f 621/41/1 622/42/1 623/35/1 624/33/1
f 625/41/1 626/42/1 627/35/1 628/33/1
f 629/41/1 630/42/1 631/35/1 632/33/1
f 633/41/1 634/42/1 635/35/1 636/33/1
f 637/41/1 638/42/1 639/35/1 640/33/1
f 641/41/1 642/42/1 643/35/1 644/33/1
f 645/41/1 646/42/1 647/35/1 648/33/1
f 649/41/1 650/42/1 651/35/1 652/33/1
f 653/41/1 654/42/1 655/35/1 656/33/1
f 657/41/1 658/42/1 659/35/1 660/33/1
f 661/42/1 662/43/1 663/37/1 664/35/1
f 665/30/1 666/41/1 667/33/1 668/25/1
f 669/41/1 670/42/1 671/35/1 672/33/1
f 673/41/1 674/42/1 675/35/1 676/33/1
f 677/41/1 678/42/1 679/35/1 680/33/1
f 681/41/1 682/42/1 683/35/1 684/33/1
f 685/41/1 686/42/1 687/35/1 688/33/1
f 689/41/1 690/42/1 691/35/1 692/33/1
f 693/41/1 694/42/1 695/35/1 696/33/1
f 697/41/1 698/42/1 699/35/1 700/33/1
f 701/41/1 702/42/1 703/35/1 704/33/1
f 705/41/1 706/42/1 707/35/1 708/33/1
f 709/41/1 710/42/1 711/35/1 712/33/1
f 713/41/1 714/42/1 715/35/1 716/33/1
f 717/41/1 718/42/1 719/35/1 720/33/1
f 721/41/1 722/42/1 723/35/1 724/33/1
f 725/41/1 726/42/1 727/35/1 728/33/1
f 729/41/1 730/42/1 731/35/1 732/33/1
f 733/41/1 734/42/1 735/35/1 736/33/1
f 737/41/1 738/42/1 739/35/1 740/33/1
f 741/41/1 742/42/1 743/35/1 744/33/1
f 745/42/1 746/43/1 747/37/1 748/35/1
f 749/30/1 750/41/1 751/33/1 752/25/1
f 753/41/1 754/42/1 755/35/1 756/33/1
f 757/41/1 758/42/1 759/35/1 760/33/1
f 761/41/1 762/42/1 763/35/1 764/33/1
f 765/41/1 766/42/1 767/35/1 768/33/1
f 769/41/1 770/42/1 771/35/1 772/33/1
f 773/41/1 774/42/1 775/35/1 776/33/1
f 777/41/1 778/42/1 779/35/1 780/33/1
f 781/41/1 782/42/1 783/35/1 784/33/1
f 785/41/1 786/42/1 787/35/1 788/33/1
f 789/41/1 790/42/1 791/35/1 792/33/1
f 793/41/1 794/42/1 795/35/1 796/33/1
f 797/41/1 798/42/1 799/35/1 800/33/1
f 801/41/1 802/42/1 803/35/1 804/33/1
f 805/41/1 806/42/1 807/35/1 808/33/1
f 809/41/1 810/42/1 811/35/1 812/33/1
f 813/41/1 814/42/1 815/35/1 816/33/1
f 817/41/1 818/42/1 819/35/1 820/33/1
f 821/41/1 822/42/1 823/35/1 824/33/1
f 825/41/1 826/42/1 827/35/1 828/33/1
f 829/42/1 830/43/1 831/37/1 832/35/1
f 833/32/1 834/59/1 835/41/1 836/30/1
f 837/59/1 838/60/1 839/42/1 840/41/1
f 841/59/1 842/60/1 843/42/1 844/41/1
f 845/59/1 846/60/1 847/42/1 848/41/1
f 849/59/1 850/60/1 851/42/1 852/41/1
f 853/59/1 854/60/1 855/42/1 856/41/1
f 857/59/1 858/60/1 859/42/1 860/41/1
f 861/59/1 862/60/1 863/42/1 864/41/1
f 865/59/1 866/60/1 867/42/1 868/41/1
f 869/59/1 870/60/1 871/42/1 872/41/1
f 873/59/1 874/60/1 875/42/1 876/41/1
f 877/59/1 878/60/1 879/42/1 880/41/1
f 881/59/1 882/60/1 883/42/1 884/41/1
f 885/59/1 886/60/1 887/42/1 888/41/1
f 889/59/1 890/60/1 891/42/1 892/41/1
f 893/59/1 894/60/1 895/42/1 896/41/1
f 897/59/1 898/60/1 899/42/1 900/41/1
f 901/59/1 902/60/1 903/42/1 904/41/1
f 905/59/1 906/60/1 907/42/1 908/41/1
f 909/59/1 910/60/1 911/42/1 912/41/1
f 913/60/1 914/61/1 915/43/1 916/42/1

