# Tiled2Unity generated file. Do not modify by hand.
# Wavefront file for 'SmallMap2_mesh_0021.obj'

# Vertices (Count = 24)
v -11 -27 0
v -12.5 -27 0
v -12.5 -25.5 0
v -11 -25.5 0
v -12 -27 0
v -13.5 -27 0
v -13.5 -25.5 0
v -12 -25.5 0
v -13 -27 0
v -14.5 -27 0
v -14.5 -25.5 0
v -13 -25.5 0
v -17 -27 0
v -18.5 -27 0
v -18.5 -25.5 0
v -17 -25.5 0
v -18 -27 0
v -19.5 -27 0
v -19.5 -25.5 0
v -18 -25.5 0
v -19 -27 0
v -20.5 -27 0
v -20.5 -25.5 0
v -19 -25.5 0

# Texture cooridinates (Count = 8)
vt 0 0.8125
vt 0.0625 0.8125
vt 0.0625 0.875
vt 0 0.875
vt 0.125 0.8125
vt 0.125 0.875
vt 0.1875 0.8125
vt 0.1875 0.875

# Normal
vn 0 0 -1

# Mesh description
g SmallMap2_mesh_0021

# Faces
f 1/1/1 2/2/1 3/3/1 4/4/1
f 5/2/1 6/5/1 7/6/1 8/3/1
f 9/5/1 10/7/1 11/8/1 12/6/1
f 13/1/1 14/2/1 15/3/1 16/4/1
f 17/2/1 18/5/1 19/6/1 20/3/1
f 21/5/1 22/7/1 23/8/1 24/6/1

