# Tiled2Unity generated file. Do not modify by hand.
# Wavefront file for 'SmallMap2_mesh_0024.obj'

# Vertices (Count = 8)
v -12 -27 0
v -13 -27 0
v -13 -26 0
v -12 -26 0
v -13 -27 0
v -14 -27 0
v -14 -26 0
v -13 -26 0

# Texture cooridinates (Count = 8)
vt 0.125 0.8333333
vt 0.25 0.8333333
vt 0.25 1
vt 0.125 1
vt 0.625 0.6666666
vt 0.75 0.6666666
vt 0.75 0.8333333
vt 0.625 0.8333333

# Normal
vn 0 0 -1

# Mesh description
g SmallMap2_mesh_0024

# Faces
f 1/1/1 2/2/1 3/3/1 4/4/1
f 5/5/1 6/6/1 7/7/1 8/8/1

