# Tiled2Unity generated file. Do not modify by hand.
# Wavefront file for 'SmallMap2_mesh_0001.obj'

# Vertices (Count = 296)
v -2 -4 0
v -3 -4 0
v -3 -3 0
v -2 -3 0
v -3 -4 0
v -4 -4 0
v -4 -3 0
v -3 -3 0
v -4 -4 0
v -5 -4 0
v -5 -3 0
v -4 -3 0
v -5 -4 0
v -6 -4 0
v -6 -3 0
v -5 -3 0
v -6 -4 0
v -7 -4 0
v -7 -3 0
v -6 -3 0
v -7 -4 0
v -8 -4 0
v -8 -3 0
v -7 -3 0
v -8 -4 0
v -9 -4 0
v -9 -3 0
v -8 -3 0
v -9 -4 0
v -10 -4 0
v -10 -3 0
v -9 -3 0
v -2 -5 0
v -3 -5 0
v -3 -4 0
v -2 -4 0
v -3 -5 0
v -4 -5 0
v -4 -4 0
v -3 -4 0
v -4 -5 0
v -5 -5 0
v -5 -4 0
v -4 -4 0
v -5 -5 0
v -6 -5 0
v -6 -4 0
v -5 -4 0
v -6 -5 0
v -7 -5 0
v -7 -4 0
v -6 -4 0
v -7 -5 0
v -8 -5 0
v -8 -4 0
v -7 -4 0
v -8 -5 0
v -9 -5 0
v -9 -4 0
v -8 -4 0
v -9 -5 0
v -10 -5 0
v -10 -4 0
v -9 -4 0
v -2 -6 0
v -3 -6 0
v -3 -5 0
v -2 -5 0
v -3 -6 0
v -4 -6 0
v -4 -5 0
v -3 -5 0
v -4 -6 0
v -5 -6 0
v -5 -5 0
v -4 -5 0
v -5 -6 0
v -6 -6 0
v -6 -5 0
v -5 -5 0
v -6 -6 0
v -7 -6 0
v -7 -5 0
v -6 -5 0
v -7 -6 0
v -8 -6 0
v -8 -5 0
v -7 -5 0
v -8 -6 0
v -9 -6 0
v -9 -5 0
v -8 -5 0
v -9 -6 0
v -10 -6 0
v -10 -5 0
v -9 -5 0
v -2 -7 0
v -3 -7 0
v -3 -6 0
v -2 -6 0
v -3 -7 0
v -4 -7 0
v -4 -6 0
v -3 -6 0
v -4 -7 0
v -5 -7 0
v -5 -6 0
v -4 -6 0
v -5 -7 0
v -6 -7 0
v -6 -6 0
v -5 -6 0
v -6 -7 0
v -7 -7 0
v -7 -6 0
v -6 -6 0
v -7 -7 0
v -8 -7 0
v -8 -6 0
v -7 -6 0
v -8 -7 0
v -9 -7 0
v -9 -6 0
v -8 -6 0
v -9 -7 0
v -10 -7 0
v -10 -6 0
v -9 -6 0
v -2 -8 0
v -3 -8 0
v -3 -7 0
v -2 -7 0
v -3 -8 0
v -4 -8 0
v -4 -7 0
v -3 -7 0
v -4 -8 0
v -5 -8 0
v -5 -7 0
v -4 -7 0
v -5 -8 0
v -6 -8 0
v -6 -7 0
v -5 -7 0
v -6 -8 0
v -7 -8 0
v -7 -7 0
v -6 -7 0
v -7 -8 0
v -8 -8 0
v -8 -7 0
v -7 -7 0
v -8 -8 0
v -9 -8 0
v -9 -7 0
v -8 -7 0
v -9 -8 0
v -10 -8 0
v -10 -7 0
v -9 -7 0
v -2 -9 0
v -3 -9 0
v -3 -8 0
v -2 -8 0
v -3 -9 0
v -4 -9 0
v -4 -8 0
v -3 -8 0
v -4 -9 0
v -5 -9 0
v -5 -8 0
v -4 -8 0
v -5 -9 0
v -6 -9 0
v -6 -8 0
v -5 -8 0
v -6 -9 0
v -7 -9 0
v -7 -8 0
v -6 -8 0
v -7 -9 0
v -8 -9 0
v -8 -8 0
v -7 -8 0
v -8 -9 0
v -9 -9 0
v -9 -8 0
v -8 -8 0
v -9 -9 0
v -10 -9 0
v -10 -8 0
v -9 -8 0
v -2 -10 0
v -3 -10 0
v -3 -9 0
v -2 -9 0
v -3 -10 0
v -4 -10 0
v -4 -9 0
v -3 -9 0
v -4 -10 0
v -5 -10 0
v -5 -9 0
v -4 -9 0
v -5 -10 0
v -6 -10 0
v -6 -9 0
v -5 -9 0
v -6 -10 0
v -7 -10 0
v -7 -9 0
v -6 -9 0
v -7 -10 0
v -8 -10 0
v -8 -9 0
v -7 -9 0
v -8 -10 0
v -9 -10 0
v -9 -9 0
v -8 -9 0
v -9 -10 0
v -10 -10 0
v -10 -9 0
v -9 -9 0
v -2 -11 0
v -3 -11 0
v -3 -10 0
v -2 -10 0
v -3 -11 0
v -4 -11 0
v -4 -10 0
v -3 -10 0
v -4 -11 0
v -5 -11 0
v -5 -10 0
v -4 -10 0
v -5 -11 0
v -6 -11 0
v -6 -10 0
v -5 -10 0
v -6 -11 0
v -7 -11 0
v -7 -10 0
v -6 -10 0
v -7 -11 0
v -8 -11 0
v -8 -10 0
v -7 -10 0
v -8 -11 0
v -9 -11 0
v -9 -10 0
v -8 -10 0
v -9 -11 0
v -10 -11 0
v -10 -10 0
v -9 -10 0
v -5 -12 0
v -6 -12 0
v -6 -11 0
v -5 -11 0
v -6 -12 0
v -7 -12 0
v -7 -11 0
v -6 -11 0
v -7 -12 0
v -8 -12 0
v -8 -11 0
v -7 -11 0
v -8 -12 0
v -9 -12 0
v -9 -11 0
v -8 -11 0
v -5 -13 0
v -6 -13 0
v -6 -12 0
v -5 -12 0
v -6 -13 0
v -7 -13 0
v -7 -12 0
v -6 -12 0
v -7 -13 0
v -8 -13 0
v -8 -12 0
v -7 -12 0
v -8 -13 0
v -9 -13 0
v -9 -12 0
v -8 -12 0
v -6 -14 0
v -7 -14 0
v -7 -13 0
v -6 -13 0
v -7 -14 0
v -8 -14 0
v -8 -13 0
v -7 -13 0

# Texture cooridinates (Count = 13)
vt 0.1 0.6
vt 0.2 0.6
vt 0.2 0.7
vt 0.1 0.7
vt 0.3 0.6
vt 0.3 0.7
vt 0.1 0.5
vt 0.2 0.5
vt 0.2 0.2
vt 0.3 0.2
vt 0.3 0.3
vt 0.2 0.3
vt 0.3 0.5

# Normal
vn 0 0 -1

# Mesh description
g SmallMap2_mesh_0001

# Faces
f 1/1/1 2/2/1 3/3/1 4/4/1
f 5/2/1 6/5/1 7/6/1 8/3/1
f 9/2/1 10/5/1 11/6/1 12/3/1
f 13/2/1 14/5/1 15/6/1 16/3/1
f 17/2/1 18/5/1 19/6/1 20/3/1
f 21/2/1 22/5/1 23/6/1 24/3/1
f 25/2/1 26/5/1 27/6/1 28/3/1
f 29/2/1 30/5/1 31/6/1 32/3/1
f 33/7/1 34/8/1 35/2/1 36/1/1
f 37/9/1 38/10/1 39/11/1 40/12/1
f 41/9/1 42/10/1 43/11/1 44/12/1
f 45/9/1 46/10/1 47/11/1 48/12/1
f 49/9/1 50/10/1 51/11/1 52/12/1
f 53/9/1 54/10/1 55/11/1 56/12/1
f 57/9/1 58/10/1 59/11/1 60/12/1
f 61/8/1 62/13/1 63/5/1 64/2/1
f 65/7/1 66/8/1 67/2/1 68/1/1
f 69/9/1 70/10/1 71/11/1 72/12/1
f 73/9/1 74/10/1 75/11/1 76/12/1
f 77/9/1 78/10/1 79/11/1 80/12/1
f 81/9/1 82/10/1 83/11/1 84/12/1
f 85/9/1 86/10/1 87/11/1 88/12/1
f 89/9/1 90/10/1 91/11/1 92/12/1
f 93/8/1 94/13/1 95/5/1 96/2/1
f 97/7/1 98/8/1 99/2/1 100/1/1
f 101/9/1 102/10/1 103/11/1 104/12/1
f 105/9/1 106/10/1 107/11/1 108/12/1
f 109/9/1 110/10/1 111/11/1 112/12/1
f 113/9/1 114/10/1 115/11/1 116/12/1
f 117/9/1 118/10/1 119/11/1 120/12/1
f 121/9/1 122/10/1 123/11/1 124/12/1
f 125/8/1 126/13/1 127/5/1 128/2/1
f 129/7/1 130/8/1 131/2/1 132/1/1
f 133/9/1 134/10/1 135/11/1 136/12/1
f 137/9/1 138/10/1 139/11/1 140/12/1
f 141/9/1 142/10/1 143/11/1 144/12/1
f 145/9/1 146/10/1 147/11/1 148/12/1
f 149/9/1 150/10/1 151/11/1 152/12/1
f 153/9/1 154/10/1 155/11/1 156/12/1
f 157/8/1 158/13/1 159/5/1 160/2/1
f 161/7/1 162/8/1 163/2/1 164/1/1
f 165/9/1 166/10/1 167/11/1 168/12/1
f 169/9/1 170/10/1 171/11/1 172/12/1
f 173/9/1 174/10/1 175/11/1 176/12/1
f 177/9/1 178/10/1 179/11/1 180/12/1
f 181/9/1 182/10/1 183/11/1 184/12/1
f 185/9/1 186/10/1 187/11/1 188/12/1
f 189/8/1 190/13/1 191/5/1 192/2/1
f 193/7/1 194/8/1 195/2/1 196/1/1
f 197/9/1 198/10/1 199/11/1 200/12/1
f 201/9/1 202/10/1 203/11/1 204/12/1
f 205/9/1 206/10/1 207/11/1 208/12/1
f 209/9/1 210/10/1 211/11/1 212/12/1
f 213/9/1 214/10/1 215/11/1 216/12/1
f 217/9/1 218/10/1 219/11/1 220/12/1
f 221/8/1 222/13/1 223/5/1 224/2/1
f 225/7/1 226/8/1 227/2/1 228/1/1
f 229/8/1 230/13/1 231/5/1 232/2/1
f 233/8/1 234/13/1 235/5/1 236/2/1
f 237/9/1 238/10/1 239/11/1 240/12/1
f 241/9/1 242/10/1 243/11/1 244/12/1
f 245/9/1 246/10/1 247/11/1 248/12/1
f 249/8/1 250/13/1 251/5/1 252/2/1
f 253/8/1 254/13/1 255/5/1 256/2/1
f 257/8/1 258/13/1 259/5/1 260/2/1
f 261/9/1 262/10/1 263/11/1 264/12/1
f 265/9/1 266/10/1 267/11/1 268/12/1
f 269/8/1 270/13/1 271/5/1 272/2/1
f 273/8/1 274/13/1 275/5/1 276/2/1
f 277/8/1 278/13/1 279/5/1 280/2/1
f 281/8/1 282/13/1 283/5/1 284/2/1
f 285/8/1 286/13/1 287/5/1 288/2/1
f 289/8/1 290/13/1 291/5/1 292/2/1
f 293/8/1 294/13/1 295/5/1 296/2/1

