# Tiled2Unity generated file. Do not modify by hand.
# Wavefront file for 'SmallMap2_mesh_0019.obj'

# Vertices (Count = 32)
v -32 -24 0
v -33 -24 0
v -33 -23 0
v -32 -23 0
v -34 -24 0
v -35 -24 0
v -35 -23 0
v -34 -23 0
v -35 -24 0
v -36 -24 0
v -36 -23 0
v -35 -23 0
v -30 -25 0
v -31 -25 0
v -31 -24 0
v -30 -24 0
v -33 -25 0
v -34 -25 0
v -34 -24 0
v -33 -24 0
v -26 -26 0
v -27 -26 0
v -27 -25 0
v -26 -25 0
v -28 -26 0
v -29 -26 0
v -29 -25 0
v -28 -25 0
v -31 -26 0
v -32 -26 0
v -32 -25 0
v -31 -25 0

# Texture cooridinates (Count = 26)
vt 0.125 0.8333333
vt 0.25 0.8333333
vt 0.25 1
vt 0.125 1
vt 0.25 0.1666667
vt 0.375 0.1666667
vt 0.375 0.3333333
vt 0.25 0.3333333
vt 0.25 0.6666666
vt 0.375 0.6666666
vt 0.375 0.8333333
vt 0 0.6666666
vt 0.125 0.6666666
vt 0 0.8333333
vt 0.5 0.8333333
vt 0.5 1
vt 0.375 1
vt 0.375 0.5
vt 0.25 0.5
vt 0 0.1666667
vt 0.125 0.1666667
vt 0.125 0.3333333
vt 0 0.3333333
vt 0.375 0
vt 0.5 0
vt 0.5 0.1666667

# Normal
vn 0 0 -1

# Mesh description
g SmallMap2_mesh_0019

# Faces
f 1/1/1 2/2/1 3/3/1 4/4/1
f 5/5/1 6/6/1 7/7/1 8/8/1
f 9/9/1 10/10/1 11/11/1 12/2/1
f 13/12/1 14/13/1 15/1/1 16/14/1
f 17/11/1 18/15/1 19/16/1 20/17/1
f 21/8/1 22/7/1 23/18/1 24/19/1
f 25/20/1 26/21/1 27/22/1 28/23/1
f 29/24/1 30/25/1 31/26/1 32/6/1

