# Tiled2Unity generated file. Do not modify by hand.
# Wavefront file for 'SmallMap2_mesh_0015.obj'

# Vertices (Count = 356)
v -25 -11 0
v -26 -11 0
v -26 -10 0
v -25 -10 0
v -26 -11 0
v -27 -11 0
v -27 -10 0
v -26 -10 0
v -28 -11 0
v -29 -11 0
v -29 -10 0
v -28 -10 0
v -29 -11 0
v -30 -11 0
v -30 -10 0
v -29 -10 0
v -30 -11 0
v -31 -11 0
v -31 -10 0
v -30 -10 0
v -31 -11 0
v -32 -11 0
v -32 -10 0
v -31 -10 0
v -32 -11 0
v -33 -11 0
v -33 -10 0
v -32 -10 0
v -35 -11 0
v -36 -11 0
v -36 -10 0
v -35 -10 0
v -36 -11 0
v -37 -11 0
v -37 -10 0
v -36 -10 0
v -37 -11 0
v -38 -11 0
v -38 -10 0
v -37 -10 0
v -25 -12 0
v -26 -12 0
v -26 -11 0
v -25 -11 0
v -26 -12 0
v -27 -12 0
v -27 -11 0
v -26 -11 0
v -28 -12 0
v -29 -12 0
v -29 -11 0
v -28 -11 0
v -29 -12 0
v -30 -12 0
v -30 -11 0
v -29 -11 0
v -30 -12 0
v -31 -12 0
v -31 -11 0
v -30 -11 0
v -31 -12 0
v -32 -12 0
v -32 -11 0
v -31 -11 0
v -32 -12 0
v -33 -12 0
v -33 -11 0
v -32 -11 0
v -33 -12 0
v -34 -12 0
v -34 -11 0
v -33 -11 0
v -34 -12 0
v -35 -12 0
v -35 -11 0
v -34 -11 0
v -35 -12 0
v -36 -12 0
v -36 -11 0
v -35 -11 0
v -36 -12 0
v -37 -12 0
v -37 -11 0
v -36 -11 0
v -37 -12 0
v -38 -12 0
v -38 -11 0
v -37 -11 0
v -31 -13 0
v -32 -13 0
v -32 -12 0
v -31 -12 0
v -32 -13 0
v -33 -13 0
v -33 -12 0
v -32 -12 0
v -33 -13 0
v -34 -13 0
v -34 -12 0
v -33 -12 0
v -34 -13 0
v -35 -13 0
v -35 -12 0
v -34 -12 0
v -37 -13 0
v -38 -13 0
v -38 -12 0
v -37 -12 0
v -37 -14 0
v -38 -14 0
v -38 -13 0
v -37 -13 0
v -34 -15 0
v -35 -15 0
v -35 -14 0
v -34 -14 0
v -35 -15 0
v -36 -15 0
v -36 -14 0
v -35 -14 0
v -36 -15 0
v -37 -15 0
v -37 -14 0
v -36 -14 0
v -37 -15 0
v -38 -15 0
v -38 -14 0
v -37 -14 0
v -34 -16 0
v -35 -16 0
v -35 -15 0
v -34 -15 0
v -35 -16 0
v -36 -16 0
v -36 -15 0
v -35 -15 0
v -36 -16 0
v -37 -16 0
v -37 -15 0
v -36 -15 0
v -34 -17 0
v -35 -17 0
v -35 -16 0
v -34 -16 0
v -35 -17 0
v -36 -17 0
v -36 -16 0
v -35 -16 0
v -36 -17 0
v -37 -17 0
v -37 -16 0
v -36 -16 0
v -37 -17 0
v -38 -17 0
v -38 -16 0
v -37 -16 0
v -34 -18 0
v -35 -18 0
v -35 -17 0
v -34 -17 0
v -35 -18 0
v -36 -18 0
v -36 -17 0
v -35 -17 0
v -36 -18 0
v -37 -18 0
v -37 -17 0
v -36 -17 0
v -37 -18 0
v -38 -18 0
v -38 -17 0
v -37 -17 0
v -34 -19 0
v -35 -19 0
v -35 -18 0
v -34 -18 0
v -35 -19 0
v -36 -19 0
v -36 -18 0
v -35 -18 0
v -36 -19 0
v -37 -19 0
v -37 -18 0
v -36 -18 0
v -37 -19 0
v -38 -19 0
v -38 -18 0
v -37 -18 0
v -34 -20 0
v -35 -20 0
v -35 -19 0
v -34 -19 0
v -35 -20 0
v -36 -20 0
v -36 -19 0
v -35 -19 0
v -36 -20 0
v -37 -20 0
v -37 -19 0
v -36 -19 0
v -37 -20 0
v -38 -20 0
v -38 -19 0
v -37 -19 0
v -34 -21 0
v -35 -21 0
v -35 -20 0
v -34 -20 0
v -35 -21 0
v -36 -21 0
v -36 -20 0
v -35 -20 0
v -36 -21 0
v -37 -21 0
v -37 -20 0
v -36 -20 0
v -37 -21 0
v -38 -21 0
v -38 -20 0
v -37 -20 0
v -34 -22 0
v -35 -22 0
v -35 -21 0
v -34 -21 0
v -35 -22 0
v -36 -22 0
v -36 -21 0
v -35 -21 0
v -36 -22 0
v -37 -22 0
v -37 -21 0
v -36 -21 0
v -37 -22 0
v -38 -22 0
v -38 -21 0
v -37 -21 0
v -34 -23 0
v -35 -23 0
v -35 -22 0
v -34 -22 0
v -35 -23 0
v -36 -23 0
v -36 -22 0
v -35 -22 0
v -36 -23 0
v -37 -23 0
v -37 -22 0
v -36 -22 0
v -29 -24 0
v -30 -24 0
v -30 -23 0
v -29 -23 0
v -30 -24 0
v -31 -24 0
v -31 -23 0
v -30 -23 0
v -31 -24 0
v -32 -24 0
v -32 -23 0
v -31 -23 0
v -32 -24 0
v -33 -24 0
v -33 -23 0
v -32 -23 0
v -33 -24 0
v -34 -24 0
v -34 -23 0
v -33 -23 0
v -34 -24 0
v -35 -24 0
v -35 -23 0
v -34 -23 0
v -35 -24 0
v -36 -24 0
v -36 -23 0
v -35 -23 0
v -36 -24 0
v -37 -24 0
v -37 -23 0
v -36 -23 0
v -37 -24 0
v -38 -24 0
v -38 -23 0
v -37 -23 0
v -29 -25 0
v -30 -25 0
v -30 -24 0
v -29 -24 0
v -30 -25 0
v -31 -25 0
v -31 -24 0
v -30 -24 0
v -31 -25 0
v -32 -25 0
v -32 -24 0
v -31 -24 0
v -32 -25 0
v -33 -25 0
v -33 -24 0
v -32 -24 0
v -33 -25 0
v -34 -25 0
v -34 -24 0
v -33 -24 0
v -34 -25 0
v -35 -25 0
v -35 -24 0
v -34 -24 0
v -35 -25 0
v -36 -25 0
v -36 -24 0
v -35 -24 0
v -36 -25 0
v -37 -25 0
v -37 -24 0
v -36 -24 0
v -37 -25 0
v -38 -25 0
v -38 -24 0
v -37 -24 0
v -29 -26 0
v -30 -26 0
v -30 -25 0
v -29 -25 0
v -30 -26 0
v -31 -26 0
v -31 -25 0
v -30 -25 0
v -31 -26 0
v -32 -26 0
v -32 -25 0
v -31 -25 0
v -32 -26 0
v -33 -26 0
v -33 -25 0
v -32 -25 0
v -33 -26 0
v -34 -26 0
v -34 -25 0
v -33 -25 0
v -34 -26 0
v -35 -26 0
v -35 -25 0
v -34 -25 0
v -35 -26 0
v -36 -26 0
v -36 -25 0
v -35 -25 0
v -36 -26 0
v -37 -26 0
v -37 -25 0
v -36 -25 0
v -37 -26 0
v -38 -26 0
v -38 -25 0
v -37 -25 0

# Texture cooridinates (Count = 90)
vt 0.125 0.5535715
vt 0.1875 0.5535715
vt 0.1875 0.5714285
vt 0.125 0.5714285
vt 0.25 0.5535715
vt 0.25 0.5714285
vt 0.3125 0.5535715
vt 0.3125 0.5714285
vt 0.375 0.5535715
vt 0.375 0.5714285
vt 0.4375 0.5535715
vt 0.4375 0.5714285
vt 0.375 0.4464286
vt 0.4375 0.4464286
vt 0.4375 0.4642857
vt 0.375 0.4642857
vt 0.5 0.4464286
vt 0.5 0.4642857
vt 0.125 0.5357143
vt 0.1875 0.5357143
vt 0.25 0.5357143
vt 0.3125 0.5357143
vt 0.375 0.5357143
vt 0.4375 0.5357143
vt 0.375 0.4285714
vt 0.4375 0.4285714
vt 0.5 0.4285714
vt 0.5625 0.4285714
vt 0.5625 0.4464286
vt 0.625 0.4285714
vt 0.625 0.4464286
vt 0.375 0.4107143
vt 0.4375 0.4107143
vt 0.5 0.4107143
vt 0.5625 0.4107143
vt 0.625 0.4107143
vt 0.9375 0.0714286
vt 1 0.0714286
vt 1 0.08928573
vt 0.9375 0.08928573
vt 0.9375 0.0535714
vt 1 0.0535714
vt 0.8125 0.6964285
vt 0.875 0.6964285
vt 0.875 0.7142857
vt 0.8125 0.7142857
vt 0.9375 0.6964285
vt 0.9375 0.7142857
vt 1 0.6964285
vt 1 0.7142857
vt 0.9375 0.03571427
vt 1 0.03571427
vt 0.8125 0.6785715
vt 0.875 0.6785715
vt 0.9375 0.6785715
vt 1 0.6785715
vt 0.8125 0.6607143
vt 0.875 0.6607143
vt 0.9375 0.7321429
vt 0.875 0.7321429
vt 0.9375 0.6607143
vt 1 0.6607143
vt 0.8125 0.6428571
vt 0.875 0.6428571
vt 0.9375 0.6428571
vt 1 0.6428571
vt 0 0.8035715
vt 0.0625 0.8035715
vt 0.0625 0.8214285
vt 0 0.8214285
vt 0.125 0.8035715
vt 0.125 0.8214285
vt 0.25 0.8035715
vt 0.3125 0.8035715
vt 0.3125 0.8214285
vt 0.25 0.8214285
vt 0.1875 0.8035715
vt 0.1875 0.8214285
vt 0 0.7857143
vt 0.0625 0.7857143
vt 0.125 0.7857143
vt 0.25 0.7857143
vt 0.3125 0.7857143
vt 0.1875 0.7857143
vt 0 0.7678571
vt 0.0625 0.7678571
vt 0.125 0.7678571
vt 0.25 0.7678571
vt 0.3125 0.7678571
vt 0.1875 0.7678571

# Normal
vn 0 0 -1

# Mesh description
g SmallMap2_mesh_0015

# Faces
f 1/1/1 2/2/1 3/3/1 4/4/1
f 5/2/1 6/5/1 7/6/1 8/3/1
f 9/5/1 10/7/1 11/8/1 12/6/1
f 13/7/1 14/9/1 15/10/1 16/8/1
f 17/9/1 18/11/1 19/12/1 20/10/1
f 21/13/1 22/14/1 23/15/1 24/16/1
f 25/14/1 26/17/1 27/18/1 28/15/1
f 29/5/1 30/7/1 31/8/1 32/6/1
f 33/7/1 34/9/1 35/10/1 36/8/1
f 37/9/1 38/11/1 39/12/1 40/10/1
f 41/19/1 42/20/1 43/2/1 44/1/1
f 45/20/1 46/21/1 47/5/1 48/2/1
f 49/21/1 50/22/1 51/7/1 52/5/1
f 53/22/1 54/23/1 55/9/1 56/7/1
f 57/23/1 58/24/1 59/11/1 60/9/1
f 61/25/1 62/26/1 63/14/1 64/13/1
f 65/26/1 66/27/1 67/17/1 68/14/1
f 69/27/1 70/28/1 71/29/1 72/17/1
f 73/28/1 74/30/1 75/31/1 76/29/1
f 77/21/1 78/22/1 79/7/1 80/5/1
f 81/22/1 82/23/1 83/9/1 84/7/1
f 85/23/1 86/24/1 87/11/1 88/9/1
f 89/32/1 90/33/1 91/26/1 92/25/1
f 93/33/1 94/34/1 95/27/1 96/26/1
f 97/34/1 98/35/1 99/28/1 100/27/1
f 101/35/1 102/36/1 103/30/1 104/28/1
f 105/37/1 106/38/1 107/39/1 108/40/1
f 109/41/1 110/42/1 111/38/1 112/37/1
f 113/43/1 114/44/1 115/45/1 116/46/1
f 117/44/1 118/47/1 119/48/1 120/45/1
f 121/47/1 122/49/1 123/50/1 124/48/1
f 125/51/1 126/52/1 127/42/1 128/41/1
f 129/53/1 130/54/1 131/44/1 132/43/1
f 133/54/1 134/55/1 135/47/1 136/44/1
f 137/55/1 138/56/1 139/49/1 140/47/1
f 141/57/1 142/58/1 143/54/1 144/53/1
f 145/45/1 146/48/1 147/59/1 148/60/1
f 149/61/1 150/62/1 151/56/1 152/55/1
f 153/37/1 154/38/1 155/39/1 156/40/1
f 157/57/1 158/58/1 159/54/1 160/53/1
f 161/45/1 162/48/1 163/59/1 164/60/1
f 165/61/1 166/62/1 167/56/1 168/55/1
f 169/41/1 170/42/1 171/38/1 172/37/1
f 173/57/1 174/58/1 175/54/1 176/53/1
f 177/45/1 178/48/1 179/59/1 180/60/1
f 181/61/1 182/62/1 183/56/1 184/55/1
f 185/51/1 186/52/1 187/42/1 188/41/1
f 189/57/1 190/58/1 191/54/1 192/53/1
f 193/45/1 194/48/1 195/59/1 196/60/1
f 197/61/1 198/62/1 199/56/1 200/55/1
f 201/37/1 202/38/1 203/39/1 204/40/1
f 205/57/1 206/58/1 207/54/1 208/53/1
f 209/45/1 210/48/1 211/59/1 212/60/1
f 213/61/1 214/62/1 215/56/1 216/55/1
f 217/41/1 218/42/1 219/38/1 220/37/1
f 221/57/1 222/58/1 223/54/1 224/53/1
f 225/58/1 226/61/1 227/55/1 228/54/1
f 229/61/1 230/62/1 231/56/1 232/55/1
f 233/51/1 234/52/1 235/42/1 236/41/1
f 237/63/1 238/64/1 239/58/1 240/57/1
f 241/64/1 242/65/1 243/61/1 244/58/1
f 245/65/1 246/66/1 247/62/1 248/61/1
f 249/67/1 250/68/1 251/69/1 252/70/1
f 253/68/1 254/71/1 255/72/1 256/69/1
f 257/73/1 258/74/1 259/75/1 260/76/1
f 261/73/1 262/74/1 263/75/1 264/76/1
f 265/73/1 266/74/1 267/75/1 268/76/1
f 269/68/1 270/71/1 271/72/1 272/69/1
f 273/71/1 274/77/1 275/78/1 276/72/1
f 277/77/1 278/73/1 279/76/1 280/78/1
f 281/37/1 282/38/1 283/39/1 284/40/1
f 285/79/1 286/80/1 287/68/1 288/67/1
f 289/80/1 290/81/1 291/71/1 292/68/1
f 293/82/1 294/83/1 295/74/1 296/73/1
f 297/82/1 298/83/1 299/74/1 300/73/1
f 301/82/1 302/83/1 303/74/1 304/73/1
f 305/80/1 306/81/1 307/71/1 308/68/1
f 309/81/1 310/84/1 311/77/1 312/71/1
f 313/84/1 314/82/1 315/73/1 316/77/1
f 317/41/1 318/42/1 319/38/1 320/37/1
f 321/85/1 322/86/1 323/80/1 324/79/1
f 325/86/1 326/87/1 327/81/1 328/80/1
f 329/88/1 330/89/1 331/83/1 332/82/1
f 333/88/1 334/89/1 335/83/1 336/82/1
f 337/88/1 338/89/1 339/83/1 340/82/1
f 341/88/1 342/89/1 343/83/1 344/82/1
f 345/87/1 346/90/1 347/84/1 348/81/1
f 349/90/1 350/88/1 351/82/1 352/84/1
f 353/51/1 354/52/1 355/42/1 356/41/1

