# Tiled2Unity generated file. Do not modify by hand.
# Wavefront file for 'SmallMap2_mesh_0027.obj'

# Vertices (Count = 80)
v -5 -3 0
v -6.03125 -3 0
v -6.03125 -1.96875 0
v -5 -1.96875 0
v -6 -3 0
v -7.03125 -3 0
v -7.03125 -1.96875 0
v -6 -1.96875 0
v -5 -4 0
v -6.03125 -4 0
v -6.03125 -2.96875 0
v -5 -2.96875 0
v -6 -4 0
v -7.03125 -4 0
v -7.03125 -2.96875 0
v -6 -2.96875 0
v -8 -5 0
v -9.03125 -5 0
v -9.03125 -3.96875 0
v -8 -3.96875 0
v -9 -5 0
v -10.03125 -5 0
v -10.03125 -3.96875 0
v -9 -3.96875 0
v -8 -6 0
v -9.03125 -6 0
v -9.03125 -4.96875 0
v -8 -4.96875 0
v -9 -6 0
v -10.03125 -6 0
v -10.03125 -4.96875 0
v -9 -4.96875 0
v -2 -7 0
v -3.03125 -7 0
v -3.03125 -5.96875 0
v -2 -5.96875 0
v -3 -7 0
v -4.03125 -7 0
v -4.03125 -5.96875 0
v -3 -5.96875 0
v -8 -7 0
v -9.03125 -7 0
v -9.03125 -5.96875 0
v -8 -5.96875 0
v -9 -7 0
v -10.03125 -7 0
v -10.03125 -5.96875 0
v -9 -5.96875 0
v -2 -8 0
v -3.03125 -8 0
v -3.03125 -6.96875 0
v -2 -6.96875 0
v -3 -8 0
v -4.03125 -8 0
v -4.03125 -6.96875 0
v -3 -6.96875 0
v -2 -9 0
v -3.03125 -9 0
v -3.03125 -7.96875 0
v -2 -7.96875 0
v -3 -9 0
v -4.03125 -9 0
v -4.03125 -7.96875 0
v -3 -7.96875 0
v -2 -10 0
v -3.03125 -10 0
v -3.03125 -8.96875 0
v -2 -8.96875 0
v -3 -10 0
v -4.03125 -10 0
v -4.03125 -8.96875 0
v -3 -8.96875 0
v -2 -11 0
v -3.03125 -11 0
v -3.03125 -9.96875 0
v -2 -9.96875 0
v -3 -11 0
v -4.03125 -11 0
v -4.03125 -9.96875 0
v -3 -9.96875 0

# Texture cooridinates (Count = 39)
vt 0.5 0.953125
vt 0.5625 0.953125
vt 0.5625 1
vt 0.5 1
vt 0.625 0.953125
vt 0.625 1
vt 0.5 0.90625
vt 0.5625 0.90625
vt 0.625 0.90625
vt 0.125 0.109375
vt 0.1875 0.109375
vt 0.1875 0.15625
vt 0.125 0.15625
vt 0.25 0.109375
vt 0.25 0.15625
vt 0.125 0.0625
vt 0.1875 0.0625
vt 0.25 0.0625
vt 0 0.90625
vt 0.0625 0.90625
vt 0.0625 0.953125
vt 0 0.953125
vt 0.125 0.90625
vt 0.125 0.953125
vt 0.125 0.015625
vt 0.1875 0.015625
vt 0.25 0.015625
vt 0 0.859375
vt 0.0625 0.859375
vt 0.125 0.859375
vt 0 0.8125
vt 0.0625 0.8125
vt 0.125 0.8125
vt 0 0.765625
vt 0.0625 0.765625
vt 0.125 0.765625
vt 0 0.71875
vt 0.0625 0.71875
vt 0.125 0.71875

# Normal
vn 0 0 -1

# Mesh description
g SmallMap2_mesh_0027

# Faces
f 1/1/1 2/2/1 3/3/1 4/4/1
f 5/2/1 6/5/1 7/6/1 8/3/1
f 9/7/1 10/8/1 11/2/1 12/1/1
f 13/8/1 14/9/1 15/5/1 16/2/1
f 17/10/1 18/11/1 19/12/1 20/13/1
f 21/11/1 22/14/1 23/15/1 24/12/1
f 25/16/1 26/17/1 27/11/1 28/10/1
f 29/17/1 30/18/1 31/14/1 32/11/1
f 33/19/1 34/20/1 35/21/1 36/22/1
f 37/20/1 38/23/1 39/24/1 40/21/1
f 41/25/1 42/26/1 43/17/1 44/16/1
f 45/26/1 46/27/1 47/18/1 48/17/1
f 49/28/1 50/29/1 51/20/1 52/19/1
f 53/29/1 54/30/1 55/23/1 56/20/1
f 57/31/1 58/32/1 59/29/1 60/28/1
f 61/32/1 62/33/1 63/30/1 64/29/1
f 65/34/1 66/35/1 67/32/1 68/31/1
f 69/35/1 70/36/1 71/33/1 72/32/1
f 73/37/1 74/38/1 75/35/1 76/34/1
f 77/38/1 78/39/1 79/36/1 80/35/1

