# Tiled2Unity generated file. Do not modify by hand.
# Wavefront file for 'SmallMap2_mesh_0028.obj'

# Vertices (Count = 76)
v -22 -6 0
v -23 -6 0
v -23 -5 0
v -22 -5 0
v -12 -8 0
v -13 -8 0
v -13 -7 0
v -12 -7 0
v -12 -9 0
v -13 -9 0
v -13 -8 0
v -12 -8 0
v -13 -9 0
v -14 -9 0
v -14 -8 0
v -13 -8 0
v -16 -12 0
v -17 -12 0
v -17 -11 0
v -16 -11 0
v -9 -16 0
v -10 -16 0
v -10 -15 0
v -9 -15 0
v -7 -17 0
v -8 -17 0
v -8 -16 0
v -7 -16 0
v -28 -18 0
v -29 -18 0
v -29 -17 0
v -28 -17 0
v -35 -18 0
v -36 -18 0
v -36 -17 0
v -35 -17 0
v -25 -21 0
v -26 -21 0
v -26 -20 0
v -25 -20 0
v -28 -21 0
v -29 -21 0
v -29 -20 0
v -28 -20 0
v -31 -21 0
v -32 -21 0
v -32 -20 0
v -31 -20 0
v -35 -21 0
v -36 -21 0
v -36 -20 0
v -35 -20 0
v -11 -22 0
v -12 -22 0
v -12 -21 0
v -11 -21 0
v -18 -22 0
v -19 -22 0
v -19 -21 0
v -18 -21 0
v -26 -23 0
v -27 -23 0
v -27 -22 0
v -26 -22 0
v -30 -23 0
v -31 -23 0
v -31 -22 0
v -30 -22 0
v -23 -24 0
v -24 -24 0
v -24 -23 0
v -23 -23 0
v -20 -25 0
v -21 -25 0
v -21 -24 0
v -20 -24 0

# Texture cooridinates (Count = 19)
vt 0 0.75
vt 0.2 0.75
vt 0.2 1
vt 0 1
vt 0.6 0
vt 0.8 0
vt 0.8 0.25
vt 0.6 0.25
vt 0.2 0.5
vt 0.4 0.5
vt 0.4 0.75
vt 0.6 0.5
vt 0.6 0.75
vt 0.2 0.25
vt 0.4 0.25
vt 0.8 0.5
vt 0.8 0.75
vt 0 0.25
vt 0 0.5

# Normal
vn 0 0 -1

# Mesh description
g SmallMap2_mesh_0028

# Faces
f 1/1/1 2/2/1 3/3/1 4/4/1
f 5/5/1 6/6/1 7/7/1 8/8/1
f 9/9/1 10/10/1 11/11/1 12/2/1
f 13/1/1 14/2/1 15/3/1 16/4/1
f 17/10/1 18/12/1 19/13/1 20/11/1
f 21/14/1 22/15/1 23/10/1 24/9/1
f 25/2/1 26/1/1 27/4/1 28/3/1
f 29/12/1 30/16/1 31/17/1 32/13/1
f 33/12/1 34/16/1 35/17/1 36/13/1
f 37/1/1 38/2/1 39/3/1 40/4/1
f 41/10/1 42/12/1 43/13/1 44/11/1
f 45/12/1 46/16/1 47/17/1 48/13/1
f 49/2/1 50/1/1 51/4/1 52/3/1
f 53/12/1 54/16/1 55/17/1 56/13/1
f 57/14/1 58/15/1 59/10/1 60/9/1
f 61/18/1 62/14/1 63/9/1 64/19/1
f 65/12/1 66/16/1 67/17/1 68/13/1
f 69/12/1 70/16/1 71/17/1 72/13/1
f 73/2/1 74/1/1 75/4/1 76/3/1

