# Tiled2Unity generated file. Do not modify by hand.
# Wavefront file for 'SmallMap2_mesh_0002.obj'

# Vertices (Count = 424)
v -11 -5 0
v -12 -5 0
v -12 -4 0
v -11 -4 0
v -12 -5 0
v -13 -5 0
v -13 -4 0
v -12 -4 0
v -13 -5 0
v -14 -5 0
v -14 -4 0
v -13 -4 0
v -14 -5 0
v -15 -5 0
v -15 -4 0
v -14 -4 0
v -15 -5 0
v -16 -5 0
v -16 -4 0
v -15 -4 0
v -16 -5 0
v -17 -5 0
v -17 -4 0
v -16 -4 0
v -17 -5 0
v -18 -5 0
v -18 -4 0
v -17 -4 0
v -18 -5 0
v -19 -5 0
v -19 -4 0
v -18 -4 0
v -19 -5 0
v -20 -5 0
v -20 -4 0
v -19 -4 0
v -20 -5 0
v -21 -5 0
v -21 -4 0
v -20 -4 0
v -21 -5 0
v -22 -5 0
v -22 -4 0
v -21 -4 0
v -22 -5 0
v -23 -5 0
v -23 -4 0
v -22 -4 0
v -23 -5 0
v -24 -5 0
v -24 -4 0
v -23 -4 0
v -11 -6 0
v -12 -6 0
v -12 -5 0
v -11 -5 0
v -12 -6 0
v -13 -6 0
v -13 -5 0
v -12 -5 0
v -13 -6 0
v -14 -6 0
v -14 -5 0
v -13 -5 0
v -14 -6 0
v -15 -6 0
v -15 -5 0
v -14 -5 0
v -15 -6 0
v -16 -6 0
v -16 -5 0
v -15 -5 0
v -16 -6 0
v -17 -6 0
v -17 -5 0
v -16 -5 0
v -17 -6 0
v -18 -6 0
v -18 -5 0
v -17 -5 0
v -18 -6 0
v -19 -6 0
v -19 -5 0
v -18 -5 0
v -19 -6 0
v -20 -6 0
v -20 -5 0
v -19 -5 0
v -20 -6 0
v -21 -6 0
v -21 -5 0
v -20 -5 0
v -21 -6 0
v -22 -6 0
v -22 -5 0
v -21 -5 0
v -22 -6 0
v -23 -6 0
v -23 -5 0
v -22 -5 0
v -23 -6 0
v -24 -6 0
v -24 -5 0
v -23 -5 0
v -11 -7 0
v -12 -7 0
v -12 -6 0
v -11 -6 0
v -12 -7 0
v -13 -7 0
v -13 -6 0
v -12 -6 0
v -13 -7 0
v -14 -7 0
v -14 -6 0
v -13 -6 0
v -14 -7 0
v -15 -7 0
v -15 -6 0
v -14 -6 0
v -15 -7 0
v -16 -7 0
v -16 -6 0
v -15 -6 0
v -16 -7 0
v -17 -7 0
v -17 -6 0
v -16 -6 0
v -17 -7 0
v -18 -7 0
v -18 -6 0
v -17 -6 0
v -18 -7 0
v -19 -7 0
v -19 -6 0
v -18 -6 0
v -19 -7 0
v -20 -7 0
v -20 -6 0
v -19 -6 0
v -20 -7 0
v -21 -7 0
v -21 -6 0
v -20 -6 0
v -21 -7 0
v -22 -7 0
v -22 -6 0
v -21 -6 0
v -22 -7 0
v -23 -7 0
v -23 -6 0
v -22 -6 0
v -23 -7 0
v -24 -7 0
v -24 -6 0
v -23 -6 0
v -11 -8 0
v -12 -8 0
v -12 -7 0
v -11 -7 0
v -12 -8 0
v -13 -8 0
v -13 -7 0
v -12 -7 0
v -13 -8 0
v -14 -8 0
v -14 -7 0
v -13 -7 0
v -14 -8 0
v -15 -8 0
v -15 -7 0
v -14 -7 0
v -15 -8 0
v -16 -8 0
v -16 -7 0
v -15 -7 0
v -16 -8 0
v -17 -8 0
v -17 -7 0
v -16 -7 0
v -17 -8 0
v -18 -8 0
v -18 -7 0
v -17 -7 0
v -18 -8 0
v -19 -8 0
v -19 -7 0
v -18 -7 0
v -19 -8 0
v -20 -8 0
v -20 -7 0
v -19 -7 0
v -20 -8 0
v -21 -8 0
v -21 -7 0
v -20 -7 0
v -21 -8 0
v -22 -8 0
v -22 -7 0
v -21 -7 0
v -22 -8 0
v -23 -8 0
v -23 -7 0
v -22 -7 0
v -23 -8 0
v -24 -8 0
v -24 -7 0
v -23 -7 0
v -11 -9 0
v -12 -9 0
v -12 -8 0
v -11 -8 0
v -12 -9 0
v -13 -9 0
v -13 -8 0
v -12 -8 0
v -13 -9 0
v -14 -9 0
v -14 -8 0
v -13 -8 0
v -14 -9 0
v -15 -9 0
v -15 -8 0
v -14 -8 0
v -15 -9 0
v -16 -9 0
v -16 -8 0
v -15 -8 0
v -16 -9 0
v -17 -9 0
v -17 -8 0
v -16 -8 0
v -17 -9 0
v -18 -9 0
v -18 -8 0
v -17 -8 0
v -18 -9 0
v -19 -9 0
v -19 -8 0
v -18 -8 0
v -19 -9 0
v -20 -9 0
v -20 -8 0
v -19 -8 0
v -20 -9 0
v -21 -9 0
v -21 -8 0
v -20 -8 0
v -21 -9 0
v -22 -9 0
v -22 -8 0
v -21 -8 0
v -22 -9 0
v -23 -9 0
v -23 -8 0
v -22 -8 0
v -23 -9 0
v -24 -9 0
v -24 -8 0
v -23 -8 0
v -11 -10 0
v -12 -10 0
v -12 -9 0
v -11 -9 0
v -12 -10 0
v -13 -10 0
v -13 -9 0
v -12 -9 0
v -13 -10 0
v -14 -10 0
v -14 -9 0
v -13 -9 0
v -14 -10 0
v -15 -10 0
v -15 -9 0
v -14 -9 0
v -15 -10 0
v -16 -10 0
v -16 -9 0
v -15 -9 0
v -16 -10 0
v -17 -10 0
v -17 -9 0
v -16 -9 0
v -17 -10 0
v -18 -10 0
v -18 -9 0
v -17 -9 0
v -18 -10 0
v -19 -10 0
v -19 -9 0
v -18 -9 0
v -19 -10 0
v -20 -10 0
v -20 -9 0
v -19 -9 0
v -20 -10 0
v -21 -10 0
v -21 -9 0
v -20 -9 0
v -21 -10 0
v -22 -10 0
v -22 -9 0
v -21 -9 0
v -22 -10 0
v -23 -10 0
v -23 -9 0
v -22 -9 0
v -23 -10 0
v -24 -10 0
v -24 -9 0
v -23 -9 0
v -11 -11 0
v -12 -11 0
v -12 -10 0
v -11 -10 0
v -12 -11 0
v -13 -11 0
v -13 -10 0
v -12 -10 0
v -13 -11 0
v -14 -11 0
v -14 -10 0
v -13 -10 0
v -14 -11 0
v -15 -11 0
v -15 -10 0
v -14 -10 0
v -15 -11 0
v -16 -11 0
v -16 -10 0
v -15 -10 0
v -16 -11 0
v -17 -11 0
v -17 -10 0
v -16 -10 0
v -17 -11 0
v -18 -11 0
v -18 -10 0
v -17 -10 0
v -18 -11 0
v -19 -11 0
v -19 -10 0
v -18 -10 0
v -19 -11 0
v -20 -11 0
v -20 -10 0
v -19 -10 0
v -20 -11 0
v -21 -11 0
v -21 -10 0
v -20 -10 0
v -21 -11 0
v -22 -11 0
v -22 -10 0
v -21 -10 0
v -22 -11 0
v -23 -11 0
v -23 -10 0
v -22 -10 0
v -23 -11 0
v -24 -11 0
v -24 -10 0
v -23 -10 0
v -36 -11 0
v -37 -11 0
v -37 -10 0
v -36 -10 0
v -11 -12 0
v -12 -12 0
v -12 -11 0
v -11 -11 0
v -12 -12 0
v -13 -12 0
v -13 -11 0
v -12 -11 0
v -13 -12 0
v -14 -12 0
v -14 -11 0
v -13 -11 0
v -14 -12 0
v -15 -12 0
v -15 -11 0
v -14 -11 0
v -15 -12 0
v -16 -12 0
v -16 -11 0
v -15 -11 0
v -16 -12 0
v -17 -12 0
v -17 -11 0
v -16 -11 0
v -17 -12 0
v -18 -12 0
v -18 -11 0
v -17 -11 0
v -18 -12 0
v -19 -12 0
v -19 -11 0
v -18 -11 0
v -19 -12 0
v -20 -12 0
v -20 -11 0
v -19 -11 0
v -20 -12 0
v -21 -12 0
v -21 -11 0
v -20 -11 0
v -21 -12 0
v -22 -12 0
v -22 -11 0
v -21 -11 0
v -22 -12 0
v -23 -12 0
v -23 -11 0
v -22 -11 0
v -23 -12 0
v -24 -12 0
v -24 -11 0
v -23 -11 0
v -4 -13 0
v -5 -13 0
v -5 -12 0
v -4 -12 0

# Texture cooridinates (Count = 17)
vt 0.3125 0.2678571
vt 0.375 0.2678571
vt 0.375 0.2857143
vt 0.3125 0.2857143
vt 0.4375 0.2678571
vt 0.4375 0.2857143
vt 0.3125 0.25
vt 0.375 0.25
vt 0.4375 0.25
vt 0.125 0.7321429
vt 0.1875 0.7321429
vt 0.1875 0.75
vt 0.125 0.75
vt 0.5 0.4821429
vt 0.5625 0.4821429
vt 0.5625 0.5
vt 0.5 0.5

# Normal
vn 0 0 -1

# Mesh description
g SmallMap2_mesh_0002

# Faces
f 1/1/1 2/2/1 3/3/1 4/4/1
f 5/2/1 6/5/1 7/6/1 8/3/1
f 9/2/1 10/5/1 11/6/1 12/3/1
f 13/2/1 14/5/1 15/6/1 16/3/1
f 17/2/1 18/5/1 19/6/1 20/3/1
f 21/2/1 22/5/1 23/6/1 24/3/1
f 25/2/1 26/5/1 27/6/1 28/3/1
f 29/2/1 30/5/1 31/6/1 32/3/1
f 33/2/1 34/5/1 35/6/1 36/3/1
f 37/2/1 38/5/1 39/6/1 40/3/1
f 41/2/1 42/5/1 43/6/1 44/3/1
f 45/2/1 46/5/1 47/6/1 48/3/1
f 49/2/1 50/5/1 51/6/1 52/3/1
f 53/7/1 54/8/1 55/2/1 56/1/1
f 57/8/1 58/9/1 59/5/1 60/2/1
f 61/8/1 62/9/1 63/5/1 64/2/1
f 65/8/1 66/9/1 67/5/1 68/2/1
f 69/8/1 70/9/1 71/5/1 72/2/1
f 73/8/1 74/9/1 75/5/1 76/2/1
f 77/8/1 78/9/1 79/5/1 80/2/1
f 81/8/1 82/9/1 83/5/1 84/2/1
f 85/8/1 86/9/1 87/5/1 88/2/1
f 89/8/1 90/9/1 91/5/1 92/2/1
f 93/8/1 94/9/1 95/5/1 96/2/1
f 97/8/1 98/9/1 99/5/1 100/2/1
f 101/8/1 102/9/1 103/5/1 104/2/1
f 105/7/1 106/8/1 107/2/1 108/1/1
f 109/8/1 110/9/1 111/5/1 112/2/1
f 113/8/1 114/9/1 115/5/1 116/2/1
f 117/8/1 118/9/1 119/5/1 120/2/1
f 121/8/1 122/9/1 123/5/1 124/2/1
f 125/8/1 126/9/1 127/5/1 128/2/1
f 129/8/1 130/9/1 131/5/1 132/2/1
f 133/8/1 134/9/1 135/5/1 136/2/1
f 137/8/1 138/9/1 139/5/1 140/2/1
f 141/8/1 142/9/1 143/5/1 144/2/1
f 145/8/1 146/9/1 147/5/1 148/2/1
f 149/8/1 150/9/1 151/5/1 152/2/1
f 153/8/1 154/9/1 155/5/1 156/2/1
f 157/7/1 158/8/1 159/2/1 160/1/1
f 161/8/1 162/9/1 163/5/1 164/2/1
f 165/8/1 166/9/1 167/5/1 168/2/1
f 169/8/1 170/9/1 171/5/1 172/2/1
f 173/8/1 174/9/1 175/5/1 176/2/1
f 177/8/1 178/9/1 179/5/1 180/2/1
f 181/8/1 182/9/1 183/5/1 184/2/1
f 185/8/1 186/9/1 187/5/1 188/2/1
f 189/8/1 190/9/1 191/5/1 192/2/1
f 193/8/1 194/9/1 195/5/1 196/2/1
f 197/8/1 198/9/1 199/5/1 200/2/1
f 201/8/1 202/9/1 203/5/1 204/2/1
f 205/8/1 206/9/1 207/5/1 208/2/1
f 209/7/1 210/8/1 211/2/1 212/1/1
f 213/8/1 214/9/1 215/5/1 216/2/1
f 217/8/1 218/9/1 219/5/1 220/2/1
f 221/8/1 222/9/1 223/5/1 224/2/1
f 225/8/1 226/9/1 227/5/1 228/2/1
f 229/8/1 230/9/1 231/5/1 232/2/1
f 233/8/1 234/9/1 235/5/1 236/2/1
f 237/8/1 238/9/1 239/5/1 240/2/1
f 241/8/1 242/9/1 243/5/1 244/2/1
f 245/8/1 246/9/1 247/5/1 248/2/1
f 249/8/1 250/9/1 251/5/1 252/2/1
f 253/8/1 254/9/1 255/5/1 256/2/1
f 257/8/1 258/9/1 259/5/1 260/2/1
f 261/7/1 262/8/1 263/2/1 264/1/1
f 265/8/1 266/9/1 267/5/1 268/2/1
f 269/8/1 270/9/1 271/5/1 272/2/1
f 273/8/1 274/9/1 275/5/1 276/2/1
f 277/8/1 278/9/1 279/5/1 280/2/1
f 281/8/1 282/9/1 283/5/1 284/2/1
f 285/8/1 286/9/1 287/5/1 288/2/1
f 289/8/1 290/9/1 291/5/1 292/2/1
f 293/8/1 294/9/1 295/5/1 296/2/1
f 297/8/1 298/9/1 299/5/1 300/2/1
f 301/8/1 302/9/1 303/5/1 304/2/1
f 305/8/1 306/9/1 307/5/1 308/2/1
f 309/8/1 310/9/1 311/5/1 312/2/1
f 313/7/1 314/8/1 315/2/1 316/1/1
f 317/8/1 318/9/1 319/5/1 320/2/1
f 321/8/1 322/9/1 323/5/1 324/2/1
f 325/8/1 326/9/1 327/5/1 328/2/1
f 329/8/1 330/9/1 331/5/1 332/2/1
f 333/8/1 334/9/1 335/5/1 336/2/1
f 337/8/1 338/9/1 339/5/1 340/2/1
f 341/8/1 342/9/1 343/5/1 344/2/1
f 345/8/1 346/9/1 347/5/1 348/2/1
f 349/8/1 350/9/1 351/5/1 352/2/1
f 353/8/1 354/9/1 355/5/1 356/2/1
f 357/8/1 358/9/1 359/5/1 360/2/1
f 361/8/1 362/9/1 363/5/1 364/2/1
f 365/10/1 366/11/1 367/12/1 368/13/1
f 369/7/1 370/8/1 371/2/1 372/1/1
f 373/8/1 374/9/1 375/5/1 376/2/1
f 377/8/1 378/9/1 379/5/1 380/2/1
f 381/8/1 382/9/1 383/5/1 384/2/1
f 385/8/1 386/9/1 387/5/1 388/2/1
f 389/8/1 390/9/1 391/5/1 392/2/1
f 393/8/1 394/9/1 395/5/1 396/2/1
f 397/8/1 398/9/1 399/5/1 400/2/1
f 401/8/1 402/9/1 403/5/1 404/2/1
f 405/8/1 406/9/1 407/5/1 408/2/1
f 409/8/1 410/9/1 411/5/1 412/2/1
f 413/8/1 414/9/1 415/5/1 416/2/1
f 417/8/1 418/9/1 419/5/1 420/2/1
f 421/14/1 422/15/1 423/16/1 424/17/1

