# Tiled2Unity generated file. Do not modify by hand.
# Wavefront file for 'SmallMap2_mesh_0012.obj'

# Vertices (Count = 20)
v -11 -4 0
v -12 -4 0
v -12 -3 0
v -11 -3 0
v -16 -4 0
v -17 -4 0
v -17 -3 0
v -16 -3 0
v -17 -4 0
v -18 -4 0
v -18 -3 0
v -17 -3 0
v -21 -4 0
v -22 -4 0
v -22 -3 0
v -21 -3 0
v -22 -4 0
v -23 -4 0
v -23 -3 0
v -22 -3 0

# Texture cooridinates (Count = 18)
vt 0.6428571 0.6388889
vt 0.7142857 0.6388889
vt 0.7142857 0.6666666
vt 0.6428571 0.6666666
vt 0.5714286 0.7222222
vt 0.6428571 0.7222222
vt 0.6428571 0.75
vt 0.5714286 0.75
vt 0.5 0.7222222
vt 0.5 0.75
vt 0.07142857 0.5833334
vt 0.1428571 0.5833334
vt 0.1428571 0.6111111
vt 0.07142857 0.6111111
vt 0.2142857 0.5833334
vt 0.2857143 0.5833334
vt 0.2857143 0.6111111
vt 0.2142857 0.6111111

# Normal
vn 0 0 -1

# Mesh description
g SmallMap2_mesh_0012

# Faces
f 1/1/1 2/2/1 3/3/1 4/4/1
f 5/5/1 6/6/1 7/7/1 8/8/1
f 9/9/1 10/5/1 11/8/1 12/10/1
f 13/11/1 14/12/1 15/13/1 16/14/1
f 17/15/1 18/16/1 19/17/1 20/18/1

