# Tiled2Unity generated file. Do not modify by hand.
# Wavefront file for 'SmallMap2_mesh_0008.obj'

# Vertices (Count = 16)
v -5 -2 0
v -6.03125 -2 0
v -6.03125 -0.96875 0
v -5 -0.96875 0
v -6 -2 0
v -7.03125 -2 0
v -7.03125 -0.96875 0
v -6 -0.96875 0
v -5 -3 0
v -6.03125 -3 0
v -6.03125 -1.96875 0
v -5 -1.96875 0
v -6 -3 0
v -7.03125 -3 0
v -7.03125 -1.96875 0
v -6 -1.96875 0

# Texture cooridinates (Count = 9)
vt 0.5 0.859375
vt 0.5625 0.859375
vt 0.5625 0.90625
vt 0.5 0.90625
vt 0.625 0.859375
vt 0.625 0.90625
vt 0.5 0.8125
vt 0.5625 0.8125
vt 0.625 0.8125

# Normal
vn 0 0 -1

# Mesh description
g SmallMap2_mesh_0008

# Faces
f 1/1/1 2/2/1 3/3/1 4/4/1
f 5/2/1 6/5/1 7/6/1 8/3/1
f 9/7/1 10/8/1 11/2/1 12/1/1
f 13/8/1 14/9/1 15/5/1 16/2/1

